<?xml version="1.0" encoding="utf-8" standalone="no"?>
<!DOCTYPE svg PUBLIC "-//W3C//DTD SVG 1.1//EN"
  "http://www.w3.org/Graphics/SVG/1.1/DTD/svg11.dtd">
<svg xmlns:xlink="http://www.w3.org/1999/xlink" width="459.641012pt" height="369.801356pt" viewBox="0 0 459.641012 369.801356" xmlns="http://www.w3.org/2000/svg" version="1.1">
 <metadata>
  <rdf:RDF xmlns:dc="http://purl.org/dc/elements/1.1/" xmlns:cc="http://creativecommons.org/ns#" xmlns:rdf="http://www.w3.org/1999/02/22-rdf-syntax-ns#">
   <cc:Work>
    <dc:type rdf:resource="http://purl.org/dc/dcmitype/StillImage"/>
    <dc:date>2024-01-13T23:17:31.989717</dc:date>
    <dc:format>image/svg+xml</dc:format>
    <dc:creator>
     <cc:Agent>
      <dc:title>Matplotlib v3.7.1, https://matplotlib.org/</dc:title>
     </cc:Agent>
    </dc:creator>
   </cc:Work>
  </rdf:RDF>
 </metadata>
 <defs>
  <style type="text/css">*{stroke-linejoin: round; stroke-linecap: butt}</style>
 </defs>
 <g id="figure_1">
  <g id="patch_1">
   <path d="M 0 369.801356 
L 459.641012 369.801356 
L 459.641012 0 
L 0 0 
z
" style="fill: #ffffff"/>
  </g>
  <g id="axes_1">
   <g id="patch_2">
    <path d="M 41.141012 165.153603 
L 459.641012 165.153603 
L 459.641012 0.886936 
L 41.141012 0.886936 
z
" style="fill: #ffffff"/>
   </g>
   <g id="matplotlib.axis_1">
    <g id="xtick_1">
     <g id="line2d_1">
      <defs>
       <path id="m0609aff1e6" d="M 0 0 
L 0 -3.5 
" style="stroke: #000000; stroke-width: 0.8"/>
      </defs>
      <g>
       <use xlink:href="#m0609aff1e6" x="60.16374" y="165.153603" style="stroke: #000000; stroke-width: 0.8"/>
      </g>
     </g>
    </g>
    <g id="xtick_2">
     <g id="line2d_2">
      <g>
       <use xlink:href="#m0609aff1e6" x="119.609762" y="165.153603" style="stroke: #000000; stroke-width: 0.8"/>
      </g>
     </g>
    </g>
    <g id="xtick_3">
     <g id="line2d_3">
      <g>
       <use xlink:href="#m0609aff1e6" x="179.055785" y="165.153603" style="stroke: #000000; stroke-width: 0.8"/>
      </g>
     </g>
    </g>
    <g id="xtick_4">
     <g id="line2d_4">
      <g>
       <use xlink:href="#m0609aff1e6" x="238.501808" y="165.153603" style="stroke: #000000; stroke-width: 0.8"/>
      </g>
     </g>
    </g>
    <g id="xtick_5">
     <g id="line2d_5">
      <g>
       <use xlink:href="#m0609aff1e6" x="297.947831" y="165.153603" style="stroke: #000000; stroke-width: 0.8"/>
      </g>
     </g>
    </g>
    <g id="xtick_6">
     <g id="line2d_6">
      <g>
       <use xlink:href="#m0609aff1e6" x="357.393853" y="165.153603" style="stroke: #000000; stroke-width: 0.8"/>
      </g>
     </g>
    </g>
    <g id="xtick_7">
     <g id="line2d_7">
      <g>
       <use xlink:href="#m0609aff1e6" x="416.839876" y="165.153603" style="stroke: #000000; stroke-width: 0.8"/>
      </g>
     </g>
    </g>
   </g>
   <g id="matplotlib.axis_2">
    <g id="ytick_1">
     <g id="line2d_8">
      <defs>
       <path id="m0eb36a5d81" d="M 0 0 
L 3.5 0 
" style="stroke: #000000; stroke-width: 0.8"/>
      </defs>
      <g>
       <use xlink:href="#m0eb36a5d81" x="41.141012" y="149.373194" style="stroke: #000000; stroke-width: 0.8"/>
      </g>
     </g>
     <g id="text_1">
      <!-- $\mathdefault{0.2}$ -->
      <g transform="translate(18.94396 154.696934) scale(0.15 -0.15)">
       <defs>
        <path id="CMR17-30" d="M 2688 2038 
C 2688 2430 2682 3099 2413 3613 
C 2176 4063 1798 4224 1466 4224 
C 1158 4224 768 4082 525 3620 
C 269 3137 243 2539 243 2038 
C 243 1671 250 1112 448 623 
C 723 -39 1216 -128 1466 -128 
C 1760 -128 2208 -7 2470 604 
C 2662 1048 2688 1568 2688 2038 
z
M 1466 -26 
C 1056 -26 813 328 723 816 
C 653 1196 653 1749 653 2109 
C 653 2604 653 3015 736 3407 
C 858 3954 1216 4121 1466 4121 
C 1728 4121 2067 3947 2189 3420 
C 2272 3054 2278 2623 2278 2109 
C 2278 1691 2278 1176 2202 797 
C 2067 96 1690 -26 1466 -26 
z
" transform="scale(0.015625)"/>
        <path id="CMMI12-3a" d="M 1178 307 
C 1178 492 1024 620 870 620 
C 685 620 557 467 557 313 
C 557 128 710 0 864 0 
C 1050 0 1178 153 1178 307 
z
" transform="scale(0.015625)"/>
        <path id="CMR17-32" d="M 2669 990 
L 2554 990 
C 2490 537 2438 460 2413 422 
C 2381 371 1920 371 1830 371 
L 602 371 
C 832 620 1280 1073 1824 1596 
C 2214 1966 2669 2400 2669 3033 
C 2669 3788 2067 4224 1395 4224 
C 691 4224 262 3603 262 3027 
C 262 2777 448 2745 525 2745 
C 589 2745 781 2783 781 3007 
C 781 3206 614 3264 525 3264 
C 486 3264 448 3257 422 3244 
C 544 3788 915 4057 1306 4057 
C 1862 4057 2227 3616 2227 3033 
C 2227 2477 1901 1998 1536 1583 
L 262 147 
L 262 0 
L 2515 0 
L 2669 990 
z
" transform="scale(0.015625)"/>
       </defs>
       <use xlink:href="#CMR17-30" transform="scale(0.996264)"/>
       <use xlink:href="#CMMI12-3a" transform="translate(45.690477 0) scale(0.996264)"/>
       <use xlink:href="#CMR17-32" transform="translate(72.787654 0) scale(0.996264)"/>
      </g>
     </g>
    </g>
    <g id="ytick_2">
     <g id="line2d_9">
      <g>
       <use xlink:href="#m0eb36a5d81" x="41.141012" y="113.36083" style="stroke: #000000; stroke-width: 0.8"/>
      </g>
     </g>
     <g id="text_2">
      <!-- $\mathdefault{0.4}$ -->
      <g transform="translate(18.94396 118.68457) scale(0.15 -0.15)">
       <defs>
        <path id="CMR17-34" d="M 2150 4147 
C 2150 4281 2144 4288 2029 4288 
L 128 1254 
L 128 1088 
L 1779 1088 
L 1779 460 
C 1779 230 1766 166 1318 166 
L 1197 166 
L 1197 0 
C 1402 12 1747 12 1965 12 
C 2182 12 2528 12 2733 0 
L 2733 166 
L 2611 166 
C 2163 166 2150 230 2150 460 
L 2150 1088 
L 2803 1088 
L 2803 1254 
L 2150 1254 
L 2150 4147 
z
M 1798 3723 
L 1798 1254 
L 256 1254 
L 1798 3723 
z
" transform="scale(0.015625)"/>
       </defs>
       <use xlink:href="#CMR17-30" transform="scale(0.996264)"/>
       <use xlink:href="#CMMI12-3a" transform="translate(45.690477 0) scale(0.996264)"/>
       <use xlink:href="#CMR17-34" transform="translate(72.787654 0) scale(0.996264)"/>
      </g>
     </g>
    </g>
    <g id="ytick_3">
     <g id="line2d_10">
      <g>
       <use xlink:href="#m0eb36a5d81" x="41.141012" y="77.348467" style="stroke: #000000; stroke-width: 0.8"/>
      </g>
     </g>
     <g id="text_3">
      <!-- $\mathdefault{0.6}$ -->
      <g transform="translate(18.94396 82.672207) scale(0.15 -0.15)">
       <defs>
        <path id="CMR17-36" d="M 678 2198 
C 678 3712 1395 4076 1811 4076 
C 1946 4076 2272 4049 2400 3782 
C 2298 3782 2106 3782 2106 3558 
C 2106 3385 2246 3328 2336 3328 
C 2394 3328 2566 3353 2566 3571 
C 2566 3987 2246 4224 1805 4224 
C 1043 4224 243 3411 243 2011 
C 243 257 966 -128 1478 -128 
C 2099 -128 2688 431 2688 1295 
C 2688 2101 2170 2688 1517 2688 
C 1126 2688 838 2430 678 1979 
L 678 2198 
z
M 1478 25 
C 691 25 691 1212 691 1450 
C 691 1914 909 2585 1504 2585 
C 1613 2585 1926 2585 2138 2140 
C 2253 1889 2253 1624 2253 1302 
C 2253 954 2253 696 2118 438 
C 1978 173 1773 25 1478 25 
z
" transform="scale(0.015625)"/>
       </defs>
       <use xlink:href="#CMR17-30" transform="scale(0.996264)"/>
       <use xlink:href="#CMMI12-3a" transform="translate(45.690477 0) scale(0.996264)"/>
       <use xlink:href="#CMR17-36" transform="translate(72.787654 0) scale(0.996264)"/>
      </g>
     </g>
    </g>
    <g id="ytick_4">
     <g id="line2d_11">
      <g>
       <use xlink:href="#m0eb36a5d81" x="41.141012" y="41.336104" style="stroke: #000000; stroke-width: 0.8"/>
      </g>
     </g>
     <g id="text_4">
      <!-- $\mathdefault{0.8}$ -->
      <g transform="translate(18.94396 46.659844) scale(0.15 -0.15)">
       <defs>
        <path id="CMR17-38" d="M 1741 2289 
C 2144 2494 2554 2803 2554 3298 
C 2554 3884 1990 4224 1472 4224 
C 890 4224 378 3800 378 3215 
C 378 3054 416 2777 666 2533 
C 730 2469 998 2276 1171 2154 
C 883 2006 211 1652 211 945 
C 211 282 838 -128 1459 -128 
C 2144 -128 2720 366 2720 1022 
C 2720 1607 2330 1877 2074 2051 
L 1741 2289 
z
M 902 2855 
C 851 2887 595 3086 595 3388 
C 595 3781 998 4076 1459 4076 
C 1965 4076 2336 3716 2336 3298 
C 2336 2700 1670 2359 1638 2359 
C 1632 2359 1626 2359 1574 2398 
L 902 2855 
z
M 2080 1536 
C 2176 1466 2483 1253 2483 861 
C 2483 385 2010 25 1472 25 
C 890 25 448 443 448 951 
C 448 1459 838 1884 1280 2083 
L 2080 1536 
z
" transform="scale(0.015625)"/>
       </defs>
       <use xlink:href="#CMR17-30" transform="scale(0.996264)"/>
       <use xlink:href="#CMMI12-3a" transform="translate(45.690477 0) scale(0.996264)"/>
       <use xlink:href="#CMR17-38" transform="translate(72.787654 0) scale(0.996264)"/>
      </g>
     </g>
    </g>
    <g id="ytick_5">
     <g id="line2d_12">
      <g>
       <use xlink:href="#m0eb36a5d81" x="41.141012" y="5.32374" style="stroke: #000000; stroke-width: 0.8"/>
      </g>
     </g>
     <g id="text_5">
      <!-- $\mathdefault{1.0}$ -->
      <g transform="translate(18.94396 10.64748) scale(0.15 -0.15)">
       <defs>
        <path id="CMR17-31" d="M 1702 4083 
C 1702 4217 1696 4224 1606 4224 
C 1357 3927 979 3833 621 3820 
C 602 3820 570 3820 563 3808 
C 557 3795 557 3782 557 3648 
C 755 3648 1088 3686 1344 3839 
L 1344 467 
C 1344 243 1331 166 781 166 
L 589 166 
L 589 0 
C 896 6 1216 12 1523 12 
C 1830 12 2150 6 2458 0 
L 2458 166 
L 2266 166 
C 1715 166 1702 236 1702 467 
L 1702 4083 
z
" transform="scale(0.015625)"/>
       </defs>
       <use xlink:href="#CMR17-31" transform="scale(0.996264)"/>
       <use xlink:href="#CMMI12-3a" transform="translate(45.690477 0) scale(0.996264)"/>
       <use xlink:href="#CMR17-30" transform="translate(72.787654 0) scale(0.996264)"/>
      </g>
     </g>
    </g>
    <g id="text_6">
     <!-- $ \langle S^z_0 S^z_3\rangle$ -->
     <g transform="translate(11.20797 104.52392) rotate(-90) scale(0.15 -0.15)">
      <defs>
       <path id="CMSY10-68" d="M 2099 4557 
C 2131 4627 2131 4640 2131 4672 
C 2131 4742 2074 4800 2003 4800 
C 1946 4800 1901 4768 1856 4653 
L 736 1715 
C 723 1677 704 1638 704 1600 
C 704 1580 704 1568 736 1491 
L 1856 -1447 
C 1882 -1517 1914 -1600 2003 -1600 
C 2074 -1600 2131 -1543 2131 -1472 
C 2131 -1453 2131 -1440 2099 -1370 
L 966 1600 
L 2099 4557 
z
" transform="scale(0.015625)"/>
       <path id="CMMI12-53" d="M 4064 4422 
C 4064 4480 4019 4480 4006 4480 
C 3981 4480 3974 4473 3898 4377 
C 3859 4332 3597 4002 3590 3996 
C 3379 4409 2957 4480 2688 4480 
C 1875 4480 1139 3742 1139 3024 
C 1139 2547 1427 2268 1741 2160 
C 1811 2134 2189 2033 2381 1988 
C 2707 1899 2790 1874 2925 1734 
C 2950 1702 3078 1556 3078 1258 
C 3078 667 2528 57 1888 57 
C 1363 57 781 279 781 991 
C 781 1112 806 1264 826 1328 
C 826 1347 832 1378 832 1391 
C 832 1417 819 1448 768 1448 
C 710 1448 704 1436 678 1328 
L 352 25 
C 352 19 326 -64 326 -71 
C 326 -128 378 -128 390 -128 
C 416 -128 422 -122 499 -26 
L 794 356 
C 947 127 1280 -128 1875 -128 
C 2701 -128 3456 667 3456 1461 
C 3456 1728 3392 1963 3149 2198 
C 3014 2331 2899 2363 2310 2516 
C 1882 2630 1824 2649 1709 2751 
C 1600 2859 1517 3011 1517 3227 
C 1517 3761 2061 4307 2669 4307 
C 3296 4307 3590 3926 3590 3322 
C 3590 3157 3558 2986 3558 2960 
C 3558 2903 3610 2903 3629 2903 
C 3686 2903 3693 2922 3718 3024 
L 4064 4422 
z
" transform="scale(0.015625)"/>
       <path id="CMMI12-7a" d="M 813 486 
C 1088 809 1312 1015 1632 1313 
C 2016 1657 2182 1822 2272 1922 
C 2720 2371 2944 2713 2944 2764 
C 2944 2816 2893 2816 2880 2816 
C 2835 2816 2822 2790 2790 2745 
C 2630 2470 2477 2368 2310 2368 
C 2176 2368 2106 2403 1984 2547 
C 1850 2707 1741 2816 1555 2816 
C 1088 2816 806 2265 806 2127 
C 806 2107 813 2067 870 2067 
C 922 2067 928 2094 947 2140 
C 1056 2387 1363 2415 1485 2415 
C 1619 2415 1747 2387 1882 2342 
C 2125 2239 2227 2239 2291 2239 
C 2336 2239 2362 2239 2394 2246 
C 2182 1988 1837 1670 1549 1399 
L 902 783 
C 512 380 275 32 275 -13 
C 275 -52 307 -64 346 -64 
C 384 -64 390 -58 435 19 
C 538 179 742 384 979 384 
C 1114 384 1178 356 1306 211 
C 1427 70 1536 -64 1741 -64 
C 2368 -64 2726 723 2726 876 
C 2726 902 2720 942 2656 942 
C 2605 942 2598 915 2579 849 
C 2438 460 2061 336 1811 336 
C 1677 336 1549 364 1414 409 
C 1158 512 1088 512 1005 512 
C 941 512 870 512 813 486 
z
" transform="scale(0.015625)"/>
       <path id="CMR17-33" d="M 1414 2176 
C 1984 2176 2234 1673 2234 1094 
C 2234 322 1824 25 1453 25 
C 1114 25 563 193 390 691 
C 422 678 454 678 486 678 
C 640 678 755 780 755 947 
C 755 1132 614 1216 486 1216 
C 378 1216 211 1164 211 927 
C 211 335 787 -128 1466 -128 
C 2176 -128 2720 432 2720 1087 
C 2720 1718 2208 2176 1600 2246 
C 2086 2347 2554 2776 2554 3353 
C 2554 3856 2048 4224 1472 4224 
C 890 4224 378 3862 378 3347 
C 378 3123 544 3084 627 3084 
C 762 3084 877 3167 877 3334 
C 877 3500 762 3584 627 3584 
C 602 3584 570 3584 544 3571 
C 730 3999 1235 4076 1459 4076 
C 1683 4076 2106 3966 2106 3347 
C 2106 3167 2080 2851 1862 2574 
C 1670 2329 1453 2316 1242 2297 
C 1210 2297 1062 2284 1037 2284 
C 992 2278 966 2272 966 2227 
C 966 2182 973 2176 1101 2176 
L 1414 2176 
z
" transform="scale(0.015625)"/>
       <path id="CMSY10-69" d="M 1747 1491 
C 1779 1568 1779 1580 1779 1600 
C 1779 1619 1779 1632 1747 1709 
L 627 4653 
C 589 4761 550 4800 480 4800 
C 410 4800 352 4742 352 4672 
C 352 4653 352 4640 384 4569 
L 1517 1600 
L 384 -1357 
C 352 -1428 352 -1440 352 -1472 
C 352 -1543 410 -1600 480 -1600 
C 563 -1600 589 -1536 614 -1472 
L 1747 1491 
z
" transform="scale(0.015625)"/>
      </defs>
      <use xlink:href="#CMSY10-68" transform="scale(0.996264)"/>
      <use xlink:href="#CMMI12-53" transform="translate(38.743734 0) scale(0.996264)"/>
      <use xlink:href="#CMMI12-7a" transform="translate(104.538173 36.153639) scale(0.697382)"/>
      <use xlink:href="#CMR17-30" transform="translate(98.738222 -24.740171) scale(0.697382)"/>
      <use xlink:href="#CMMI12-53" transform="translate(139.864728 0) scale(0.996264)"/>
      <use xlink:href="#CMMI12-7a" transform="translate(205.659168 36.153639) scale(0.697382)"/>
      <use xlink:href="#CMR17-33" transform="translate(199.859216 -24.740171) scale(0.697382)"/>
      <use xlink:href="#CMSY10-69" transform="translate(240.985723 0) scale(0.996264)"/>
     </g>
    </g>
   </g>
   <g id="line2d_13">
    <path d="M 88.755203 165.153603 
L 88.755203 0.886936 
" clip-path="url(#p51da0fcc1a)" style="fill: none; stroke-dasharray: 5.55,2.4; stroke-dashoffset: 0; stroke: #000000; stroke-opacity: 0.25; stroke-width: 1.5"/>
   </g>
   <g id="line2d_14">
    <path d="M 125.793077 165.153603 
L 125.793077 0.886936 
" clip-path="url(#p51da0fcc1a)" style="fill: none; stroke-dasharray: 5.55,2.4; stroke-dashoffset: 0; stroke: #000000; stroke-opacity: 0.25; stroke-width: 1.5"/>
   </g>
   <g id="line2d_15">
    <path d="M 163.049681 165.153603 
L 163.049681 0.886936 
" clip-path="url(#p51da0fcc1a)" style="fill: none; stroke-dasharray: 5.55,2.4; stroke-dashoffset: 0; stroke: #000000; stroke-opacity: 0.25; stroke-width: 1.5"/>
   </g>
   <g id="line2d_16">
    <path d="M 200.355704 165.153603 
L 200.355704 0.886936 
" clip-path="url(#p51da0fcc1a)" style="fill: none; stroke-dasharray: 5.55,2.4; stroke-dashoffset: 0; stroke: #000000; stroke-opacity: 0.25; stroke-width: 1.5"/>
   </g>
   <g id="line2d_17">
    <path d="M 237.680474 165.153603 
L 237.680474 0.886936 
" clip-path="url(#p51da0fcc1a)" style="fill: none; stroke-dasharray: 5.55,2.4; stroke-dashoffset: 0; stroke: #000000; stroke-opacity: 0.25; stroke-width: 1.5"/>
   </g>
   <g id="line2d_18">
    <path d="M 275.014315 165.153603 
L 275.014315 0.886936 
" clip-path="url(#p51da0fcc1a)" style="fill: none; stroke-dasharray: 5.55,2.4; stroke-dashoffset: 0; stroke: #000000; stroke-opacity: 0.25; stroke-width: 1.5"/>
   </g>
   <g id="line2d_19">
    <path d="M 312.353226 165.153603 
L 312.353226 0.886936 
" clip-path="url(#p51da0fcc1a)" style="fill: none; stroke-dasharray: 5.55,2.4; stroke-dashoffset: 0; stroke: #000000; stroke-opacity: 0.25; stroke-width: 1.5"/>
   </g>
   <g id="line2d_20">
    <path d="M 349.695255 165.153603 
L 349.695255 0.886936 
" clip-path="url(#p51da0fcc1a)" style="fill: none; stroke-dasharray: 5.55,2.4; stroke-dashoffset: 0; stroke: #000000; stroke-opacity: 0.25; stroke-width: 1.5"/>
   </g>
   <g id="line2d_21">
    <path d="M 387.039337 165.153603 
L 387.039337 0.886936 
" clip-path="url(#p51da0fcc1a)" style="fill: none; stroke-dasharray: 5.55,2.4; stroke-dashoffset: 0; stroke: #000000; stroke-opacity: 0.25; stroke-width: 1.5"/>
   </g>
   <g id="line2d_22">
    <path d="M 424.384842 165.153603 
L 424.384842 0.886936 
" clip-path="url(#p51da0fcc1a)" style="fill: none; stroke-dasharray: 5.55,2.4; stroke-dashoffset: 0; stroke: #000000; stroke-opacity: 0.25; stroke-width: 1.5"/>
   </g>
   <g id="line2d_23">
    <path d="M 60.16374 128.31888 
L 61.622169 128.110839 
L 63.279117 127.681533 
L 64.108556 127.660629 
L 65.899235 129.210126 
L 67.811067 134.564686 
L 69.722899 141.401805 
L 71.634731 146.700549 
L 73.546563 151.264962 
L 75.458395 152.791219 
L 77.370227 153.305856 
L 79.282058 146.437788 
L 81.19389 152.571532 
L 83.105722 135.599372 
L 85.017554 127.928786 
L 86.929386 137.643138 
L 88.841218 146.657149 
L 90.75305 152.66998 
L 92.664882 155.336244 
L 94.576714 155.444179 
L 96.488545 154.121699 
L 98.400377 151.851772 
L 100.312209 150.076319 
L 102.224041 151.692596 
L 104.135873 156.217317 
L 106.047705 157.686936 
L 107.959537 149.142433 
L 109.871369 129.135043 
L 113.695032 75.996 
L 115.606864 56.687418 
L 117.518696 45.747323 
L 119.430528 37.321942 
L 123.254192 22.111666 
L 125.166024 16.942133 
L 127.077856 19.473829 
L 128.989688 30.689383 
L 130.901519 46.961547 
L 132.813351 64.27387 
L 134.725183 80.416119 
L 136.637015 94.177359 
L 138.548847 104.700887 
L 140.460679 111.942167 
L 142.372511 115.999687 
L 144.284343 117.111494 
L 146.196175 115.446074 
L 148.108006 110.987177 
L 150.019838 103.80913 
L 151.93167 94.468914 
L 155.755334 71.888073 
L 157.667166 62.163967 
L 159.578998 56.770783 
L 161.49083 57.549554 
L 163.402661 64.277457 
L 165.314493 74.719999 
L 167.226325 85.855062 
L 169.138157 95.392612 
L 171.049989 102.324894 
L 172.961821 106.324575 
L 174.873653 106.91907 
L 176.785485 103.986784 
L 178.697317 97.775712 
L 180.609148 88.868443 
L 182.52098 77.797955 
L 186.344644 53.556746 
L 188.256476 43.436893 
L 192.08014 27.953301 
L 193.991972 21.734036 
L 195.903804 16.657781 
L 197.815635 12.637471 
L 199.727467 10.68978 
L 201.639299 12.458392 
L 203.551131 19.084231 
L 205.462963 28.956903 
L 209.286627 51.705923 
L 211.198459 61.643968 
L 213.110291 69.983314 
L 215.022122 76.29134 
L 216.933954 80.449277 
L 218.845786 82.367413 
L 220.757618 82.052676 
L 222.66945 79.496807 
L 224.581282 74.794272 
L 226.493114 68.128646 
L 228.404946 60.256872 
L 230.316778 51.76822 
L 232.228609 44.316938 
L 234.140441 39.07954 
L 236.052273 37.452576 
L 237.964105 40.234463 
L 239.875937 45.896795 
L 243.699601 62.265874 
L 245.611433 68.671054 
L 247.523265 72.582017 
L 249.435096 73.838418 
L 251.346928 72.653254 
L 253.25876 69.196853 
L 255.170592 63.819262 
L 257.082424 57.161946 
L 260.906088 42.605424 
L 262.81792 35.822038 
L 264.729751 31.309239 
L 266.641583 25.42093 
L 268.553415 18.728408 
L 270.465247 14.248677 
L 272.377079 11.021663 
L 274.288911 9.506483 
L 276.200743 10.634058 
L 278.112575 14.88936 
L 280.024407 21.500225 
L 281.936238 29.57958 
L 283.84807 38.608958 
L 285.759902 46.771545 
L 287.671734 53.571422 
L 289.583566 58.742651 
L 291.495398 62.425878 
L 293.40723 64.324633 
L 295.319062 64.170476 
L 297.230894 63.277187 
L 299.142725 59.915904 
L 301.054557 55.10359 
L 302.966389 49.138378 
L 306.790053 36.317579 
L 308.701885 31.41917 
L 310.613717 29.307844 
L 312.525549 30.419806 
L 314.437381 34.56986 
L 316.349212 40.468759 
L 318.261044 46.752775 
L 320.172876 52.283897 
L 322.084708 56.139022 
L 323.99654 58.020136 
L 325.908372 57.891282 
L 327.820204 55.856592 
L 329.732036 52.183159 
L 331.643868 47.513283 
L 335.467531 36.843058 
L 337.379363 32.120762 
L 339.291195 29.641252 
L 341.203027 23.792679 
L 343.114859 16.736223 
L 345.026691 12.807839 
L 346.938523 9.995005 
L 348.850355 8.666323 
L 350.762186 9.445202 
L 352.674018 12.735862 
L 354.58585 18.247458 
L 356.497682 25.230471 
L 358.409514 32.673014 
L 360.321346 39.608721 
L 362.233178 45.588868 
L 364.14501 50.388107 
L 366.056841 53.642844 
L 367.968673 55.145959 
L 369.880505 55.553629 
L 371.792337 54.220552 
L 373.704169 51.155544 
L 375.616001 46.7368 
L 377.527833 40.675191 
L 379.439665 35.162572 
L 381.351497 30.008927 
L 383.263328 26.1011 
L 385.17516 24.178413 
L 387.086992 25.526576 
L 388.998824 28.676402 
L 390.910656 33.446895 
L 392.822488 38.7636 
L 394.73432 43.562836 
L 396.646152 47.144929 
L 398.557984 49.224744 
L 400.469815 49.56009 
L 402.381647 48.275641 
L 404.293479 45.674695 
L 406.205311 42.150048 
L 410.028975 33.817866 
L 411.940807 30.509359 
L 413.852639 29.835177 
L 415.764471 24.920212 
L 417.676302 16.657632 
L 419.588134 12.438168 
L 421.499966 9.665477 
L 423.411798 8.353603 
L 425.32363 8.968116 
L 427.235462 11.659776 
L 429.147294 15.702542 
L 434.882789 35.921804 
L 436.794621 41.707144 
L 438.706453 46.068289 
L 440.618285 49.087568 
L 440.618285 49.087568 
" clip-path="url(#p51da0fcc1a)" style="fill: none; stroke: #1f77b4; stroke-width: 1.5; stroke-linecap: square"/>
   </g>
   <g id="line2d_24">
    <path d="M 41.141012 5.32374 
L 459.641012 5.32374 
" clip-path="url(#p51da0fcc1a)" style="fill: none; stroke-dasharray: 5.55,2.4; stroke-dashoffset: 0; stroke: #008000; stroke-opacity: 0.3; stroke-width: 1.5"/>
   </g>
   <g id="patch_3">
    <path d="M 41.141012 165.153603 
L 41.141012 0.886936 
" style="fill: none; stroke: #000000; stroke-width: 0.8; stroke-linejoin: miter; stroke-linecap: square"/>
   </g>
   <g id="patch_4">
    <path d="M 459.641012 165.153603 
L 459.641012 0.886936 
" style="fill: none; stroke: #000000; stroke-width: 0.8; stroke-linejoin: miter; stroke-linecap: square"/>
   </g>
   <g id="patch_5">
    <path d="M 41.141012 165.153603 
L 459.641012 165.153603 
" style="fill: none; stroke: #000000; stroke-width: 0.8; stroke-linejoin: miter; stroke-linecap: square"/>
   </g>
   <g id="patch_6">
    <path d="M 41.141012 0.886936 
L 459.641012 0.886936 
" style="fill: none; stroke: #000000; stroke-width: 0.8; stroke-linejoin: miter; stroke-linecap: square"/>
   </g>
   <g id="legend_1">
    <g id="line2d_25">
     <path d="M 352.48997 81.806074 
L 364.48997 81.806074 
L 376.48997 81.806074 
" style="fill: none; stroke: #1f77b4; stroke-width: 1.5; stroke-linecap: square"/>
    </g>
    <g id="text_7">
     <!-- $TFIM + S_x$ -->
     <g transform="translate(386.08997 86.006074) scale(0.12 -0.12)">
      <defs>
       <path id="CMMI12-54" d="M 2669 3886 
C 2707 4038 2720 4096 2816 4121 
C 2867 4134 3078 4134 3213 4134 
C 3853 4134 4154 4109 4154 3612 
C 4154 3516 4128 3274 4090 3038 
L 4083 2962 
C 4083 2937 4109 2898 4147 2898 
C 4211 2898 4211 2930 4230 3032 
L 4416 4159 
C 4429 4217 4429 4230 4429 4249 
C 4429 4319 4390 4319 4262 4319 
L 762 4319 
C 614 4319 608 4313 570 4198 
L 179 3051 
C 173 3038 154 2968 154 2962 
C 154 2930 179 2898 218 2898 
C 269 2898 282 2924 307 3007 
C 576 3777 710 4134 1562 4134 
L 1990 4134 
C 2144 4134 2208 4134 2208 4064 
C 2208 4045 2208 4032 2176 3917 
L 1318 497 
C 1254 249 1242 185 563 185 
C 403 185 358 185 358 64 
C 358 0 429 0 461 0 
C 621 0 787 12 947 12 
L 1946 12 
C 2106 12 2278 0 2438 0 
C 2509 0 2573 0 2573 121 
C 2573 185 2528 185 2362 185 
C 1786 185 1786 242 1786 338 
C 1786 344 1786 389 1811 491 
L 2669 3886 
z
" transform="scale(0.015625)"/>
       <path id="CMMI12-46" d="M 1901 2054 
L 2515 2054 
C 3002 2054 3040 1947 3040 1764 
C 3040 1683 3027 1595 2995 1456 
C 2982 1431 2976 1399 2976 1387 
C 2976 1343 3002 1318 3046 1318 
C 3098 1318 3104 1343 3130 1444 
L 3501 2929 
C 3501 2955 3482 2993 3437 2993 
C 3379 2993 3373 2968 3347 2858 
C 3213 2375 3085 2240 2528 2240 
L 1946 2240 
L 2362 3908 
C 2419 4134 2432 4153 2694 4153 
L 3552 4153 
C 4352 4153 4467 3915 4467 3457 
C 4467 3419 4467 3277 4448 3109 
C 4442 3084 4429 3000 4429 2974 
C 4429 2922 4461 2903 4499 2903 
C 4544 2903 4570 2929 4582 3045 
L 4717 4172 
C 4717 4191 4730 4255 4730 4268 
C 4730 4339 4672 4339 4557 4339 
L 1523 4339 
C 1402 4339 1338 4339 1338 4223 
C 1338 4153 1382 4153 1491 4153 
C 1888 4153 1888 4108 1888 4037 
C 1888 4005 1882 3979 1862 3908 
L 998 468 
C 941 248 928 185 480 185 
C 358 185 294 185 294 70 
C 294 0 352 0 390 0 
C 512 0 640 12 762 12 
L 1594 12 
C 1734 12 1888 0 2029 0 
C 2086 0 2163 0 2163 115 
C 2163 185 2125 185 1984 185 
C 1478 185 1466 229 1466 324 
C 1466 355 1478 405 1491 449 
L 1901 2054 
z
" transform="scale(0.015625)"/>
       <path id="CMMI12-49" d="M 2355 3879 
C 2413 4102 2426 4166 2893 4166 
C 3034 4166 3085 4166 3085 4287 
C 3085 4352 3014 4352 2995 4352 
C 2880 4352 2739 4339 2624 4339 
L 1837 4339 
C 1709 4339 1562 4352 1434 4352 
C 1382 4352 1312 4352 1312 4230 
C 1312 4166 1363 4166 1491 4166 
C 1888 4166 1888 4115 1888 4045 
C 1888 4000 1875 3962 1862 3905 
L 998 472 
C 941 249 928 185 461 185 
C 320 185 262 185 262 64 
C 262 0 326 0 358 0 
C 474 0 614 12 730 12 
L 1517 12 
C 1645 12 1786 0 1914 0 
C 1965 0 2042 0 2042 115 
C 2042 185 2003 185 1862 185 
C 1466 185 1466 236 1466 312 
C 1466 325 1466 357 1491 459 
L 2355 3879 
z
" transform="scale(0.015625)"/>
       <path id="CMMI12-4d" d="M 5811 3886 
C 5869 4102 5882 4166 6336 4166 
C 6458 4166 6515 4166 6515 4287 
C 6515 4352 6470 4352 6349 4352 
L 5581 4352 
C 5421 4352 5414 4345 5344 4243 
L 3008 567 
L 2528 4211 
C 2509 4352 2502 4352 2336 4352 
L 1542 4352 
C 1421 4352 1363 4352 1363 4230 
C 1363 4166 1421 4166 1517 4166 
C 1907 4166 1907 4115 1907 4045 
C 1907 4032 1907 3994 1882 3898 
L 1062 650 
C 986 344 838 204 410 185 
C 390 185 314 179 314 70 
C 314 0 371 0 397 0 
C 525 0 851 12 979 12 
L 1286 12 
C 1376 12 1485 0 1574 0 
C 1619 0 1690 0 1690 121 
C 1690 179 1626 185 1600 185 
C 1389 191 1184 230 1184 459 
C 1184 523 1184 529 1210 618 
L 2093 4128 
L 2099 4128 
L 2630 172 
C 2650 19 2656 0 2714 0 
C 2784 0 2816 51 2848 108 
L 5421 4159 
L 5427 4159 
L 4499 472 
C 4442 249 4429 185 3981 185 
C 3859 185 3795 185 3795 70 
C 3795 0 3853 0 3891 0 
C 4000 0 4128 12 4237 12 
L 4992 12 
C 5101 12 5235 0 5344 0 
C 5395 0 5466 0 5466 121 
C 5466 185 5408 185 5312 185 
C 4922 185 4922 236 4922 300 
C 4922 306 4922 351 4934 402 
L 5811 3886 
z
" transform="scale(0.015625)"/>
       <path id="CMR17-2b" d="M 2413 1472 
L 4109 1472 
C 4198 1472 4307 1472 4307 1580 
C 4307 1696 4205 1696 4109 1696 
L 2413 1696 
L 2413 3385 
C 2413 3475 2413 3584 2304 3584 
C 2189 3584 2189 3481 2189 3385 
L 2189 1696 
L 493 1696 
C 403 1696 294 1696 294 1587 
C 294 1472 397 1472 493 1472 
L 2189 1472 
L 2189 -194 
C 2189 -282 2189 -391 2298 -391 
C 2413 -391 2413 -289 2413 -194 
L 2413 1472 
z
" transform="scale(0.015625)"/>
       <path id="CMMI12-78" d="M 3034 2624 
C 2829 2585 2752 2431 2752 2310 
C 2752 2156 2874 2105 2963 2105 
C 3155 2105 3290 2271 3290 2444 
C 3290 2694 2982 2816 2714 2816 
C 2323 2816 2106 2451 2048 2329 
C 1901 2790 1504 2816 1389 2816 
C 736 2816 390 1993 390 1849 
C 390 1823 416 1790 461 1790 
C 512 1790 525 1829 538 1855 
C 755 2572 1184 2687 1370 2687 
C 1658 2687 1715 2438 1715 2284 
C 1715 2143 1677 1993 1600 1678 
L 1382 778 
C 1286 390 1101 64 762 64 
C 730 64 570 64 435 126 
C 666 166 717 358 717 435 
C 717 563 621 640 499 640 
C 346 640 179 505 179 300 
C 179 57 480 -64 755 -64 
C 1062 -64 1280 153 1414 415 
C 1517 64 1837 -64 2074 -64 
C 2726 -64 3072 751 3072 896 
C 3072 929 3046 955 3008 955 
C 2950 955 2944 922 2925 870 
C 2752 300 2381 64 2093 64 
C 1869 64 1747 204 1747 467 
C 1747 607 1773 712 1875 1146 
L 2099 2039 
C 2195 2425 2413 2687 2707 2687 
C 2720 2687 2899 2687 3034 2624 
z
" transform="scale(0.015625)"/>
      </defs>
      <use xlink:href="#CMMI12-54" transform="scale(0.996264)"/>
      <use xlink:href="#CMMI12-46" transform="translate(70.723632 0) scale(0.996264)"/>
      <use xlink:href="#CMMI12-49" transform="translate(147.420425 0) scale(0.996264)"/>
      <use xlink:href="#CMMI12-4d" transform="translate(198.276939 0) scale(0.996264)"/>
      <use xlink:href="#CMR17-2b" transform="translate(325.196225 0) scale(0.996264)"/>
      <use xlink:href="#CMMI12-53" transform="translate(419.05022 0) scale(0.996264)"/>
      <use xlink:href="#CMMI12-78" transform="translate(479.044708 -14.943915) scale(0.697382)"/>
     </g>
    </g>
   </g>
  </g>
  <g id="axes_2">
   <g id="patch_7">
    <path d="M 41.141012 333.526936 
L 459.641012 333.526936 
L 459.641012 169.26027 
L 41.141012 169.26027 
z
" style="fill: #ffffff"/>
   </g>
   <g id="matplotlib.axis_3">
    <g id="xtick_8">
     <g id="line2d_26">
      <g>
       <use xlink:href="#m0609aff1e6" x="60.16374" y="333.526936" style="stroke: #000000; stroke-width: 0.8"/>
      </g>
     </g>
     <g id="text_8">
      <!-- $\mathdefault{0}$ -->
      <g transform="translate(56.505621 347.674417) scale(0.15 -0.15)">
       <use xlink:href="#CMR17-30" transform="scale(0.996264)"/>
      </g>
     </g>
    </g>
    <g id="xtick_9">
     <g id="line2d_27">
      <g>
       <use xlink:href="#m0609aff1e6" x="119.609762" y="333.526936" style="stroke: #000000; stroke-width: 0.8"/>
      </g>
     </g>
     <g id="text_9">
      <!-- $\mathdefault{5}$ -->
      <g transform="translate(115.951643 347.674417) scale(0.15 -0.15)">
       <defs>
        <path id="CMR17-35" d="M 730 3750 
C 794 3724 1056 3641 1325 3641 
C 1920 3641 2246 3961 2432 4140 
C 2432 4191 2432 4224 2394 4224 
C 2387 4224 2374 4224 2323 4198 
C 2099 4102 1837 4032 1517 4032 
C 1325 4032 1037 4055 723 4191 
C 653 4224 640 4224 634 4224 
C 602 4224 595 4217 595 4090 
L 595 2231 
C 595 2113 595 2080 659 2080 
C 691 2080 704 2093 736 2139 
C 941 2435 1222 2560 1542 2560 
C 1766 2560 2246 2415 2246 1293 
C 2246 1087 2246 716 2054 422 
C 1894 159 1645 25 1370 25 
C 947 25 518 319 403 812 
C 429 806 480 793 506 793 
C 589 793 749 838 749 1036 
C 749 1209 627 1280 506 1280 
C 358 1280 262 1190 262 1011 
C 262 454 704 -128 1382 -128 
C 2042 -128 2669 441 2669 1267 
C 2669 2054 2170 2662 1549 2662 
C 1222 2662 947 2540 730 2304 
L 730 3750 
z
" transform="scale(0.015625)"/>
       </defs>
       <use xlink:href="#CMR17-35" transform="scale(0.996264)"/>
      </g>
     </g>
    </g>
    <g id="xtick_10">
     <g id="line2d_28">
      <g>
       <use xlink:href="#m0609aff1e6" x="179.055785" y="333.526936" style="stroke: #000000; stroke-width: 0.8"/>
      </g>
     </g>
     <g id="text_10">
      <!-- $\mathdefault{10}$ -->
      <g transform="translate(171.739547 347.674417) scale(0.15 -0.15)">
       <use xlink:href="#CMR17-31" transform="scale(0.996264)"/>
       <use xlink:href="#CMR17-30" transform="translate(45.690477 0) scale(0.996264)"/>
      </g>
     </g>
    </g>
    <g id="xtick_11">
     <g id="line2d_29">
      <g>
       <use xlink:href="#m0609aff1e6" x="238.501808" y="333.526936" style="stroke: #000000; stroke-width: 0.8"/>
      </g>
     </g>
     <g id="text_11">
      <!-- $\mathdefault{15}$ -->
      <g transform="translate(231.18557 347.674417) scale(0.15 -0.15)">
       <use xlink:href="#CMR17-31" transform="scale(0.996264)"/>
       <use xlink:href="#CMR17-35" transform="translate(45.690477 0) scale(0.996264)"/>
      </g>
     </g>
    </g>
    <g id="xtick_12">
     <g id="line2d_30">
      <g>
       <use xlink:href="#m0609aff1e6" x="297.947831" y="333.526936" style="stroke: #000000; stroke-width: 0.8"/>
      </g>
     </g>
     <g id="text_12">
      <!-- $\mathdefault{20}$ -->
      <g transform="translate(290.631593 347.674417) scale(0.15 -0.15)">
       <use xlink:href="#CMR17-32" transform="scale(0.996264)"/>
       <use xlink:href="#CMR17-30" transform="translate(45.690477 0) scale(0.996264)"/>
      </g>
     </g>
    </g>
    <g id="xtick_13">
     <g id="line2d_31">
      <g>
       <use xlink:href="#m0609aff1e6" x="357.393853" y="333.526936" style="stroke: #000000; stroke-width: 0.8"/>
      </g>
     </g>
     <g id="text_13">
      <!-- $\mathdefault{25}$ -->
      <g transform="translate(350.077615 347.674417) scale(0.15 -0.15)">
       <use xlink:href="#CMR17-32" transform="scale(0.996264)"/>
       <use xlink:href="#CMR17-35" transform="translate(45.690477 0) scale(0.996264)"/>
      </g>
     </g>
    </g>
    <g id="xtick_14">
     <g id="line2d_32">
      <g>
       <use xlink:href="#m0609aff1e6" x="416.839876" y="333.526936" style="stroke: #000000; stroke-width: 0.8"/>
      </g>
     </g>
     <g id="text_14">
      <!-- $\mathdefault{30}$ -->
      <g transform="translate(409.523638 347.674417) scale(0.15 -0.15)">
       <use xlink:href="#CMR17-33" transform="scale(0.996264)"/>
       <use xlink:href="#CMR17-30" transform="translate(45.690477 0) scale(0.996264)"/>
      </g>
     </g>
    </g>
    <g id="text_15">
     <!-- $2h/\omega$ -->
     <g transform="translate(234.307405 366.065366) scale(0.15 -0.15)">
      <defs>
       <path id="CMMI12-68" d="M 1798 4255 
C 1805 4281 1818 4319 1818 4351 
C 1818 4416 1754 4416 1741 4416 
C 1734 4416 1421 4390 1389 4383 
C 1280 4377 1184 4364 1069 4358 
C 909 4345 864 4339 864 4223 
C 864 4159 915 4159 1005 4159 
C 1318 4159 1325 4103 1325 4040 
C 1325 4002 1312 3951 1306 3932 
L 378 249 
C 352 153 352 140 352 102 
C 352 -39 461 -64 525 -64 
C 634 -64 717 19 749 89 
L 1037 1245 
C 1069 1385 1107 1519 1139 1660 
C 1210 1928 1210 1934 1331 2119 
C 1453 2305 1741 2687 2234 2687 
C 2490 2687 2579 2496 2579 2241 
C 2579 1883 2330 1187 2189 804 
C 2131 651 2099 568 2099 453 
C 2099 166 2298 -64 2605 -64 
C 3200 -64 3424 874 3424 913 
C 3424 945 3398 970 3360 970 
C 3302 970 3296 951 3264 842 
C 3117 332 2880 64 2624 64 
C 2560 64 2458 70 2458 274 
C 2458 440 2534 645 2560 715 
C 2675 1021 2963 1775 2963 2145 
C 2963 2528 2739 2816 2253 2816 
C 1888 2816 1568 2643 1306 2311 
L 1798 4255 
z
" transform="scale(0.015625)"/>
       <path id="CMMI12-3d" d="M 2746 4563 
C 2746 4569 2784 4665 2784 4678 
C 2784 4755 2720 4800 2669 4800 
C 2637 4800 2579 4800 2528 4659 
L 384 -1364 
C 384 -1370 346 -1466 346 -1479 
C 346 -1556 410 -1600 461 -1600 
C 499 -1600 557 -1594 602 -1460 
L 2746 4563 
z
" transform="scale(0.015625)"/>
       <path id="CMMI12-21" d="M 3802 2406 
C 3802 2592 3750 2828 3526 2828 
C 3398 2828 3251 2668 3251 2540 
C 3251 2483 3277 2444 3328 2387 
C 3424 2278 3546 2105 3546 1804 
C 3546 1574 3405 1209 3302 1011 
C 3123 659 2829 358 2496 358 
C 2093 358 1939 614 1869 972 
C 1939 1139 2086 1555 2086 1721 
C 2086 1792 2061 1849 1978 1849 
C 1933 1849 1882 1824 1850 1772 
C 1760 1632 1677 1126 1683 992 
C 1562 755 1216 358 806 358 
C 378 358 262 736 262 1100 
C 262 1766 678 2348 794 2508 
C 858 2604 902 2668 902 2681 
C 902 2726 877 2796 819 2796 
C 717 2796 685 2713 634 2636 
C 307 2131 77 1420 77 806 
C 77 409 224 -64 704 -64 
C 1235 -64 1568 390 1702 633 
C 1754 275 1946 -64 2413 -64 
C 2899 -64 3206 364 3437 883 
C 3603 1254 3802 2054 3802 2406 
z
" transform="scale(0.015625)"/>
      </defs>
      <use xlink:href="#CMR17-32" transform="scale(0.996264)"/>
      <use xlink:href="#CMMI12-68" transform="translate(45.690477 0) scale(0.996264)"/>
      <use xlink:href="#CMMI12-3d" transform="translate(101.845101 0) scale(0.996264)"/>
      <use xlink:href="#CMMI12-21" transform="translate(150.62002 0) scale(0.996264)"/>
     </g>
    </g>
   </g>
   <g id="matplotlib.axis_4">
    <g id="ytick_6">
     <g id="line2d_33">
      <g>
       <use xlink:href="#m0eb36a5d81" x="41.141012" y="317.746527" style="stroke: #000000; stroke-width: 0.8"/>
      </g>
     </g>
     <g id="text_16">
      <!-- $\mathdefault{0.2}$ -->
      <g transform="translate(18.94396 323.070267) scale(0.15 -0.15)">
       <use xlink:href="#CMR17-30" transform="scale(0.996264)"/>
       <use xlink:href="#CMMI12-3a" transform="translate(45.690477 0) scale(0.996264)"/>
       <use xlink:href="#CMR17-32" transform="translate(72.787654 0) scale(0.996264)"/>
      </g>
     </g>
    </g>
    <g id="ytick_7">
     <g id="line2d_34">
      <g>
       <use xlink:href="#m0eb36a5d81" x="41.141012" y="281.734164" style="stroke: #000000; stroke-width: 0.8"/>
      </g>
     </g>
     <g id="text_17">
      <!-- $\mathdefault{0.4}$ -->
      <g transform="translate(18.94396 287.057904) scale(0.15 -0.15)">
       <use xlink:href="#CMR17-30" transform="scale(0.996264)"/>
       <use xlink:href="#CMMI12-3a" transform="translate(45.690477 0) scale(0.996264)"/>
       <use xlink:href="#CMR17-34" transform="translate(72.787654 0) scale(0.996264)"/>
      </g>
     </g>
    </g>
    <g id="ytick_8">
     <g id="line2d_35">
      <g>
       <use xlink:href="#m0eb36a5d81" x="41.141012" y="245.7218" style="stroke: #000000; stroke-width: 0.8"/>
      </g>
     </g>
     <g id="text_18">
      <!-- $\mathdefault{0.6}$ -->
      <g transform="translate(18.94396 251.04554) scale(0.15 -0.15)">
       <use xlink:href="#CMR17-30" transform="scale(0.996264)"/>
       <use xlink:href="#CMMI12-3a" transform="translate(45.690477 0) scale(0.996264)"/>
       <use xlink:href="#CMR17-36" transform="translate(72.787654 0) scale(0.996264)"/>
      </g>
     </g>
    </g>
    <g id="ytick_9">
     <g id="line2d_36">
      <g>
       <use xlink:href="#m0eb36a5d81" x="41.141012" y="209.709437" style="stroke: #000000; stroke-width: 0.8"/>
      </g>
     </g>
     <g id="text_19">
      <!-- $\mathdefault{0.8}$ -->
      <g transform="translate(18.94396 215.033177) scale(0.15 -0.15)">
       <use xlink:href="#CMR17-30" transform="scale(0.996264)"/>
       <use xlink:href="#CMMI12-3a" transform="translate(45.690477 0) scale(0.996264)"/>
       <use xlink:href="#CMR17-38" transform="translate(72.787654 0) scale(0.996264)"/>
      </g>
     </g>
    </g>
    <g id="ytick_10">
     <g id="line2d_37">
      <g>
       <use xlink:href="#m0eb36a5d81" x="41.141012" y="173.697074" style="stroke: #000000; stroke-width: 0.8"/>
      </g>
     </g>
     <g id="text_20">
      <!-- $\mathdefault{1.0}$ -->
      <g transform="translate(18.94396 179.020814) scale(0.15 -0.15)">
       <use xlink:href="#CMR17-31" transform="scale(0.996264)"/>
       <use xlink:href="#CMMI12-3a" transform="translate(45.690477 0) scale(0.996264)"/>
       <use xlink:href="#CMR17-30" transform="translate(72.787654 0) scale(0.996264)"/>
      </g>
     </g>
    </g>
    <g id="text_21">
     <!-- $ \langle S^z_0 S^z_3\rangle$ -->
     <g transform="translate(11.20797 272.897254) rotate(-90) scale(0.15 -0.15)">
      <use xlink:href="#CMSY10-68" transform="scale(0.996264)"/>
      <use xlink:href="#CMMI12-53" transform="translate(38.743734 0) scale(0.996264)"/>
      <use xlink:href="#CMMI12-7a" transform="translate(104.538173 36.153639) scale(0.697382)"/>
      <use xlink:href="#CMR17-30" transform="translate(98.738222 -24.740171) scale(0.697382)"/>
      <use xlink:href="#CMMI12-53" transform="translate(139.864728 0) scale(0.996264)"/>
      <use xlink:href="#CMMI12-7a" transform="translate(205.659168 36.153639) scale(0.697382)"/>
      <use xlink:href="#CMR17-33" transform="translate(199.859216 -24.740171) scale(0.697382)"/>
      <use xlink:href="#CMSY10-69" transform="translate(240.985723 0) scale(0.996264)"/>
     </g>
    </g>
   </g>
   <g id="line2d_38">
    <path d="M 88.755203 333.526936 
L 88.755203 169.26027 
" clip-path="url(#p8bb90bf86d)" style="fill: none; stroke-dasharray: 5.55,2.4; stroke-dashoffset: 0; stroke: #000000; stroke-opacity: 0.25; stroke-width: 1.5"/>
   </g>
   <g id="line2d_39">
    <path d="M 125.793077 333.526936 
L 125.793077 169.26027 
" clip-path="url(#p8bb90bf86d)" style="fill: none; stroke-dasharray: 5.55,2.4; stroke-dashoffset: 0; stroke: #000000; stroke-opacity: 0.25; stroke-width: 1.5"/>
   </g>
   <g id="line2d_40">
    <path d="M 163.049681 333.526936 
L 163.049681 169.26027 
" clip-path="url(#p8bb90bf86d)" style="fill: none; stroke-dasharray: 5.55,2.4; stroke-dashoffset: 0; stroke: #000000; stroke-opacity: 0.25; stroke-width: 1.5"/>
   </g>
   <g id="line2d_41">
    <path d="M 200.355704 333.526936 
L 200.355704 169.26027 
" clip-path="url(#p8bb90bf86d)" style="fill: none; stroke-dasharray: 5.55,2.4; stroke-dashoffset: 0; stroke: #000000; stroke-opacity: 0.25; stroke-width: 1.5"/>
   </g>
   <g id="line2d_42">
    <path d="M 237.680474 333.526936 
L 237.680474 169.26027 
" clip-path="url(#p8bb90bf86d)" style="fill: none; stroke-dasharray: 5.55,2.4; stroke-dashoffset: 0; stroke: #000000; stroke-opacity: 0.25; stroke-width: 1.5"/>
   </g>
   <g id="line2d_43">
    <path d="M 275.014315 333.526936 
L 275.014315 169.26027 
" clip-path="url(#p8bb90bf86d)" style="fill: none; stroke-dasharray: 5.55,2.4; stroke-dashoffset: 0; stroke: #000000; stroke-opacity: 0.25; stroke-width: 1.5"/>
   </g>
   <g id="line2d_44">
    <path d="M 312.353226 333.526936 
L 312.353226 169.26027 
" clip-path="url(#p8bb90bf86d)" style="fill: none; stroke-dasharray: 5.55,2.4; stroke-dashoffset: 0; stroke: #000000; stroke-opacity: 0.25; stroke-width: 1.5"/>
   </g>
   <g id="line2d_45">
    <path d="M 349.695255 333.526936 
L 349.695255 169.26027 
" clip-path="url(#p8bb90bf86d)" style="fill: none; stroke-dasharray: 5.55,2.4; stroke-dashoffset: 0; stroke: #000000; stroke-opacity: 0.25; stroke-width: 1.5"/>
   </g>
   <g id="line2d_46">
    <path d="M 387.039337 333.526936 
L 387.039337 169.26027 
" clip-path="url(#p8bb90bf86d)" style="fill: none; stroke-dasharray: 5.55,2.4; stroke-dashoffset: 0; stroke: #000000; stroke-opacity: 0.25; stroke-width: 1.5"/>
   </g>
   <g id="line2d_47">
    <path d="M 424.384842 333.526936 
L 424.384842 169.26027 
" clip-path="url(#p8bb90bf86d)" style="fill: none; stroke-dasharray: 5.55,2.4; stroke-dashoffset: 0; stroke: #000000; stroke-opacity: 0.25; stroke-width: 1.5"/>
   </g>
   <g id="line2d_48">
    <path d="M 60.16374 296.692213 
L 61.622169 296.484172 
L 63.279117 296.054866 
L 64.108556 296.033962 
L 65.899235 297.583459 
L 67.811067 302.93802 
L 69.722899 309.775139 
L 71.634731 315.073883 
L 73.546563 319.638295 
L 75.458395 321.164552 
L 77.370227 321.67919 
L 79.282058 314.811121 
L 81.19389 320.944865 
L 83.105722 303.972706 
L 85.017554 296.302119 
L 86.929386 306.016472 
L 88.841218 315.030483 
L 90.75305 321.043313 
L 92.664882 323.709577 
L 94.576714 323.817512 
L 96.488545 322.495033 
L 98.400377 320.225105 
L 100.312209 318.449652 
L 102.224041 320.06593 
L 104.135873 324.590651 
L 106.047705 326.06027 
L 107.959537 317.515766 
L 109.871369 297.508376 
L 113.695032 244.369333 
L 115.606864 225.060751 
L 117.518696 214.120656 
L 119.430528 205.695275 
L 123.254192 190.484999 
L 125.166024 185.315466 
L 127.077856 187.847162 
L 128.989688 199.062717 
L 130.901519 215.33488 
L 132.813351 232.647203 
L 134.725183 248.789453 
L 136.637015 262.550692 
L 138.548847 273.07422 
L 140.460679 280.3155 
L 142.372511 284.37302 
L 144.284343 285.484827 
L 146.196175 283.819408 
L 148.108006 279.36051 
L 150.019838 272.182463 
L 151.93167 262.842248 
L 155.755334 240.261407 
L 157.667166 230.5373 
L 159.578998 225.144117 
L 161.49083 225.922887 
L 163.402661 232.65079 
L 165.314493 243.093332 
L 167.226325 254.228395 
L 169.138157 263.765945 
L 171.049989 270.698227 
L 172.961821 274.697909 
L 174.873653 275.292404 
L 176.785485 272.360118 
L 178.697317 266.149046 
L 180.609148 257.241777 
L 182.52098 246.171288 
L 186.344644 221.93008 
L 188.256476 211.810226 
L 192.08014 196.326634 
L 193.991972 190.107369 
L 195.903804 185.031115 
L 197.815635 181.010805 
L 199.727467 179.063113 
L 201.639299 180.831725 
L 203.551131 187.457565 
L 205.462963 197.330236 
L 209.286627 220.079257 
L 211.198459 230.017301 
L 213.110291 238.356648 
L 215.022122 244.664673 
L 216.933954 248.822611 
L 218.845786 250.740747 
L 220.757618 250.426009 
L 222.66945 247.87014 
L 224.581282 243.167606 
L 226.493114 236.501979 
L 228.404946 228.630206 
L 230.316778 220.141554 
L 232.228609 212.690271 
L 234.140441 207.452874 
L 236.052273 205.825909 
L 237.964105 208.607796 
L 239.875937 214.270128 
L 243.699601 230.639208 
L 245.611433 237.044387 
L 247.523265 240.95535 
L 249.435096 242.211751 
L 251.346928 241.026588 
L 253.25876 237.570187 
L 255.170592 232.192595 
L 257.082424 225.535279 
L 260.906088 210.978758 
L 262.81792 204.195371 
L 264.729751 199.682573 
L 266.641583 193.794264 
L 268.553415 187.101741 
L 270.465247 182.622011 
L 272.377079 179.394997 
L 274.288911 177.879816 
L 276.200743 179.007392 
L 278.112575 183.262694 
L 280.024407 189.873559 
L 281.936238 197.952914 
L 283.84807 206.982291 
L 285.759902 215.144879 
L 287.671734 221.944755 
L 289.583566 227.115985 
L 291.495398 230.799211 
L 293.40723 232.697967 
L 295.319062 232.543809 
L 297.230894 231.650521 
L 299.142725 228.289237 
L 301.054557 223.476924 
L 302.966389 217.511711 
L 306.790053 204.690912 
L 308.701885 199.792503 
L 310.613717 197.681178 
L 312.525549 198.793139 
L 314.437381 202.943194 
L 316.349212 208.842093 
L 318.261044 215.126108 
L 320.172876 220.657231 
L 322.084708 224.512355 
L 323.99654 226.39347 
L 325.908372 226.264615 
L 327.820204 224.229925 
L 329.732036 220.556493 
L 331.643868 215.886616 
L 335.467531 205.216391 
L 337.379363 200.494095 
L 339.291195 198.014585 
L 341.203027 192.166013 
L 343.114859 185.109556 
L 345.026691 181.181172 
L 346.938523 178.368338 
L 348.850355 177.039656 
L 350.762186 177.818535 
L 352.674018 181.109196 
L 354.58585 186.620791 
L 356.497682 193.603804 
L 358.409514 201.046347 
L 360.321346 207.982054 
L 362.233178 213.962201 
L 364.14501 218.76144 
L 366.056841 222.016178 
L 367.968673 223.519293 
L 369.880505 223.926962 
L 371.792337 222.593886 
L 373.704169 219.528877 
L 375.616001 215.110134 
L 377.527833 209.048524 
L 379.439665 203.535905 
L 381.351497 198.382261 
L 383.263328 194.474434 
L 385.17516 192.551747 
L 387.086992 193.899909 
L 388.998824 197.049735 
L 390.910656 201.820228 
L 392.822488 207.136933 
L 394.73432 211.936169 
L 396.646152 215.518262 
L 398.557984 217.598077 
L 400.469815 217.933424 
L 402.381647 216.648974 
L 404.293479 214.048028 
L 406.205311 210.523382 
L 410.028975 202.1912 
L 411.940807 198.882692 
L 413.852639 198.20851 
L 415.764471 193.293545 
L 417.676302 185.030965 
L 419.588134 180.811501 
L 421.499966 178.03881 
L 423.411798 176.726936 
L 425.32363 177.341449 
L 427.235462 180.033109 
L 429.147294 184.075875 
L 434.882789 204.295137 
L 436.794621 210.080477 
L 438.706453 214.441622 
L 440.618285 217.460901 
L 440.618285 217.460901 
" clip-path="url(#p8bb90bf86d)" style="fill: none; stroke: #1f77b4; stroke-width: 1.5; stroke-linecap: square"/>
   </g>
   <g id="line2d_49">
    <path d="M 41.141012 173.697074 
L 459.641012 173.697074 
" clip-path="url(#p8bb90bf86d)" style="fill: none; stroke-dasharray: 5.55,2.4; stroke-dashoffset: 0; stroke: #008000; stroke-opacity: 0.3; stroke-width: 1.5"/>
   </g>
   <g id="patch_8">
    <path d="M 41.141012 333.526936 
L 41.141012 169.26027 
" style="fill: none; stroke: #000000; stroke-width: 0.8; stroke-linejoin: miter; stroke-linecap: square"/>
   </g>
   <g id="patch_9">
    <path d="M 459.641012 333.526936 
L 459.641012 169.26027 
" style="fill: none; stroke: #000000; stroke-width: 0.8; stroke-linejoin: miter; stroke-linecap: square"/>
   </g>
   <g id="patch_10">
    <path d="M 41.141012 333.526936 
L 459.641012 333.526936 
" style="fill: none; stroke: #000000; stroke-width: 0.8; stroke-linejoin: miter; stroke-linecap: square"/>
   </g>
   <g id="patch_11">
    <path d="M 41.141012 169.26027 
L 459.641012 169.26027 
" style="fill: none; stroke: #000000; stroke-width: 0.8; stroke-linejoin: miter; stroke-linecap: square"/>
   </g>
   <g id="legend_2">
    <g id="line2d_50">
     <path d="M 358.675788 250.179408 
L 370.675788 250.179408 
L 382.675788 250.179408 
" style="fill: none; stroke: #1f77b4; stroke-width: 1.5; stroke-linecap: square"/>
    </g>
    <g id="text_22">
     <!-- $XXZ+ S_x$ -->
     <g transform="translate(392.275788 254.379408) scale(0.12 -0.12)">
      <defs>
       <path id="CMMI12-58" d="M 3040 2586 
L 2438 3981 
C 2522 4134 2714 4159 2790 4166 
C 2829 4166 2899 4172 2899 4281 
C 2899 4352 2842 4352 2803 4352 
C 2694 4352 2566 4339 2458 4339 
L 2086 4339 
C 1696 4339 1414 4352 1408 4352 
C 1357 4352 1293 4352 1293 4230 
C 1293 4166 1350 4166 1434 4166 
C 1805 4166 1830 4102 1894 3949 
L 2656 2179 
L 1267 701 
C 1037 453 762 211 288 185 
C 211 179 160 179 160 64 
C 160 44 166 0 237 0 
C 326 0 422 12 512 12 
L 813 12 
C 1018 12 1242 0 1440 0 
C 1485 0 1562 0 1562 115 
C 1562 179 1517 185 1478 185 
C 1350 198 1267 268 1267 370 
C 1267 478 1344 555 1530 746 
L 2099 1363 
C 2240 1510 2579 1879 2720 2019 
L 3392 453 
C 3398 440 3424 376 3424 370 
C 3424 312 3283 198 3078 185 
C 3040 185 2970 179 2970 64 
C 2970 0 3034 0 3066 0 
C 3174 0 3302 12 3411 12 
L 4115 12 
C 4230 12 4352 0 4461 0 
C 4506 0 4576 0 4576 121 
C 4576 185 4512 185 4454 185 
C 4070 191 4058 223 3949 459 
L 3104 2433 
L 3917 3300 
C 3981 3363 4128 3523 4186 3586 
C 4461 3873 4717 4134 5235 4166 
C 5299 4172 5363 4172 5363 4281 
C 5363 4352 5306 4352 5280 4352 
C 5190 4352 5094 4339 5005 4339 
L 4710 4339 
C 4506 4339 4282 4352 4083 4352 
C 4038 4352 3962 4352 3962 4236 
C 3962 4172 4006 4166 4045 4166 
C 4147 4153 4256 4102 4256 3981 
L 4250 3968 
C 4243 3924 4230 3860 4160 3784 
L 3040 2586 
z
" transform="scale(0.015625)"/>
       <path id="CMMI12-5a" d="M 4480 4153 
C 4518 4198 4550 4236 4550 4300 
C 4550 4345 4544 4352 4397 4352 
L 1754 4352 
C 1606 4352 1600 4345 1562 4230 
L 1210 3083 
C 1190 3019 1190 3007 1190 2994 
C 1190 2968 1210 2930 1254 2930 
C 1306 2930 1318 2956 1344 3039 
C 1581 3726 1894 4166 2906 4166 
L 3955 4166 
L 448 217 
C 390 147 365 121 365 51 
C 365 0 397 0 518 0 
L 3251 0 
C 3398 0 3405 6 3443 121 
L 3891 1529 
C 3898 1548 3910 1593 3910 1618 
C 3910 1650 3885 1682 3846 1682 
C 3795 1682 3789 1676 3738 1516 
C 3469 695 3187 198 2074 198 
L 966 198 
L 4480 4153 
z
" transform="scale(0.015625)"/>
      </defs>
      <use xlink:href="#CMMI12-58" transform="scale(0.996264)"/>
      <use xlink:href="#CMMI12-58" transform="translate(88.792562 0) scale(0.996264)"/>
      <use xlink:href="#CMMI12-5a" transform="translate(177.585124 0) scale(0.996264)"/>
      <use xlink:href="#CMR17-2b" transform="translate(273.647923 0) scale(0.996264)"/>
      <use xlink:href="#CMMI12-53" transform="translate(367.501918 0) scale(0.996264)"/>
      <use xlink:href="#CMMI12-78" transform="translate(427.496406 -14.943915) scale(0.697382)"/>
     </g>
    </g>
   </g>
  </g>
 </g>
 <defs>
  <clipPath id="p51da0fcc1a">
   <rect x="41.141012" y="0.886936" width="418.5" height="164.266667"/>
  </clipPath>
  <clipPath id="p8bb90bf86d">
   <rect x="41.141012" y="169.26027" width="418.5" height="164.266667"/>
  </clipPath>
 </defs>
</svg>
