<?xml version="1.0" encoding="utf-8" standalone="no"?>
<!DOCTYPE svg PUBLIC "-//W3C//DTD SVG 1.1//EN"
  "http://www.w3.org/Graphics/SVG/1.1/DTD/svg11.dtd">
<svg xmlns:xlink="http://www.w3.org/1999/xlink" width="432pt" height="216pt" viewBox="0 0 432 216" xmlns="http://www.w3.org/2000/svg" version="1.1">
 <metadata>
  <rdf:RDF xmlns:dc="http://purl.org/dc/elements/1.1/" xmlns:cc="http://creativecommons.org/ns#" xmlns:rdf="http://www.w3.org/1999/02/22-rdf-syntax-ns#">
   <cc:Work>
    <dc:type rdf:resource="http://purl.org/dc/dcmitype/StillImage"/>
    <dc:date>2023-06-21T10:38:07.926656</dc:date>
    <dc:format>image/svg+xml</dc:format>
    <dc:creator>
     <cc:Agent>
      <dc:title>Matplotlib v3.7.1, https://matplotlib.org/</dc:title>
     </cc:Agent>
    </dc:creator>
   </cc:Work>
  </rdf:RDF>
 </metadata>
 <defs>
  <style type="text/css">*{stroke-linejoin: round; stroke-linecap: butt}</style>
 </defs>
 <g id="figure_1">
  <g id="patch_1">
   <path d="M 0 216 
L 432 216 
L 432 0 
L 0 0 
z
" style="fill: #ffffff"/>
  </g>
  <g id="axes_1">
   <g id="patch_2">
    <path d="M 42.463766 180.261122 
L 428.99976 180.261122 
L 428.99976 31.274827 
L 42.463766 31.274827 
z
" style="fill: #ffffff"/>
   </g>
   <g id="matplotlib.axis_1">
    <g id="xtick_1">
     <g id="line2d_1">
      <defs>
       <path id="m5c10221c8a" d="M 0 0 
L 0 -3.5 
" style="stroke: #000000; stroke-width: 0.8"/>
      </defs>
      <g>
       <use xlink:href="#m5c10221c8a" x="60.033584" y="180.261122" style="stroke: #000000; stroke-width: 0.8"/>
      </g>
     </g>
     <g id="text_1">
      <!-- $-\pi$ -->
      <g transform="translate(52.064179 192.063302) scale(0.12 -0.12)">
       <defs>
        <path id="CMSY10-0" d="M 4218 1472 
C 4326 1472 4442 1472 4442 1600 
C 4442 1728 4326 1728 4218 1728 
L 755 1728 
C 646 1728 531 1728 531 1600 
C 531 1472 646 1472 755 1472 
L 4218 1472 
z
" transform="scale(0.015625)"/>
        <path id="CMMI12-19" d="M 1658 2406 
L 2381 2406 
C 2208 1691 2099 1225 2099 715 
C 2099 625 2099 -64 2362 -64 
C 2496 -64 2611 57 2611 166 
C 2611 198 2611 210 2566 306 
C 2394 746 2394 1295 2394 1340 
C 2394 1378 2394 1832 2528 2406 
L 3245 2406 
C 3328 2406 3539 2406 3539 2611 
C 3539 2752 3418 2752 3302 2752 
L 1197 2752 
C 1050 2752 832 2752 538 2438 
C 371 2253 166 1915 166 1876 
C 166 1838 198 1825 237 1825 
C 282 1825 288 1844 320 1883 
C 653 2406 986 2406 1146 2406 
L 1510 2406 
C 1370 1927 1210 1372 685 255 
C 634 153 634 140 634 102 
C 634 -32 749 -64 806 -64 
C 992 -64 1043 102 1120 370 
C 1222 695 1222 708 1286 964 
L 1658 2406 
z
" transform="scale(0.015625)"/>
       </defs>
       <use xlink:href="#CMSY10-0" transform="scale(0.996264)"/>
       <use xlink:href="#CMMI12-19" transform="translate(77.487468 0) scale(0.996264)"/>
      </g>
     </g>
    </g>
    <g id="xtick_2">
     <g id="line2d_2">
      <g>
       <use xlink:href="#m5c10221c8a" x="147.882673" y="180.261122" style="stroke: #000000; stroke-width: 0.8"/>
      </g>
     </g>
     <g id="text_2">
      <!-- $-\pi/2$ -->
      <g transform="translate(133.845804 192.727499) scale(0.12 -0.12)">
       <defs>
        <path id="CMMI12-3d" d="M 2746 4563 
C 2746 4569 2784 4665 2784 4678 
C 2784 4755 2720 4800 2669 4800 
C 2637 4800 2579 4800 2528 4659 
L 384 -1364 
C 384 -1370 346 -1466 346 -1479 
C 346 -1556 410 -1600 461 -1600 
C 499 -1600 557 -1594 602 -1460 
L 2746 4563 
z
" transform="scale(0.015625)"/>
        <path id="CMR17-32" d="M 2669 990 
L 2554 990 
C 2490 537 2438 460 2413 422 
C 2381 371 1920 371 1830 371 
L 602 371 
C 832 620 1280 1073 1824 1596 
C 2214 1966 2669 2400 2669 3033 
C 2669 3788 2067 4224 1395 4224 
C 691 4224 262 3603 262 3027 
C 262 2777 448 2745 525 2745 
C 589 2745 781 2783 781 3007 
C 781 3206 614 3264 525 3264 
C 486 3264 448 3257 422 3244 
C 544 3788 915 4057 1306 4057 
C 1862 4057 2227 3616 2227 3033 
C 2227 2477 1901 1998 1536 1583 
L 262 147 
L 262 0 
L 2515 0 
L 2669 990 
z
" transform="scale(0.015625)"/>
       </defs>
       <use xlink:href="#CMSY10-0" transform="scale(0.996264)"/>
       <use xlink:href="#CMMI12-19" transform="translate(77.487468 0) scale(0.996264)"/>
       <use xlink:href="#CMMI12-3d" transform="translate(136.398068 0) scale(0.996264)"/>
       <use xlink:href="#CMR17-32" transform="translate(185.172987 0) scale(0.996264)"/>
      </g>
     </g>
    </g>
    <g id="xtick_3">
     <g id="line2d_3">
      <g>
       <use xlink:href="#m5c10221c8a" x="235.731763" y="180.261122" style="stroke: #000000; stroke-width: 0.8"/>
      </g>
     </g>
     <g id="text_3">
      <!-- 0 -->
      <g transform="translate(232.805268 192.063302) scale(0.12 -0.12)">
       <defs>
        <path id="CMSS17-30" d="M 2758 2073 
C 2758 2439 2752 3120 2490 3647 
C 2227 4153 1805 4288 1504 4288 
C 1069 4288 698 4031 506 3621 
C 301 3191 243 2748 243 2073 
C 243 1611 262 1046 493 551 
C 755 6 1197 -128 1498 -128 
C 1894 -128 2278 83 2496 525 
C 2720 988 2758 1495 2758 2073 
z
M 1498 262 
C 1011 262 864 821 819 1007 
C 742 1328 730 1636 730 2144 
C 730 2542 730 2992 851 3345 
C 998 3756 1254 3897 1498 3897 
C 1971 3897 2125 3422 2176 3255 
C 2272 2915 2272 2516 2272 2144 
C 2272 1546 2272 262 1498 262 
z
" transform="scale(0.015625)"/>
       </defs>
       <use xlink:href="#CMSS17-30" transform="scale(0.996264)"/>
      </g>
     </g>
    </g>
    <g id="xtick_4">
     <g id="line2d_4">
      <g>
       <use xlink:href="#m5c10221c8a" x="323.580853" y="180.261122" style="stroke: #000000; stroke-width: 0.8"/>
      </g>
     </g>
     <g id="text_4">
      <!-- $\pi/2$ -->
      <g transform="translate(314.193227 192.727499) scale(0.12 -0.12)">
       <use xlink:href="#CMMI12-19" transform="scale(0.996264)"/>
       <use xlink:href="#CMMI12-3d" transform="translate(58.910601 0) scale(0.996264)"/>
       <use xlink:href="#CMR17-32" transform="translate(107.68552 0) scale(0.996264)"/>
      </g>
     </g>
    </g>
    <g id="xtick_5">
     <g id="line2d_5">
      <g>
       <use xlink:href="#m5c10221c8a" x="411.429942" y="180.261122" style="stroke: #000000; stroke-width: 0.8"/>
      </g>
     </g>
     <g id="text_5">
      <!-- $\pi$ -->
      <g transform="translate(408.109782 192.063302) scale(0.12 -0.12)">
       <use xlink:href="#CMMI12-19" transform="scale(0.996264)"/>
      </g>
     </g>
    </g>
    <g id="text_6">
     <!-- $k$ -->
     <g transform="translate(231.926628 210.094015) scale(0.15 -0.15)">
      <defs>
       <path id="CMMI12-6b" d="M 1798 4255 
C 1805 4281 1818 4319 1818 4351 
C 1818 4416 1754 4416 1741 4416 
C 1734 4416 1504 4396 1389 4383 
C 1280 4377 1184 4364 1069 4358 
C 915 4345 870 4339 870 4223 
C 870 4159 934 4159 998 4159 
C 1325 4159 1325 4103 1325 4040 
C 1325 4014 1325 4002 1293 3888 
L 378 250 
C 352 153 352 141 352 102 
C 352 -39 461 -64 525 -64 
C 704 -64 742 76 794 275 
L 1094 1476 
C 1555 1425 1830 1232 1830 924 
C 1830 885 1830 860 1811 763 
C 1786 667 1786 590 1786 558 
C 1786 185 2029 -64 2355 -64 
C 2650 -64 2803 205 2854 295 
C 2989 532 3072 892 3072 917 
C 3072 949 3046 975 3008 975 
C 2950 975 2944 949 2918 847 
C 2829 513 2694 64 2368 64 
C 2240 64 2157 128 2157 372 
C 2157 494 2182 635 2208 731 
C 2234 847 2234 853 2234 930 
C 2234 1309 1894 1521 1306 1598 
C 1536 1739 1766 1989 1856 2086 
C 2221 2495 2470 2687 2765 2687 
C 2912 2687 2950 2655 2995 2624 
C 2758 2598 2669 2431 2669 2303 
C 2669 2150 2790 2099 2880 2099 
C 3053 2099 3206 2246 3206 2451 
C 3206 2634 3059 2816 2771 2816 
C 2419 2816 2131 2579 1677 2067 
C 1613 1989 1376 1746 1139 1656 
L 1798 4255 
z
" transform="scale(0.015625)"/>
      </defs>
      <use xlink:href="#CMMI12-6b" transform="scale(0.996264)"/>
     </g>
    </g>
   </g>
   <g id="matplotlib.axis_2">
    <g id="ytick_1">
     <g id="line2d_6">
      <defs>
       <path id="m9d0c3a4292" d="M 0 0 
L 3.5 0 
" style="stroke: #000000; stroke-width: 0.8"/>
      </defs>
      <g>
       <use xlink:href="#m9d0c3a4292" x="42.463766" y="180.261122" style="stroke: #000000; stroke-width: 0.8"/>
      </g>
     </g>
     <g id="text_7">
      <!-- $\mathdefault{0.4}$ -->
      <g transform="translate(24.006124 184.412212) scale(0.12 -0.12)">
       <defs>
        <path id="CMR17-30" d="M 2688 2038 
C 2688 2430 2682 3099 2413 3613 
C 2176 4063 1798 4224 1466 4224 
C 1158 4224 768 4082 525 3620 
C 269 3137 243 2539 243 2038 
C 243 1671 250 1112 448 623 
C 723 -39 1216 -128 1466 -128 
C 1760 -128 2208 -7 2470 604 
C 2662 1048 2688 1568 2688 2038 
z
M 1466 -26 
C 1056 -26 813 328 723 816 
C 653 1196 653 1749 653 2109 
C 653 2604 653 3015 736 3407 
C 858 3954 1216 4121 1466 4121 
C 1728 4121 2067 3947 2189 3420 
C 2272 3054 2278 2623 2278 2109 
C 2278 1691 2278 1176 2202 797 
C 2067 96 1690 -26 1466 -26 
z
" transform="scale(0.015625)"/>
        <path id="CMMI12-3a" d="M 1178 307 
C 1178 492 1024 620 870 620 
C 685 620 557 467 557 313 
C 557 128 710 0 864 0 
C 1050 0 1178 153 1178 307 
z
" transform="scale(0.015625)"/>
        <path id="CMR17-34" d="M 2150 4147 
C 2150 4281 2144 4288 2029 4288 
L 128 1254 
L 128 1088 
L 1779 1088 
L 1779 460 
C 1779 230 1766 166 1318 166 
L 1197 166 
L 1197 0 
C 1402 12 1747 12 1965 12 
C 2182 12 2528 12 2733 0 
L 2733 166 
L 2611 166 
C 2163 166 2150 230 2150 460 
L 2150 1088 
L 2803 1088 
L 2803 1254 
L 2150 1254 
L 2150 4147 
z
M 1798 3723 
L 1798 1254 
L 256 1254 
L 1798 3723 
z
" transform="scale(0.015625)"/>
       </defs>
       <use xlink:href="#CMR17-30" transform="scale(0.996264)"/>
       <use xlink:href="#CMMI12-3a" transform="translate(45.690477 0) scale(0.996264)"/>
       <use xlink:href="#CMR17-34" transform="translate(72.787654 0) scale(0.996264)"/>
      </g>
     </g>
    </g>
    <g id="ytick_2">
     <g id="line2d_7">
      <g>
       <use xlink:href="#m9d0c3a4292" x="42.463766" y="134.419185" style="stroke: #000000; stroke-width: 0.8"/>
      </g>
     </g>
     <g id="text_8">
      <!-- $\mathdefault{0.6}$ -->
      <g transform="translate(24.006124 138.570275) scale(0.12 -0.12)">
       <defs>
        <path id="CMR17-36" d="M 678 2198 
C 678 3712 1395 4076 1811 4076 
C 1946 4076 2272 4049 2400 3782 
C 2298 3782 2106 3782 2106 3558 
C 2106 3385 2246 3328 2336 3328 
C 2394 3328 2566 3353 2566 3571 
C 2566 3987 2246 4224 1805 4224 
C 1043 4224 243 3411 243 2011 
C 243 257 966 -128 1478 -128 
C 2099 -128 2688 431 2688 1295 
C 2688 2101 2170 2688 1517 2688 
C 1126 2688 838 2430 678 1979 
L 678 2198 
z
M 1478 25 
C 691 25 691 1212 691 1450 
C 691 1914 909 2585 1504 2585 
C 1613 2585 1926 2585 2138 2140 
C 2253 1889 2253 1624 2253 1302 
C 2253 954 2253 696 2118 438 
C 1978 173 1773 25 1478 25 
z
" transform="scale(0.015625)"/>
       </defs>
       <use xlink:href="#CMR17-30" transform="scale(0.996264)"/>
       <use xlink:href="#CMMI12-3a" transform="translate(45.690477 0) scale(0.996264)"/>
       <use xlink:href="#CMR17-36" transform="translate(72.787654 0) scale(0.996264)"/>
      </g>
     </g>
    </g>
    <g id="ytick_3">
     <g id="line2d_8">
      <g>
       <use xlink:href="#m9d0c3a4292" x="42.463766" y="88.577248" style="stroke: #000000; stroke-width: 0.8"/>
      </g>
     </g>
     <g id="text_9">
      <!-- $\mathdefault{0.8}$ -->
      <g transform="translate(24.006124 92.728338) scale(0.12 -0.12)">
       <defs>
        <path id="CMR17-38" d="M 1741 2289 
C 2144 2494 2554 2803 2554 3298 
C 2554 3884 1990 4224 1472 4224 
C 890 4224 378 3800 378 3215 
C 378 3054 416 2777 666 2533 
C 730 2469 998 2276 1171 2154 
C 883 2006 211 1652 211 945 
C 211 282 838 -128 1459 -128 
C 2144 -128 2720 366 2720 1022 
C 2720 1607 2330 1877 2074 2051 
L 1741 2289 
z
M 902 2855 
C 851 2887 595 3086 595 3388 
C 595 3781 998 4076 1459 4076 
C 1965 4076 2336 3716 2336 3298 
C 2336 2700 1670 2359 1638 2359 
C 1632 2359 1626 2359 1574 2398 
L 902 2855 
z
M 2080 1536 
C 2176 1466 2483 1253 2483 861 
C 2483 385 2010 25 1472 25 
C 890 25 448 443 448 951 
C 448 1459 838 1884 1280 2083 
L 2080 1536 
z
" transform="scale(0.015625)"/>
       </defs>
       <use xlink:href="#CMR17-30" transform="scale(0.996264)"/>
       <use xlink:href="#CMMI12-3a" transform="translate(45.690477 0) scale(0.996264)"/>
       <use xlink:href="#CMR17-38" transform="translate(72.787654 0) scale(0.996264)"/>
      </g>
     </g>
    </g>
    <g id="ytick_4">
     <g id="line2d_9">
      <g>
       <use xlink:href="#m9d0c3a4292" x="42.463766" y="42.735311" style="stroke: #000000; stroke-width: 0.8"/>
      </g>
     </g>
     <g id="text_10">
      <!-- $\mathdefault{1.0}$ -->
      <g transform="translate(24.006124 46.886401) scale(0.12 -0.12)">
       <defs>
        <path id="CMR17-31" d="M 1702 4083 
C 1702 4217 1696 4224 1606 4224 
C 1357 3927 979 3833 621 3820 
C 602 3820 570 3820 563 3808 
C 557 3795 557 3782 557 3648 
C 755 3648 1088 3686 1344 3839 
L 1344 467 
C 1344 243 1331 166 781 166 
L 589 166 
L 589 0 
C 896 6 1216 12 1523 12 
C 1830 12 2150 6 2458 0 
L 2458 166 
L 2266 166 
C 1715 166 1702 236 1702 467 
L 1702 4083 
z
" transform="scale(0.015625)"/>
       </defs>
       <use xlink:href="#CMR17-31" transform="scale(0.996264)"/>
       <use xlink:href="#CMMI12-3a" transform="translate(45.690477 0) scale(0.996264)"/>
       <use xlink:href="#CMR17-30" transform="translate(72.787654 0) scale(0.996264)"/>
      </g>
     </g>
    </g>
    <g id="text_11">
     <!-- $\phi_{{_{{IPR}}}}(k)$ -->
     <g transform="translate(15.687359 130.9405) rotate(-90) scale(0.17 -0.17)">
      <defs>
       <path id="CMMI12-1e" d="M 2752 4358 
C 2752 4416 2707 4416 2688 4416 
C 2630 4416 2624 4403 2598 4294 
L 2253 2924 
C 2234 2841 2227 2835 2221 2828 
C 2214 2816 2170 2809 2157 2809 
C 1107 2720 301 1863 301 1071 
C 301 387 832 -32 1498 -71 
C 1446 -266 1402 -467 1350 -662 
C 1261 -995 1210 -1204 1210 -1229 
C 1210 -1242 1210 -1280 1274 -1280 
C 1293 -1280 1318 -1280 1331 -1255 
C 1344 -1242 1382 -1089 1408 -1008 
L 1645 -71 
C 2739 -13 3571 875 3571 1673 
C 3571 2313 3085 2771 2374 2816 
L 2752 4358 
z
M 2336 2688 
C 2758 2662 3181 2428 3181 1806 
C 3181 1090 2675 140 1677 64 
L 2336 2688 
z
M 1530 57 
C 1216 76 691 241 691 938 
C 691 1737 1274 2624 2195 2681 
L 1530 57 
z
" transform="scale(0.015625)"/>
       <path id="CMMI12-49" d="M 2355 3879 
C 2413 4102 2426 4166 2893 4166 
C 3034 4166 3085 4166 3085 4287 
C 3085 4352 3014 4352 2995 4352 
C 2880 4352 2739 4339 2624 4339 
L 1837 4339 
C 1709 4339 1562 4352 1434 4352 
C 1382 4352 1312 4352 1312 4230 
C 1312 4166 1363 4166 1491 4166 
C 1888 4166 1888 4115 1888 4045 
C 1888 4000 1875 3962 1862 3905 
L 998 472 
C 941 249 928 185 461 185 
C 320 185 262 185 262 64 
C 262 0 326 0 358 0 
C 474 0 614 12 730 12 
L 1517 12 
C 1645 12 1786 0 1914 0 
C 1965 0 2042 0 2042 115 
C 2042 185 2003 185 1862 185 
C 1466 185 1466 236 1466 312 
C 1466 325 1466 357 1491 459 
L 2355 3879 
z
" transform="scale(0.015625)"/>
       <path id="CMMI12-50" d="M 1894 2022 
L 2970 2022 
C 3853 2022 4736 2673 4736 3400 
C 4736 3898 4314 4352 3507 4352 
L 1530 4352 
C 1408 4352 1350 4352 1350 4230 
C 1350 4166 1408 4166 1504 4166 
C 1894 4166 1894 4115 1894 4045 
C 1894 4032 1894 3994 1869 3898 
L 1005 471 
C 947 249 934 185 486 185 
C 365 185 301 185 301 70 
C 301 0 358 0 397 0 
C 518 0 646 12 768 12 
L 1517 12 
C 1638 12 1773 0 1894 0 
C 1946 0 2016 0 2016 121 
C 2016 185 1958 185 1862 185 
C 1478 185 1472 230 1472 293 
C 1472 325 1478 369 1485 401 
L 1894 2022 
z
M 2355 3917 
C 2413 4153 2438 4166 2688 4166 
L 3322 4166 
C 3802 4166 4198 4013 4198 3534 
C 4198 3369 4115 2826 3821 2533 
C 3712 2418 3405 2176 2822 2176 
L 1920 2176 
L 2355 3917 
z
" transform="scale(0.015625)"/>
       <path id="CMMI12-52" d="M 2355 3917 
C 2413 4153 2438 4166 2688 4166 
L 3149 4166 
C 3699 4166 4109 4000 4109 3503 
C 4109 3177 3942 2240 2656 2240 
L 1933 2240 
L 2355 3917 
z
M 3245 2163 
C 4038 2335 4659 2846 4659 3394 
C 4659 3892 4154 4352 3264 4352 
L 1530 4352 
C 1402 4352 1344 4352 1344 4230 
C 1344 4166 1389 4166 1510 4166 
C 1894 4166 1894 4115 1894 4045 
C 1894 4032 1894 3994 1869 3898 
L 1005 475 
C 947 253 934 190 493 190 
C 346 190 301 190 301 69 
C 301 6 371 6 390 6 
C 506 6 640 19 762 19 
L 1517 19 
C 1632 19 1766 6 1882 6 
C 1933 6 2003 6 2003 126 
C 2003 190 1946 190 1850 190 
C 1459 190 1459 241 1459 304 
C 1459 310 1459 355 1472 405 
L 1901 2112 
L 2669 2112 
C 3277 2112 3392 1731 3392 1522 
C 3392 1426 3328 1179 3283 1014 
C 3213 723 3194 653 3194 532 
C 3194 82 3565 -128 3994 -128 
C 4512 -128 4736 501 4736 589 
C 4736 634 4704 653 4666 653 
C 4614 653 4602 615 4589 564 
C 4435 114 4173 0 4013 0 
C 3853 0 3750 69 3750 355 
C 3750 507 3827 1084 3834 1116 
C 3866 1350 3866 1376 3866 1426 
C 3866 1889 3488 2086 3245 2163 
z
" transform="scale(0.015625)"/>
       <path id="CMR17-28" d="M 1958 -1562 
C 1958 -1556 1958 -1543 1939 -1524 
C 1645 -1223 858 -403 858 1596 
C 858 3595 1632 4408 1946 4729 
C 1946 4735 1958 4748 1958 4767 
C 1958 4787 1939 4800 1914 4800 
C 1843 4800 1299 4325 986 3620 
C 666 2909 576 2218 576 1603 
C 576 1141 621 360 1005 -467 
C 1312 -1133 1837 -1600 1914 -1600 
C 1946 -1600 1958 -1588 1958 -1562 
z
" transform="scale(0.015625)"/>
       <path id="CMR17-29" d="M 1683 1596 
C 1683 2057 1638 2839 1254 3665 
C 947 4332 422 4800 346 4800 
C 326 4800 301 4793 301 4761 
C 301 4748 307 4742 314 4729 
C 621 4408 1402 3595 1402 1603 
C 1402 -396 627 -1210 314 -1530 
C 307 -1543 301 -1549 301 -1562 
C 301 -1594 326 -1600 346 -1600 
C 416 -1600 960 -1127 1274 -422 
C 1594 289 1683 981 1683 1596 
z
" transform="scale(0.015625)"/>
      </defs>
      <use xlink:href="#CMMI12-1e" transform="scale(0.996264)"/>
      <use xlink:href="#CMMI12-49" transform="translate(57.73418 -25.404611) scale(0.498132)"/>
      <use xlink:href="#CMMI12-50" transform="translate(83.16243 -25.404611) scale(0.498132)"/>
      <use xlink:href="#CMMI12-52" transform="translate(121.375333 -25.404611) scale(0.498132)"/>
      <use xlink:href="#CMR17-28" transform="translate(159.907078 0) scale(0.996264)"/>
      <use xlink:href="#CMMI12-6b" transform="translate(195.187845 0) scale(0.996264)"/>
      <use xlink:href="#CMR17-29" transform="translate(249.267046 0) scale(0.996264)"/>
     </g>
    </g>
   </g>
   <g id="line2d_10">
    <path d="M 60.033584 42.735311 
L 61.208823 44.792193 
L 62.384061 49.748677 
L 63.5593 56.840277 
L 65.909777 74.370876 
L 68.260255 91.386183 
L 69.435493 98.573606 
L 70.610732 104.880525 
L 71.785971 110.352167 
L 72.961209 115.071507 
L 74.136448 119.132828 
L 75.311686 122.628054 
L 76.486925 125.637064 
L 77.662164 128.235902 
L 78.837402 130.496624 
L 80.012641 132.469644 
L 81.18788 134.198071 
L 83.538357 137.074301 
L 85.888834 139.35734 
L 88.239312 141.215116 
L 90.589789 142.765907 
L 92.940266 144.095139 
L 96.465982 145.81218 
L 101.166937 147.81798 
L 111.744085 152.207505 
L 121.145994 156.355524 
L 123.496471 157.090134 
L 124.67171 157.297612 
L 125.846949 157.33287 
L 127.022187 157.123657 
L 128.197426 156.593833 
L 129.372665 155.617525 
L 130.547903 154.032179 
L 131.723142 151.669242 
L 132.898381 148.28204 
L 134.073619 143.563114 
L 135.248858 137.211278 
L 136.424097 129.055301 
L 137.599335 119.030563 
L 138.774574 107.110979 
L 142.30029 68.274181 
L 143.475529 57.860127 
L 144.650767 49.899902 
L 145.826006 44.924045 
L 147.001245 42.860882 
L 148.176483 43.05987 
L 149.351722 44.853195 
L 150.52696 47.71782 
L 152.877438 55.167026 
L 156.403154 66.984361 
L 158.753631 74.223277 
L 161.104108 80.759772 
L 163.454586 86.641244 
L 165.805063 91.973814 
L 168.15554 96.870136 
L 171.681256 103.613573 
L 175.206972 109.876691 
L 181.083166 119.766524 
L 191.660313 136.998428 
L 196.361268 144.303647 
L 199.886984 149.312253 
L 202.237461 152.245065 
L 204.587939 154.689136 
L 205.763177 155.67029 
L 206.938416 156.455836 
L 208.113655 157.012163 
L 209.288893 157.304665 
L 210.464132 157.295389 
L 211.639371 156.937807 
L 212.814609 156.184031 
L 213.989848 154.982776 
L 215.165087 153.273529 
L 216.340325 150.994228 
L 217.515564 148.081577 
L 218.690803 144.468732 
L 219.866041 140.088219 
L 221.04128 134.880442 
L 222.216518 128.809849 
L 223.391757 121.845462 
L 224.566996 113.987681 
L 226.917473 96.020511 
L 230.443189 66.837236 
L 231.618428 58.186905 
L 232.793666 50.971453 
L 233.968905 45.795017 
L 235.144144 43.157965 
L 236.319382 43.157965 
L 237.494621 45.795017 
L 238.66986 50.971453 
L 239.845098 58.186905 
L 241.020337 66.837236 
L 246.89653 113.987681 
L 248.071769 121.845462 
L 249.247008 128.809849 
L 250.422246 134.880442 
L 251.597485 140.088219 
L 252.772724 144.468732 
L 253.947962 148.081577 
L 255.123201 150.994228 
L 256.29844 153.273529 
L 257.473678 154.982776 
L 258.648917 156.184031 
L 259.824155 156.937807 
L 260.999394 157.295389 
L 262.174633 157.304665 
L 263.349871 157.012163 
L 264.52511 156.455836 
L 265.700349 155.67029 
L 266.875587 154.689136 
L 269.226065 152.245065 
L 271.576542 149.312253 
L 273.927019 146.035029 
L 277.452735 140.709919 
L 283.328929 131.312782 
L 292.730838 115.861541 
L 297.431792 107.828281 
L 300.957508 101.43102 
L 304.483224 94.469761 
L 306.833702 89.369083 
L 309.184179 83.77599 
L 311.534656 77.579638 
L 313.885134 70.689061 
L 316.235611 63.119222 
L 319.761327 51.277407 
L 320.936566 47.71782 
L 322.111804 44.853195 
L 323.287043 43.05987 
L 324.462282 42.860882 
L 325.63752 44.924045 
L 326.812759 49.899902 
L 327.987998 57.860127 
L 329.163236 68.274181 
L 331.513713 93.905653 
L 332.688952 107.110979 
L 333.864191 119.030563 
L 335.039429 129.055301 
L 336.214668 137.211278 
L 337.389907 143.563114 
L 338.565145 148.28204 
L 339.740384 151.669242 
L 340.915623 154.032179 
L 342.090861 155.617525 
L 343.2661 156.593833 
L 344.441339 157.123657 
L 345.616577 157.33287 
L 346.791816 157.297612 
L 347.967055 157.090134 
L 350.317532 156.355524 
L 353.843248 154.863757 
L 363.245157 150.695095 
L 376.172782 145.268148 
L 379.698498 143.453563 
L 382.048976 142.022933 
L 384.399453 140.331464 
L 386.74993 138.277544 
L 389.100408 135.723038 
L 390.275646 134.198071 
L 391.450885 132.469644 
L 392.626124 130.496624 
L 393.801362 128.235902 
L 394.976601 125.637064 
L 396.15184 122.628054 
L 397.327078 119.132828 
L 398.502317 115.071507 
L 399.677556 110.352167 
L 400.852794 104.880525 
L 402.028033 98.573606 
L 403.203272 91.386183 
L 404.37851 83.280902 
L 407.904226 56.840277 
L 409.079465 49.748677 
L 410.254703 44.792193 
L 411.429942 42.735311 
L 411.429942 42.735311 
" clip-path="url(#pb6fcd80c92)" style="fill: none; stroke: #1f77b4; stroke-width: 1.5; stroke-linecap: square"/>
   </g>
   <g id="line2d_11">
    <path d="M 60.033584 42.735311 
L 61.208823 42.905228 
L 62.384061 43.483957 
L 63.5593 44.406962 
L 64.734539 45.609706 
L 67.085016 48.59626 
L 72.961209 56.753501 
L 75.311686 59.482354 
L 77.662164 61.747147 
L 80.012641 63.573793 
L 82.363118 65.029718 
L 84.713596 66.195889 
L 88.239312 67.580684 
L 98.81646 71.243826 
L 101.166937 72.316142 
L 103.517414 73.592877 
L 105.867892 75.128548 
L 108.218369 76.983422 
L 110.568846 79.227082 
L 112.919323 81.939737 
L 115.269801 85.21442 
L 117.620278 89.158756 
L 119.970755 93.890231 
L 122.321233 99.530502 
L 124.67171 106.182497 
L 127.022187 113.890014 
L 129.372665 122.580527 
L 135.248858 145.642855 
L 136.424097 149.567757 
L 137.599335 152.868736 
L 138.774574 155.353478 
L 139.949813 156.875679 
L 141.125051 157.328826 
L 142.30029 156.613126 
L 143.475529 154.734623 
L 144.650767 151.795881 
L 145.826006 147.905269 
L 147.001245 143.219993 
L 149.351722 132.282664 
L 155.227915 103.466566 
L 157.578392 93.426481 
L 159.92887 84.634225 
L 162.279347 77.056906 
L 164.629824 70.570415 
L 166.980302 65.031321 
L 169.330779 60.299743 
L 171.681256 56.256203 
L 174.031734 52.806743 
L 176.382211 49.882138 
L 178.732688 47.44093 
L 181.083166 45.469834 
L 183.433643 43.984846 
L 184.608881 43.440094 
L 185.78412 43.039844 
L 186.959359 42.800205 
L 188.134597 42.737917 
L 189.309836 42.875242 
L 190.485075 43.244519 
L 191.660313 43.879235 
L 192.835552 44.822054 
L 194.010791 46.133329 
L 195.186029 47.875546 
L 196.361268 50.127669 
L 197.536507 53.002271 
L 198.711745 56.616096 
L 199.886984 61.100371 
L 201.062223 66.617549 
L 202.237461 73.334057 
L 203.4127 81.393968 
L 204.587939 90.89034 
L 205.763177 101.90815 
L 209.288893 138.651279 
L 210.464132 148.524275 
L 211.639371 155.177278 
L 212.814609 157.317001 
L 213.989848 154.289818 
L 215.165087 147.177356 
L 216.340325 137.352549 
L 221.04128 92.621051 
L 222.216518 83.49967 
L 223.391757 75.53386 
L 224.566996 68.684998 
L 225.742234 62.860529 
L 226.917473 57.956996 
L 228.092712 53.876204 
L 229.26795 50.53804 
L 230.443189 47.866274 
L 231.618428 45.792532 
L 232.793666 44.277133 
L 233.968905 43.286947 
L 235.144144 42.794532 
L 236.319382 42.794532 
L 237.494621 43.286947 
L 238.66986 44.277133 
L 239.845098 45.792532 
L 241.020337 47.866274 
L 242.195576 50.53804 
L 243.370814 53.876204 
L 244.546053 57.956996 
L 245.721292 62.860529 
L 246.89653 68.684998 
L 248.071769 75.53386 
L 249.247008 83.49967 
L 250.422246 92.621051 
L 251.597485 102.919977 
L 255.123201 137.352549 
L 256.29844 147.177356 
L 257.473678 154.289818 
L 258.648917 157.317001 
L 259.824155 155.177278 
L 260.999394 148.524275 
L 262.174633 138.651279 
L 264.52511 114.218311 
L 265.700349 101.90815 
L 266.875587 90.89034 
L 268.050826 81.393968 
L 269.226065 73.334057 
L 270.401303 66.617549 
L 271.576542 61.100371 
L 272.751781 56.616096 
L 273.927019 53.002271 
L 275.102258 50.127669 
L 276.277497 47.875546 
L 277.452735 46.133329 
L 278.627974 44.822054 
L 279.803213 43.879235 
L 280.978451 43.244519 
L 282.15369 42.875242 
L 283.328929 42.737917 
L 284.504167 42.800205 
L 285.679406 43.039844 
L 286.854645 43.440094 
L 288.029883 43.984846 
L 290.380361 45.469834 
L 292.730838 47.44093 
L 295.081315 49.882138 
L 297.431792 52.806743 
L 299.78227 56.256203 
L 302.132747 60.299743 
L 304.483224 65.031321 
L 306.833702 70.570415 
L 309.184179 77.056906 
L 311.534656 84.634225 
L 313.885134 93.426481 
L 316.235611 103.466566 
L 318.586088 114.609921 
L 323.287043 137.944198 
L 324.462282 143.219993 
L 325.63752 147.905269 
L 326.812759 151.795881 
L 327.987998 154.734623 
L 329.163236 156.613126 
L 330.338475 157.328826 
L 331.513713 156.875679 
L 332.688952 155.353478 
L 333.864191 152.868736 
L 335.039429 149.567757 
L 336.214668 145.642855 
L 338.565145 136.672031 
L 343.2661 118.12595 
L 345.616577 109.906298 
L 347.967055 102.724319 
L 350.317532 96.589814 
L 352.668009 91.418362 
L 355.018487 87.095797 
L 357.368964 83.500433 
L 359.719441 80.519158 
L 362.069919 78.052055 
L 364.420396 76.011947 
L 366.770873 74.324691 
L 369.12135 72.925722 
L 371.471828 71.757649 
L 374.997544 70.324983 
L 379.698498 68.747393 
L 384.399453 67.154961 
L 386.74993 66.195889 
L 389.100408 65.029718 
L 391.450885 63.573793 
L 393.801362 61.747147 
L 396.15184 59.482354 
L 398.502317 56.753501 
L 400.852794 53.618106 
L 405.553749 47.027651 
L 406.728987 45.609706 
L 407.904226 44.406962 
L 409.079465 43.483957 
L 410.254703 42.905228 
L 411.429942 42.735311 
L 411.429942 42.735311 
" clip-path="url(#pb6fcd80c92)" style="fill: none; stroke: #ff7f0e; stroke-width: 1.5; stroke-linecap: square"/>
   </g>
   <g id="line2d_12">
    <path d="M 60.033584 42.735311 
L 61.208823 44.460132 
L 62.384061 48.639785 
L 63.5593 54.620542 
L 65.909777 69.37045 
L 68.260255 83.580032 
L 69.435493 89.512049 
L 70.610732 94.653557 
L 71.785971 99.037412 
L 72.961209 102.732392 
L 74.136448 105.818038 
L 75.311686 108.371913 
L 76.486925 110.46148 
L 77.662164 112.150988 
L 78.837402 113.501283 
L 80.012641 114.554776 
L 81.18788 115.34765 
L 82.363118 115.914345 
L 83.538357 116.279261 
L 84.713596 116.463204 
L 85.888834 116.485979 
L 87.064073 116.361275 
L 88.239312 116.100456 
L 89.41455 115.714379 
L 91.765028 114.595332 
L 94.115505 113.052057 
L 96.465982 111.114286 
L 98.81646 108.800126 
L 101.166937 106.118662 
L 103.517414 103.072772 
L 105.867892 99.662254 
L 108.218369 95.885785 
L 110.568846 91.744495 
L 112.919323 87.245722 
L 116.445039 79.871962 
L 119.970755 71.886876 
L 127.022187 55.566553 
L 129.372665 50.764662 
L 130.547903 48.650236 
L 131.723142 46.786826 
L 132.898381 45.220761 
L 134.073619 43.999359 
L 135.248858 43.169462 
L 136.424097 42.769521 
L 137.599335 42.831111 
L 138.774574 43.384593 
L 139.949813 44.442179 
L 141.125051 46.000382 
L 142.30029 48.054189 
L 143.475529 50.578766 
L 144.650767 53.53121 
L 147.001245 60.532783 
L 149.351722 68.590442 
L 157.578392 98.172788 
L 159.92887 105.578558 
L 162.279347 112.198071 
L 164.629824 118.00414 
L 166.980302 123.020474 
L 169.330779 127.301621 
L 171.681256 130.918905 
L 174.031734 133.94691 
L 176.382211 136.458321 
L 178.732688 138.519163 
L 181.083166 140.186914 
L 183.433643 141.510518 
L 185.78412 142.529191 
L 188.134597 143.273195 
L 190.485075 143.764462 
L 192.835552 144.015736 
L 195.186029 144.030868 
L 197.536507 143.804739 
L 199.886984 143.321192 
L 202.237461 142.551429 
L 204.587939 141.452245 
L 206.938416 139.960176 
L 209.288893 137.985635 
L 210.464132 136.781717 
L 211.639371 135.407165 
L 212.814609 133.840134 
L 213.989848 132.055779 
L 215.165087 130.021109 
L 216.340325 127.701764 
L 217.515564 125.059713 
L 218.690803 122.046367 
L 219.866041 118.611251 
L 221.04128 114.70278 
L 222.216518 110.265978 
L 223.391757 105.245228 
L 224.566996 99.598257 
L 225.742234 93.326008 
L 228.092712 79.002738 
L 231.618428 56.333231 
L 232.793666 50.078714 
L 233.968905 45.506753 
L 235.144144 43.167117 
L 236.319382 43.167117 
L 237.494621 45.506753 
L 238.66986 50.078714 
L 239.845098 56.333231 
L 242.195576 71.288301 
L 244.546053 86.438167 
L 246.89653 99.598257 
L 248.071769 105.245228 
L 249.247008 110.265978 
L 250.422246 114.70278 
L 251.597485 118.611251 
L 252.772724 122.046367 
L 253.947962 125.059713 
L 255.123201 127.701764 
L 256.29844 130.021109 
L 257.473678 132.055779 
L 258.648917 133.840134 
L 259.824155 135.407165 
L 262.174633 137.985635 
L 264.52511 139.960176 
L 266.875587 141.452245 
L 269.226065 142.551429 
L 271.576542 143.321192 
L 273.927019 143.804739 
L 276.277497 144.030868 
L 278.627974 144.015736 
L 280.978451 143.764462 
L 283.328929 143.273195 
L 285.679406 142.529191 
L 288.029883 141.510518 
L 290.380361 140.186914 
L 292.730838 138.519163 
L 295.081315 136.458321 
L 297.431792 133.94691 
L 299.78227 130.918905 
L 302.132747 127.301621 
L 304.483224 123.020474 
L 306.833702 118.00414 
L 309.184179 112.198071 
L 311.534656 105.578558 
L 313.885134 98.172788 
L 316.235611 90.092087 
L 324.462282 60.532783 
L 326.812759 53.53121 
L 327.987998 50.578766 
L 329.163236 48.054189 
L 330.338475 46.000382 
L 331.513713 44.442179 
L 332.688952 43.384593 
L 333.864191 42.831111 
L 335.039429 42.769521 
L 336.214668 43.169462 
L 337.389907 43.999359 
L 338.565145 45.220761 
L 339.740384 46.786826 
L 340.915623 48.650236 
L 343.2661 53.085054 
L 345.616577 58.168874 
L 351.492771 71.886876 
L 355.018487 79.871962 
L 358.544203 87.245722 
L 360.89468 91.744495 
L 363.245157 95.885785 
L 365.595635 99.662254 
L 367.946112 103.072772 
L 370.296589 106.118662 
L 372.647066 108.800126 
L 374.997544 111.114286 
L 377.348021 113.052057 
L 379.698498 114.595332 
L 382.048976 115.714379 
L 383.224214 116.100456 
L 384.399453 116.361275 
L 385.574692 116.485979 
L 386.74993 116.463204 
L 387.925169 116.279261 
L 389.100408 115.914345 
L 390.275646 115.34765 
L 391.450885 114.554776 
L 392.626124 113.501283 
L 393.801362 112.150988 
L 394.976601 110.46148 
L 396.15184 108.371913 
L 397.327078 105.818038 
L 398.502317 102.732392 
L 399.677556 99.037412 
L 400.852794 94.653557 
L 402.028033 89.512049 
L 403.203272 83.580032 
L 404.37851 76.832143 
L 407.904226 54.620542 
L 409.079465 48.639785 
L 410.254703 44.460132 
L 411.429942 42.735311 
L 411.429942 42.735311 
" clip-path="url(#pb6fcd80c92)" style="fill: none; stroke: #2ca02c; stroke-width: 1.5; stroke-linecap: square"/>
   </g>
   <g id="line2d_13">
    <path d="M 60.033584 42.735311 
L 61.208823 42.936275 
L 62.384061 43.598809 
L 63.5593 44.616142 
L 65.909777 47.288114 
L 68.260255 50.106484 
L 69.435493 51.35989 
L 70.610732 52.44017 
L 71.785971 53.305617 
L 72.961209 53.950749 
L 74.136448 54.380939 
L 75.311686 54.603664 
L 76.486925 54.637118 
L 77.662164 54.502908 
L 78.837402 54.222707 
L 81.18788 53.312644 
L 83.538357 52.078764 
L 88.239312 49.195537 
L 91.765028 47.076474 
L 95.290744 45.251642 
L 97.641221 44.270383 
L 99.991698 43.511651 
L 102.342176 42.998826 
L 104.692653 42.753485 
L 107.04313 42.80033 
L 109.393608 43.171171 
L 111.744085 43.909277 
L 114.094562 45.077519 
L 115.269801 45.848982 
L 116.445039 46.764272 
L 117.620278 47.838645 
L 118.795517 49.092938 
L 119.970755 50.551493 
L 121.145994 52.239368 
L 122.321233 54.189567 
L 123.496471 56.440365 
L 124.67171 59.030782 
L 125.846949 62.008301 
L 127.022187 65.426327 
L 128.197426 69.33826 
L 129.372665 73.795741 
L 130.547903 78.849115 
L 131.723142 84.545858 
L 132.898381 90.890288 
L 135.248858 105.397044 
L 139.949813 137.163749 
L 141.125051 143.954728 
L 142.30029 149.528081 
L 143.475529 153.659197 
L 144.650767 156.275869 
L 145.826006 157.319353 
L 147.001245 156.89998 
L 148.176483 155.290598 
L 149.351722 152.769736 
L 150.52696 149.594808 
L 152.877438 142.223377 
L 156.403154 131.160883 
L 158.753631 124.774421 
L 161.104108 119.443758 
L 162.279347 117.180627 
L 163.454586 115.17514 
L 164.629824 113.417236 
L 165.805063 111.894371 
L 166.980302 110.593869 
L 168.15554 109.503898 
L 169.330779 108.613744 
L 170.506018 107.912801 
L 171.681256 107.391806 
L 172.856495 107.043365 
L 174.031734 106.860249 
L 175.206972 106.8365 
L 176.382211 106.968028 
L 177.55745 107.25091 
L 178.732688 107.682244 
L 179.907927 108.260709 
L 181.083166 108.985133 
L 182.258404 109.855076 
L 183.433643 110.871302 
L 185.78412 113.346462 
L 188.134597 116.422445 
L 190.485075 120.112138 
L 192.835552 124.421234 
L 195.186029 129.328462 
L 197.536507 134.765443 
L 204.587939 151.800507 
L 205.763177 154.043381 
L 206.938416 155.825057 
L 208.113655 156.979299 
L 209.288893 157.334305 
L 210.464132 156.728435 
L 211.639371 155.026069 
L 212.814609 152.095775 
L 213.989848 147.860196 
L 215.165087 142.388677 
L 216.340325 135.775244 
L 218.690803 119.827888 
L 223.391757 85.1077 
L 225.742234 70.295558 
L 226.917473 64.018411 
L 228.092712 58.57964 
L 229.26795 53.976404 
L 230.443189 50.192417 
L 231.618428 47.209649 
L 232.793666 45.003705 
L 233.968905 43.548739 
L 235.144144 42.823346 
L 236.319382 42.823346 
L 237.494621 43.548739 
L 238.66986 45.003705 
L 239.845098 47.209649 
L 241.020337 50.192417 
L 242.195576 53.976404 
L 243.370814 58.57964 
L 244.546053 64.018411 
L 245.721292 70.295558 
L 246.89653 77.351312 
L 249.247008 93.463656 
L 253.947962 128.16179 
L 255.123201 135.775244 
L 256.29844 142.388677 
L 257.473678 147.860196 
L 258.648917 152.095775 
L 259.824155 155.026069 
L 260.999394 156.728435 
L 262.174633 157.334305 
L 263.349871 156.979299 
L 264.52511 155.825057 
L 265.700349 154.043381 
L 266.875587 151.800507 
L 269.226065 146.429487 
L 275.102258 131.989178 
L 277.452735 126.802565 
L 279.803213 122.189547 
L 282.15369 118.190046 
L 284.504167 114.808425 
L 286.854645 112.034691 
L 289.205122 109.855076 
L 290.380361 108.985133 
L 291.555599 108.260709 
L 292.730838 107.682244 
L 293.906076 107.25091 
L 295.081315 106.968028 
L 296.256554 106.8365 
L 297.431792 106.860249 
L 298.607031 107.043365 
L 299.78227 107.391806 
L 300.957508 107.912801 
L 302.132747 108.613744 
L 303.307986 109.503898 
L 304.483224 110.593869 
L 305.658463 111.894371 
L 306.833702 113.417236 
L 308.00894 115.17514 
L 309.184179 117.180627 
L 310.359418 119.443758 
L 311.534656 121.972609 
L 313.885134 127.84301 
L 316.235611 134.708141 
L 320.936566 149.594808 
L 322.111804 152.769736 
L 323.287043 155.290598 
L 324.462282 156.89998 
L 325.63752 157.319353 
L 326.812759 156.275869 
L 327.987998 153.659197 
L 329.163236 149.528081 
L 330.338475 143.954728 
L 331.513713 137.163749 
L 333.864191 121.50234 
L 337.389907 97.853145 
L 339.740384 84.545858 
L 340.915623 78.849115 
L 342.090861 73.795741 
L 343.2661 69.33826 
L 344.441339 65.426327 
L 345.616577 62.008301 
L 346.791816 59.030782 
L 347.967055 56.440365 
L 349.142293 54.189567 
L 350.317532 52.239368 
L 351.492771 50.551493 
L 352.668009 49.092938 
L 353.843248 47.838645 
L 355.018487 46.764272 
L 356.193725 45.848982 
L 358.544203 44.435153 
L 360.89468 43.490845 
L 363.245157 42.942776 
L 365.595635 42.73873 
L 367.946112 42.841254 
L 370.296589 43.223176 
L 372.647066 43.861643 
L 374.997544 44.734765 
L 377.348021 45.81738 
L 380.873737 47.759324 
L 390.275646 53.312644 
L 392.626124 54.222707 
L 393.801362 54.502908 
L 394.976601 54.637118 
L 396.15184 54.603664 
L 397.327078 54.380939 
L 398.502317 53.950749 
L 399.677556 53.305617 
L 400.852794 52.44017 
L 402.028033 51.35989 
L 404.37851 48.729209 
L 406.728987 45.881501 
L 407.904226 44.616142 
L 409.079465 43.598809 
L 410.254703 42.936275 
L 411.429942 42.735311 
L 411.429942 42.735311 
" clip-path="url(#pb6fcd80c92)" style="fill: none; stroke: #d62728; stroke-width: 1.5; stroke-linecap: square"/>
   </g>
   <g id="patch_3">
    <path d="M 42.463766 180.261122 
L 42.463766 31.274827 
" style="fill: none; stroke: #000000; stroke-width: 0.8; stroke-linejoin: miter; stroke-linecap: square"/>
   </g>
   <g id="patch_4">
    <path d="M 428.99976 180.261122 
L 428.99976 31.274827 
" style="fill: none; stroke: #000000; stroke-width: 0.8; stroke-linejoin: miter; stroke-linecap: square"/>
   </g>
   <g id="patch_5">
    <path d="M 42.463766 180.261122 
L 428.99976 180.261122 
" style="fill: none; stroke: #000000; stroke-width: 0.8; stroke-linejoin: miter; stroke-linecap: square"/>
   </g>
   <g id="patch_6">
    <path d="M 42.463766 31.274827 
L 428.99976 31.274827 
" style="fill: none; stroke: #000000; stroke-width: 0.8; stroke-linejoin: miter; stroke-linecap: square"/>
   </g>
   <g id="legend_1">
    <g id="line2d_14">
     <path d="M 129.564685 10.172624 
L 138.564685 10.172624 
L 147.564685 10.172624 
" style="fill: none; stroke: #1f77b4; stroke-width: 1.5; stroke-linecap: square"/>
    </g>
    <g id="text_12">
     <!-- $J_0(2h/\omega)=-0.00$ -->
     <g transform="translate(154.764685 13.322624) scale(0.09 -0.09)">
      <defs>
       <path id="CMMI12-4a" d="M 3418 3911 
C 3469 4102 3482 4166 3795 4166 
C 3898 4166 3962 4166 3962 4281 
C 3962 4352 3904 4352 3878 4352 
C 3770 4352 3648 4339 3533 4339 
L 3181 4339 
C 2912 4339 2630 4352 2362 4352 
C 2304 4352 2227 4352 2227 4236 
C 2227 4172 2278 4172 2278 4166 
L 2438 4166 
C 2950 4166 2950 4115 2950 4019 
C 2950 4013 2950 3968 2925 3866 
L 2189 953 
C 2022 304 1594 0 1286 0 
C 1069 0 762 99 685 428 
C 710 422 742 415 768 415 
C 979 415 1146 601 1146 787 
C 1146 889 1082 1024 890 1024 
C 774 1024 506 959 506 543 
C 506 149 838 -128 1299 -128 
C 1882 -128 2509 304 2662 908 
L 3418 3911 
z
" transform="scale(0.015625)"/>
       <path id="CMMI12-68" d="M 1798 4255 
C 1805 4281 1818 4319 1818 4351 
C 1818 4416 1754 4416 1741 4416 
C 1734 4416 1421 4390 1389 4383 
C 1280 4377 1184 4364 1069 4358 
C 909 4345 864 4339 864 4223 
C 864 4159 915 4159 1005 4159 
C 1318 4159 1325 4103 1325 4040 
C 1325 4002 1312 3951 1306 3932 
L 378 249 
C 352 153 352 140 352 102 
C 352 -39 461 -64 525 -64 
C 634 -64 717 19 749 89 
L 1037 1245 
C 1069 1385 1107 1519 1139 1660 
C 1210 1928 1210 1934 1331 2119 
C 1453 2305 1741 2687 2234 2687 
C 2490 2687 2579 2496 2579 2241 
C 2579 1883 2330 1187 2189 804 
C 2131 651 2099 568 2099 453 
C 2099 166 2298 -64 2605 -64 
C 3200 -64 3424 874 3424 913 
C 3424 945 3398 970 3360 970 
C 3302 970 3296 951 3264 842 
C 3117 332 2880 64 2624 64 
C 2560 64 2458 70 2458 274 
C 2458 440 2534 645 2560 715 
C 2675 1021 2963 1775 2963 2145 
C 2963 2528 2739 2816 2253 2816 
C 1888 2816 1568 2643 1306 2311 
L 1798 4255 
z
" transform="scale(0.015625)"/>
       <path id="CMMI12-21" d="M 3802 2406 
C 3802 2592 3750 2828 3526 2828 
C 3398 2828 3251 2668 3251 2540 
C 3251 2483 3277 2444 3328 2387 
C 3424 2278 3546 2105 3546 1804 
C 3546 1574 3405 1209 3302 1011 
C 3123 659 2829 358 2496 358 
C 2093 358 1939 614 1869 972 
C 1939 1139 2086 1555 2086 1721 
C 2086 1792 2061 1849 1978 1849 
C 1933 1849 1882 1824 1850 1772 
C 1760 1632 1677 1126 1683 992 
C 1562 755 1216 358 806 358 
C 378 358 262 736 262 1100 
C 262 1766 678 2348 794 2508 
C 858 2604 902 2668 902 2681 
C 902 2726 877 2796 819 2796 
C 717 2796 685 2713 634 2636 
C 307 2131 77 1420 77 806 
C 77 409 224 -64 704 -64 
C 1235 -64 1568 390 1702 633 
C 1754 275 1946 -64 2413 -64 
C 2899 -64 3206 364 3437 883 
C 3603 1254 3802 2054 3802 2406 
z
" transform="scale(0.015625)"/>
       <path id="CMR17-3d" d="M 4115 2048 
C 4211 2048 4307 2048 4307 2156 
C 4307 2272 4198 2272 4090 2272 
L 512 2272 
C 403 2272 294 2272 294 2156 
C 294 2048 390 2048 486 2048 
L 4115 2048 
z
M 4090 927 
C 4198 927 4307 927 4307 1043 
C 4307 1152 4211 1152 4115 1152 
L 486 1152 
C 390 1152 294 1152 294 1043 
C 294 927 403 927 512 927 
L 4090 927 
z
" transform="scale(0.015625)"/>
      </defs>
      <use xlink:href="#CMMI12-4a" transform="scale(0.996264)"/>
      <use xlink:href="#CMR17-30" transform="translate(53.917955 -14.943915) scale(0.697382)"/>
      <use xlink:href="#CMR17-28" transform="translate(86.399269 0) scale(0.996264)"/>
      <use xlink:href="#CMR17-32" transform="translate(121.680037 0) scale(0.996264)"/>
      <use xlink:href="#CMMI12-68" transform="translate(167.370514 0) scale(0.996264)"/>
      <use xlink:href="#CMMI12-3d" transform="translate(223.525138 0) scale(0.996264)"/>
      <use xlink:href="#CMMI12-21" transform="translate(272.300057 0) scale(0.996264)"/>
      <use xlink:href="#CMR17-29" transform="translate(336.618403 0) scale(0.996264)"/>
      <use xlink:href="#CMR17-3d" transform="translate(399.57318 0) scale(0.996264)"/>
      <use xlink:href="#CMSY10-0" transform="translate(498.961977 0) scale(0.996264)"/>
      <use xlink:href="#CMR17-30" transform="translate(576.449444 0) scale(0.996264)"/>
      <use xlink:href="#CMMI12-3a" transform="translate(622.139921 0) scale(0.996264)"/>
      <use xlink:href="#CMR17-30" transform="translate(649.237099 0) scale(0.996264)"/>
      <use xlink:href="#CMR17-30" transform="translate(694.927576 0) scale(0.996264)"/>
     </g>
    </g>
    <g id="line2d_15">
     <path d="M 129.564685 23.639 
L 138.564685 23.639 
L 147.564685 23.639 
" style="fill: none; stroke: #ff7f0e; stroke-width: 1.5; stroke-linecap: square"/>
    </g>
    <g id="text_13">
     <!-- $J_0(2h/\omega)=0.25$ -->
     <g transform="translate(154.764685 26.789) scale(0.09 -0.09)">
      <defs>
       <path id="CMR17-35" d="M 730 3750 
C 794 3724 1056 3641 1325 3641 
C 1920 3641 2246 3961 2432 4140 
C 2432 4191 2432 4224 2394 4224 
C 2387 4224 2374 4224 2323 4198 
C 2099 4102 1837 4032 1517 4032 
C 1325 4032 1037 4055 723 4191 
C 653 4224 640 4224 634 4224 
C 602 4224 595 4217 595 4090 
L 595 2231 
C 595 2113 595 2080 659 2080 
C 691 2080 704 2093 736 2139 
C 941 2435 1222 2560 1542 2560 
C 1766 2560 2246 2415 2246 1293 
C 2246 1087 2246 716 2054 422 
C 1894 159 1645 25 1370 25 
C 947 25 518 319 403 812 
C 429 806 480 793 506 793 
C 589 793 749 838 749 1036 
C 749 1209 627 1280 506 1280 
C 358 1280 262 1190 262 1011 
C 262 454 704 -128 1382 -128 
C 2042 -128 2669 441 2669 1267 
C 2669 2054 2170 2662 1549 2662 
C 1222 2662 947 2540 730 2304 
L 730 3750 
z
" transform="scale(0.015625)"/>
      </defs>
      <use xlink:href="#CMMI12-4a" transform="scale(0.996264)"/>
      <use xlink:href="#CMR17-30" transform="translate(53.917955 -14.943915) scale(0.697382)"/>
      <use xlink:href="#CMR17-28" transform="translate(86.399269 0) scale(0.996264)"/>
      <use xlink:href="#CMR17-32" transform="translate(121.680037 0) scale(0.996264)"/>
      <use xlink:href="#CMMI12-68" transform="translate(167.370514 0) scale(0.996264)"/>
      <use xlink:href="#CMMI12-3d" transform="translate(223.525138 0) scale(0.996264)"/>
      <use xlink:href="#CMMI12-21" transform="translate(272.300057 0) scale(0.996264)"/>
      <use xlink:href="#CMR17-29" transform="translate(336.618403 0) scale(0.996264)"/>
      <use xlink:href="#CMR17-3d" transform="translate(399.57318 0) scale(0.996264)"/>
      <use xlink:href="#CMR17-30" transform="translate(498.961977 0) scale(0.996264)"/>
      <use xlink:href="#CMMI12-3a" transform="translate(544.652454 0) scale(0.996264)"/>
      <use xlink:href="#CMR17-32" transform="translate(571.749631 0) scale(0.996264)"/>
      <use xlink:href="#CMR17-35" transform="translate(617.440108 0) scale(0.996264)"/>
     </g>
    </g>
    <g id="line2d_16">
     <path d="M 245.578623 10.172624 
L 254.578623 10.172624 
L 263.578623 10.172624 
" style="fill: none; stroke: #2ca02c; stroke-width: 1.5; stroke-linecap: square"/>
    </g>
    <g id="text_14">
     <!-- $J_0(2h/\omega)=0.54$ -->
     <g transform="translate(270.778623 13.322624) scale(0.09 -0.09)">
      <use xlink:href="#CMMI12-4a" transform="scale(0.996264)"/>
      <use xlink:href="#CMR17-30" transform="translate(53.917955 -14.943915) scale(0.697382)"/>
      <use xlink:href="#CMR17-28" transform="translate(86.399269 0) scale(0.996264)"/>
      <use xlink:href="#CMR17-32" transform="translate(121.680037 0) scale(0.996264)"/>
      <use xlink:href="#CMMI12-68" transform="translate(167.370514 0) scale(0.996264)"/>
      <use xlink:href="#CMMI12-3d" transform="translate(223.525138 0) scale(0.996264)"/>
      <use xlink:href="#CMMI12-21" transform="translate(272.300057 0) scale(0.996264)"/>
      <use xlink:href="#CMR17-29" transform="translate(336.618403 0) scale(0.996264)"/>
      <use xlink:href="#CMR17-3d" transform="translate(399.57318 0) scale(0.996264)"/>
      <use xlink:href="#CMR17-30" transform="translate(498.961977 0) scale(0.996264)"/>
      <use xlink:href="#CMMI12-3a" transform="translate(544.652454 0) scale(0.996264)"/>
      <use xlink:href="#CMR17-35" transform="translate(571.749631 0) scale(0.996264)"/>
      <use xlink:href="#CMR17-34" transform="translate(617.440108 0) scale(0.996264)"/>
     </g>
    </g>
    <g id="line2d_17">
     <path d="M 245.578623 23.639 
L 254.578623 23.639 
L 263.578623 23.639 
" style="fill: none; stroke: #d62728; stroke-width: 1.5; stroke-linecap: square"/>
    </g>
    <g id="text_15">
     <!-- $J_0(2h/\omega)=-0.27$ -->
     <g transform="translate(270.778623 26.789) scale(0.09 -0.09)">
      <defs>
       <path id="CMR17-37" d="M 2886 3955 
L 2886 4096 
L 1382 4096 
C 634 4096 621 4166 595 4288 
L 480 4288 
L 294 3104 
L 410 3104 
C 429 3226 474 3552 550 3673 
C 589 3724 1062 3724 1171 3724 
L 2579 3724 
L 1869 2670 
C 1395 1961 1069 1003 1069 166 
C 1069 89 1069 -128 1299 -128 
C 1530 -128 1530 89 1530 172 
L 1530 466 
C 1530 1514 1709 2204 2003 2644 
L 2886 3955 
z
" transform="scale(0.015625)"/>
      </defs>
      <use xlink:href="#CMMI12-4a" transform="scale(0.996264)"/>
      <use xlink:href="#CMR17-30" transform="translate(53.917955 -14.943915) scale(0.697382)"/>
      <use xlink:href="#CMR17-28" transform="translate(86.399269 0) scale(0.996264)"/>
      <use xlink:href="#CMR17-32" transform="translate(121.680037 0) scale(0.996264)"/>
      <use xlink:href="#CMMI12-68" transform="translate(167.370514 0) scale(0.996264)"/>
      <use xlink:href="#CMMI12-3d" transform="translate(223.525138 0) scale(0.996264)"/>
      <use xlink:href="#CMMI12-21" transform="translate(272.300057 0) scale(0.996264)"/>
      <use xlink:href="#CMR17-29" transform="translate(336.618403 0) scale(0.996264)"/>
      <use xlink:href="#CMR17-3d" transform="translate(399.57318 0) scale(0.996264)"/>
      <use xlink:href="#CMSY10-0" transform="translate(498.961977 0) scale(0.996264)"/>
      <use xlink:href="#CMR17-30" transform="translate(576.449444 0) scale(0.996264)"/>
      <use xlink:href="#CMMI12-3a" transform="translate(622.139921 0) scale(0.996264)"/>
      <use xlink:href="#CMR17-32" transform="translate(649.237099 0) scale(0.996264)"/>
      <use xlink:href="#CMR17-37" transform="translate(694.927576 0) scale(0.996264)"/>
     </g>
    </g>
   </g>
  </g>
 </g>
 <defs>
  <clipPath id="pb6fcd80c92">
   <rect x="42.463766" y="31.274827" width="386.535994" height="148.986295"/>
  </clipPath>
 </defs>
</svg>
