<?xml version="1.0" encoding="utf-8" standalone="no"?>
<!DOCTYPE svg PUBLIC "-//W3C//DTD SVG 1.1//EN"
  "http://www.w3.org/Graphics/SVG/1.1/DTD/svg11.dtd">
<svg xmlns:xlink="http://www.w3.org/1999/xlink" width="360pt" height="273.6pt" viewBox="0 0 360 273.6" xmlns="http://www.w3.org/2000/svg" version="1.1">
 <metadata>
  <rdf:RDF xmlns:dc="http://purl.org/dc/elements/1.1/" xmlns:cc="http://creativecommons.org/ns#" xmlns:rdf="http://www.w3.org/1999/02/22-rdf-syntax-ns#">
   <cc:Work>
    <dc:type rdf:resource="http://purl.org/dc/dcmitype/StillImage"/>
    <dc:date>2023-06-18T20:28:14.305433</dc:date>
    <dc:format>image/svg+xml</dc:format>
    <dc:creator>
     <cc:Agent>
      <dc:title>Matplotlib v3.7.1, https://matplotlib.org/</dc:title>
     </cc:Agent>
    </dc:creator>
   </cc:Work>
  </rdf:RDF>
 </metadata>
 <defs>
  <style type="text/css">*{stroke-linejoin: round; stroke-linecap: butt}</style>
 </defs>
 <g id="figure_1">
  <g id="patch_1">
   <path d="M 0 273.6 
L 360 273.6 
L 360 0 
L 0 0 
z
" style="fill: #ffffff"/>
  </g>
  <g id="axes_1">
   <g id="patch_2">
    <path d="M 42.463766 237.861122 
L 356.99976 237.861122 
L 356.99976 37.976363 
L 42.463766 37.976363 
z
" style="fill: #ffffff"/>
   </g>
   <g id="matplotlib.axis_1">
    <g id="xtick_1">
     <g id="line2d_1">
      <defs>
       <path id="m9e6c0fcd9c" d="M 0 0 
L 0 -3.5 
" style="stroke: #000000; stroke-width: 0.8"/>
      </defs>
      <g>
       <use xlink:href="#m9e6c0fcd9c" x="56.760857" y="237.861122" style="stroke: #000000; stroke-width: 0.8"/>
      </g>
     </g>
     <g id="text_1">
      <!-- $-\pi$ -->
      <g transform="translate(48.791451 249.663302) scale(0.12 -0.12)">
       <defs>
        <path id="CMSY10-0" d="M 4218 1472 
C 4326 1472 4442 1472 4442 1600 
C 4442 1728 4326 1728 4218 1728 
L 755 1728 
C 646 1728 531 1728 531 1600 
C 531 1472 646 1472 755 1472 
L 4218 1472 
z
" transform="scale(0.015625)"/>
        <path id="CMMI12-19" d="M 1658 2406 
L 2381 2406 
C 2208 1691 2099 1225 2099 715 
C 2099 625 2099 -64 2362 -64 
C 2496 -64 2611 57 2611 166 
C 2611 198 2611 210 2566 306 
C 2394 746 2394 1295 2394 1340 
C 2394 1378 2394 1832 2528 2406 
L 3245 2406 
C 3328 2406 3539 2406 3539 2611 
C 3539 2752 3418 2752 3302 2752 
L 1197 2752 
C 1050 2752 832 2752 538 2438 
C 371 2253 166 1915 166 1876 
C 166 1838 198 1825 237 1825 
C 282 1825 288 1844 320 1883 
C 653 2406 986 2406 1146 2406 
L 1510 2406 
C 1370 1927 1210 1372 685 255 
C 634 153 634 140 634 102 
C 634 -32 749 -64 806 -64 
C 992 -64 1043 102 1120 370 
C 1222 695 1222 708 1286 964 
L 1658 2406 
z
" transform="scale(0.015625)"/>
       </defs>
       <use xlink:href="#CMSY10-0" transform="scale(0.996264)"/>
       <use xlink:href="#CMMI12-19" transform="translate(77.487468 0) scale(0.996264)"/>
      </g>
     </g>
    </g>
    <g id="xtick_2">
     <g id="line2d_2">
      <g>
       <use xlink:href="#m9e6c0fcd9c" x="128.24631" y="237.861122" style="stroke: #000000; stroke-width: 0.8"/>
      </g>
     </g>
     <g id="text_2">
      <!-- $-\pi/2$ -->
      <g transform="translate(114.20944 250.327499) scale(0.12 -0.12)">
       <defs>
        <path id="CMMI12-3d" d="M 2746 4563 
C 2746 4569 2784 4665 2784 4678 
C 2784 4755 2720 4800 2669 4800 
C 2637 4800 2579 4800 2528 4659 
L 384 -1364 
C 384 -1370 346 -1466 346 -1479 
C 346 -1556 410 -1600 461 -1600 
C 499 -1600 557 -1594 602 -1460 
L 2746 4563 
z
" transform="scale(0.015625)"/>
        <path id="CMR17-32" d="M 2669 990 
L 2554 990 
C 2490 537 2438 460 2413 422 
C 2381 371 1920 371 1830 371 
L 602 371 
C 832 620 1280 1073 1824 1596 
C 2214 1966 2669 2400 2669 3033 
C 2669 3788 2067 4224 1395 4224 
C 691 4224 262 3603 262 3027 
C 262 2777 448 2745 525 2745 
C 589 2745 781 2783 781 3007 
C 781 3206 614 3264 525 3264 
C 486 3264 448 3257 422 3244 
C 544 3788 915 4057 1306 4057 
C 1862 4057 2227 3616 2227 3033 
C 2227 2477 1901 1998 1536 1583 
L 262 147 
L 262 0 
L 2515 0 
L 2669 990 
z
" transform="scale(0.015625)"/>
       </defs>
       <use xlink:href="#CMSY10-0" transform="scale(0.996264)"/>
       <use xlink:href="#CMMI12-19" transform="translate(77.487468 0) scale(0.996264)"/>
       <use xlink:href="#CMMI12-3d" transform="translate(136.398068 0) scale(0.996264)"/>
       <use xlink:href="#CMR17-32" transform="translate(185.172987 0) scale(0.996264)"/>
      </g>
     </g>
    </g>
    <g id="xtick_3">
     <g id="line2d_3">
      <g>
       <use xlink:href="#m9e6c0fcd9c" x="199.731763" y="237.861122" style="stroke: #000000; stroke-width: 0.8"/>
      </g>
     </g>
     <g id="text_3">
      <!-- 0 -->
      <g transform="translate(196.805268 249.663302) scale(0.12 -0.12)">
       <defs>
        <path id="CMSS17-30" d="M 2758 2073 
C 2758 2439 2752 3120 2490 3647 
C 2227 4153 1805 4288 1504 4288 
C 1069 4288 698 4031 506 3621 
C 301 3191 243 2748 243 2073 
C 243 1611 262 1046 493 551 
C 755 6 1197 -128 1498 -128 
C 1894 -128 2278 83 2496 525 
C 2720 988 2758 1495 2758 2073 
z
M 1498 262 
C 1011 262 864 821 819 1007 
C 742 1328 730 1636 730 2144 
C 730 2542 730 2992 851 3345 
C 998 3756 1254 3897 1498 3897 
C 1971 3897 2125 3422 2176 3255 
C 2272 2915 2272 2516 2272 2144 
C 2272 1546 2272 262 1498 262 
z
" transform="scale(0.015625)"/>
       </defs>
       <use xlink:href="#CMSS17-30" transform="scale(0.996264)"/>
      </g>
     </g>
    </g>
    <g id="xtick_4">
     <g id="line2d_4">
      <g>
       <use xlink:href="#m9e6c0fcd9c" x="271.217216" y="237.861122" style="stroke: #000000; stroke-width: 0.8"/>
      </g>
     </g>
     <g id="text_4">
      <!-- $\pi/2$ -->
      <g transform="translate(261.829591 250.327499) scale(0.12 -0.12)">
       <use xlink:href="#CMMI12-19" transform="scale(0.996264)"/>
       <use xlink:href="#CMMI12-3d" transform="translate(58.910601 0) scale(0.996264)"/>
       <use xlink:href="#CMR17-32" transform="translate(107.68552 0) scale(0.996264)"/>
      </g>
     </g>
    </g>
    <g id="xtick_5">
     <g id="line2d_5">
      <g>
       <use xlink:href="#m9e6c0fcd9c" x="342.702669" y="237.861122" style="stroke: #000000; stroke-width: 0.8"/>
      </g>
     </g>
     <g id="text_5">
      <!-- $\pi$ -->
      <g transform="translate(339.382509 249.663302) scale(0.12 -0.12)">
       <use xlink:href="#CMMI12-19" transform="scale(0.996264)"/>
      </g>
     </g>
    </g>
    <g id="text_6">
     <!-- $k$ -->
     <g transform="translate(195.926628 267.694015) scale(0.15 -0.15)">
      <defs>
       <path id="CMMI12-6b" d="M 1798 4255 
C 1805 4281 1818 4319 1818 4351 
C 1818 4416 1754 4416 1741 4416 
C 1734 4416 1504 4396 1389 4383 
C 1280 4377 1184 4364 1069 4358 
C 915 4345 870 4339 870 4223 
C 870 4159 934 4159 998 4159 
C 1325 4159 1325 4103 1325 4040 
C 1325 4014 1325 4002 1293 3888 
L 378 250 
C 352 153 352 141 352 102 
C 352 -39 461 -64 525 -64 
C 704 -64 742 76 794 275 
L 1094 1476 
C 1555 1425 1830 1232 1830 924 
C 1830 885 1830 860 1811 763 
C 1786 667 1786 590 1786 558 
C 1786 185 2029 -64 2355 -64 
C 2650 -64 2803 205 2854 295 
C 2989 532 3072 892 3072 917 
C 3072 949 3046 975 3008 975 
C 2950 975 2944 949 2918 847 
C 2829 513 2694 64 2368 64 
C 2240 64 2157 128 2157 372 
C 2157 494 2182 635 2208 731 
C 2234 847 2234 853 2234 930 
C 2234 1309 1894 1521 1306 1598 
C 1536 1739 1766 1989 1856 2086 
C 2221 2495 2470 2687 2765 2687 
C 2912 2687 2950 2655 2995 2624 
C 2758 2598 2669 2431 2669 2303 
C 2669 2150 2790 2099 2880 2099 
C 3053 2099 3206 2246 3206 2451 
C 3206 2634 3059 2816 2771 2816 
C 2419 2816 2131 2579 1677 2067 
C 1613 1989 1376 1746 1139 1656 
L 1798 4255 
z
" transform="scale(0.015625)"/>
      </defs>
      <use xlink:href="#CMMI12-6b" transform="scale(0.996264)"/>
     </g>
    </g>
   </g>
   <g id="matplotlib.axis_2">
    <g id="ytick_1">
     <g id="line2d_6">
      <defs>
       <path id="mf88e7a6f78" d="M 0 0 
L 3.5 0 
" style="stroke: #000000; stroke-width: 0.8"/>
      </defs>
      <g>
       <use xlink:href="#mf88e7a6f78" x="42.463766" y="237.861122" style="stroke: #000000; stroke-width: 0.8"/>
      </g>
     </g>
     <g id="text_7">
      <!-- $\mathdefault{0.4}$ -->
      <g transform="translate(24.006124 242.012212) scale(0.12 -0.12)">
       <defs>
        <path id="CMR17-30" d="M 2688 2038 
C 2688 2430 2682 3099 2413 3613 
C 2176 4063 1798 4224 1466 4224 
C 1158 4224 768 4082 525 3620 
C 269 3137 243 2539 243 2038 
C 243 1671 250 1112 448 623 
C 723 -39 1216 -128 1466 -128 
C 1760 -128 2208 -7 2470 604 
C 2662 1048 2688 1568 2688 2038 
z
M 1466 -26 
C 1056 -26 813 328 723 816 
C 653 1196 653 1749 653 2109 
C 653 2604 653 3015 736 3407 
C 858 3954 1216 4121 1466 4121 
C 1728 4121 2067 3947 2189 3420 
C 2272 3054 2278 2623 2278 2109 
C 2278 1691 2278 1176 2202 797 
C 2067 96 1690 -26 1466 -26 
z
" transform="scale(0.015625)"/>
        <path id="CMMI12-3a" d="M 1178 307 
C 1178 492 1024 620 870 620 
C 685 620 557 467 557 313 
C 557 128 710 0 864 0 
C 1050 0 1178 153 1178 307 
z
" transform="scale(0.015625)"/>
        <path id="CMR17-34" d="M 2150 4147 
C 2150 4281 2144 4288 2029 4288 
L 128 1254 
L 128 1088 
L 1779 1088 
L 1779 460 
C 1779 230 1766 166 1318 166 
L 1197 166 
L 1197 0 
C 1402 12 1747 12 1965 12 
C 2182 12 2528 12 2733 0 
L 2733 166 
L 2611 166 
C 2163 166 2150 230 2150 460 
L 2150 1088 
L 2803 1088 
L 2803 1254 
L 2150 1254 
L 2150 4147 
z
M 1798 3723 
L 1798 1254 
L 256 1254 
L 1798 3723 
z
" transform="scale(0.015625)"/>
       </defs>
       <use xlink:href="#CMR17-30" transform="scale(0.996264)"/>
       <use xlink:href="#CMMI12-3a" transform="translate(45.690477 0) scale(0.996264)"/>
       <use xlink:href="#CMR17-34" transform="translate(72.787654 0) scale(0.996264)"/>
      </g>
     </g>
    </g>
    <g id="ytick_2">
     <g id="line2d_7">
      <g>
       <use xlink:href="#mf88e7a6f78" x="42.463766" y="207.109621" style="stroke: #000000; stroke-width: 0.8"/>
      </g>
     </g>
     <g id="text_8">
      <!-- $\mathdefault{0.5}$ -->
      <g transform="translate(24.006124 211.260711) scale(0.12 -0.12)">
       <defs>
        <path id="CMR17-35" d="M 730 3750 
C 794 3724 1056 3641 1325 3641 
C 1920 3641 2246 3961 2432 4140 
C 2432 4191 2432 4224 2394 4224 
C 2387 4224 2374 4224 2323 4198 
C 2099 4102 1837 4032 1517 4032 
C 1325 4032 1037 4055 723 4191 
C 653 4224 640 4224 634 4224 
C 602 4224 595 4217 595 4090 
L 595 2231 
C 595 2113 595 2080 659 2080 
C 691 2080 704 2093 736 2139 
C 941 2435 1222 2560 1542 2560 
C 1766 2560 2246 2415 2246 1293 
C 2246 1087 2246 716 2054 422 
C 1894 159 1645 25 1370 25 
C 947 25 518 319 403 812 
C 429 806 480 793 506 793 
C 589 793 749 838 749 1036 
C 749 1209 627 1280 506 1280 
C 358 1280 262 1190 262 1011 
C 262 454 704 -128 1382 -128 
C 2042 -128 2669 441 2669 1267 
C 2669 2054 2170 2662 1549 2662 
C 1222 2662 947 2540 730 2304 
L 730 3750 
z
" transform="scale(0.015625)"/>
       </defs>
       <use xlink:href="#CMR17-30" transform="scale(0.996264)"/>
       <use xlink:href="#CMMI12-3a" transform="translate(45.690477 0) scale(0.996264)"/>
       <use xlink:href="#CMR17-35" transform="translate(72.787654 0) scale(0.996264)"/>
      </g>
     </g>
    </g>
    <g id="ytick_3">
     <g id="line2d_8">
      <g>
       <use xlink:href="#mf88e7a6f78" x="42.463766" y="176.35812" style="stroke: #000000; stroke-width: 0.8"/>
      </g>
     </g>
     <g id="text_9">
      <!-- $\mathdefault{0.6}$ -->
      <g transform="translate(24.006124 180.50921) scale(0.12 -0.12)">
       <defs>
        <path id="CMR17-36" d="M 678 2198 
C 678 3712 1395 4076 1811 4076 
C 1946 4076 2272 4049 2400 3782 
C 2298 3782 2106 3782 2106 3558 
C 2106 3385 2246 3328 2336 3328 
C 2394 3328 2566 3353 2566 3571 
C 2566 3987 2246 4224 1805 4224 
C 1043 4224 243 3411 243 2011 
C 243 257 966 -128 1478 -128 
C 2099 -128 2688 431 2688 1295 
C 2688 2101 2170 2688 1517 2688 
C 1126 2688 838 2430 678 1979 
L 678 2198 
z
M 1478 25 
C 691 25 691 1212 691 1450 
C 691 1914 909 2585 1504 2585 
C 1613 2585 1926 2585 2138 2140 
C 2253 1889 2253 1624 2253 1302 
C 2253 954 2253 696 2118 438 
C 1978 173 1773 25 1478 25 
z
" transform="scale(0.015625)"/>
       </defs>
       <use xlink:href="#CMR17-30" transform="scale(0.996264)"/>
       <use xlink:href="#CMMI12-3a" transform="translate(45.690477 0) scale(0.996264)"/>
       <use xlink:href="#CMR17-36" transform="translate(72.787654 0) scale(0.996264)"/>
      </g>
     </g>
    </g>
    <g id="ytick_4">
     <g id="line2d_9">
      <g>
       <use xlink:href="#mf88e7a6f78" x="42.463766" y="145.606618" style="stroke: #000000; stroke-width: 0.8"/>
      </g>
     </g>
     <g id="text_10">
      <!-- $\mathdefault{0.7}$ -->
      <g transform="translate(24.006124 149.757708) scale(0.12 -0.12)">
       <defs>
        <path id="CMR17-37" d="M 2886 3955 
L 2886 4096 
L 1382 4096 
C 634 4096 621 4166 595 4288 
L 480 4288 
L 294 3104 
L 410 3104 
C 429 3226 474 3552 550 3673 
C 589 3724 1062 3724 1171 3724 
L 2579 3724 
L 1869 2670 
C 1395 1961 1069 1003 1069 166 
C 1069 89 1069 -128 1299 -128 
C 1530 -128 1530 89 1530 172 
L 1530 466 
C 1530 1514 1709 2204 2003 2644 
L 2886 3955 
z
" transform="scale(0.015625)"/>
       </defs>
       <use xlink:href="#CMR17-30" transform="scale(0.996264)"/>
       <use xlink:href="#CMMI12-3a" transform="translate(45.690477 0) scale(0.996264)"/>
       <use xlink:href="#CMR17-37" transform="translate(72.787654 0) scale(0.996264)"/>
      </g>
     </g>
    </g>
    <g id="ytick_5">
     <g id="line2d_10">
      <g>
       <use xlink:href="#mf88e7a6f78" x="42.463766" y="114.855117" style="stroke: #000000; stroke-width: 0.8"/>
      </g>
     </g>
     <g id="text_11">
      <!-- $\mathdefault{0.8}$ -->
      <g transform="translate(24.006124 119.006207) scale(0.12 -0.12)">
       <defs>
        <path id="CMR17-38" d="M 1741 2289 
C 2144 2494 2554 2803 2554 3298 
C 2554 3884 1990 4224 1472 4224 
C 890 4224 378 3800 378 3215 
C 378 3054 416 2777 666 2533 
C 730 2469 998 2276 1171 2154 
C 883 2006 211 1652 211 945 
C 211 282 838 -128 1459 -128 
C 2144 -128 2720 366 2720 1022 
C 2720 1607 2330 1877 2074 2051 
L 1741 2289 
z
M 902 2855 
C 851 2887 595 3086 595 3388 
C 595 3781 998 4076 1459 4076 
C 1965 4076 2336 3716 2336 3298 
C 2336 2700 1670 2359 1638 2359 
C 1632 2359 1626 2359 1574 2398 
L 902 2855 
z
M 2080 1536 
C 2176 1466 2483 1253 2483 861 
C 2483 385 2010 25 1472 25 
C 890 25 448 443 448 951 
C 448 1459 838 1884 1280 2083 
L 2080 1536 
z
" transform="scale(0.015625)"/>
       </defs>
       <use xlink:href="#CMR17-30" transform="scale(0.996264)"/>
       <use xlink:href="#CMMI12-3a" transform="translate(45.690477 0) scale(0.996264)"/>
       <use xlink:href="#CMR17-38" transform="translate(72.787654 0) scale(0.996264)"/>
      </g>
     </g>
    </g>
    <g id="ytick_6">
     <g id="line2d_11">
      <g>
       <use xlink:href="#mf88e7a6f78" x="42.463766" y="84.103615" style="stroke: #000000; stroke-width: 0.8"/>
      </g>
     </g>
     <g id="text_12">
      <!-- $\mathdefault{0.9}$ -->
      <g transform="translate(24.006124 88.254705) scale(0.12 -0.12)">
       <defs>
        <path id="CMR17-39" d="M 2253 1871 
C 2253 448 1670 25 1190 25 
C 1043 25 685 43 538 281 
C 704 256 826 345 826 505 
C 826 678 685 736 595 736 
C 538 736 365 710 365 492 
C 365 68 742 -128 1203 -128 
C 1939 -128 2688 665 2688 2090 
C 2688 3857 1971 4224 1485 4224 
C 851 4224 243 3664 243 2800 
C 243 2000 762 1408 1414 1408 
C 1952 1408 2189 1910 2253 2122 
L 2253 1871 
z
M 1427 1510 
C 1254 1510 1011 1542 813 1929 
C 678 2181 678 2477 678 2793 
C 678 3174 678 3438 858 3722 
C 947 3857 1114 4076 1485 4076 
C 2240 4076 2240 2909 2240 2651 
C 2240 2193 2035 1510 1427 1510 
z
" transform="scale(0.015625)"/>
       </defs>
       <use xlink:href="#CMR17-30" transform="scale(0.996264)"/>
       <use xlink:href="#CMMI12-3a" transform="translate(45.690477 0) scale(0.996264)"/>
       <use xlink:href="#CMR17-39" transform="translate(72.787654 0) scale(0.996264)"/>
      </g>
     </g>
    </g>
    <g id="ytick_7">
     <g id="line2d_12">
      <g>
       <use xlink:href="#mf88e7a6f78" x="42.463766" y="53.352114" style="stroke: #000000; stroke-width: 0.8"/>
      </g>
     </g>
     <g id="text_13">
      <!-- $\mathdefault{1.0}$ -->
      <g transform="translate(24.006124 57.503204) scale(0.12 -0.12)">
       <defs>
        <path id="CMR17-31" d="M 1702 4083 
C 1702 4217 1696 4224 1606 4224 
C 1357 3927 979 3833 621 3820 
C 602 3820 570 3820 563 3808 
C 557 3795 557 3782 557 3648 
C 755 3648 1088 3686 1344 3839 
L 1344 467 
C 1344 243 1331 166 781 166 
L 589 166 
L 589 0 
C 896 6 1216 12 1523 12 
C 1830 12 2150 6 2458 0 
L 2458 166 
L 2266 166 
C 1715 166 1702 236 1702 467 
L 1702 4083 
z
" transform="scale(0.015625)"/>
       </defs>
       <use xlink:href="#CMR17-31" transform="scale(0.996264)"/>
       <use xlink:href="#CMMI12-3a" transform="translate(45.690477 0) scale(0.996264)"/>
       <use xlink:href="#CMR17-30" transform="translate(72.787654 0) scale(0.996264)"/>
      </g>
     </g>
    </g>
    <g id="text_14">
     <!-- $\phi_{{_{{IPR}}}}(k)$ -->
     <g transform="translate(15.687359 163.091268) rotate(-90) scale(0.17 -0.17)">
      <defs>
       <path id="CMMI12-1e" d="M 2752 4358 
C 2752 4416 2707 4416 2688 4416 
C 2630 4416 2624 4403 2598 4294 
L 2253 2924 
C 2234 2841 2227 2835 2221 2828 
C 2214 2816 2170 2809 2157 2809 
C 1107 2720 301 1863 301 1071 
C 301 387 832 -32 1498 -71 
C 1446 -266 1402 -467 1350 -662 
C 1261 -995 1210 -1204 1210 -1229 
C 1210 -1242 1210 -1280 1274 -1280 
C 1293 -1280 1318 -1280 1331 -1255 
C 1344 -1242 1382 -1089 1408 -1008 
L 1645 -71 
C 2739 -13 3571 875 3571 1673 
C 3571 2313 3085 2771 2374 2816 
L 2752 4358 
z
M 2336 2688 
C 2758 2662 3181 2428 3181 1806 
C 3181 1090 2675 140 1677 64 
L 2336 2688 
z
M 1530 57 
C 1216 76 691 241 691 938 
C 691 1737 1274 2624 2195 2681 
L 1530 57 
z
" transform="scale(0.015625)"/>
       <path id="CMMI12-49" d="M 2355 3879 
C 2413 4102 2426 4166 2893 4166 
C 3034 4166 3085 4166 3085 4287 
C 3085 4352 3014 4352 2995 4352 
C 2880 4352 2739 4339 2624 4339 
L 1837 4339 
C 1709 4339 1562 4352 1434 4352 
C 1382 4352 1312 4352 1312 4230 
C 1312 4166 1363 4166 1491 4166 
C 1888 4166 1888 4115 1888 4045 
C 1888 4000 1875 3962 1862 3905 
L 998 472 
C 941 249 928 185 461 185 
C 320 185 262 185 262 64 
C 262 0 326 0 358 0 
C 474 0 614 12 730 12 
L 1517 12 
C 1645 12 1786 0 1914 0 
C 1965 0 2042 0 2042 115 
C 2042 185 2003 185 1862 185 
C 1466 185 1466 236 1466 312 
C 1466 325 1466 357 1491 459 
L 2355 3879 
z
" transform="scale(0.015625)"/>
       <path id="CMMI12-50" d="M 1894 2022 
L 2970 2022 
C 3853 2022 4736 2673 4736 3400 
C 4736 3898 4314 4352 3507 4352 
L 1530 4352 
C 1408 4352 1350 4352 1350 4230 
C 1350 4166 1408 4166 1504 4166 
C 1894 4166 1894 4115 1894 4045 
C 1894 4032 1894 3994 1869 3898 
L 1005 471 
C 947 249 934 185 486 185 
C 365 185 301 185 301 70 
C 301 0 358 0 397 0 
C 518 0 646 12 768 12 
L 1517 12 
C 1638 12 1773 0 1894 0 
C 1946 0 2016 0 2016 121 
C 2016 185 1958 185 1862 185 
C 1478 185 1472 230 1472 293 
C 1472 325 1478 369 1485 401 
L 1894 2022 
z
M 2355 3917 
C 2413 4153 2438 4166 2688 4166 
L 3322 4166 
C 3802 4166 4198 4013 4198 3534 
C 4198 3369 4115 2826 3821 2533 
C 3712 2418 3405 2176 2822 2176 
L 1920 2176 
L 2355 3917 
z
" transform="scale(0.015625)"/>
       <path id="CMMI12-52" d="M 2355 3917 
C 2413 4153 2438 4166 2688 4166 
L 3149 4166 
C 3699 4166 4109 4000 4109 3503 
C 4109 3177 3942 2240 2656 2240 
L 1933 2240 
L 2355 3917 
z
M 3245 2163 
C 4038 2335 4659 2846 4659 3394 
C 4659 3892 4154 4352 3264 4352 
L 1530 4352 
C 1402 4352 1344 4352 1344 4230 
C 1344 4166 1389 4166 1510 4166 
C 1894 4166 1894 4115 1894 4045 
C 1894 4032 1894 3994 1869 3898 
L 1005 475 
C 947 253 934 190 493 190 
C 346 190 301 190 301 69 
C 301 6 371 6 390 6 
C 506 6 640 19 762 19 
L 1517 19 
C 1632 19 1766 6 1882 6 
C 1933 6 2003 6 2003 126 
C 2003 190 1946 190 1850 190 
C 1459 190 1459 241 1459 304 
C 1459 310 1459 355 1472 405 
L 1901 2112 
L 2669 2112 
C 3277 2112 3392 1731 3392 1522 
C 3392 1426 3328 1179 3283 1014 
C 3213 723 3194 653 3194 532 
C 3194 82 3565 -128 3994 -128 
C 4512 -128 4736 501 4736 589 
C 4736 634 4704 653 4666 653 
C 4614 653 4602 615 4589 564 
C 4435 114 4173 0 4013 0 
C 3853 0 3750 69 3750 355 
C 3750 507 3827 1084 3834 1116 
C 3866 1350 3866 1376 3866 1426 
C 3866 1889 3488 2086 3245 2163 
z
" transform="scale(0.015625)"/>
       <path id="CMR17-28" d="M 1958 -1562 
C 1958 -1556 1958 -1543 1939 -1524 
C 1645 -1223 858 -403 858 1596 
C 858 3595 1632 4408 1946 4729 
C 1946 4735 1958 4748 1958 4767 
C 1958 4787 1939 4800 1914 4800 
C 1843 4800 1299 4325 986 3620 
C 666 2909 576 2218 576 1603 
C 576 1141 621 360 1005 -467 
C 1312 -1133 1837 -1600 1914 -1600 
C 1946 -1600 1958 -1588 1958 -1562 
z
" transform="scale(0.015625)"/>
       <path id="CMR17-29" d="M 1683 1596 
C 1683 2057 1638 2839 1254 3665 
C 947 4332 422 4800 346 4800 
C 326 4800 301 4793 301 4761 
C 301 4748 307 4742 314 4729 
C 621 4408 1402 3595 1402 1603 
C 1402 -396 627 -1210 314 -1530 
C 307 -1543 301 -1549 301 -1562 
C 301 -1594 326 -1600 346 -1600 
C 416 -1600 960 -1127 1274 -422 
C 1594 289 1683 981 1683 1596 
z
" transform="scale(0.015625)"/>
      </defs>
      <use xlink:href="#CMMI12-1e" transform="scale(0.996264)"/>
      <use xlink:href="#CMMI12-49" transform="translate(57.73418 -25.404611) scale(0.498132)"/>
      <use xlink:href="#CMMI12-50" transform="translate(83.16243 -25.404611) scale(0.498132)"/>
      <use xlink:href="#CMMI12-52" transform="translate(121.375333 -25.404611) scale(0.498132)"/>
      <use xlink:href="#CMR17-28" transform="translate(159.907078 0) scale(0.996264)"/>
      <use xlink:href="#CMMI12-6b" transform="translate(195.187845 0) scale(0.996264)"/>
      <use xlink:href="#CMR17-29" transform="translate(249.267046 0) scale(0.996264)"/>
     </g>
    </g>
   </g>
   <g id="line2d_13">
    <path d="M 56.760857 53.352114 
L 57.717184 56.111692 
L 58.673511 62.761469 
L 59.629838 72.275786 
L 61.542492 95.795396 
L 63.455147 118.623673 
L 64.411474 128.266548 
L 65.367801 136.728112 
L 66.324128 144.069042 
L 67.280455 150.400658 
L 68.236782 155.849455 
L 69.193109 160.538763 
L 70.149437 164.575746 
L 71.105764 168.06243 
L 72.062091 171.095486 
L 73.018418 173.742552 
L 74.931072 178.107409 
L 76.843726 181.534617 
L 78.756381 184.290221 
L 80.669035 186.55955 
L 82.581689 188.478929 
L 85.450671 190.913433 
L 88.319652 193.023251 
L 102.664559 203.070387 
L 105.53354 205.162122 
L 107.446195 206.338976 
L 108.402522 206.774186 
L 109.358849 207.052545 
L 110.315176 207.099849 
L 111.271503 206.819162 
L 112.22783 206.108333 
L 113.184158 204.798488 
L 114.140485 202.671536 
L 115.096812 199.501346 
L 116.053139 194.956967 
L 117.009466 188.625905 
L 117.965793 180.10408 
L 118.92212 169.161761 
L 119.878447 155.712254 
L 121.791102 122.003874 
L 123.703756 87.615875 
L 124.660083 73.644049 
L 125.61641 62.964358 
L 126.572737 56.288589 
L 127.529065 53.520584 
L 128.485392 53.787552 
L 129.441719 56.193534 
L 130.398046 60.036807 
L 132.3107 70.030898 
L 136.136009 90.855755 
L 138.048663 100.100373 
L 139.961317 108.413596 
L 141.873972 115.917468 
L 144.742953 125.98112 
L 147.611934 135.028329 
L 151.437243 146.13828 
L 157.175206 161.890603 
L 164.825823 182.323506 
L 168.651131 191.942306 
L 170.563785 196.339133 
L 172.47644 200.273888 
L 174.389094 203.552931 
L 175.345421 204.869278 
L 176.301748 205.923192 
L 177.258075 206.669578 
L 178.214403 207.062008 
L 179.17073 207.049564 
L 180.127057 206.569819 
L 181.083384 205.55853 
L 182.039711 203.946888 
L 182.996038 201.653708 
L 183.952365 198.595725 
L 184.908692 194.68802 
L 185.86502 189.840911 
L 186.821347 183.963875 
L 187.777674 176.976957 
L 188.734001 168.832455 
L 189.690328 159.488812 
L 191.602982 137.342563 
L 194.471964 98.439164 
L 196.384618 74.082464 
L 197.340945 64.401984 
L 198.297272 57.457113 
L 199.253599 53.91916 
L 200.209927 53.91916 
L 201.166254 57.457113 
L 202.122581 64.401984 
L 203.078908 74.082464 
L 204.991562 98.439164 
L 207.860544 137.342563 
L 209.773198 159.488812 
L 210.729525 168.832455 
L 211.685852 176.976957 
L 212.642179 183.963875 
L 213.598506 189.840911 
L 214.554834 194.68802 
L 215.511161 198.595725 
L 216.467488 201.653708 
L 217.423815 203.946888 
L 218.380142 205.55853 
L 219.336469 206.569819 
L 220.292796 207.049564 
L 221.249124 207.062008 
L 222.205451 206.669578 
L 223.161778 205.923192 
L 224.118105 204.869278 
L 225.074432 203.552931 
L 226.987086 200.273888 
L 228.899741 196.339133 
L 231.768722 189.619428 
L 235.594031 179.818514 
L 243.244648 159.29971 
L 248.98261 143.431128 
L 251.851592 135.028329 
L 254.720573 125.98112 
L 256.633227 119.412058 
L 258.545882 112.257711 
L 260.458536 104.366941 
L 262.37119 95.597372 
L 264.283844 85.885411 
L 269.06548 60.036807 
L 270.021807 56.193534 
L 270.978134 53.787552 
L 271.934462 53.520584 
L 272.890789 56.288589 
L 273.847116 62.964358 
L 274.803443 73.644049 
L 275.75977 87.615875 
L 277.672424 122.003874 
L 279.585079 155.712254 
L 280.541406 169.161761 
L 281.497733 180.10408 
L 282.45406 188.625905 
L 283.410387 194.956967 
L 284.366714 199.501346 
L 285.323041 202.671536 
L 286.279369 204.798488 
L 287.235696 206.108333 
L 288.192023 206.819162 
L 289.14835 207.099849 
L 290.104677 207.052545 
L 291.061004 206.774186 
L 292.973658 205.78861 
L 295.84264 203.787208 
L 302.53693 198.859166 
L 309.23122 194.33437 
L 313.056528 191.643324 
L 315.92551 189.339687 
L 317.838164 187.556347 
L 319.750818 185.475757 
L 321.663472 182.983305 
L 323.576127 179.920307 
L 325.488781 176.061465 
L 326.445108 173.742552 
L 327.401435 171.095486 
L 328.357762 168.06243 
L 329.31409 164.575746 
L 330.270417 160.538763 
L 331.226744 155.849455 
L 332.183071 150.400658 
L 333.139398 144.069042 
L 334.095725 136.728112 
L 335.052052 128.266548 
L 336.008379 118.623673 
L 337.921034 95.795396 
L 339.833688 72.275786 
L 340.790015 62.761469 
L 341.746342 56.111692 
L 342.702669 53.352114 
L 342.702669 53.352114 
" clip-path="url(#pe2975ca98e)" style="fill: none; stroke: #1f77b4; stroke-width: 1.5; stroke-linecap: square"/>
   </g>
   <g id="line2d_14">
    <path d="M 56.760857 53.352114 
L 57.717184 53.580079 
L 58.673511 54.356521 
L 59.629838 55.594854 
L 60.586165 57.208493 
L 62.498819 61.215349 
L 67.280455 72.159364 
L 69.193109 75.82048 
L 71.105764 78.858998 
L 73.018418 81.309684 
L 74.931072 83.263 
L 76.843726 84.827573 
L 78.756381 86.114294 
L 81.625362 87.743104 
L 86.406998 90.367296 
L 88.319652 91.600045 
L 90.232306 93.038698 
L 92.144961 94.751607 
L 94.057615 96.811912 
L 95.970269 99.30047 
L 97.882923 102.310636 
L 99.795578 105.950021 
L 101.708232 110.343439 
L 103.620886 115.635286 
L 105.53354 121.983183 
L 107.446195 129.550351 
L 109.358849 138.474879 
L 111.271503 148.81553 
L 113.184158 160.474999 
L 117.965793 191.416152 
L 118.92212 196.681926 
L 119.878447 201.110624 
L 120.834775 204.444233 
L 121.791102 206.486466 
L 122.747429 207.094424 
L 123.703756 206.134217 
L 124.660083 203.613958 
L 125.61641 199.671247 
L 126.572737 194.451479 
L 127.529065 188.165563 
L 129.441719 173.491694 
L 134.223354 134.831099 
L 136.136009 121.361002 
L 138.048663 109.565031 
L 139.961317 99.399059 
L 141.873972 90.696575 
L 143.786626 83.265151 
L 145.69928 76.917115 
L 147.611934 71.492173 
L 149.524589 66.864268 
L 151.437243 62.940524 
L 153.349897 59.665322 
L 155.262551 57.020836 
L 156.218878 55.939381 
L 157.175206 55.028529 
L 158.131533 54.297673 
L 159.08786 53.760684 
L 160.044187 53.439177 
L 161.000514 53.35561 
L 161.956841 53.53985 
L 162.913168 54.035283 
L 163.869496 54.886839 
L 164.825823 56.151754 
L 165.78215 57.911003 
L 166.738477 60.248417 
L 167.694804 63.269937 
L 168.651131 67.126594 
L 169.607458 71.975017 
L 170.563785 77.991262 
L 171.520113 85.393285 
L 172.47644 94.404366 
L 173.432767 105.217799 
L 174.389094 117.958434 
L 175.345421 132.740279 
L 178.214403 182.036032 
L 179.17073 195.281957 
L 180.127057 204.207837 
L 181.083384 207.078558 
L 182.039711 203.017194 
L 182.996038 193.474888 
L 183.952365 180.293614 
L 187.777674 120.280412 
L 188.734001 108.042876 
L 189.690328 97.355692 
L 190.646655 88.167041 
L 191.602982 80.352747 
L 192.55931 73.774011 
L 193.515637 68.299091 
L 194.471964 63.820503 
L 195.428291 60.235976 
L 196.384618 57.453778 
L 197.340945 55.420672 
L 198.297272 54.092206 
L 199.253599 53.431566 
L 200.209927 53.431566 
L 201.166254 54.092206 
L 202.122581 55.420672 
L 203.078908 57.453778 
L 204.035235 60.235976 
L 204.991562 63.820503 
L 205.947889 68.299091 
L 206.904217 73.774011 
L 207.860544 80.352747 
L 208.816871 88.167041 
L 209.773198 97.355692 
L 210.729525 108.042876 
L 211.685852 120.280412 
L 213.598506 149.370945 
L 215.511161 180.293614 
L 216.467488 193.474888 
L 217.423815 203.017194 
L 218.380142 207.078558 
L 219.336469 204.207837 
L 220.292796 195.281957 
L 221.249124 182.036032 
L 225.074432 117.958434 
L 226.030759 105.217799 
L 226.987086 94.404366 
L 227.943413 85.393285 
L 228.899741 77.991262 
L 229.856068 71.975017 
L 230.812395 67.126594 
L 231.768722 63.269937 
L 232.725049 60.248417 
L 233.681376 57.911003 
L 234.637703 56.151754 
L 235.594031 54.886839 
L 236.550358 54.035283 
L 237.506685 53.53985 
L 238.463012 53.35561 
L 239.419339 53.439177 
L 240.375666 53.760684 
L 241.331993 54.297673 
L 242.28832 55.028529 
L 243.244648 55.939381 
L 245.157302 58.26404 
L 247.069956 61.224184 
L 248.98261 64.818339 
L 250.895265 69.085293 
L 252.807919 74.098232 
L 254.720573 79.966116 
L 256.633227 86.834373 
L 258.545882 94.876548 
L 260.458536 104.28768 
L 262.37119 115.252983 
L 264.283844 127.8881 
L 266.196499 142.151899 
L 271.934462 188.165563 
L 272.890789 194.451479 
L 273.847116 199.671247 
L 274.803443 203.613958 
L 275.75977 206.134217 
L 276.716097 207.094424 
L 277.672424 206.486466 
L 278.628751 204.444233 
L 279.585079 201.110624 
L 280.541406 196.681926 
L 282.45406 185.573733 
L 288.192023 148.81553 
L 290.104677 138.474879 
L 292.017331 129.550351 
L 293.929986 121.983183 
L 295.84264 115.635286 
L 297.755294 110.343439 
L 299.667948 105.950021 
L 301.580603 102.310636 
L 303.493257 99.30047 
L 305.405911 96.811912 
L 307.318565 94.751607 
L 309.23122 93.038698 
L 311.143874 91.600045 
L 314.012855 89.807345 
L 321.663472 85.499122 
L 323.576127 84.086846 
L 325.488781 82.34191 
L 327.401435 80.153087 
L 329.31409 77.416396 
L 331.226744 74.067597 
L 333.139398 70.113962 
L 338.877361 57.208493 
L 339.833688 55.594854 
L 340.790015 54.356521 
L 341.746342 53.580079 
L 342.702669 53.352114 
L 342.702669 53.352114 
" clip-path="url(#pe2975ca98e)" style="fill: none; stroke: #ff7f0e; stroke-width: 1.5; stroke-linecap: square"/>
   </g>
   <g id="line2d_15">
    <path d="M 56.760857 53.352114 
L 57.717184 55.666188 
L 58.673511 61.273744 
L 59.629838 69.297718 
L 64.411474 116.109275 
L 65.367801 123.007286 
L 66.324128 128.888806 
L 67.280455 133.846108 
L 68.236782 137.985909 
L 69.193109 141.41227 
L 70.149437 144.2157 
L 71.105764 146.482396 
L 72.062091 148.293996 
L 73.018418 149.707396 
L 73.974745 150.77114 
L 74.931072 151.531436 
L 75.887399 152.021019 
L 76.843726 152.267803 
L 77.800054 152.298359 
L 78.756381 152.131051 
L 79.712708 151.781129 
L 80.669035 151.263156 
L 81.625362 150.587266 
L 83.538016 148.794734 
L 85.450671 146.455602 
L 87.363325 143.601379 
L 89.275979 140.249196 
L 91.188633 136.407054 
L 93.101288 132.076229 
L 95.013942 127.255159 
L 96.926596 121.943406 
L 98.839251 116.14529 
L 101.708232 106.577428 
L 104.577213 96.104275 
L 112.22783 67.237659 
L 114.140485 61.287766 
L 115.096812 58.787756 
L 116.053139 56.686672 
L 117.009466 55.048001 
L 117.965793 53.934584 
L 118.92212 53.398011 
L 119.878447 53.480642 
L 120.834775 54.223211 
L 121.791102 55.642102 
L 122.747429 57.732637 
L 123.703756 60.488089 
L 124.660083 63.875143 
L 125.61641 67.836236 
L 127.529065 77.22977 
L 129.441719 88.040181 
L 136.136009 127.728798 
L 138.048663 137.664615 
L 139.961317 146.545565 
L 141.873972 154.335171 
L 143.786626 161.065246 
L 145.69928 166.808968 
L 147.611934 171.662033 
L 149.524589 175.7245 
L 151.437243 179.093888 
L 153.349897 181.85878 
L 155.262551 184.096288 
L 157.175206 185.872077 
L 159.08786 187.238762 
L 161.000514 188.236941 
L 162.913168 188.89604 
L 164.825823 189.233158 
L 166.738477 189.253459 
L 168.651131 188.950078 
L 170.563785 188.301335 
L 172.47644 187.268596 
L 174.389094 185.793896 
L 176.301748 183.792089 
L 178.214403 181.142983 
L 179.17073 179.527767 
L 180.127057 177.683624 
L 181.083384 175.581246 
L 182.039711 173.187298 
L 182.996038 170.457521 
L 183.952365 167.345814 
L 184.908692 163.801153 
L 185.86502 159.758352 
L 186.821347 155.149691 
L 187.777674 149.905962 
L 188.734001 143.953407 
L 189.690328 137.217409 
L 191.602982 121.226204 
L 193.515637 102.009649 
L 196.384618 71.595516 
L 197.340945 63.204257 
L 198.297272 57.070369 
L 199.253599 53.931438 
L 200.209927 53.931438 
L 201.166254 57.070369 
L 202.122581 63.204257 
L 203.078908 71.595516 
L 204.991562 91.659714 
L 206.904217 111.985257 
L 208.816871 129.641252 
L 210.729525 143.953407 
L 211.685852 149.905962 
L 212.642179 155.149691 
L 213.598506 159.758352 
L 214.554834 163.801153 
L 215.511161 167.345814 
L 216.467488 170.457521 
L 218.380142 175.581246 
L 220.292796 179.527767 
L 222.205451 182.557436 
L 224.118105 184.865089 
L 226.030759 186.591401 
L 227.943413 187.836053 
L 229.856068 188.670688 
L 231.768722 189.143371 
L 233.681376 189.28303 
L 235.594031 189.104122 
L 237.506685 188.607642 
L 239.419339 187.781802 
L 241.331993 186.60363 
L 243.244648 185.038441 
L 245.157302 183.039049 
L 247.069956 180.546696 
L 248.98261 177.490164 
L 250.895265 173.785789 
L 252.807919 169.340627 
L 254.720573 164.054616 
L 256.633227 157.828698 
L 258.545882 150.576655 
L 260.458536 142.24042 
L 262.37119 132.822324 
L 264.283844 122.408621 
L 267.152826 105.418727 
L 270.978134 82.501617 
L 272.890789 72.312252 
L 274.803443 63.875143 
L 275.75977 60.488089 
L 276.716097 57.732637 
L 277.672424 55.642102 
L 278.628751 54.223211 
L 279.585079 53.480642 
L 280.541406 53.398011 
L 281.497733 53.934584 
L 282.45406 55.048001 
L 283.410387 56.686672 
L 284.366714 58.787756 
L 285.323041 61.287766 
L 287.235696 67.237659 
L 289.14835 74.058274 
L 298.711621 109.87751 
L 301.580603 119.104396 
L 303.493257 124.660482 
L 305.405911 129.727114 
L 307.318565 134.302773 
L 309.23122 138.389236 
L 311.143874 141.986773 
L 313.056528 145.091524 
L 314.969183 147.6913 
L 316.881837 149.761806 
L 317.838164 150.587266 
L 318.794491 151.263156 
L 319.750818 151.781129 
L 320.707145 152.131051 
L 321.663472 152.298359 
L 322.6198 152.267803 
L 323.576127 152.021019 
L 324.532454 151.531436 
L 325.488781 150.77114 
L 326.445108 149.707396 
L 327.401435 148.293996 
L 328.357762 146.482396 
L 329.31409 144.2157 
L 330.270417 141.41227 
L 331.226744 137.985909 
L 332.183071 133.846108 
L 333.139398 128.888806 
L 334.095725 123.007286 
L 335.052052 116.109275 
L 336.008379 108.150693 
L 337.921034 89.086665 
L 339.833688 69.297718 
L 340.790015 61.273744 
L 341.746342 55.666188 
L 342.702669 53.352114 
L 342.702669 53.352114 
" clip-path="url(#pe2975ca98e)" style="fill: none; stroke: #2ca02c; stroke-width: 1.5; stroke-linecap: square"/>
   </g>
   <g id="line2d_16">
    <path d="M 56.760857 53.352114 
L 57.717184 53.621733 
L 58.673511 54.51061 
L 59.629838 55.875496 
L 61.542492 59.460299 
L 63.455147 63.241514 
L 64.411474 64.923123 
L 65.367801 66.372462 
L 66.324128 67.533573 
L 67.280455 68.399102 
L 68.236782 68.976259 
L 69.193109 69.275073 
L 70.149437 69.319957 
L 71.105764 69.139896 
L 72.062091 68.76397 
L 73.018418 68.221756 
L 74.931072 66.756705 
L 76.843726 64.958829 
L 83.538016 58.30537 
L 85.450671 56.728103 
L 87.363325 55.411615 
L 89.275979 54.393676 
L 91.188633 53.705654 
L 93.101288 53.376496 
L 95.013942 53.439345 
L 95.970269 53.630455 
L 96.926596 53.936877 
L 97.882923 54.365762 
L 98.839251 54.927143 
L 99.795578 55.632676 
L 100.751905 56.494494 
L 101.708232 57.529514 
L 102.664559 58.757496 
L 103.620886 60.198909 
L 104.577213 61.881708 
L 105.53354 63.838553 
L 106.489868 66.103059 
L 107.446195 68.719509 
L 108.402522 71.739251 
L 109.358849 75.214636 
L 110.315176 79.209371 
L 111.271503 83.795103 
L 112.22783 89.043477 
L 113.184158 95.023775 
L 114.140485 101.803543 
L 116.053139 117.958364 
L 117.965793 137.421091 
L 121.791102 180.040313 
L 122.747429 189.151307 
L 123.703756 196.628695 
L 124.660083 202.171132 
L 125.61641 205.681742 
L 126.572737 207.081714 
L 127.529065 206.519069 
L 128.485392 204.359872 
L 129.441719 200.977803 
L 130.398046 196.718219 
L 133.267027 181.734404 
L 135.179682 171.986677 
L 137.092336 163.418397 
L 139.00499 156.266609 
L 140.917644 150.539695 
L 141.873972 148.181235 
L 142.830299 146.138112 
L 143.786626 144.393317 
L 144.742953 142.930976 
L 145.69928 141.736718 
L 146.655607 140.796311 
L 147.611934 140.097326 
L 148.568261 139.629847 
L 149.524589 139.384173 
L 150.480916 139.35231 
L 151.437243 139.528773 
L 152.39357 139.908297 
L 153.349897 140.486988 
L 154.306224 141.263075 
L 155.262551 142.234984 
L 156.218878 143.402128 
L 157.175206 144.765529 
L 159.08786 148.086283 
L 161.000514 152.213119 
L 162.913168 157.163329 
L 164.825823 162.94455 
L 166.738477 169.528243 
L 168.651131 176.82267 
L 174.389094 199.677455 
L 175.345421 202.686565 
L 176.301748 205.076919 
L 177.258075 206.625487 
L 178.214403 207.101774 
L 179.17073 206.28892 
L 180.127057 204.004972 
L 181.083384 200.073595 
L 182.039711 194.391008 
L 182.996038 187.050243 
L 183.952365 178.177451 
L 185.86502 156.78197 
L 189.690328 110.20026 
L 191.602982 90.327818 
L 192.55931 81.906198 
L 193.515637 74.60937 
L 194.471964 68.433523 
L 195.428291 63.356805 
L 196.384618 59.355028 
L 197.340945 56.395463 
L 198.297272 54.443435 
L 199.253599 53.470224 
L 200.209927 53.470224 
L 201.166254 54.443435 
L 202.122581 56.395463 
L 203.078908 59.355028 
L 204.035235 63.356805 
L 204.991562 68.433523 
L 205.947889 74.60937 
L 206.904217 81.906198 
L 207.860544 90.327818 
L 209.773198 110.20026 
L 212.642179 145.042451 
L 214.554834 167.962999 
L 215.511161 178.177451 
L 216.467488 187.050243 
L 217.423815 194.391008 
L 218.380142 200.073595 
L 219.336469 204.004972 
L 220.292796 206.28892 
L 221.249124 207.101774 
L 222.205451 206.625487 
L 223.161778 205.076919 
L 224.118105 202.686565 
L 225.074432 199.677455 
L 226.987086 192.471523 
L 232.725049 169.528243 
L 234.637703 162.94455 
L 236.550358 157.163329 
L 238.463012 152.213119 
L 240.375666 148.086283 
L 242.28832 144.765529 
L 243.244648 143.402128 
L 244.200975 142.234984 
L 245.157302 141.263075 
L 246.113629 140.486988 
L 247.069956 139.908297 
L 248.026283 139.528773 
L 248.98261 139.35231 
L 249.938937 139.384173 
L 250.895265 139.629847 
L 251.851592 140.097326 
L 252.807919 140.796311 
L 253.764246 141.736718 
L 254.720573 142.930976 
L 255.6769 144.393317 
L 256.633227 146.138112 
L 257.589555 148.181235 
L 258.545882 150.539695 
L 259.502209 153.230321 
L 261.414863 159.659396 
L 263.327517 167.535314 
L 265.240172 176.745792 
L 269.06548 196.718219 
L 270.021807 200.977803 
L 270.978134 204.359872 
L 271.934462 206.519069 
L 272.890789 207.081714 
L 273.847116 205.681742 
L 274.803443 202.171132 
L 275.75977 196.628695 
L 276.716097 189.151307 
L 277.672424 180.040313 
L 279.585079 159.028469 
L 282.45406 127.299955 
L 284.366714 109.446475 
L 286.279369 95.023775 
L 287.235696 89.043477 
L 288.192023 83.795103 
L 289.14835 79.209371 
L 290.104677 75.214636 
L 291.061004 71.739251 
L 292.017331 68.719509 
L 292.973658 66.103059 
L 293.929986 63.838553 
L 294.886313 61.881708 
L 295.84264 60.198909 
L 296.798967 58.757496 
L 297.755294 57.529514 
L 298.711621 56.494494 
L 299.667948 55.632676 
L 300.624276 54.927143 
L 301.580603 54.365762 
L 302.53693 53.936877 
L 304.449584 53.439345 
L 306.362238 53.376496 
L 308.274893 53.705654 
L 310.187547 54.393676 
L 312.100201 55.411615 
L 314.012855 56.728103 
L 315.92551 58.30537 
L 318.794491 61.043651 
L 324.532454 66.756705 
L 326.445108 68.221756 
L 327.401435 68.76397 
L 328.357762 69.139896 
L 329.31409 69.319957 
L 330.270417 69.275073 
L 331.226744 68.976259 
L 332.183071 68.399102 
L 333.139398 67.533573 
L 334.095725 66.372462 
L 335.052052 64.923123 
L 336.964707 61.393718 
L 338.877361 57.573142 
L 339.833688 55.875496 
L 340.790015 54.51061 
L 341.746342 53.621733 
L 342.702669 53.352114 
L 342.702669 53.352114 
" clip-path="url(#pe2975ca98e)" style="fill: none; stroke: #d62728; stroke-width: 1.5; stroke-linecap: square"/>
   </g>
   <g id="patch_3">
    <path d="M 42.463766 237.861122 
L 42.463766 37.976363 
" style="fill: none; stroke: #000000; stroke-width: 0.8; stroke-linejoin: miter; stroke-linecap: square"/>
   </g>
   <g id="patch_4">
    <path d="M 356.99976 237.861122 
L 356.99976 37.976363 
" style="fill: none; stroke: #000000; stroke-width: 0.8; stroke-linejoin: miter; stroke-linecap: square"/>
   </g>
   <g id="patch_5">
    <path d="M 42.463766 237.861122 
L 356.99976 237.861122 
" style="fill: none; stroke: #000000; stroke-width: 0.8; stroke-linejoin: miter; stroke-linecap: square"/>
   </g>
   <g id="patch_6">
    <path d="M 42.463766 37.976363 
L 356.99976 37.976363 
" style="fill: none; stroke: #000000; stroke-width: 0.8; stroke-linejoin: miter; stroke-linecap: square"/>
   </g>
   <g id="legend_1">
    <g id="patch_7">
     <path d="M 81.051074 35.924692 
L 318.546161 35.924692 
Q 320.546161 35.924692 320.546161 33.924692 
L 320.546161 4.999411 
Q 320.546161 2.999411 318.546161 2.999411 
L 81.051074 2.999411 
Q 79.051074 2.999411 79.051074 4.999411 
L 79.051074 33.924692 
Q 79.051074 35.924692 81.051074 35.924692 
z
" style="fill: #ffffff; opacity: 0.8; stroke: #cccccc; stroke-linejoin: miter"/>
    </g>
    <g id="line2d_17">
     <path d="M 83.051074 10.971392 
L 93.051074 10.971392 
L 103.051074 10.971392 
" style="fill: none; stroke: #1f77b4; stroke-width: 1.5; stroke-linecap: square"/>
    </g>
    <g id="text_15">
     <!-- $J_0(2h/\omega)=-0.00$ -->
     <g transform="translate(111.051074 14.471392) scale(0.1 -0.1)">
      <defs>
       <path id="CMMI12-4a" d="M 3418 3911 
C 3469 4102 3482 4166 3795 4166 
C 3898 4166 3962 4166 3962 4281 
C 3962 4352 3904 4352 3878 4352 
C 3770 4352 3648 4339 3533 4339 
L 3181 4339 
C 2912 4339 2630 4352 2362 4352 
C 2304 4352 2227 4352 2227 4236 
C 2227 4172 2278 4172 2278 4166 
L 2438 4166 
C 2950 4166 2950 4115 2950 4019 
C 2950 4013 2950 3968 2925 3866 
L 2189 953 
C 2022 304 1594 0 1286 0 
C 1069 0 762 99 685 428 
C 710 422 742 415 768 415 
C 979 415 1146 601 1146 787 
C 1146 889 1082 1024 890 1024 
C 774 1024 506 959 506 543 
C 506 149 838 -128 1299 -128 
C 1882 -128 2509 304 2662 908 
L 3418 3911 
z
" transform="scale(0.015625)"/>
       <path id="CMMI12-68" d="M 1798 4255 
C 1805 4281 1818 4319 1818 4351 
C 1818 4416 1754 4416 1741 4416 
C 1734 4416 1421 4390 1389 4383 
C 1280 4377 1184 4364 1069 4358 
C 909 4345 864 4339 864 4223 
C 864 4159 915 4159 1005 4159 
C 1318 4159 1325 4103 1325 4040 
C 1325 4002 1312 3951 1306 3932 
L 378 249 
C 352 153 352 140 352 102 
C 352 -39 461 -64 525 -64 
C 634 -64 717 19 749 89 
L 1037 1245 
C 1069 1385 1107 1519 1139 1660 
C 1210 1928 1210 1934 1331 2119 
C 1453 2305 1741 2687 2234 2687 
C 2490 2687 2579 2496 2579 2241 
C 2579 1883 2330 1187 2189 804 
C 2131 651 2099 568 2099 453 
C 2099 166 2298 -64 2605 -64 
C 3200 -64 3424 874 3424 913 
C 3424 945 3398 970 3360 970 
C 3302 970 3296 951 3264 842 
C 3117 332 2880 64 2624 64 
C 2560 64 2458 70 2458 274 
C 2458 440 2534 645 2560 715 
C 2675 1021 2963 1775 2963 2145 
C 2963 2528 2739 2816 2253 2816 
C 1888 2816 1568 2643 1306 2311 
L 1798 4255 
z
" transform="scale(0.015625)"/>
       <path id="CMMI12-21" d="M 3802 2406 
C 3802 2592 3750 2828 3526 2828 
C 3398 2828 3251 2668 3251 2540 
C 3251 2483 3277 2444 3328 2387 
C 3424 2278 3546 2105 3546 1804 
C 3546 1574 3405 1209 3302 1011 
C 3123 659 2829 358 2496 358 
C 2093 358 1939 614 1869 972 
C 1939 1139 2086 1555 2086 1721 
C 2086 1792 2061 1849 1978 1849 
C 1933 1849 1882 1824 1850 1772 
C 1760 1632 1677 1126 1683 992 
C 1562 755 1216 358 806 358 
C 378 358 262 736 262 1100 
C 262 1766 678 2348 794 2508 
C 858 2604 902 2668 902 2681 
C 902 2726 877 2796 819 2796 
C 717 2796 685 2713 634 2636 
C 307 2131 77 1420 77 806 
C 77 409 224 -64 704 -64 
C 1235 -64 1568 390 1702 633 
C 1754 275 1946 -64 2413 -64 
C 2899 -64 3206 364 3437 883 
C 3603 1254 3802 2054 3802 2406 
z
" transform="scale(0.015625)"/>
       <path id="CMR17-3d" d="M 4115 2048 
C 4211 2048 4307 2048 4307 2156 
C 4307 2272 4198 2272 4090 2272 
L 512 2272 
C 403 2272 294 2272 294 2156 
C 294 2048 390 2048 486 2048 
L 4115 2048 
z
M 4090 927 
C 4198 927 4307 927 4307 1043 
C 4307 1152 4211 1152 4115 1152 
L 486 1152 
C 390 1152 294 1152 294 1043 
C 294 927 403 927 512 927 
L 4090 927 
z
" transform="scale(0.015625)"/>
      </defs>
      <use xlink:href="#CMMI12-4a" transform="scale(0.996264)"/>
      <use xlink:href="#CMR17-30" transform="translate(53.917955 -14.943915) scale(0.697382)"/>
      <use xlink:href="#CMR17-28" transform="translate(86.399269 0) scale(0.996264)"/>
      <use xlink:href="#CMR17-32" transform="translate(121.680037 0) scale(0.996264)"/>
      <use xlink:href="#CMMI12-68" transform="translate(167.370514 0) scale(0.996264)"/>
      <use xlink:href="#CMMI12-3d" transform="translate(223.525138 0) scale(0.996264)"/>
      <use xlink:href="#CMMI12-21" transform="translate(272.300057 0) scale(0.996264)"/>
      <use xlink:href="#CMR17-29" transform="translate(336.618403 0) scale(0.996264)"/>
      <use xlink:href="#CMR17-3d" transform="translate(399.57318 0) scale(0.996264)"/>
      <use xlink:href="#CMSY10-0" transform="translate(498.961977 0) scale(0.996264)"/>
      <use xlink:href="#CMR17-30" transform="translate(576.449444 0) scale(0.996264)"/>
      <use xlink:href="#CMMI12-3a" transform="translate(622.139921 0) scale(0.996264)"/>
      <use xlink:href="#CMR17-30" transform="translate(649.237099 0) scale(0.996264)"/>
      <use xlink:href="#CMR17-30" transform="translate(694.927576 0) scale(0.996264)"/>
     </g>
    </g>
    <g id="line2d_18">
     <path d="M 83.051074 25.934032 
L 93.051074 25.934032 
L 103.051074 25.934032 
" style="fill: none; stroke: #ff7f0e; stroke-width: 1.5; stroke-linecap: square"/>
    </g>
    <g id="text_16">
     <!-- $J_0(2h/\omega)=0.25$ -->
     <g transform="translate(111.051074 29.434032) scale(0.1 -0.1)">
      <use xlink:href="#CMMI12-4a" transform="scale(0.996264)"/>
      <use xlink:href="#CMR17-30" transform="translate(53.917955 -14.943915) scale(0.697382)"/>
      <use xlink:href="#CMR17-28" transform="translate(86.399269 0) scale(0.996264)"/>
      <use xlink:href="#CMR17-32" transform="translate(121.680037 0) scale(0.996264)"/>
      <use xlink:href="#CMMI12-68" transform="translate(167.370514 0) scale(0.996264)"/>
      <use xlink:href="#CMMI12-3d" transform="translate(223.525138 0) scale(0.996264)"/>
      <use xlink:href="#CMMI12-21" transform="translate(272.300057 0) scale(0.996264)"/>
      <use xlink:href="#CMR17-29" transform="translate(336.618403 0) scale(0.996264)"/>
      <use xlink:href="#CMR17-3d" transform="translate(399.57318 0) scale(0.996264)"/>
      <use xlink:href="#CMR17-30" transform="translate(498.961977 0) scale(0.996264)"/>
      <use xlink:href="#CMMI12-3a" transform="translate(544.652454 0) scale(0.996264)"/>
      <use xlink:href="#CMR17-32" transform="translate(571.749631 0) scale(0.996264)"/>
      <use xlink:href="#CMR17-35" transform="translate(617.440108 0) scale(0.996264)"/>
     </g>
    </g>
    <g id="line2d_19">
     <path d="M 209.798617 10.971392 
L 219.798617 10.971392 
L 229.798617 10.971392 
" style="fill: none; stroke: #2ca02c; stroke-width: 1.5; stroke-linecap: square"/>
    </g>
    <g id="text_17">
     <!-- $J_0(2h/\omega)=0.54$ -->
     <g transform="translate(237.798617 14.471392) scale(0.1 -0.1)">
      <use xlink:href="#CMMI12-4a" transform="scale(0.996264)"/>
      <use xlink:href="#CMR17-30" transform="translate(53.917955 -14.943915) scale(0.697382)"/>
      <use xlink:href="#CMR17-28" transform="translate(86.399269 0) scale(0.996264)"/>
      <use xlink:href="#CMR17-32" transform="translate(121.680037 0) scale(0.996264)"/>
      <use xlink:href="#CMMI12-68" transform="translate(167.370514 0) scale(0.996264)"/>
      <use xlink:href="#CMMI12-3d" transform="translate(223.525138 0) scale(0.996264)"/>
      <use xlink:href="#CMMI12-21" transform="translate(272.300057 0) scale(0.996264)"/>
      <use xlink:href="#CMR17-29" transform="translate(336.618403 0) scale(0.996264)"/>
      <use xlink:href="#CMR17-3d" transform="translate(399.57318 0) scale(0.996264)"/>
      <use xlink:href="#CMR17-30" transform="translate(498.961977 0) scale(0.996264)"/>
      <use xlink:href="#CMMI12-3a" transform="translate(544.652454 0) scale(0.996264)"/>
      <use xlink:href="#CMR17-35" transform="translate(571.749631 0) scale(0.996264)"/>
      <use xlink:href="#CMR17-34" transform="translate(617.440108 0) scale(0.996264)"/>
     </g>
    </g>
    <g id="line2d_20">
     <path d="M 209.798617 25.934032 
L 219.798617 25.934032 
L 229.798617 25.934032 
" style="fill: none; stroke: #d62728; stroke-width: 1.5; stroke-linecap: square"/>
    </g>
    <g id="text_18">
     <!-- $J_0(2h/\omega)=-0.27$ -->
     <g transform="translate(237.798617 29.434032) scale(0.1 -0.1)">
      <use xlink:href="#CMMI12-4a" transform="scale(0.996264)"/>
      <use xlink:href="#CMR17-30" transform="translate(53.917955 -14.943915) scale(0.697382)"/>
      <use xlink:href="#CMR17-28" transform="translate(86.399269 0) scale(0.996264)"/>
      <use xlink:href="#CMR17-32" transform="translate(121.680037 0) scale(0.996264)"/>
      <use xlink:href="#CMMI12-68" transform="translate(167.370514 0) scale(0.996264)"/>
      <use xlink:href="#CMMI12-3d" transform="translate(223.525138 0) scale(0.996264)"/>
      <use xlink:href="#CMMI12-21" transform="translate(272.300057 0) scale(0.996264)"/>
      <use xlink:href="#CMR17-29" transform="translate(336.618403 0) scale(0.996264)"/>
      <use xlink:href="#CMR17-3d" transform="translate(399.57318 0) scale(0.996264)"/>
      <use xlink:href="#CMSY10-0" transform="translate(498.961977 0) scale(0.996264)"/>
      <use xlink:href="#CMR17-30" transform="translate(576.449444 0) scale(0.996264)"/>
      <use xlink:href="#CMMI12-3a" transform="translate(622.139921 0) scale(0.996264)"/>
      <use xlink:href="#CMR17-32" transform="translate(649.237099 0) scale(0.996264)"/>
      <use xlink:href="#CMR17-37" transform="translate(694.927576 0) scale(0.996264)"/>
     </g>
    </g>
   </g>
  </g>
 </g>
 <defs>
  <clipPath id="pe2975ca98e">
   <rect x="42.463766" y="37.976363" width="314.535994" height="199.884759"/>
  </clipPath>
 </defs>
</svg>
