<?xml version="1.0" encoding="utf-8" standalone="no"?>
<!DOCTYPE svg PUBLIC "-//W3C//DTD SVG 1.1//EN"
  "http://www.w3.org/Graphics/SVG/1.1/DTD/svg11.dtd">
<svg xmlns:xlink="http://www.w3.org/1999/xlink" width="432pt" height="432pt" viewBox="0 0 432 432" xmlns="http://www.w3.org/2000/svg" version="1.1">
 <metadata>
  <rdf:RDF xmlns:dc="http://purl.org/dc/elements/1.1/" xmlns:cc="http://creativecommons.org/ns#" xmlns:rdf="http://www.w3.org/1999/02/22-rdf-syntax-ns#">
   <cc:Work>
    <dc:type rdf:resource="http://purl.org/dc/dcmitype/StillImage"/>
    <dc:date>2023-06-25T18:30:31.577959</dc:date>
    <dc:format>image/svg+xml</dc:format>
    <dc:creator>
     <cc:Agent>
      <dc:title>Matplotlib v3.7.1, https://matplotlib.org/</dc:title>
     </cc:Agent>
    </dc:creator>
   </cc:Work>
  </rdf:RDF>
 </metadata>
 <defs>
  <style type="text/css">*{stroke-linejoin: round; stroke-linecap: butt}</style>
 </defs>
 <g id="figure_1">
  <g id="patch_1">
   <path d="M 0 432 
L 432 432 
L 432 0 
L 0 0 
z
" style="fill: #ffffff"/>
  </g>
  <g id="axes_1">
   <g id="patch_2">
    <path d="M 58.07682 175.369295 
L 416.88 175.369295 
L 416.88 15.12 
L 58.07682 15.12 
z
" style="fill: #ffffff"/>
   </g>
   <g id="matplotlib.axis_1">
    <g id="xtick_1">
     <g id="line2d_1">
      <defs>
       <path id="mf941d77b66" d="M 0 0 
L 0 -3.5 
" style="stroke: #000000; stroke-width: 0.8"/>
      </defs>
      <g>
       <use xlink:href="#mf941d77b66" x="74.386055" y="175.369295" style="stroke: #000000; stroke-width: 0.8"/>
      </g>
     </g>
     <g id="text_1">
      <!-- $\mathdefault{10^{0}}$ -->
      <g transform="translate(65.048953 188.555171) scale(0.14 -0.14)">
       <defs>
        <path id="CMR17-31" d="M 1702 4083 
C 1702 4217 1696 4224 1606 4224 
C 1357 3927 979 3833 621 3820 
C 602 3820 570 3820 563 3808 
C 557 3795 557 3782 557 3648 
C 755 3648 1088 3686 1344 3839 
L 1344 467 
C 1344 243 1331 166 781 166 
L 589 166 
L 589 0 
C 896 6 1216 12 1523 12 
C 1830 12 2150 6 2458 0 
L 2458 166 
L 2266 166 
C 1715 166 1702 236 1702 467 
L 1702 4083 
z
" transform="scale(0.015625)"/>
        <path id="CMR17-30" d="M 2688 2038 
C 2688 2430 2682 3099 2413 3613 
C 2176 4063 1798 4224 1466 4224 
C 1158 4224 768 4082 525 3620 
C 269 3137 243 2539 243 2038 
C 243 1671 250 1112 448 623 
C 723 -39 1216 -128 1466 -128 
C 1760 -128 2208 -7 2470 604 
C 2662 1048 2688 1568 2688 2038 
z
M 1466 -26 
C 1056 -26 813 328 723 816 
C 653 1196 653 1749 653 2109 
C 653 2604 653 3015 736 3407 
C 858 3954 1216 4121 1466 4121 
C 1728 4121 2067 3947 2189 3420 
C 2272 3054 2278 2623 2278 2109 
C 2278 1691 2278 1176 2202 797 
C 2067 96 1690 -26 1466 -26 
z
" transform="scale(0.015625)"/>
       </defs>
       <use xlink:href="#CMR17-31" transform="scale(0.996264)"/>
       <use xlink:href="#CMR17-30" transform="translate(45.690477 0) scale(0.996264)"/>
       <use xlink:href="#CMR17-30" transform="translate(91.380954 36.153639) scale(0.697382)"/>
      </g>
     </g>
    </g>
    <g id="xtick_2">
     <g id="line2d_2">
      <g>
       <use xlink:href="#mf941d77b66" x="237.47841" y="175.369295" style="stroke: #000000; stroke-width: 0.8"/>
      </g>
     </g>
     <g id="text_2">
      <!-- $\mathdefault{10^{1}}$ -->
      <g transform="translate(228.141308 188.555171) scale(0.14 -0.14)">
       <use xlink:href="#CMR17-31" transform="scale(0.996264)"/>
       <use xlink:href="#CMR17-30" transform="translate(45.690477 0) scale(0.996264)"/>
       <use xlink:href="#CMR17-31" transform="translate(91.380954 36.153639) scale(0.697382)"/>
      </g>
     </g>
    </g>
    <g id="xtick_3">
     <g id="line2d_3">
      <g>
       <use xlink:href="#mf941d77b66" x="400.570765" y="175.369295" style="stroke: #000000; stroke-width: 0.8"/>
      </g>
     </g>
     <g id="text_3">
      <!-- $\mathdefault{10^{2}}$ -->
      <g transform="translate(391.233663 188.555171) scale(0.14 -0.14)">
       <defs>
        <path id="CMR17-32" d="M 2669 990 
L 2554 990 
C 2490 537 2438 460 2413 422 
C 2381 371 1920 371 1830 371 
L 602 371 
C 832 620 1280 1073 1824 1596 
C 2214 1966 2669 2400 2669 3033 
C 2669 3788 2067 4224 1395 4224 
C 691 4224 262 3603 262 3027 
C 262 2777 448 2745 525 2745 
C 589 2745 781 2783 781 3007 
C 781 3206 614 3264 525 3264 
C 486 3264 448 3257 422 3244 
C 544 3788 915 4057 1306 4057 
C 1862 4057 2227 3616 2227 3033 
C 2227 2477 1901 1998 1536 1583 
L 262 147 
L 262 0 
L 2515 0 
L 2669 990 
z
" transform="scale(0.015625)"/>
       </defs>
       <use xlink:href="#CMR17-31" transform="scale(0.996264)"/>
       <use xlink:href="#CMR17-30" transform="translate(45.690477 0) scale(0.996264)"/>
       <use xlink:href="#CMR17-32" transform="translate(91.380954 36.153639) scale(0.697382)"/>
      </g>
     </g>
    </g>
    <g id="xtick_4">
     <g id="line2d_4">
      <defs>
       <path id="m6850bd131f" d="M 0 0 
L 0 -2 
" style="stroke: #000000; stroke-width: 0.6"/>
      </defs>
      <g>
       <use xlink:href="#m6850bd131f" x="58.580773" y="175.369295" style="stroke: #000000; stroke-width: 0.6"/>
      </g>
     </g>
    </g>
    <g id="xtick_5">
     <g id="line2d_5">
      <g>
       <use xlink:href="#m6850bd131f" x="66.923358" y="175.369295" style="stroke: #000000; stroke-width: 0.6"/>
      </g>
     </g>
    </g>
    <g id="xtick_6">
     <g id="line2d_6">
      <g>
       <use xlink:href="#m6850bd131f" x="123.481746" y="175.369295" style="stroke: #000000; stroke-width: 0.6"/>
      </g>
     </g>
    </g>
    <g id="xtick_7">
     <g id="line2d_7">
      <g>
       <use xlink:href="#m6850bd131f" x="152.200884" y="175.369295" style="stroke: #000000; stroke-width: 0.6"/>
      </g>
     </g>
    </g>
    <g id="xtick_8">
     <g id="line2d_8">
      <g>
       <use xlink:href="#m6850bd131f" x="172.577437" y="175.369295" style="stroke: #000000; stroke-width: 0.6"/>
      </g>
     </g>
    </g>
    <g id="xtick_9">
     <g id="line2d_9">
      <g>
       <use xlink:href="#m6850bd131f" x="188.382719" y="175.369295" style="stroke: #000000; stroke-width: 0.6"/>
      </g>
     </g>
    </g>
    <g id="xtick_10">
     <g id="line2d_10">
      <g>
       <use xlink:href="#m6850bd131f" x="201.296575" y="175.369295" style="stroke: #000000; stroke-width: 0.6"/>
      </g>
     </g>
    </g>
    <g id="xtick_11">
     <g id="line2d_11">
      <g>
       <use xlink:href="#m6850bd131f" x="212.215084" y="175.369295" style="stroke: #000000; stroke-width: 0.6"/>
      </g>
     </g>
    </g>
    <g id="xtick_12">
     <g id="line2d_12">
      <g>
       <use xlink:href="#m6850bd131f" x="221.673128" y="175.369295" style="stroke: #000000; stroke-width: 0.6"/>
      </g>
     </g>
    </g>
    <g id="xtick_13">
     <g id="line2d_13">
      <g>
       <use xlink:href="#m6850bd131f" x="230.015713" y="175.369295" style="stroke: #000000; stroke-width: 0.6"/>
      </g>
     </g>
    </g>
    <g id="xtick_14">
     <g id="line2d_14">
      <g>
       <use xlink:href="#m6850bd131f" x="286.574101" y="175.369295" style="stroke: #000000; stroke-width: 0.6"/>
      </g>
     </g>
    </g>
    <g id="xtick_15">
     <g id="line2d_15">
      <g>
       <use xlink:href="#m6850bd131f" x="315.293239" y="175.369295" style="stroke: #000000; stroke-width: 0.6"/>
      </g>
     </g>
    </g>
    <g id="xtick_16">
     <g id="line2d_16">
      <g>
       <use xlink:href="#m6850bd131f" x="335.669791" y="175.369295" style="stroke: #000000; stroke-width: 0.6"/>
      </g>
     </g>
    </g>
    <g id="xtick_17">
     <g id="line2d_17">
      <g>
       <use xlink:href="#m6850bd131f" x="351.475074" y="175.369295" style="stroke: #000000; stroke-width: 0.6"/>
      </g>
     </g>
    </g>
    <g id="xtick_18">
     <g id="line2d_18">
      <g>
       <use xlink:href="#m6850bd131f" x="364.38893" y="175.369295" style="stroke: #000000; stroke-width: 0.6"/>
      </g>
     </g>
    </g>
    <g id="xtick_19">
     <g id="line2d_19">
      <g>
       <use xlink:href="#m6850bd131f" x="375.307439" y="175.369295" style="stroke: #000000; stroke-width: 0.6"/>
      </g>
     </g>
    </g>
    <g id="xtick_20">
     <g id="line2d_20">
      <g>
       <use xlink:href="#m6850bd131f" x="384.765482" y="175.369295" style="stroke: #000000; stroke-width: 0.6"/>
      </g>
     </g>
    </g>
    <g id="xtick_21">
     <g id="line2d_21">
      <g>
       <use xlink:href="#m6850bd131f" x="393.108068" y="175.369295" style="stroke: #000000; stroke-width: 0.6"/>
      </g>
     </g>
    </g>
    <g id="text_4">
     <!-- $\omega$ -->
     <g transform="translate(233.22635 204.953076) scale(0.14 -0.14)">
      <defs>
       <path id="CMMI12-21" d="M 3802 2406 
C 3802 2592 3750 2828 3526 2828 
C 3398 2828 3251 2668 3251 2540 
C 3251 2483 3277 2444 3328 2387 
C 3424 2278 3546 2105 3546 1804 
C 3546 1574 3405 1209 3302 1011 
C 3123 659 2829 358 2496 358 
C 2093 358 1939 614 1869 972 
C 1939 1139 2086 1555 2086 1721 
C 2086 1792 2061 1849 1978 1849 
C 1933 1849 1882 1824 1850 1772 
C 1760 1632 1677 1126 1683 992 
C 1562 755 1216 358 806 358 
C 378 358 262 736 262 1100 
C 262 1766 678 2348 794 2508 
C 858 2604 902 2668 902 2681 
C 902 2726 877 2796 819 2796 
C 717 2796 685 2713 634 2636 
C 307 2131 77 1420 77 806 
C 77 409 224 -64 704 -64 
C 1235 -64 1568 390 1702 633 
C 1754 275 1946 -64 2413 -64 
C 2899 -64 3206 364 3437 883 
C 3603 1254 3802 2054 3802 2406 
z
" transform="scale(0.015625)"/>
      </defs>
      <use xlink:href="#CMMI12-21" transform="scale(0.996264)"/>
     </g>
    </g>
   </g>
   <g id="matplotlib.axis_2">
    <g id="ytick_1">
     <g id="line2d_22">
      <defs>
       <path id="ma9db5ddc82" d="M 0 0 
L 3.5 0 
" style="stroke: #000000; stroke-width: 0.8"/>
      </defs>
      <g>
       <use xlink:href="#ma9db5ddc82" x="58.07682" y="175.369295" style="stroke: #000000; stroke-width: 0.8"/>
      </g>
     </g>
     <g id="text_5">
      <!-- $\mathdefault{0.4}$ -->
      <g transform="translate(37.126238 180.212233) scale(0.14 -0.14)">
       <defs>
        <path id="CMMI12-3a" d="M 1178 307 
C 1178 492 1024 620 870 620 
C 685 620 557 467 557 313 
C 557 128 710 0 864 0 
C 1050 0 1178 153 1178 307 
z
" transform="scale(0.015625)"/>
        <path id="CMR17-34" d="M 2150 4147 
C 2150 4281 2144 4288 2029 4288 
L 128 1254 
L 128 1088 
L 1779 1088 
L 1779 460 
C 1779 230 1766 166 1318 166 
L 1197 166 
L 1197 0 
C 1402 12 1747 12 1965 12 
C 2182 12 2528 12 2733 0 
L 2733 166 
L 2611 166 
C 2163 166 2150 230 2150 460 
L 2150 1088 
L 2803 1088 
L 2803 1254 
L 2150 1254 
L 2150 4147 
z
M 1798 3723 
L 1798 1254 
L 256 1254 
L 1798 3723 
z
" transform="scale(0.015625)"/>
       </defs>
       <use xlink:href="#CMR17-30" transform="scale(0.996264)"/>
       <use xlink:href="#CMMI12-3a" transform="translate(45.690477 0) scale(0.996264)"/>
       <use xlink:href="#CMR17-34" transform="translate(72.787654 0) scale(0.996264)"/>
      </g>
     </g>
    </g>
    <g id="ytick_2">
     <g id="line2d_23">
      <g>
       <use xlink:href="#ma9db5ddc82" x="58.07682" y="129.583782" style="stroke: #000000; stroke-width: 0.8"/>
      </g>
     </g>
     <g id="text_6">
      <!-- $\mathdefault{0.6}$ -->
      <g transform="translate(37.126238 134.42672) scale(0.14 -0.14)">
       <defs>
        <path id="CMR17-36" d="M 678 2198 
C 678 3712 1395 4076 1811 4076 
C 1946 4076 2272 4049 2400 3782 
C 2298 3782 2106 3782 2106 3558 
C 2106 3385 2246 3328 2336 3328 
C 2394 3328 2566 3353 2566 3571 
C 2566 3987 2246 4224 1805 4224 
C 1043 4224 243 3411 243 2011 
C 243 257 966 -128 1478 -128 
C 2099 -128 2688 431 2688 1295 
C 2688 2101 2170 2688 1517 2688 
C 1126 2688 838 2430 678 1979 
L 678 2198 
z
M 1478 25 
C 691 25 691 1212 691 1450 
C 691 1914 909 2585 1504 2585 
C 1613 2585 1926 2585 2138 2140 
C 2253 1889 2253 1624 2253 1302 
C 2253 954 2253 696 2118 438 
C 1978 173 1773 25 1478 25 
z
" transform="scale(0.015625)"/>
       </defs>
       <use xlink:href="#CMR17-30" transform="scale(0.996264)"/>
       <use xlink:href="#CMMI12-3a" transform="translate(45.690477 0) scale(0.996264)"/>
       <use xlink:href="#CMR17-36" transform="translate(72.787654 0) scale(0.996264)"/>
      </g>
     </g>
    </g>
    <g id="ytick_3">
     <g id="line2d_24">
      <g>
       <use xlink:href="#ma9db5ddc82" x="58.07682" y="83.798269" style="stroke: #000000; stroke-width: 0.8"/>
      </g>
     </g>
     <g id="text_7">
      <!-- $\mathdefault{0.8}$ -->
      <g transform="translate(37.126238 88.641207) scale(0.14 -0.14)">
       <defs>
        <path id="CMR17-38" d="M 1741 2289 
C 2144 2494 2554 2803 2554 3298 
C 2554 3884 1990 4224 1472 4224 
C 890 4224 378 3800 378 3215 
C 378 3054 416 2777 666 2533 
C 730 2469 998 2276 1171 2154 
C 883 2006 211 1652 211 945 
C 211 282 838 -128 1459 -128 
C 2144 -128 2720 366 2720 1022 
C 2720 1607 2330 1877 2074 2051 
L 1741 2289 
z
M 902 2855 
C 851 2887 595 3086 595 3388 
C 595 3781 998 4076 1459 4076 
C 1965 4076 2336 3716 2336 3298 
C 2336 2700 1670 2359 1638 2359 
C 1632 2359 1626 2359 1574 2398 
L 902 2855 
z
M 2080 1536 
C 2176 1466 2483 1253 2483 861 
C 2483 385 2010 25 1472 25 
C 890 25 448 443 448 951 
C 448 1459 838 1884 1280 2083 
L 2080 1536 
z
" transform="scale(0.015625)"/>
       </defs>
       <use xlink:href="#CMR17-30" transform="scale(0.996264)"/>
       <use xlink:href="#CMMI12-3a" transform="translate(45.690477 0) scale(0.996264)"/>
       <use xlink:href="#CMR17-38" transform="translate(72.787654 0) scale(0.996264)"/>
      </g>
     </g>
    </g>
    <g id="ytick_4">
     <g id="line2d_25">
      <g>
       <use xlink:href="#ma9db5ddc82" x="58.07682" y="38.012756" style="stroke: #000000; stroke-width: 0.8"/>
      </g>
     </g>
     <g id="text_8">
      <!-- $\mathdefault{1.0}$ -->
      <g transform="translate(37.126238 42.855695) scale(0.14 -0.14)">
       <use xlink:href="#CMR17-31" transform="scale(0.996264)"/>
       <use xlink:href="#CMMI12-3a" transform="translate(45.690477 0) scale(0.996264)"/>
       <use xlink:href="#CMR17-30" transform="translate(72.787654 0) scale(0.996264)"/>
      </g>
     </g>
    </g>
    <g id="text_9">
     <!-- $\phi^{}_{{_{IPR}}}$ -->
     <g transform="translate(28.810034 109.873915) rotate(-90) scale(0.18 -0.18)">
      <defs>
       <path id="CMMI12-1e" d="M 2752 4358 
C 2752 4416 2707 4416 2688 4416 
C 2630 4416 2624 4403 2598 4294 
L 2253 2924 
C 2234 2841 2227 2835 2221 2828 
C 2214 2816 2170 2809 2157 2809 
C 1107 2720 301 1863 301 1071 
C 301 387 832 -32 1498 -71 
C 1446 -266 1402 -467 1350 -662 
C 1261 -995 1210 -1204 1210 -1229 
C 1210 -1242 1210 -1280 1274 -1280 
C 1293 -1280 1318 -1280 1331 -1255 
C 1344 -1242 1382 -1089 1408 -1008 
L 1645 -71 
C 2739 -13 3571 875 3571 1673 
C 3571 2313 3085 2771 2374 2816 
L 2752 4358 
z
M 2336 2688 
C 2758 2662 3181 2428 3181 1806 
C 3181 1090 2675 140 1677 64 
L 2336 2688 
z
M 1530 57 
C 1216 76 691 241 691 938 
C 691 1737 1274 2624 2195 2681 
L 1530 57 
z
" transform="scale(0.015625)"/>
       <path id="CMMI12-49" d="M 2355 3879 
C 2413 4102 2426 4166 2893 4166 
C 3034 4166 3085 4166 3085 4287 
C 3085 4352 3014 4352 2995 4352 
C 2880 4352 2739 4339 2624 4339 
L 1837 4339 
C 1709 4339 1562 4352 1434 4352 
C 1382 4352 1312 4352 1312 4230 
C 1312 4166 1363 4166 1491 4166 
C 1888 4166 1888 4115 1888 4045 
C 1888 4000 1875 3962 1862 3905 
L 998 472 
C 941 249 928 185 461 185 
C 320 185 262 185 262 64 
C 262 0 326 0 358 0 
C 474 0 614 12 730 12 
L 1517 12 
C 1645 12 1786 0 1914 0 
C 1965 0 2042 0 2042 115 
C 2042 185 2003 185 1862 185 
C 1466 185 1466 236 1466 312 
C 1466 325 1466 357 1491 459 
L 2355 3879 
z
" transform="scale(0.015625)"/>
       <path id="CMMI12-50" d="M 1894 2022 
L 2970 2022 
C 3853 2022 4736 2673 4736 3400 
C 4736 3898 4314 4352 3507 4352 
L 1530 4352 
C 1408 4352 1350 4352 1350 4230 
C 1350 4166 1408 4166 1504 4166 
C 1894 4166 1894 4115 1894 4045 
C 1894 4032 1894 3994 1869 3898 
L 1005 471 
C 947 249 934 185 486 185 
C 365 185 301 185 301 70 
C 301 0 358 0 397 0 
C 518 0 646 12 768 12 
L 1517 12 
C 1638 12 1773 0 1894 0 
C 1946 0 2016 0 2016 121 
C 2016 185 1958 185 1862 185 
C 1478 185 1472 230 1472 293 
C 1472 325 1478 369 1485 401 
L 1894 2022 
z
M 2355 3917 
C 2413 4153 2438 4166 2688 4166 
L 3322 4166 
C 3802 4166 4198 4013 4198 3534 
C 4198 3369 4115 2826 3821 2533 
C 3712 2418 3405 2176 2822 2176 
L 1920 2176 
L 2355 3917 
z
" transform="scale(0.015625)"/>
       <path id="CMMI12-52" d="M 2355 3917 
C 2413 4153 2438 4166 2688 4166 
L 3149 4166 
C 3699 4166 4109 4000 4109 3503 
C 4109 3177 3942 2240 2656 2240 
L 1933 2240 
L 2355 3917 
z
M 3245 2163 
C 4038 2335 4659 2846 4659 3394 
C 4659 3892 4154 4352 3264 4352 
L 1530 4352 
C 1402 4352 1344 4352 1344 4230 
C 1344 4166 1389 4166 1510 4166 
C 1894 4166 1894 4115 1894 4045 
C 1894 4032 1894 3994 1869 3898 
L 1005 475 
C 947 253 934 190 493 190 
C 346 190 301 190 301 69 
C 301 6 371 6 390 6 
C 506 6 640 19 762 19 
L 1517 19 
C 1632 19 1766 6 1882 6 
C 1933 6 2003 6 2003 126 
C 2003 190 1946 190 1850 190 
C 1459 190 1459 241 1459 304 
C 1459 310 1459 355 1472 405 
L 1901 2112 
L 2669 2112 
C 3277 2112 3392 1731 3392 1522 
C 3392 1426 3328 1179 3283 1014 
C 3213 723 3194 653 3194 532 
C 3194 82 3565 -128 3994 -128 
C 4512 -128 4736 501 4736 589 
C 4736 634 4704 653 4666 653 
C 4614 653 4602 615 4589 564 
C 4435 114 4173 0 4013 0 
C 3853 0 3750 69 3750 355 
C 3750 507 3827 1084 3834 1116 
C 3866 1350 3866 1376 3866 1426 
C 3866 1889 3488 2086 3245 2163 
z
" transform="scale(0.015625)"/>
      </defs>
      <use xlink:href="#CMMI12-1e" transform="scale(0.996264)"/>
      <use xlink:href="#CMMI12-49" transform="translate(57.73418 -35.090046) scale(0.498132)"/>
      <use xlink:href="#CMMI12-50" transform="translate(83.16243 -35.090046) scale(0.498132)"/>
      <use xlink:href="#CMMI12-52" transform="translate(121.375333 -35.090046) scale(0.498132)"/>
     </g>
    </g>
   </g>
   <g id="line2d_26">
    <path d="M 74.386055 149.235784 
L 77.664293 149.810976 
L 82.581651 150.744846 
L 85.859889 151.132637 
L 89.138127 151.26787 
L 92.416366 151.127552 
L 95.694604 150.641612 
L 97.333723 150.228108 
L 98.972842 149.671844 
L 100.611961 148.948824 
L 102.251081 148.03545 
L 103.8902 146.910464 
L 105.529319 145.556786 
L 107.168438 143.963054 
L 108.807557 142.124737 
L 110.446676 140.044715 
L 112.085795 137.733272 
L 115.364034 132.490712 
L 118.642272 126.596587 
L 123.559629 117.077187 
L 130.116106 104.34364 
L 133.394344 98.34947 
L 136.672583 92.739405 
L 139.950821 87.55931 
L 143.229059 82.822875 
L 146.507297 78.521781 
L 149.785536 74.634042 
L 153.063774 71.130169 
L 156.342012 67.977431 
L 159.620251 65.142698 
L 162.898489 62.59398 
L 166.176727 60.301466 
L 169.454965 58.237887 
L 172.733204 56.378643 
L 176.011442 54.701766 
L 180.928799 52.486237 
L 185.846157 50.580752 
L 190.763514 48.938079 
L 195.680872 47.518913 
L 200.598229 46.290465 
L 207.154706 44.90247 
L 213.711182 43.752046 
L 221.906778 42.584042 
L 230.102374 41.655869 
L 239.937089 40.788398 
L 251.410923 40.034019 
L 264.523876 39.419114 
L 280.915067 38.905741 
L 300.584497 38.529782 
L 326.810403 38.261637 
L 367.788382 38.091789 
L 400.570765 38.044231 
L 400.570765 38.044231 
" clip-path="url(#pa65688aecc)" style="fill: none; stroke: #1f77b4; stroke-width: 1.5; stroke-linecap: square"/>
   </g>
   <g id="patch_3">
    <path d="M 58.07682 175.369295 
L 58.07682 15.12 
" style="fill: none; stroke: #000000; stroke-width: 0.8; stroke-linejoin: miter; stroke-linecap: square"/>
   </g>
   <g id="patch_4">
    <path d="M 416.88 175.369295 
L 416.88 15.12 
" style="fill: none; stroke: #000000; stroke-width: 0.8; stroke-linejoin: miter; stroke-linecap: square"/>
   </g>
   <g id="patch_5">
    <path d="M 58.07682 175.369295 
L 416.88 175.369295 
" style="fill: none; stroke: #000000; stroke-width: 0.8; stroke-linejoin: miter; stroke-linecap: square"/>
   </g>
   <g id="patch_6">
    <path d="M 58.07682 15.12 
L 416.88 15.12 
" style="fill: none; stroke: #000000; stroke-width: 0.8; stroke-linejoin: miter; stroke-linecap: square"/>
   </g>
   <g id="legend_1">
    <g id="line2d_27">
     <path d="M 331.849299 92.839786 
L 345.849299 92.839786 
L 359.849299 92.839786 
" style="fill: none; stroke: #1f77b4; stroke-width: 1.5; stroke-linecap: square"/>
    </g>
    <g id="text_10">
     <!-- $k = \frac{\pi}{4}$ -->
     <g transform="translate(371.049299 97.739786) scale(0.14 -0.14)">
      <defs>
       <path id="CMMI12-6b" d="M 1798 4255 
C 1805 4281 1818 4319 1818 4351 
C 1818 4416 1754 4416 1741 4416 
C 1734 4416 1504 4396 1389 4383 
C 1280 4377 1184 4364 1069 4358 
C 915 4345 870 4339 870 4223 
C 870 4159 934 4159 998 4159 
C 1325 4159 1325 4103 1325 4040 
C 1325 4014 1325 4002 1293 3888 
L 378 250 
C 352 153 352 141 352 102 
C 352 -39 461 -64 525 -64 
C 704 -64 742 76 794 275 
L 1094 1476 
C 1555 1425 1830 1232 1830 924 
C 1830 885 1830 860 1811 763 
C 1786 667 1786 590 1786 558 
C 1786 185 2029 -64 2355 -64 
C 2650 -64 2803 205 2854 295 
C 2989 532 3072 892 3072 917 
C 3072 949 3046 975 3008 975 
C 2950 975 2944 949 2918 847 
C 2829 513 2694 64 2368 64 
C 2240 64 2157 128 2157 372 
C 2157 494 2182 635 2208 731 
C 2234 847 2234 853 2234 930 
C 2234 1309 1894 1521 1306 1598 
C 1536 1739 1766 1989 1856 2086 
C 2221 2495 2470 2687 2765 2687 
C 2912 2687 2950 2655 2995 2624 
C 2758 2598 2669 2431 2669 2303 
C 2669 2150 2790 2099 2880 2099 
C 3053 2099 3206 2246 3206 2451 
C 3206 2634 3059 2816 2771 2816 
C 2419 2816 2131 2579 1677 2067 
C 1613 1989 1376 1746 1139 1656 
L 1798 4255 
z
" transform="scale(0.015625)"/>
       <path id="CMR17-3d" d="M 4115 2048 
C 4211 2048 4307 2048 4307 2156 
C 4307 2272 4198 2272 4090 2272 
L 512 2272 
C 403 2272 294 2272 294 2156 
C 294 2048 390 2048 486 2048 
L 4115 2048 
z
M 4090 927 
C 4198 927 4307 927 4307 1043 
C 4307 1152 4211 1152 4115 1152 
L 486 1152 
C 390 1152 294 1152 294 1043 
C 294 927 403 927 512 927 
L 4090 927 
z
" transform="scale(0.015625)"/>
       <path id="CMMI12-19" d="M 1658 2406 
L 2381 2406 
C 2208 1691 2099 1225 2099 715 
C 2099 625 2099 -64 2362 -64 
C 2496 -64 2611 57 2611 166 
C 2611 198 2611 210 2566 306 
C 2394 746 2394 1295 2394 1340 
C 2394 1378 2394 1832 2528 2406 
L 3245 2406 
C 3328 2406 3539 2406 3539 2611 
C 3539 2752 3418 2752 3302 2752 
L 1197 2752 
C 1050 2752 832 2752 538 2438 
C 371 2253 166 1915 166 1876 
C 166 1838 198 1825 237 1825 
C 282 1825 288 1844 320 1883 
C 653 2406 986 2406 1146 2406 
L 1510 2406 
C 1370 1927 1210 1372 685 255 
C 634 153 634 140 634 102 
C 634 -32 749 -64 806 -64 
C 992 -64 1043 102 1120 370 
C 1222 695 1222 708 1286 964 
L 1658 2406 
z
" transform="scale(0.015625)"/>
      </defs>
      <use xlink:href="#CMMI12-6b" transform="scale(0.996264)"/>
      <use xlink:href="#CMR17-3d" transform="translate(81.753209 0) scale(0.996264)"/>
      <use xlink:href="#CMMI12-19" transform="translate(182.33752 39.226102) scale(0.697382)"/>
      <use xlink:href="#CMR17-34" transform="translate(186.964548 -34.355253) scale(0.697382)"/>
      <path d="M 182.33752 22.914133 
L 223.574742 22.914133 
L 223.574742 26.899083 
L 182.33752 26.899083 
L 182.33752 22.914133 
z
"/>
     </g>
    </g>
   </g>
  </g>
  <g id="axes_2">
   <g id="patch_7">
    <path d="M 58.07682 383.034399 
L 416.88 383.034399 
L 416.88 222.785104 
L 58.07682 222.785104 
z
" style="fill: #ffffff"/>
   </g>
   <g id="matplotlib.axis_3">
    <g id="xtick_22">
     <g id="line2d_28">
      <g>
       <use xlink:href="#mf941d77b66" x="74.386055" y="383.034399" style="stroke: #000000; stroke-width: 0.8"/>
      </g>
     </g>
     <g id="text_11">
      <!-- $-\pi$ -->
      <g transform="translate(65.088417 396.220275) scale(0.14 -0.14)">
       <defs>
        <path id="CMSY10-0" d="M 4218 1472 
C 4326 1472 4442 1472 4442 1600 
C 4442 1728 4326 1728 4218 1728 
L 755 1728 
C 646 1728 531 1728 531 1600 
C 531 1472 646 1472 755 1472 
L 4218 1472 
z
" transform="scale(0.015625)"/>
       </defs>
       <use xlink:href="#CMSY10-0" transform="scale(0.996264)"/>
       <use xlink:href="#CMMI12-19" transform="translate(77.487468 0) scale(0.996264)"/>
      </g>
     </g>
    </g>
    <g id="xtick_23">
     <g id="line2d_29">
      <g>
       <use xlink:href="#mf941d77b66" x="155.932232" y="383.034399" style="stroke: #000000; stroke-width: 0.8"/>
      </g>
     </g>
     <g id="text_12">
      <!-- $-\pi/2$ -->
      <g transform="translate(139.555884 396.995171) scale(0.14 -0.14)">
       <defs>
        <path id="CMMI12-3d" d="M 2746 4563 
C 2746 4569 2784 4665 2784 4678 
C 2784 4755 2720 4800 2669 4800 
C 2637 4800 2579 4800 2528 4659 
L 384 -1364 
C 384 -1370 346 -1466 346 -1479 
C 346 -1556 410 -1600 461 -1600 
C 499 -1600 557 -1594 602 -1460 
L 2746 4563 
z
" transform="scale(0.015625)"/>
       </defs>
       <use xlink:href="#CMSY10-0" transform="scale(0.996264)"/>
       <use xlink:href="#CMMI12-19" transform="translate(77.487468 0) scale(0.996264)"/>
       <use xlink:href="#CMMI12-3d" transform="translate(136.398068 0) scale(0.996264)"/>
       <use xlink:href="#CMR17-32" transform="translate(185.172987 0) scale(0.996264)"/>
      </g>
     </g>
    </g>
    <g id="xtick_24">
     <g id="line2d_30">
      <g>
       <use xlink:href="#mf941d77b66" x="237.47841" y="383.034399" style="stroke: #000000; stroke-width: 0.8"/>
      </g>
     </g>
     <g id="text_13">
      <!-- 0 -->
      <g transform="translate(234.064166 396.220275) scale(0.14 -0.14)">
       <defs>
        <path id="CMSS17-30" d="M 2758 2073 
C 2758 2439 2752 3120 2490 3647 
C 2227 4153 1805 4288 1504 4288 
C 1069 4288 698 4031 506 3621 
C 301 3191 243 2748 243 2073 
C 243 1611 262 1046 493 551 
C 755 6 1197 -128 1498 -128 
C 1894 -128 2278 83 2496 525 
C 2720 988 2758 1495 2758 2073 
z
M 1498 262 
C 1011 262 864 821 819 1007 
C 742 1328 730 1636 730 2144 
C 730 2542 730 2992 851 3345 
C 998 3756 1254 3897 1498 3897 
C 1971 3897 2125 3422 2176 3255 
C 2272 2915 2272 2516 2272 2144 
C 2272 1546 2272 262 1498 262 
z
" transform="scale(0.015625)"/>
       </defs>
       <use xlink:href="#CMSS17-30" transform="scale(0.996264)"/>
      </g>
     </g>
    </g>
    <g id="xtick_25">
     <g id="line2d_31">
      <g>
       <use xlink:href="#mf941d77b66" x="319.024587" y="383.034399" style="stroke: #000000; stroke-width: 0.8"/>
      </g>
     </g>
     <g id="text_14">
      <!-- $\pi/2$ -->
      <g transform="translate(308.072357 396.995171) scale(0.14 -0.14)">
       <use xlink:href="#CMMI12-19" transform="scale(0.996264)"/>
       <use xlink:href="#CMMI12-3d" transform="translate(58.910601 0) scale(0.996264)"/>
       <use xlink:href="#CMR17-32" transform="translate(107.68552 0) scale(0.996264)"/>
      </g>
     </g>
    </g>
    <g id="xtick_26">
     <g id="line2d_32">
      <g>
       <use xlink:href="#mf941d77b66" x="400.570765" y="383.034399" style="stroke: #000000; stroke-width: 0.8"/>
      </g>
     </g>
     <g id="text_15">
      <!-- $\pi$ -->
      <g transform="translate(396.697244 396.220275) scale(0.14 -0.14)">
       <use xlink:href="#CMMI12-19" transform="scale(0.996264)"/>
      </g>
     </g>
    </g>
    <g id="text_16">
     <!-- $k$ -->
     <g transform="translate(233.926947 414.167972) scale(0.14 -0.14)">
      <use xlink:href="#CMMI12-6b" transform="scale(0.996264)"/>
     </g>
    </g>
   </g>
   <g id="matplotlib.axis_4">
    <g id="ytick_5">
     <g id="line2d_33">
      <g>
       <use xlink:href="#ma9db5ddc82" x="58.07682" y="361.667826" style="stroke: #000000; stroke-width: 0.8"/>
      </g>
     </g>
     <g id="text_17">
      <!-- $\mathdefault{0.4}$ -->
      <g transform="translate(37.126238 366.510765) scale(0.14 -0.14)">
       <use xlink:href="#CMR17-30" transform="scale(0.996264)"/>
       <use xlink:href="#CMMI12-3a" transform="translate(45.690477 0) scale(0.996264)"/>
       <use xlink:href="#CMR17-34" transform="translate(72.787654 0) scale(0.996264)"/>
      </g>
     </g>
    </g>
    <g id="ytick_6">
     <g id="line2d_34">
      <g>
       <use xlink:href="#ma9db5ddc82" x="58.07682" y="318.934681" style="stroke: #000000; stroke-width: 0.8"/>
      </g>
     </g>
     <g id="text_18">
      <!-- $\mathdefault{0.6}$ -->
      <g transform="translate(37.126238 323.777619) scale(0.14 -0.14)">
       <use xlink:href="#CMR17-30" transform="scale(0.996264)"/>
       <use xlink:href="#CMMI12-3a" transform="translate(45.690477 0) scale(0.996264)"/>
       <use xlink:href="#CMR17-36" transform="translate(72.787654 0) scale(0.996264)"/>
      </g>
     </g>
    </g>
    <g id="ytick_7">
     <g id="line2d_35">
      <g>
       <use xlink:href="#ma9db5ddc82" x="58.07682" y="276.201536" style="stroke: #000000; stroke-width: 0.8"/>
      </g>
     </g>
     <g id="text_19">
      <!-- $\mathdefault{0.8}$ -->
      <g transform="translate(37.126238 281.044474) scale(0.14 -0.14)">
       <use xlink:href="#CMR17-30" transform="scale(0.996264)"/>
       <use xlink:href="#CMMI12-3a" transform="translate(45.690477 0) scale(0.996264)"/>
       <use xlink:href="#CMR17-38" transform="translate(72.787654 0) scale(0.996264)"/>
      </g>
     </g>
    </g>
    <g id="ytick_8">
     <g id="line2d_36">
      <g>
       <use xlink:href="#ma9db5ddc82" x="58.07682" y="233.468391" style="stroke: #000000; stroke-width: 0.8"/>
      </g>
     </g>
     <g id="text_20">
      <!-- $\mathdefault{1.0}$ -->
      <g transform="translate(37.126238 238.311329) scale(0.14 -0.14)">
       <use xlink:href="#CMR17-31" transform="scale(0.996264)"/>
       <use xlink:href="#CMMI12-3a" transform="translate(45.690477 0) scale(0.996264)"/>
       <use xlink:href="#CMR17-30" transform="translate(72.787654 0) scale(0.996264)"/>
      </g>
     </g>
    </g>
    <g id="text_21">
     <!-- $\phi_{{_{{IPR}}}}(k)$ -->
     <g transform="translate(28.55342 329.28641) rotate(-90) scale(0.18 -0.18)">
      <defs>
       <path id="CMR17-28" d="M 1958 -1562 
C 1958 -1556 1958 -1543 1939 -1524 
C 1645 -1223 858 -403 858 1596 
C 858 3595 1632 4408 1946 4729 
C 1946 4735 1958 4748 1958 4767 
C 1958 4787 1939 4800 1914 4800 
C 1843 4800 1299 4325 986 3620 
C 666 2909 576 2218 576 1603 
C 576 1141 621 360 1005 -467 
C 1312 -1133 1837 -1600 1914 -1600 
C 1946 -1600 1958 -1588 1958 -1562 
z
" transform="scale(0.015625)"/>
       <path id="CMR17-29" d="M 1683 1596 
C 1683 2057 1638 2839 1254 3665 
C 947 4332 422 4800 346 4800 
C 326 4800 301 4793 301 4761 
C 301 4748 307 4742 314 4729 
C 621 4408 1402 3595 1402 1603 
C 1402 -396 627 -1210 314 -1530 
C 307 -1543 301 -1549 301 -1562 
C 301 -1594 326 -1600 346 -1600 
C 416 -1600 960 -1127 1274 -422 
C 1594 289 1683 981 1683 1596 
z
" transform="scale(0.015625)"/>
      </defs>
      <use xlink:href="#CMMI12-1e" transform="scale(0.996264)"/>
      <use xlink:href="#CMMI12-49" transform="translate(57.73418 -25.404611) scale(0.498132)"/>
      <use xlink:href="#CMMI12-50" transform="translate(83.16243 -25.404611) scale(0.498132)"/>
      <use xlink:href="#CMMI12-52" transform="translate(121.375333 -25.404611) scale(0.498132)"/>
      <use xlink:href="#CMR17-28" transform="translate(159.907078 0) scale(0.996264)"/>
      <use xlink:href="#CMMI12-6b" transform="translate(195.187845 0) scale(0.996264)"/>
      <use xlink:href="#CMR17-29" transform="translate(249.267046 0) scale(0.996264)"/>
     </g>
    </g>
   </g>
   <g id="line2d_37">
    <path d="M 74.386055 233.468391 
L 75.476974 235.385784 
L 76.567893 240.006142 
L 77.658811 246.616822 
L 79.840649 262.958576 
L 82.022486 278.819981 
L 83.113405 285.519986 
L 84.204324 291.399198 
L 85.295243 296.499779 
L 86.386161 300.899074 
L 87.47708 304.684975 
L 88.567999 307.943171 
L 89.658918 310.748123 
L 90.749837 313.17072 
L 91.840755 315.27813 
L 92.931674 317.117348 
L 95.113512 320.150112 
L 97.295349 322.531384 
L 99.477187 324.446016 
L 101.659024 326.022777 
L 103.840862 327.356388 
L 107.113618 329.047916 
L 111.477293 330.973568 
L 124.568318 336.496059 
L 131.113831 339.383397 
L 133.295668 340.068189 
L 134.386587 340.261597 
L 135.477506 340.294464 
L 136.568424 340.099439 
L 137.659343 339.605545 
L 138.750262 338.695446 
L 139.841181 337.217611 
L 140.9321 335.014918 
L 142.023018 331.85742 
L 143.113937 327.45851 
L 144.204856 321.537427 
L 145.295775 313.934551 
L 146.386693 304.589645 
L 147.477612 293.478394 
L 150.750368 257.27533 
L 151.841287 247.56751 
L 152.932206 240.147112 
L 154.023125 235.508694 
L 155.114043 233.585446 
L 156.204962 233.770939 
L 157.295881 235.442649 
L 158.3868 238.113009 
L 160.568637 245.057043 
L 164.932312 259.526444 
L 167.11415 265.949734 
L 169.295987 271.725877 
L 171.477825 276.939672 
L 173.659662 281.694445 
L 176.932419 288.183623 
L 180.205175 294.147051 
L 184.56885 301.635532 
L 193.2962 316.03894 
L 199.841713 326.490956 
L 203.114469 331.322934 
L 205.296306 334.232451 
L 207.478144 336.758183 
L 208.569063 337.830016 
L 209.659981 338.744632 
L 210.7509 339.476906 
L 211.841819 339.995505 
L 212.932738 340.268172 
L 214.023656 340.259525 
L 215.114575 339.926192 
L 216.205494 339.223534 
L 217.296413 338.103743 
L 218.387332 336.510409 
L 219.47825 334.38568 
L 220.569169 331.670552 
L 221.660088 328.302713 
L 222.751007 324.219267 
L 223.841925 319.364658 
L 224.932844 313.705744 
L 226.023763 307.213651 
L 228.2056 291.826128 
L 230.387438 274.003997 
L 232.569275 255.935832 
L 233.660194 247.872127 
L 234.751113 241.145994 
L 235.842032 236.320601 
L 236.93295 233.862382 
L 238.023869 233.862382 
L 239.114788 236.320601 
L 240.205707 241.145994 
L 241.296625 247.872127 
L 243.478463 264.795503 
L 246.751219 291.826128 
L 248.933057 307.213651 
L 250.023976 313.705744 
L 251.114894 319.364658 
L 252.205813 324.219267 
L 253.296732 328.302713 
L 254.387651 331.670552 
L 255.478569 334.38568 
L 256.569488 336.510409 
L 257.660407 338.103743 
L 258.751326 339.223534 
L 259.842244 339.926192 
L 260.933163 340.259525 
L 262.024082 340.268172 
L 263.115001 339.995505 
L 264.205919 339.476906 
L 265.296838 338.744632 
L 266.387757 337.830016 
L 268.569594 335.551691 
L 270.751432 332.817769 
L 274.024188 328.148823 
L 278.387863 321.339012 
L 287.115213 307.08226 
L 293.660726 296.056547 
L 296.933482 290.218166 
L 300.206239 283.932038 
L 302.388076 279.367762 
L 304.569914 274.396822 
L 306.751751 268.914205 
L 308.933589 262.820986 
L 311.115426 256.07298 
L 316.57002 238.113009 
L 317.660939 235.442649 
L 318.751857 233.770939 
L 319.842776 233.585446 
L 320.933695 235.508694 
L 322.024614 240.147112 
L 323.115533 247.56751 
L 324.206451 257.27533 
L 326.388289 281.168592 
L 328.570126 304.589645 
L 329.661045 313.934551 
L 330.751964 321.537427 
L 331.842883 327.45851 
L 332.933801 331.85742 
L 334.02472 335.014918 
L 335.115639 337.217611 
L 336.206558 338.695446 
L 337.297476 339.605545 
L 338.388395 340.099439 
L 339.479314 340.294464 
L 340.570233 340.261597 
L 342.75207 339.765799 
L 344.933908 338.948104 
L 350.388502 336.496059 
L 356.934014 333.651806 
L 367.843202 329.047916 
L 371.115958 327.356388 
L 373.297796 326.022777 
L 375.479633 324.446016 
L 377.661471 322.531384 
L 379.843308 320.150112 
L 380.934227 318.728561 
L 382.025146 317.117348 
L 383.116064 315.27813 
L 384.206983 313.17072 
L 385.297902 310.748123 
L 386.388821 307.943171 
L 387.479739 304.684975 
L 388.570658 300.899074 
L 389.661577 296.499779 
L 390.752496 291.399198 
L 391.843414 285.519986 
L 392.934333 278.819981 
L 395.116171 262.958576 
L 397.298008 246.616822 
L 398.388927 240.006142 
L 399.479846 235.385784 
L 400.570765 233.468391 
L 400.570765 233.468391 
" clip-path="url(#p7f9688a512)" style="fill: none; stroke: #1f77b4; stroke-width: 1.5; stroke-linecap: square"/>
   </g>
   <g id="line2d_38">
    <path d="M 74.386055 233.468391 
L 75.476974 233.626784 
L 76.567893 234.166267 
L 77.658811 235.026678 
L 78.74973 236.147857 
L 80.931568 238.931876 
L 86.386161 246.535931 
L 88.567999 249.079725 
L 90.749837 251.19093 
L 92.931674 252.893701 
L 95.113512 254.250892 
L 97.295349 255.337979 
L 100.568105 256.628863 
L 110.386374 260.043587 
L 112.568212 261.043184 
L 114.750049 262.233337 
L 116.931887 263.664865 
L 119.113724 265.39395 
L 121.295562 267.485456 
L 123.477399 270.014151 
L 125.659237 273.066759 
L 127.841074 276.743608 
L 130.022912 281.154216 
L 132.204749 286.41199 
L 134.386587 292.612877 
L 136.568424 299.797705 
L 138.750262 307.898867 
L 144.204856 329.397212 
L 145.295775 333.055946 
L 146.386693 336.133067 
L 147.477612 338.449305 
L 148.568531 339.868277 
L 149.65945 340.290694 
L 150.750368 339.623529 
L 151.841287 337.872418 
L 152.932206 335.132968 
L 154.023125 331.5062 
L 155.114043 327.138658 
L 157.295881 316.943049 
L 162.750475 290.081128 
L 164.932312 280.721916 
L 167.11415 272.52591 
L 169.295987 265.462451 
L 171.477825 259.415844 
L 173.659662 254.252387 
L 175.8415 249.841683 
L 178.023337 246.072357 
L 180.205175 242.856824 
L 182.387012 240.130552 
L 184.56885 237.854896 
L 186.750687 236.01747 
L 188.932525 234.633187 
L 190.023444 234.125378 
L 191.114362 233.752271 
L 192.205281 233.528883 
L 193.2962 233.47082 
L 194.387119 233.598832 
L 195.478038 233.943066 
L 196.568956 234.534739 
L 197.659875 235.41362 
L 198.750794 236.635971 
L 199.841713 238.260038 
L 200.932631 240.359433 
L 202.02355 243.039092 
L 203.114469 246.407844 
L 204.205388 250.588015 
L 205.296306 255.731044 
L 206.387225 261.992069 
L 207.478144 269.505393 
L 208.569063 278.357764 
L 209.659981 288.628396 
L 212.932738 322.879774 
L 214.023656 332.083228 
L 215.114575 338.285054 
L 216.205494 340.279671 
L 217.296413 337.457778 
L 218.387332 330.827651 
L 219.47825 321.669117 
L 223.841925 279.971107 
L 224.932844 271.468296 
L 226.023763 264.042691 
L 227.114682 257.658288 
L 228.2056 252.228807 
L 229.296519 247.65781 
L 230.387438 243.853759 
L 231.478357 240.741974 
L 232.569275 238.251394 
L 233.660194 236.318284 
L 234.751113 234.905653 
L 235.842032 233.982617 
L 236.93295 233.523595 
L 238.023869 233.523595 
L 239.114788 233.982617 
L 240.205707 234.905653 
L 241.296625 236.318284 
L 242.387544 238.251394 
L 243.478463 240.741974 
L 244.569382 243.853759 
L 245.660301 247.65781 
L 246.751219 252.228807 
L 247.842138 257.658288 
L 248.933057 264.042691 
L 250.023976 271.468296 
L 251.114894 279.971107 
L 252.205813 289.571606 
L 255.478569 321.669117 
L 256.569488 330.827651 
L 257.660407 337.457778 
L 258.751326 340.279671 
L 259.842244 338.285054 
L 260.933163 332.083228 
L 262.024082 322.879774 
L 264.205919 300.103738 
L 265.296838 288.628396 
L 266.387757 278.357764 
L 267.478676 269.505393 
L 268.569594 261.992069 
L 269.660513 255.731044 
L 270.751432 250.588015 
L 271.842351 246.407844 
L 272.93327 243.039092 
L 274.024188 240.359433 
L 275.115107 238.260038 
L 276.206026 236.635971 
L 277.296945 235.41362 
L 278.387863 234.534739 
L 279.478782 233.943066 
L 280.569701 233.598832 
L 281.66062 233.47082 
L 282.751538 233.528883 
L 283.842457 233.752271 
L 284.933376 234.125378 
L 286.024295 234.633187 
L 288.206132 236.01747 
L 290.38797 237.854896 
L 292.569807 240.130552 
L 294.751645 242.856824 
L 296.933482 246.072357 
L 299.11532 249.841683 
L 301.297157 254.252387 
L 303.478995 259.415844 
L 305.660832 265.462451 
L 307.84267 272.52591 
L 310.024507 280.721916 
L 312.206345 290.081128 
L 314.388182 300.468791 
L 318.751857 322.220643 
L 319.842776 327.138658 
L 320.933695 331.5062 
L 322.024614 335.132968 
L 323.115533 337.872418 
L 324.206451 339.623529 
L 325.29737 340.290694 
L 326.388289 339.868277 
L 327.479208 338.449305 
L 328.570126 336.133067 
L 329.661045 333.055946 
L 330.751964 329.397212 
L 332.933801 321.034749 
L 337.297476 303.746379 
L 339.479314 296.084147 
L 341.661151 289.389217 
L 343.842989 283.670726 
L 346.024826 278.849978 
L 348.206664 274.82055 
L 350.388502 271.469008 
L 352.570339 268.689909 
L 354.752177 266.390114 
L 356.934014 264.488356 
L 359.115852 262.915522 
L 361.297689 261.611425 
L 363.479527 260.522565 
L 366.752283 259.187056 
L 371.115958 257.716452 
L 375.479633 256.232011 
L 377.661471 255.337979 
L 379.843308 254.250892 
L 382.025146 252.893701 
L 384.206983 251.19093 
L 386.388821 249.079725 
L 388.570658 246.535931 
L 390.752496 243.613163 
L 395.116171 237.469643 
L 396.207089 236.147857 
L 397.298008 235.026678 
L 398.388927 234.166267 
L 399.479846 233.626784 
L 400.570765 233.468391 
L 400.570765 233.468391 
" clip-path="url(#p7f9688a512)" style="fill: none; stroke-dasharray: 1.5,2.475; stroke-dashoffset: 0; stroke: #ff7f0e; stroke-width: 1.5"/>
   </g>
   <g id="line2d_39">
    <path d="M 74.386055 233.468391 
L 75.476974 235.076242 
L 76.567893 238.97245 
L 77.658811 244.547619 
L 79.840649 258.297256 
L 82.022486 271.543208 
L 83.113405 277.072943 
L 84.204324 281.865777 
L 85.295243 285.952339 
L 86.386161 289.396742 
L 87.47708 292.273133 
L 88.567999 294.653817 
L 89.658918 296.601679 
L 90.749837 298.176611 
L 91.840755 299.435336 
L 92.931674 300.417386 
L 94.022593 301.156491 
L 95.113512 301.684755 
L 96.20443 302.024924 
L 97.295349 302.196393 
L 98.386268 302.217624 
L 99.477187 302.101376 
L 100.568105 301.858245 
L 102.749943 301.028732 
L 104.93178 299.783256 
L 107.113618 298.157994 
L 109.295455 296.17484 
L 111.477293 293.845697 
L 113.65913 291.176123 
L 115.840968 288.167005 
L 118.022806 284.817259 
L 120.204643 281.126578 
L 122.386481 277.097966 
L 125.659237 270.450082 
L 128.931993 263.173189 
L 137.659343 243.116261 
L 139.841181 238.982192 
L 140.9321 237.24515 
L 142.023018 235.785288 
L 143.113937 234.646717 
L 144.204856 233.873099 
L 145.295775 233.50028 
L 146.386693 233.557694 
L 147.477612 234.073641 
L 148.568531 235.059506 
L 149.65945 236.512039 
L 150.750368 238.426566 
L 151.841287 240.779938 
L 152.932206 243.532161 
L 155.114043 250.058919 
L 157.295881 257.570144 
L 164.932312 285.14635 
L 167.11415 292.049894 
L 169.295987 298.220502 
L 171.477825 303.632829 
L 173.659662 308.308979 
L 175.8415 312.299798 
L 178.023337 315.671774 
L 180.205175 318.494434 
L 182.387012 320.835531 
L 184.56885 322.756617 
L 186.750687 324.311269 
L 188.932525 325.545112 
L 191.114362 326.494703 
L 193.2962 327.188252 
L 195.478038 327.646203 
L 197.659875 327.880438 
L 199.841713 327.894543 
L 202.02355 327.683749 
L 204.205388 327.232994 
L 206.387225 326.515433 
L 208.569063 325.490791 
L 210.7509 324.099907 
L 212.932738 322.259271 
L 215.114575 319.85566 
L 216.205494 318.394899 
L 217.296413 316.73155 
L 218.387332 314.834863 
L 219.47825 312.672805 
L 220.569169 310.209925 
L 221.660088 307.400931 
L 222.751007 304.198769 
L 223.841925 300.555353 
L 224.932844 296.419434 
L 226.023763 291.739169 
L 227.114682 286.475149 
L 229.296519 274.207517 
L 233.660194 246.144161 
L 234.751113 240.313798 
L 235.842032 236.051886 
L 236.93295 233.870913 
L 238.023869 233.870913 
L 239.114788 236.051886 
L 240.205707 240.313798 
L 241.296625 246.144161 
L 243.478463 260.085046 
L 245.660301 274.207517 
L 247.842138 286.475149 
L 248.933057 291.739169 
L 250.023976 296.419434 
L 251.114894 300.555353 
L 252.205813 304.198769 
L 253.296732 307.400931 
L 254.387651 310.209925 
L 255.478569 312.672805 
L 256.569488 314.834863 
L 257.660407 316.73155 
L 259.842244 319.85566 
L 262.024082 322.259271 
L 264.205919 324.099907 
L 266.387757 325.490791 
L 268.569594 326.515433 
L 270.751432 327.232994 
L 272.93327 327.683749 
L 275.115107 327.894543 
L 277.296945 327.880438 
L 279.478782 327.646203 
L 281.66062 327.188252 
L 283.842457 326.494703 
L 286.024295 325.545112 
L 288.206132 324.311269 
L 290.38797 322.756617 
L 292.569807 320.835531 
L 294.751645 318.494434 
L 296.933482 315.671774 
L 299.11532 312.299798 
L 301.297157 308.308979 
L 303.478995 303.632829 
L 305.660832 298.220502 
L 307.84267 292.049894 
L 310.024507 285.14635 
L 313.297264 273.666162 
L 318.751857 253.721873 
L 320.933695 246.642159 
L 322.024614 243.532161 
L 323.115533 240.779938 
L 324.206451 238.426566 
L 325.29737 236.512039 
L 326.388289 235.059506 
L 327.479208 234.073641 
L 328.570126 233.557694 
L 329.661045 233.50028 
L 330.751964 233.873099 
L 331.842883 234.646717 
L 332.933801 235.785288 
L 334.02472 237.24515 
L 335.115639 238.982192 
L 337.297476 243.116261 
L 339.479314 247.855319 
L 350.388502 272.743025 
L 353.661258 279.153995 
L 355.843095 283.014441 
L 358.024933 286.534807 
L 360.20677 289.714039 
L 362.388608 292.553371 
L 364.570445 295.05299 
L 366.752283 297.210214 
L 368.93412 299.016574 
L 371.115958 300.455191 
L 373.297796 301.49835 
L 375.479633 302.101376 
L 376.570552 302.217624 
L 377.661471 302.196393 
L 378.752389 302.024924 
L 379.843308 301.684755 
L 380.934227 301.156491 
L 382.025146 300.417386 
L 383.116064 299.435336 
L 384.206983 298.176611 
L 385.297902 296.601679 
L 386.388821 294.653817 
L 387.479739 292.273133 
L 388.570658 289.396742 
L 389.661577 285.952339 
L 390.752496 281.865777 
L 391.843414 277.072943 
L 392.934333 271.543208 
L 394.025252 265.25293 
L 397.298008 244.547619 
L 398.388927 238.97245 
L 399.479846 235.076242 
L 400.570765 233.468391 
L 400.570765 233.468391 
" clip-path="url(#p7f9688a512)" style="fill: none; stroke-dasharray: 5.55,2.4; stroke-dashoffset: 0; stroke: #2ca02c; stroke-width: 1.5"/>
   </g>
   <g id="line2d_40">
    <path d="M 74.386055 233.468391 
L 75.476974 233.655726 
L 76.567893 234.27333 
L 77.658811 235.221672 
L 79.840649 237.712443 
L 82.022486 240.339684 
L 84.204324 242.51511 
L 85.295243 243.321866 
L 86.386161 243.923248 
L 87.47708 244.324265 
L 88.567999 244.531885 
L 89.658918 244.563071 
L 90.749837 244.437962 
L 91.840755 244.176763 
L 94.022593 243.328417 
L 96.20443 242.178213 
L 100.568105 239.490513 
L 103.840862 237.515156 
L 107.113618 235.814075 
L 109.295455 234.89936 
L 111.477293 234.192083 
L 113.65913 233.714035 
L 115.840968 233.485332 
L 118.022806 233.529 
L 120.204643 233.874692 
L 122.386481 234.562743 
L 124.568318 235.65176 
L 125.659237 236.370906 
L 126.750156 237.224126 
L 127.841074 238.225639 
L 128.931993 239.394872 
L 130.022912 240.754515 
L 131.113831 242.327926 
L 132.204749 244.145871 
L 133.295668 246.24403 
L 134.386587 248.658776 
L 135.477506 251.434374 
L 136.568424 254.620605 
L 137.659343 258.267248 
L 138.750262 262.422443 
L 139.841181 267.13312 
L 140.9321 272.443536 
L 143.113937 284.848384 
L 145.295775 299.308378 
L 148.568531 321.493121 
L 149.65945 327.823567 
L 150.750368 333.01896 
L 151.841287 336.869922 
L 152.932206 339.309143 
L 154.023125 340.281864 
L 155.114043 339.89093 
L 156.204962 338.39069 
L 157.295881 336.040781 
L 158.3868 333.081162 
L 160.568637 326.209628 
L 163.841393 315.897342 
L 166.023231 309.943981 
L 168.205069 304.974819 
L 170.386906 300.995679 
L 171.477825 299.356988 
L 172.568744 297.937398 
L 173.659662 296.72509 
L 174.750581 295.709035 
L 175.8415 294.879248 
L 176.932419 294.22584 
L 178.023337 293.740176 
L 179.114256 293.415365 
L 180.205175 293.244667 
L 181.296094 293.222528 
L 182.387012 293.345137 
L 183.477931 293.608835 
L 184.56885 294.010918 
L 185.659769 294.550154 
L 186.750687 295.22545 
L 188.932525 296.983708 
L 191.114362 299.291014 
L 193.2962 302.158398 
L 195.478038 305.597873 
L 197.659875 309.614746 
L 199.841713 314.189188 
L 202.02355 319.257457 
L 208.569063 335.137281 
L 209.659981 337.228053 
L 210.7509 338.888904 
L 211.841819 339.964871 
L 212.932738 340.295801 
L 214.023656 339.731019 
L 215.114575 338.1441 
L 216.205494 335.412525 
L 217.296413 331.464184 
L 218.387332 326.363718 
L 219.47825 320.198778 
L 221.660088 305.332899 
L 226.023763 272.967276 
L 228.2056 259.159626 
L 229.296519 253.308167 
L 230.387438 248.238229 
L 231.478357 243.947164 
L 232.569275 240.41979 
L 233.660194 237.639299 
L 234.751113 235.582952 
L 235.842032 234.226656 
L 236.93295 233.550455 
L 238.023869 233.550455 
L 239.114788 234.226656 
L 240.205707 235.582952 
L 241.296625 237.639299 
L 242.387544 240.41979 
L 243.478463 243.947164 
L 244.569382 248.238229 
L 245.660301 253.308167 
L 246.751219 259.159626 
L 248.933057 272.967276 
L 251.114894 288.904052 
L 254.387651 313.101634 
L 255.478569 320.198778 
L 256.569488 326.363718 
L 257.660407 331.464184 
L 258.751326 335.412525 
L 259.842244 338.1441 
L 260.933163 339.731019 
L 262.024082 340.295801 
L 263.115001 339.964871 
L 264.205919 338.888904 
L 265.296838 337.228053 
L 266.387757 335.137281 
L 268.569594 330.130499 
L 274.024188 316.669466 
L 276.206026 311.834586 
L 278.387863 307.534401 
L 280.569701 303.806128 
L 282.751538 300.653834 
L 284.933376 298.068201 
L 287.115213 296.036398 
L 289.297051 294.550154 
L 290.38797 294.010918 
L 291.478888 293.608835 
L 292.569807 293.345137 
L 293.660726 293.222528 
L 294.751645 293.244667 
L 295.842564 293.415365 
L 296.933482 293.740176 
L 298.024401 294.22584 
L 299.11532 294.879248 
L 300.206239 295.709035 
L 301.297157 296.72509 
L 302.388076 297.937398 
L 303.478995 299.356988 
L 304.569914 300.995679 
L 305.660832 302.865164 
L 306.751751 304.974819 
L 308.933589 309.943981 
L 311.115426 315.897342 
L 313.297264 322.670199 
L 316.57002 333.081162 
L 317.660939 336.040781 
L 318.751857 338.39069 
L 319.842776 339.89093 
L 320.933695 340.281864 
L 322.024614 339.309143 
L 323.115533 336.869922 
L 324.206451 333.01896 
L 325.29737 327.823567 
L 326.388289 321.493121 
L 328.570126 306.893798 
L 331.842883 284.848384 
L 334.02472 272.443536 
L 335.115639 267.13312 
L 336.206558 262.422443 
L 337.297476 258.267248 
L 338.388395 254.620605 
L 339.479314 251.434374 
L 340.570233 248.658776 
L 341.661151 246.24403 
L 342.75207 244.145871 
L 343.842989 242.327926 
L 344.933908 240.754515 
L 346.024826 239.394872 
L 347.115745 238.225639 
L 349.297583 236.370906 
L 351.47942 235.052957 
L 353.661258 234.172688 
L 355.843095 233.661786 
L 358.024933 233.471577 
L 360.20677 233.567149 
L 362.388608 233.92317 
L 364.570445 234.51834 
L 366.752283 235.332251 
L 368.93412 236.341447 
L 372.206877 238.151697 
L 380.934227 243.328417 
L 383.116064 244.176763 
L 384.206983 244.437962 
L 385.297902 244.563071 
L 386.388821 244.531885 
L 387.479739 244.324265 
L 388.570658 243.923248 
L 389.661577 243.321866 
L 390.752496 242.51511 
L 391.843414 241.508089 
L 394.025252 239.055809 
L 396.207089 236.40122 
L 397.298008 235.221672 
L 398.388927 234.27333 
L 399.479846 233.655726 
L 400.570765 233.468391 
L 400.570765 233.468391 
" clip-path="url(#p7f9688a512)" style="fill: none; stroke-dasharray: 9.6,2.4,1.5,2.4; stroke-dashoffset: 0; stroke: #d62728; stroke-width: 1.5"/>
   </g>
   <g id="patch_8">
    <path d="M 58.07682 383.034399 
L 58.07682 222.785104 
" style="fill: none; stroke: #000000; stroke-width: 0.8; stroke-linejoin: miter; stroke-linecap: square"/>
   </g>
   <g id="patch_9">
    <path d="M 416.88 383.034399 
L 416.88 222.785104 
" style="fill: none; stroke: #000000; stroke-width: 0.8; stroke-linejoin: miter; stroke-linecap: square"/>
   </g>
   <g id="patch_10">
    <path d="M 58.07682 383.034399 
L 416.88 383.034399 
" style="fill: none; stroke: #000000; stroke-width: 0.8; stroke-linejoin: miter; stroke-linecap: square"/>
   </g>
   <g id="patch_11">
    <path d="M 58.07682 222.785104 
L 416.88 222.785104 
" style="fill: none; stroke: #000000; stroke-width: 0.8; stroke-linejoin: miter; stroke-linecap: square"/>
   </g>
   <g id="legend_2">
    <g id="line2d_41">
     <path d="M 114.354725 355.63876 
L 125.354725 355.63876 
L 136.354725 355.63876 
" style="fill: none; stroke: #1f77b4; stroke-width: 1.5; stroke-linecap: square"/>
    </g>
    <g id="text_22">
     <!-- $J_0(2h/\omega)=-0.00$ -->
     <g transform="translate(145.154725 359.48876) scale(0.11 -0.11)">
      <defs>
       <path id="CMMI12-4a" d="M 3418 3911 
C 3469 4102 3482 4166 3795 4166 
C 3898 4166 3962 4166 3962 4281 
C 3962 4352 3904 4352 3878 4352 
C 3770 4352 3648 4339 3533 4339 
L 3181 4339 
C 2912 4339 2630 4352 2362 4352 
C 2304 4352 2227 4352 2227 4236 
C 2227 4172 2278 4172 2278 4166 
L 2438 4166 
C 2950 4166 2950 4115 2950 4019 
C 2950 4013 2950 3968 2925 3866 
L 2189 953 
C 2022 304 1594 0 1286 0 
C 1069 0 762 99 685 428 
C 710 422 742 415 768 415 
C 979 415 1146 601 1146 787 
C 1146 889 1082 1024 890 1024 
C 774 1024 506 959 506 543 
C 506 149 838 -128 1299 -128 
C 1882 -128 2509 304 2662 908 
L 3418 3911 
z
" transform="scale(0.015625)"/>
       <path id="CMMI12-68" d="M 1798 4255 
C 1805 4281 1818 4319 1818 4351 
C 1818 4416 1754 4416 1741 4416 
C 1734 4416 1421 4390 1389 4383 
C 1280 4377 1184 4364 1069 4358 
C 909 4345 864 4339 864 4223 
C 864 4159 915 4159 1005 4159 
C 1318 4159 1325 4103 1325 4040 
C 1325 4002 1312 3951 1306 3932 
L 378 249 
C 352 153 352 140 352 102 
C 352 -39 461 -64 525 -64 
C 634 -64 717 19 749 89 
L 1037 1245 
C 1069 1385 1107 1519 1139 1660 
C 1210 1928 1210 1934 1331 2119 
C 1453 2305 1741 2687 2234 2687 
C 2490 2687 2579 2496 2579 2241 
C 2579 1883 2330 1187 2189 804 
C 2131 651 2099 568 2099 453 
C 2099 166 2298 -64 2605 -64 
C 3200 -64 3424 874 3424 913 
C 3424 945 3398 970 3360 970 
C 3302 970 3296 951 3264 842 
C 3117 332 2880 64 2624 64 
C 2560 64 2458 70 2458 274 
C 2458 440 2534 645 2560 715 
C 2675 1021 2963 1775 2963 2145 
C 2963 2528 2739 2816 2253 2816 
C 1888 2816 1568 2643 1306 2311 
L 1798 4255 
z
" transform="scale(0.015625)"/>
      </defs>
      <use xlink:href="#CMMI12-4a" transform="scale(0.996264)"/>
      <use xlink:href="#CMR17-30" transform="translate(53.917955 -14.943915) scale(0.697382)"/>
      <use xlink:href="#CMR17-28" transform="translate(86.399269 0) scale(0.996264)"/>
      <use xlink:href="#CMR17-32" transform="translate(121.680037 0) scale(0.996264)"/>
      <use xlink:href="#CMMI12-68" transform="translate(167.370514 0) scale(0.996264)"/>
      <use xlink:href="#CMMI12-3d" transform="translate(223.525138 0) scale(0.996264)"/>
      <use xlink:href="#CMMI12-21" transform="translate(272.300057 0) scale(0.996264)"/>
      <use xlink:href="#CMR17-29" transform="translate(336.618403 0) scale(0.996264)"/>
      <use xlink:href="#CMR17-3d" transform="translate(399.57318 0) scale(0.996264)"/>
      <use xlink:href="#CMSY10-0" transform="translate(498.961977 0) scale(0.996264)"/>
      <use xlink:href="#CMR17-30" transform="translate(576.449444 0) scale(0.996264)"/>
      <use xlink:href="#CMMI12-3a" transform="translate(622.139921 0) scale(0.996264)"/>
      <use xlink:href="#CMR17-30" transform="translate(649.237099 0) scale(0.996264)"/>
      <use xlink:href="#CMR17-30" transform="translate(694.927576 0) scale(0.996264)"/>
     </g>
    </g>
    <g id="line2d_42">
     <path d="M 114.354725 372.097665 
L 125.354725 372.097665 
L 136.354725 372.097665 
" style="fill: none; stroke-dasharray: 1.5,2.475; stroke-dashoffset: 0; stroke: #ff7f0e; stroke-width: 1.5"/>
    </g>
    <g id="text_23">
     <!-- $J_0(2h/\omega)=0.25$ -->
     <g transform="translate(145.154725 375.947665) scale(0.11 -0.11)">
      <defs>
       <path id="CMR17-35" d="M 730 3750 
C 794 3724 1056 3641 1325 3641 
C 1920 3641 2246 3961 2432 4140 
C 2432 4191 2432 4224 2394 4224 
C 2387 4224 2374 4224 2323 4198 
C 2099 4102 1837 4032 1517 4032 
C 1325 4032 1037 4055 723 4191 
C 653 4224 640 4224 634 4224 
C 602 4224 595 4217 595 4090 
L 595 2231 
C 595 2113 595 2080 659 2080 
C 691 2080 704 2093 736 2139 
C 941 2435 1222 2560 1542 2560 
C 1766 2560 2246 2415 2246 1293 
C 2246 1087 2246 716 2054 422 
C 1894 159 1645 25 1370 25 
C 947 25 518 319 403 812 
C 429 806 480 793 506 793 
C 589 793 749 838 749 1036 
C 749 1209 627 1280 506 1280 
C 358 1280 262 1190 262 1011 
C 262 454 704 -128 1382 -128 
C 2042 -128 2669 441 2669 1267 
C 2669 2054 2170 2662 1549 2662 
C 1222 2662 947 2540 730 2304 
L 730 3750 
z
" transform="scale(0.015625)"/>
      </defs>
      <use xlink:href="#CMMI12-4a" transform="scale(0.996264)"/>
      <use xlink:href="#CMR17-30" transform="translate(53.917955 -14.943915) scale(0.697382)"/>
      <use xlink:href="#CMR17-28" transform="translate(86.399269 0) scale(0.996264)"/>
      <use xlink:href="#CMR17-32" transform="translate(121.680037 0) scale(0.996264)"/>
      <use xlink:href="#CMMI12-68" transform="translate(167.370514 0) scale(0.996264)"/>
      <use xlink:href="#CMMI12-3d" transform="translate(223.525138 0) scale(0.996264)"/>
      <use xlink:href="#CMMI12-21" transform="translate(272.300057 0) scale(0.996264)"/>
      <use xlink:href="#CMR17-29" transform="translate(336.618403 0) scale(0.996264)"/>
      <use xlink:href="#CMR17-3d" transform="translate(399.57318 0) scale(0.996264)"/>
      <use xlink:href="#CMR17-30" transform="translate(498.961977 0) scale(0.996264)"/>
      <use xlink:href="#CMMI12-3a" transform="translate(544.652454 0) scale(0.996264)"/>
      <use xlink:href="#CMR17-32" transform="translate(571.749631 0) scale(0.996264)"/>
      <use xlink:href="#CMR17-35" transform="translate(617.440108 0) scale(0.996264)"/>
     </g>
    </g>
    <g id="line2d_43">
     <path d="M 253.727204 355.63876 
L 264.727204 355.63876 
L 275.727204 355.63876 
" style="fill: none; stroke-dasharray: 5.55,2.4; stroke-dashoffset: 0; stroke: #2ca02c; stroke-width: 1.5"/>
    </g>
    <g id="text_24">
     <!-- $J_0(2h/\omega)=0.54$ -->
     <g transform="translate(284.527204 359.48876) scale(0.11 -0.11)">
      <use xlink:href="#CMMI12-4a" transform="scale(0.996264)"/>
      <use xlink:href="#CMR17-30" transform="translate(53.917955 -14.943915) scale(0.697382)"/>
      <use xlink:href="#CMR17-28" transform="translate(86.399269 0) scale(0.996264)"/>
      <use xlink:href="#CMR17-32" transform="translate(121.680037 0) scale(0.996264)"/>
      <use xlink:href="#CMMI12-68" transform="translate(167.370514 0) scale(0.996264)"/>
      <use xlink:href="#CMMI12-3d" transform="translate(223.525138 0) scale(0.996264)"/>
      <use xlink:href="#CMMI12-21" transform="translate(272.300057 0) scale(0.996264)"/>
      <use xlink:href="#CMR17-29" transform="translate(336.618403 0) scale(0.996264)"/>
      <use xlink:href="#CMR17-3d" transform="translate(399.57318 0) scale(0.996264)"/>
      <use xlink:href="#CMR17-30" transform="translate(498.961977 0) scale(0.996264)"/>
      <use xlink:href="#CMMI12-3a" transform="translate(544.652454 0) scale(0.996264)"/>
      <use xlink:href="#CMR17-35" transform="translate(571.749631 0) scale(0.996264)"/>
      <use xlink:href="#CMR17-34" transform="translate(617.440108 0) scale(0.996264)"/>
     </g>
    </g>
    <g id="line2d_44">
     <path d="M 253.727204 372.097665 
L 264.727204 372.097665 
L 275.727204 372.097665 
" style="fill: none; stroke-dasharray: 9.6,2.4,1.5,2.4; stroke-dashoffset: 0; stroke: #d62728; stroke-width: 1.5"/>
    </g>
    <g id="text_25">
     <!-- $J_0(2h/\omega)=-0.27$ -->
     <g transform="translate(284.527204 375.947665) scale(0.11 -0.11)">
      <defs>
       <path id="CMR17-37" d="M 2886 3955 
L 2886 4096 
L 1382 4096 
C 634 4096 621 4166 595 4288 
L 480 4288 
L 294 3104 
L 410 3104 
C 429 3226 474 3552 550 3673 
C 589 3724 1062 3724 1171 3724 
L 2579 3724 
L 1869 2670 
C 1395 1961 1069 1003 1069 166 
C 1069 89 1069 -128 1299 -128 
C 1530 -128 1530 89 1530 172 
L 1530 466 
C 1530 1514 1709 2204 2003 2644 
L 2886 3955 
z
" transform="scale(0.015625)"/>
      </defs>
      <use xlink:href="#CMMI12-4a" transform="scale(0.996264)"/>
      <use xlink:href="#CMR17-30" transform="translate(53.917955 -14.943915) scale(0.697382)"/>
      <use xlink:href="#CMR17-28" transform="translate(86.399269 0) scale(0.996264)"/>
      <use xlink:href="#CMR17-32" transform="translate(121.680037 0) scale(0.996264)"/>
      <use xlink:href="#CMMI12-68" transform="translate(167.370514 0) scale(0.996264)"/>
      <use xlink:href="#CMMI12-3d" transform="translate(223.525138 0) scale(0.996264)"/>
      <use xlink:href="#CMMI12-21" transform="translate(272.300057 0) scale(0.996264)"/>
      <use xlink:href="#CMR17-29" transform="translate(336.618403 0) scale(0.996264)"/>
      <use xlink:href="#CMR17-3d" transform="translate(399.57318 0) scale(0.996264)"/>
      <use xlink:href="#CMSY10-0" transform="translate(498.961977 0) scale(0.996264)"/>
      <use xlink:href="#CMR17-30" transform="translate(576.449444 0) scale(0.996264)"/>
      <use xlink:href="#CMMI12-3a" transform="translate(622.139921 0) scale(0.996264)"/>
      <use xlink:href="#CMR17-32" transform="translate(649.237099 0) scale(0.996264)"/>
      <use xlink:href="#CMR17-37" transform="translate(694.927576 0) scale(0.996264)"/>
     </g>
    </g>
   </g>
  </g>
 </g>
 <defs>
  <clipPath id="pa65688aecc">
   <rect x="58.07682" y="15.12" width="358.80318" height="160.249295"/>
  </clipPath>
  <clipPath id="p7f9688a512">
   <rect x="58.07682" y="222.785104" width="358.80318" height="160.249295"/>
  </clipPath>
 </defs>
</svg>
