<?xml version="1.0" encoding="utf-8" standalone="no"?>
<!DOCTYPE svg PUBLIC "-//W3C//DTD SVG 1.1//EN"
  "http://www.w3.org/Graphics/SVG/1.1/DTD/svg11.dtd">
<svg xmlns:xlink="http://www.w3.org/1999/xlink" width="406.08pt" height="478.08pt" viewBox="0 0 406.08 478.08" xmlns="http://www.w3.org/2000/svg" version="1.1">
 <metadata>
  <rdf:RDF xmlns:dc="http://purl.org/dc/elements/1.1/" xmlns:cc="http://creativecommons.org/ns#" xmlns:rdf="http://www.w3.org/1999/02/22-rdf-syntax-ns#">
   <cc:Work>
    <dc:type rdf:resource="http://purl.org/dc/dcmitype/StillImage"/>
    <dc:date>2023-08-05T15:46:57.090578</dc:date>
    <dc:format>image/svg+xml</dc:format>
    <dc:creator>
     <cc:Agent>
      <dc:title>Matplotlib v3.7.1, https://matplotlib.org/</dc:title>
     </cc:Agent>
    </dc:creator>
   </cc:Work>
  </rdf:RDF>
 </metadata>
 <defs>
  <style type="text/css">*{stroke-linejoin: round; stroke-linecap: butt}</style>
 </defs>
 <g id="figure_1">
  <g id="patch_1">
   <path d="M 0 478.08 
L 406.08 478.08 
L 406.08 0 
L 0 0 
z
" style="fill: #ffffff"/>
  </g>
  <g id="axes_1">
   <g id="patch_2">
    <path d="M 39.141628 206.03532 
L 398.109918 206.03532 
L 398.109918 0 
L 39.141628 0 
z
" style="fill: #ffffff"/>
   </g>
   <g id="matplotlib.axis_1">
    <g id="xtick_1">
     <g id="line2d_1">
      <defs>
       <path id="m44e571cd95" d="M 0 0 
L 0 -3.5 
" style="stroke: #000000; stroke-width: 0.8"/>
      </defs>
      <g>
       <use xlink:href="#m44e571cd95" x="39.141628" y="206.03532" style="stroke: #000000; stroke-width: 0.8"/>
      </g>
     </g>
     <g id="text_1">
      <!-- $\mathdefault{10^{0}}$ -->
      <g transform="translate(31.171547 217.837499) scale(0.12 -0.12)">
       <defs>
        <path id="CMR17-31" d="M 1702 4083 
C 1702 4217 1696 4224 1606 4224 
C 1357 3927 979 3833 621 3820 
C 602 3820 570 3820 563 3808 
C 557 3795 557 3782 557 3648 
C 755 3648 1088 3686 1344 3839 
L 1344 467 
C 1344 243 1331 166 781 166 
L 589 166 
L 589 0 
C 896 6 1216 12 1523 12 
C 1830 12 2150 6 2458 0 
L 2458 166 
L 2266 166 
C 1715 166 1702 236 1702 467 
L 1702 4083 
z
" transform="scale(0.015625)"/>
        <path id="CMR17-30" d="M 2688 2038 
C 2688 2430 2682 3099 2413 3613 
C 2176 4063 1798 4224 1466 4224 
C 1158 4224 768 4082 525 3620 
C 269 3137 243 2539 243 2038 
C 243 1671 250 1112 448 623 
C 723 -39 1216 -128 1466 -128 
C 1760 -128 2208 -7 2470 604 
C 2662 1048 2688 1568 2688 2038 
z
M 1466 -26 
C 1056 -26 813 328 723 816 
C 653 1196 653 1749 653 2109 
C 653 2604 653 3015 736 3407 
C 858 3954 1216 4121 1466 4121 
C 1728 4121 2067 3947 2189 3420 
C 2272 3054 2278 2623 2278 2109 
C 2278 1691 2278 1176 2202 797 
C 2067 96 1690 -26 1466 -26 
z
" transform="scale(0.015625)"/>
       </defs>
       <use xlink:href="#CMR17-31" transform="scale(0.996264)"/>
       <use xlink:href="#CMR17-30" transform="translate(45.690477 0) scale(0.996264)"/>
       <use xlink:href="#CMR17-30" transform="translate(91.380954 36.153639) scale(0.697382)"/>
      </g>
     </g>
    </g>
    <g id="xtick_2">
     <g id="line2d_2">
      <g>
       <use xlink:href="#m44e571cd95" x="218.625773" y="206.03532" style="stroke: #000000; stroke-width: 0.8"/>
      </g>
     </g>
     <g id="text_2">
      <!-- $\mathdefault{10^{1}}$ -->
      <g transform="translate(210.655692 217.837499) scale(0.12 -0.12)">
       <use xlink:href="#CMR17-31" transform="scale(0.996264)"/>
       <use xlink:href="#CMR17-30" transform="translate(45.690477 0) scale(0.996264)"/>
       <use xlink:href="#CMR17-31" transform="translate(91.380954 36.153639) scale(0.697382)"/>
      </g>
     </g>
    </g>
    <g id="xtick_3">
     <g id="line2d_3">
      <g>
       <use xlink:href="#m44e571cd95" x="398.109918" y="206.03532" style="stroke: #000000; stroke-width: 0.8"/>
      </g>
     </g>
     <g id="text_3">
      <!-- $\mathdefault{10^{2}}$ -->
      <g transform="translate(390.139837 217.837499) scale(0.12 -0.12)">
       <defs>
        <path id="CMR17-32" d="M 2669 990 
L 2554 990 
C 2490 537 2438 460 2413 422 
C 2381 371 1920 371 1830 371 
L 602 371 
C 832 620 1280 1073 1824 1596 
C 2214 1966 2669 2400 2669 3033 
C 2669 3788 2067 4224 1395 4224 
C 691 4224 262 3603 262 3027 
C 262 2777 448 2745 525 2745 
C 589 2745 781 2783 781 3007 
C 781 3206 614 3264 525 3264 
C 486 3264 448 3257 422 3244 
C 544 3788 915 4057 1306 4057 
C 1862 4057 2227 3616 2227 3033 
C 2227 2477 1901 1998 1536 1583 
L 262 147 
L 262 0 
L 2515 0 
L 2669 990 
z
" transform="scale(0.015625)"/>
       </defs>
       <use xlink:href="#CMR17-31" transform="scale(0.996264)"/>
       <use xlink:href="#CMR17-30" transform="translate(45.690477 0) scale(0.996264)"/>
       <use xlink:href="#CMR17-32" transform="translate(91.380954 36.153639) scale(0.697382)"/>
      </g>
     </g>
    </g>
    <g id="xtick_4">
     <g id="line2d_4">
      <defs>
       <path id="md10cae3854" d="M 0 0 
L 0 -2 
" style="stroke: #000000; stroke-width: 0.6"/>
      </defs>
      <g>
       <use xlink:href="#md10cae3854" x="93.17174" y="206.03532" style="stroke: #000000; stroke-width: 0.6"/>
      </g>
     </g>
    </g>
    <g id="xtick_5">
     <g id="line2d_5">
      <g>
       <use xlink:href="#md10cae3854" x="124.777329" y="206.03532" style="stroke: #000000; stroke-width: 0.6"/>
      </g>
     </g>
    </g>
    <g id="xtick_6">
     <g id="line2d_6">
      <g>
       <use xlink:href="#md10cae3854" x="147.201851" y="206.03532" style="stroke: #000000; stroke-width: 0.6"/>
      </g>
     </g>
    </g>
    <g id="xtick_7">
     <g id="line2d_7">
      <g>
       <use xlink:href="#md10cae3854" x="164.595662" y="206.03532" style="stroke: #000000; stroke-width: 0.6"/>
      </g>
     </g>
    </g>
    <g id="xtick_8">
     <g id="line2d_8">
      <g>
       <use xlink:href="#md10cae3854" x="178.80744" y="206.03532" style="stroke: #000000; stroke-width: 0.6"/>
      </g>
     </g>
    </g>
    <g id="xtick_9">
     <g id="line2d_9">
      <g>
       <use xlink:href="#md10cae3854" x="190.823327" y="206.03532" style="stroke: #000000; stroke-width: 0.6"/>
      </g>
     </g>
    </g>
    <g id="xtick_10">
     <g id="line2d_10">
      <g>
       <use xlink:href="#md10cae3854" x="201.231962" y="206.03532" style="stroke: #000000; stroke-width: 0.6"/>
      </g>
     </g>
    </g>
    <g id="xtick_11">
     <g id="line2d_11">
      <g>
       <use xlink:href="#md10cae3854" x="210.413029" y="206.03532" style="stroke: #000000; stroke-width: 0.6"/>
      </g>
     </g>
    </g>
    <g id="xtick_12">
     <g id="line2d_12">
      <g>
       <use xlink:href="#md10cae3854" x="272.655885" y="206.03532" style="stroke: #000000; stroke-width: 0.6"/>
      </g>
     </g>
    </g>
    <g id="xtick_13">
     <g id="line2d_13">
      <g>
       <use xlink:href="#md10cae3854" x="304.261474" y="206.03532" style="stroke: #000000; stroke-width: 0.6"/>
      </g>
     </g>
    </g>
    <g id="xtick_14">
     <g id="line2d_14">
      <g>
       <use xlink:href="#md10cae3854" x="326.685996" y="206.03532" style="stroke: #000000; stroke-width: 0.6"/>
      </g>
     </g>
    </g>
    <g id="xtick_15">
     <g id="line2d_15">
      <g>
       <use xlink:href="#md10cae3854" x="344.079807" y="206.03532" style="stroke: #000000; stroke-width: 0.6"/>
      </g>
     </g>
    </g>
    <g id="xtick_16">
     <g id="line2d_16">
      <g>
       <use xlink:href="#md10cae3854" x="358.291585" y="206.03532" style="stroke: #000000; stroke-width: 0.6"/>
      </g>
     </g>
    </g>
    <g id="xtick_17">
     <g id="line2d_17">
      <g>
       <use xlink:href="#md10cae3854" x="370.307472" y="206.03532" style="stroke: #000000; stroke-width: 0.6"/>
      </g>
     </g>
    </g>
    <g id="xtick_18">
     <g id="line2d_18">
      <g>
       <use xlink:href="#md10cae3854" x="380.716107" y="206.03532" style="stroke: #000000; stroke-width: 0.6"/>
      </g>
     </g>
    </g>
    <g id="xtick_19">
     <g id="line2d_19">
      <g>
       <use xlink:href="#md10cae3854" x="389.897174" y="206.03532" style="stroke: #000000; stroke-width: 0.6"/>
      </g>
     </g>
    </g>
    <g id="text_4">
     <!-- $\omega$ -->
     <g transform="translate(214.373713 229.847972) scale(0.14 -0.14)">
      <defs>
       <path id="CMMI12-21" d="M 3802 2406 
C 3802 2592 3750 2828 3526 2828 
C 3398 2828 3251 2668 3251 2540 
C 3251 2483 3277 2444 3328 2387 
C 3424 2278 3546 2105 3546 1804 
C 3546 1574 3405 1209 3302 1011 
C 3123 659 2829 358 2496 358 
C 2093 358 1939 614 1869 972 
C 1939 1139 2086 1555 2086 1721 
C 2086 1792 2061 1849 1978 1849 
C 1933 1849 1882 1824 1850 1772 
C 1760 1632 1677 1126 1683 992 
C 1562 755 1216 358 806 358 
C 378 358 262 736 262 1100 
C 262 1766 678 2348 794 2508 
C 858 2604 902 2668 902 2681 
C 902 2726 877 2796 819 2796 
C 717 2796 685 2713 634 2636 
C 307 2131 77 1420 77 806 
C 77 409 224 -64 704 -64 
C 1235 -64 1568 390 1702 633 
C 1754 275 1946 -64 2413 -64 
C 2899 -64 3206 364 3437 883 
C 3603 1254 3802 2054 3802 2406 
z
" transform="scale(0.015625)"/>
      </defs>
      <use xlink:href="#CMMI12-21" transform="scale(0.996264)"/>
     </g>
    </g>
   </g>
   <g id="matplotlib.axis_2">
    <g id="ytick_1">
     <g id="line2d_20">
      <defs>
       <path id="m9cb3e3b561" d="M 0 0 
L 3.5 0 
" style="stroke: #000000; stroke-width: 0.8"/>
      </defs>
      <g>
       <use xlink:href="#m9cb3e3b561" x="39.141628" y="188.86571" style="stroke: #000000; stroke-width: 0.8"/>
      </g>
     </g>
     <g id="text_5">
      <!-- $\mathdefault{0.0}$ -->
      <g transform="translate(20.683987 193.0168) scale(0.12 -0.12)">
       <defs>
        <path id="CMMI12-3a" d="M 1178 307 
C 1178 492 1024 620 870 620 
C 685 620 557 467 557 313 
C 557 128 710 0 864 0 
C 1050 0 1178 153 1178 307 
z
" transform="scale(0.015625)"/>
       </defs>
       <use xlink:href="#CMR17-30" transform="scale(0.996264)"/>
       <use xlink:href="#CMMI12-3a" transform="translate(45.690477 0) scale(0.996264)"/>
       <use xlink:href="#CMR17-30" transform="translate(72.787654 0) scale(0.996264)"/>
      </g>
     </g>
    </g>
    <g id="ytick_2">
     <g id="line2d_21">
      <g>
       <use xlink:href="#m9cb3e3b561" x="39.141628" y="154.52649" style="stroke: #000000; stroke-width: 0.8"/>
      </g>
     </g>
     <g id="text_6">
      <!-- $\mathdefault{0.2}$ -->
      <g transform="translate(20.683987 158.67758) scale(0.12 -0.12)">
       <use xlink:href="#CMR17-30" transform="scale(0.996264)"/>
       <use xlink:href="#CMMI12-3a" transform="translate(45.690477 0) scale(0.996264)"/>
       <use xlink:href="#CMR17-32" transform="translate(72.787654 0) scale(0.996264)"/>
      </g>
     </g>
    </g>
    <g id="ytick_3">
     <g id="line2d_22">
      <g>
       <use xlink:href="#m9cb3e3b561" x="39.141628" y="120.18727" style="stroke: #000000; stroke-width: 0.8"/>
      </g>
     </g>
     <g id="text_7">
      <!-- $\mathdefault{0.4}$ -->
      <g transform="translate(20.683987 124.33836) scale(0.12 -0.12)">
       <defs>
        <path id="CMR17-34" d="M 2150 4147 
C 2150 4281 2144 4288 2029 4288 
L 128 1254 
L 128 1088 
L 1779 1088 
L 1779 460 
C 1779 230 1766 166 1318 166 
L 1197 166 
L 1197 0 
C 1402 12 1747 12 1965 12 
C 2182 12 2528 12 2733 0 
L 2733 166 
L 2611 166 
C 2163 166 2150 230 2150 460 
L 2150 1088 
L 2803 1088 
L 2803 1254 
L 2150 1254 
L 2150 4147 
z
M 1798 3723 
L 1798 1254 
L 256 1254 
L 1798 3723 
z
" transform="scale(0.015625)"/>
       </defs>
       <use xlink:href="#CMR17-30" transform="scale(0.996264)"/>
       <use xlink:href="#CMMI12-3a" transform="translate(45.690477 0) scale(0.996264)"/>
       <use xlink:href="#CMR17-34" transform="translate(72.787654 0) scale(0.996264)"/>
      </g>
     </g>
    </g>
    <g id="ytick_4">
     <g id="line2d_23">
      <g>
       <use xlink:href="#m9cb3e3b561" x="39.141628" y="85.84805" style="stroke: #000000; stroke-width: 0.8"/>
      </g>
     </g>
     <g id="text_8">
      <!-- $\mathdefault{0.6}$ -->
      <g transform="translate(20.683987 89.99914) scale(0.12 -0.12)">
       <defs>
        <path id="CMR17-36" d="M 678 2198 
C 678 3712 1395 4076 1811 4076 
C 1946 4076 2272 4049 2400 3782 
C 2298 3782 2106 3782 2106 3558 
C 2106 3385 2246 3328 2336 3328 
C 2394 3328 2566 3353 2566 3571 
C 2566 3987 2246 4224 1805 4224 
C 1043 4224 243 3411 243 2011 
C 243 257 966 -128 1478 -128 
C 2099 -128 2688 431 2688 1295 
C 2688 2101 2170 2688 1517 2688 
C 1126 2688 838 2430 678 1979 
L 678 2198 
z
M 1478 25 
C 691 25 691 1212 691 1450 
C 691 1914 909 2585 1504 2585 
C 1613 2585 1926 2585 2138 2140 
C 2253 1889 2253 1624 2253 1302 
C 2253 954 2253 696 2118 438 
C 1978 173 1773 25 1478 25 
z
" transform="scale(0.015625)"/>
       </defs>
       <use xlink:href="#CMR17-30" transform="scale(0.996264)"/>
       <use xlink:href="#CMMI12-3a" transform="translate(45.690477 0) scale(0.996264)"/>
       <use xlink:href="#CMR17-36" transform="translate(72.787654 0) scale(0.996264)"/>
      </g>
     </g>
    </g>
    <g id="ytick_5">
     <g id="line2d_24">
      <g>
       <use xlink:href="#m9cb3e3b561" x="39.141628" y="51.50883" style="stroke: #000000; stroke-width: 0.8"/>
      </g>
     </g>
     <g id="text_9">
      <!-- $\mathdefault{0.8}$ -->
      <g transform="translate(20.683987 55.65992) scale(0.12 -0.12)">
       <defs>
        <path id="CMR17-38" d="M 1741 2289 
C 2144 2494 2554 2803 2554 3298 
C 2554 3884 1990 4224 1472 4224 
C 890 4224 378 3800 378 3215 
C 378 3054 416 2777 666 2533 
C 730 2469 998 2276 1171 2154 
C 883 2006 211 1652 211 945 
C 211 282 838 -128 1459 -128 
C 2144 -128 2720 366 2720 1022 
C 2720 1607 2330 1877 2074 2051 
L 1741 2289 
z
M 902 2855 
C 851 2887 595 3086 595 3388 
C 595 3781 998 4076 1459 4076 
C 1965 4076 2336 3716 2336 3298 
C 2336 2700 1670 2359 1638 2359 
C 1632 2359 1626 2359 1574 2398 
L 902 2855 
z
M 2080 1536 
C 2176 1466 2483 1253 2483 861 
C 2483 385 2010 25 1472 25 
C 890 25 448 443 448 951 
C 448 1459 838 1884 1280 2083 
L 2080 1536 
z
" transform="scale(0.015625)"/>
       </defs>
       <use xlink:href="#CMR17-30" transform="scale(0.996264)"/>
       <use xlink:href="#CMMI12-3a" transform="translate(45.690477 0) scale(0.996264)"/>
       <use xlink:href="#CMR17-38" transform="translate(72.787654 0) scale(0.996264)"/>
      </g>
     </g>
    </g>
    <g id="ytick_6">
     <g id="line2d_25">
      <g>
       <use xlink:href="#m9cb3e3b561" x="39.141628" y="17.16961" style="stroke: #000000; stroke-width: 0.8"/>
      </g>
     </g>
     <g id="text_10">
      <!-- $\mathdefault{1.0}$ -->
      <g transform="translate(20.683987 21.3207) scale(0.12 -0.12)">
       <use xlink:href="#CMR17-31" transform="scale(0.996264)"/>
       <use xlink:href="#CMMI12-3a" transform="translate(45.690477 0) scale(0.996264)"/>
       <use xlink:href="#CMR17-30" transform="translate(72.787654 0) scale(0.996264)"/>
      </g>
     </g>
    </g>
    <g id="text_11">
     <!-- $\phi^{}_{{_{{IPR}}}}$ -->
     <g transform="translate(11.069588 116.244662) rotate(-90) scale(0.16 -0.16)">
      <defs>
       <path id="CMMI12-1e" d="M 2752 4358 
C 2752 4416 2707 4416 2688 4416 
C 2630 4416 2624 4403 2598 4294 
L 2253 2924 
C 2234 2841 2227 2835 2221 2828 
C 2214 2816 2170 2809 2157 2809 
C 1107 2720 301 1863 301 1071 
C 301 387 832 -32 1498 -71 
C 1446 -266 1402 -467 1350 -662 
C 1261 -995 1210 -1204 1210 -1229 
C 1210 -1242 1210 -1280 1274 -1280 
C 1293 -1280 1318 -1280 1331 -1255 
C 1344 -1242 1382 -1089 1408 -1008 
L 1645 -71 
C 2739 -13 3571 875 3571 1673 
C 3571 2313 3085 2771 2374 2816 
L 2752 4358 
z
M 2336 2688 
C 2758 2662 3181 2428 3181 1806 
C 3181 1090 2675 140 1677 64 
L 2336 2688 
z
M 1530 57 
C 1216 76 691 241 691 938 
C 691 1737 1274 2624 2195 2681 
L 1530 57 
z
" transform="scale(0.015625)"/>
       <path id="CMMI12-49" d="M 2355 3879 
C 2413 4102 2426 4166 2893 4166 
C 3034 4166 3085 4166 3085 4287 
C 3085 4352 3014 4352 2995 4352 
C 2880 4352 2739 4339 2624 4339 
L 1837 4339 
C 1709 4339 1562 4352 1434 4352 
C 1382 4352 1312 4352 1312 4230 
C 1312 4166 1363 4166 1491 4166 
C 1888 4166 1888 4115 1888 4045 
C 1888 4000 1875 3962 1862 3905 
L 998 472 
C 941 249 928 185 461 185 
C 320 185 262 185 262 64 
C 262 0 326 0 358 0 
C 474 0 614 12 730 12 
L 1517 12 
C 1645 12 1786 0 1914 0 
C 1965 0 2042 0 2042 115 
C 2042 185 2003 185 1862 185 
C 1466 185 1466 236 1466 312 
C 1466 325 1466 357 1491 459 
L 2355 3879 
z
" transform="scale(0.015625)"/>
       <path id="CMMI12-50" d="M 1894 2022 
L 2970 2022 
C 3853 2022 4736 2673 4736 3400 
C 4736 3898 4314 4352 3507 4352 
L 1530 4352 
C 1408 4352 1350 4352 1350 4230 
C 1350 4166 1408 4166 1504 4166 
C 1894 4166 1894 4115 1894 4045 
C 1894 4032 1894 3994 1869 3898 
L 1005 471 
C 947 249 934 185 486 185 
C 365 185 301 185 301 70 
C 301 0 358 0 397 0 
C 518 0 646 12 768 12 
L 1517 12 
C 1638 12 1773 0 1894 0 
C 1946 0 2016 0 2016 121 
C 2016 185 1958 185 1862 185 
C 1478 185 1472 230 1472 293 
C 1472 325 1478 369 1485 401 
L 1894 2022 
z
M 2355 3917 
C 2413 4153 2438 4166 2688 4166 
L 3322 4166 
C 3802 4166 4198 4013 4198 3534 
C 4198 3369 4115 2826 3821 2533 
C 3712 2418 3405 2176 2822 2176 
L 1920 2176 
L 2355 3917 
z
" transform="scale(0.015625)"/>
       <path id="CMMI12-52" d="M 2355 3917 
C 2413 4153 2438 4166 2688 4166 
L 3149 4166 
C 3699 4166 4109 4000 4109 3503 
C 4109 3177 3942 2240 2656 2240 
L 1933 2240 
L 2355 3917 
z
M 3245 2163 
C 4038 2335 4659 2846 4659 3394 
C 4659 3892 4154 4352 3264 4352 
L 1530 4352 
C 1402 4352 1344 4352 1344 4230 
C 1344 4166 1389 4166 1510 4166 
C 1894 4166 1894 4115 1894 4045 
C 1894 4032 1894 3994 1869 3898 
L 1005 475 
C 947 253 934 190 493 190 
C 346 190 301 190 301 69 
C 301 6 371 6 390 6 
C 506 6 640 19 762 19 
L 1517 19 
C 1632 19 1766 6 1882 6 
C 1933 6 2003 6 2003 126 
C 2003 190 1946 190 1850 190 
C 1459 190 1459 241 1459 304 
C 1459 310 1459 355 1472 405 
L 1901 2112 
L 2669 2112 
C 3277 2112 3392 1731 3392 1522 
C 3392 1426 3328 1179 3283 1014 
C 3213 723 3194 653 3194 532 
C 3194 82 3565 -128 3994 -128 
C 4512 -128 4736 501 4736 589 
C 4736 634 4704 653 4666 653 
C 4614 653 4602 615 4589 564 
C 4435 114 4173 0 4013 0 
C 3853 0 3750 69 3750 355 
C 3750 507 3827 1084 3834 1116 
C 3866 1350 3866 1376 3866 1426 
C 3866 1889 3488 2086 3245 2163 
z
" transform="scale(0.015625)"/>
      </defs>
      <use xlink:href="#CMMI12-1e" transform="scale(0.996264)"/>
      <use xlink:href="#CMMI12-49" transform="translate(57.73418 -35.090046) scale(0.498132)"/>
      <use xlink:href="#CMMI12-50" transform="translate(83.16243 -35.090046) scale(0.498132)"/>
      <use xlink:href="#CMMI12-52" transform="translate(121.375333 -35.090046) scale(0.498132)"/>
     </g>
    </g>
   </g>
   <g id="line2d_26">
    <path d="M 39.141628 162.575466 
L 40.945489 155.086917 
L 42.74935 157.449073 
L 44.553211 155.424329 
L 46.357071 72.869911 
L 48.160932 130.167137 
L 49.964793 125.645218 
L 51.768654 157.043686 
L 53.572514 159.475624 
L 55.376375 103.701145 
L 57.180236 163.632283 
L 58.984097 160.2305 
L 60.787957 159.41686 
L 62.591818 158.41276 
L 64.395679 156.973556 
L 66.19954 158.250512 
L 68.0034 158.084878 
L 69.807261 136.04253 
L 71.611122 143.482014 
L 73.414983 141.275162 
L 75.218843 143.406411 
L 77.022704 143.64276 
L 78.826565 149.920135 
L 80.630426 145.546542 
L 82.434286 159.264924 
L 86.042008 160.183433 
L 87.845869 151.750809 
L 89.649729 145.236752 
L 93.257451 146.991496 
L 95.061312 145.952888 
L 96.865172 159.594575 
L 98.669033 157.504569 
L 104.080615 149.339537 
L 105.884476 147.067472 
L 107.688337 145.380242 
L 109.492198 145.083987 
L 111.296058 155.297479 
L 113.099919 154.159177 
L 118.511501 151.981857 
L 120.315362 150.720838 
L 122.119223 117.174006 
L 123.923084 135.782559 
L 125.726945 150.398594 
L 127.530805 125.362653 
L 129.334666 120.444204 
L 131.138527 117.525329 
L 132.942388 117.195483 
L 134.746248 120.462777 
L 136.550109 116.410053 
L 138.35397 145.787752 
L 140.157831 66.725221 
L 141.961691 117.462855 
L 143.765552 117.367181 
L 145.569413 117.714943 
L 147.373274 118.277249 
L 149.177134 118.539334 
L 150.980995 117.805967 
L 152.784856 115.786003 
L 154.588717 96.816032 
L 158.196438 88.220298 
L 160.000299 84.21832 
L 161.80416 102.461118 
L 165.411881 72.788332 
L 167.215742 88.079291 
L 169.019603 77.638476 
L 170.823463 68.958764 
L 172.627324 63.952272 
L 174.431185 60.889141 
L 176.235046 58.04984 
L 179.842767 52.979512 
L 181.646628 30.316352 
L 183.450489 28.876008 
L 185.254349 27.635997 
L 187.05821 26.569915 
L 188.862071 25.672938 
L 190.665932 39.606385 
L 192.469792 24.010888 
L 194.273653 38.917073 
L 196.077514 35.42688 
L 197.881375 34.24739 
L 199.685235 35.336964 
L 201.489096 34.307116 
L 203.292957 31.246571 
L 206.900678 29.57968 
L 210.5084 28.147547 
L 214.116121 26.908027 
L 217.723843 25.830003 
L 219.527704 23.355223 
L 224.939286 22.323579 
L 230.350868 21.48957 
L 233.95859 21.020968 
L 235.76245 19.458484 
L 237.566311 19.327382 
L 239.370172 18.157435 
L 253.801058 17.792201 
L 264.624223 17.618541 
L 266.428083 17.333806 
L 313.328463 17.212962 
L 398.109918 17.174309 
L 398.109918 17.174309 
" clip-path="url(#pdd20bdec5f)" style="fill: none; stroke-dasharray: 1.5,2.475; stroke-dashoffset: 0; stroke: #1f77b4; stroke-width: 1.5"/>
   </g>
   <g id="line2d_27">
    <path d="M 39.141628 166.767062 
L 40.945489 173.889298 
L 42.74935 176.856755 
L 44.553211 173.828381 
L 46.357071 172.912343 
L 48.160932 174.150471 
L 49.964793 176.615718 
L 51.768654 174.599185 
L 55.376375 170.771499 
L 57.180236 173.53945 
L 58.984097 172.233248 
L 60.787957 177.351274 
L 62.591818 171.807682 
L 64.395679 175.850834 
L 66.19954 172.495037 
L 68.0034 171.216639 
L 69.807261 159.623009 
L 71.611122 169.45306 
L 73.414983 172.112545 
L 75.218843 166.01534 
L 77.022704 168.564716 
L 78.826565 163.687166 
L 80.630426 170.768998 
L 82.434286 174.63395 
L 84.238147 170.164876 
L 86.042008 176.376397 
L 87.845869 171.836316 
L 89.649729 173.959927 
L 91.45359 170.802113 
L 93.257451 164.007245 
L 95.061312 144.105357 
L 96.865172 163.459883 
L 98.669033 174.838515 
L 100.472894 169.694497 
L 102.276755 167.723223 
L 104.080615 165.221031 
L 105.884476 165.308609 
L 107.688337 165.664746 
L 109.492198 164.890932 
L 111.296058 151.564061 
L 113.099919 168.492638 
L 114.90378 143.527992 
L 116.707641 137.624121 
L 118.511501 168.561586 
L 120.315362 162.637749 
L 122.119223 167.035866 
L 123.923084 129.338219 
L 125.726945 167.614402 
L 127.530805 137.230408 
L 129.334666 164.414827 
L 131.138527 161.189862 
L 132.942388 137.656783 
L 134.746248 138.133689 
L 136.550109 161.223249 
L 138.35397 159.392597 
L 140.157831 136.657493 
L 141.961691 161.31548 
L 143.765552 156.811879 
L 145.569413 133.294665 
L 147.373274 127.513663 
L 149.177134 141.246167 
L 150.980995 146.504076 
L 152.784856 141.645716 
L 154.588717 135.986946 
L 156.392577 142.526895 
L 158.196438 142.689637 
L 160.000299 141.120187 
L 161.80416 139.922691 
L 163.60802 142.95994 
L 165.411881 138.628595 
L 167.215742 141.273547 
L 169.019603 146.4087 
L 170.823463 140.925351 
L 172.627324 140.399578 
L 174.431185 134.297624 
L 176.235046 139.041094 
L 178.038906 136.671339 
L 179.842767 134.912354 
L 181.646628 132.686385 
L 183.450489 129.402879 
L 185.254349 129.152234 
L 187.05821 126.765646 
L 188.862071 124.814307 
L 190.665932 108.221738 
L 192.469792 119.656536 
L 194.273653 117.711158 
L 196.077514 114.447964 
L 197.881375 112.381875 
L 199.685235 109.783594 
L 201.489096 107.663575 
L 203.292957 103.756893 
L 205.096818 86.817422 
L 206.900678 98.438016 
L 208.704539 94.581423 
L 210.5084 93.219288 
L 212.312261 89.351626 
L 214.116121 85.2016 
L 215.919982 63.318098 
L 217.723843 81.875257 
L 219.527704 80.898493 
L 221.331564 78.587066 
L 223.135425 74.915795 
L 224.939286 72.718679 
L 226.743147 68.951891 
L 228.547007 66.895724 
L 230.350868 63.100628 
L 232.154729 64.562826 
L 233.95859 57.44732 
L 235.76245 60.862669 
L 237.566311 59.105063 
L 239.370172 55.935857 
L 241.174033 50.972036 
L 242.977893 51.220636 
L 244.781754 48.109606 
L 246.585615 46.765085 
L 248.389476 43.788586 
L 251.997197 41.476609 
L 253.801058 41.922395 
L 257.40878 39.795044 
L 259.21264 37.424209 
L 261.016501 36.519317 
L 262.820362 34.30703 
L 264.624223 33.531002 
L 266.428083 31.490685 
L 268.231944 30.834521 
L 270.035805 32.5586 
L 273.643526 29.0416 
L 275.447387 28.498618 
L 277.251248 26.938025 
L 279.055109 26.487398 
L 280.858969 25.087293 
L 286.270552 24.035375 
L 288.074412 22.902653 
L 289.878273 23.414167 
L 291.682134 23.125641 
L 295.289855 21.236726 
L 300.701438 20.693767 
L 302.505298 19.986211 
L 304.309159 19.854911 
L 306.11302 19.255148 
L 309.720741 19.065281 
L 311.524602 18.589653 
L 313.328463 18.523293 
L 315.132324 18.137257 
L 324.151627 17.931562 
L 325.955488 17.680737 
L 334.974792 17.572363 
L 336.778653 17.41592 
L 347.601817 17.272753 
L 351.209539 17.183934 
L 398.109918 17.173874 
L 398.109918 17.173874 
" clip-path="url(#pdd20bdec5f)" style="fill: none; stroke-dasharray: 5.55,2.4; stroke-dashoffset: 0; stroke: #ff7f0e; stroke-width: 1.5"/>
   </g>
   <g id="line2d_28">
    <path d="M 39.141628 177.282267 
L 40.945489 178.89326 
L 42.74935 178.889359 
L 44.553211 179.212442 
L 46.357071 181.083225 
L 48.160932 177.617984 
L 49.964793 178.57185 
L 51.768654 178.441558 
L 53.572514 178.775478 
L 55.376375 177.873704 
L 57.180236 177.598639 
L 58.984097 177.644596 
L 60.787957 181.037501 
L 62.591818 176.749252 
L 64.395679 179.925167 
L 66.19954 178.396284 
L 68.0034 173.108895 
L 69.807261 175.997787 
L 71.611122 176.354388 
L 73.414983 179.574253 
L 75.218843 178.461736 
L 77.022704 174.334482 
L 78.826565 179.244341 
L 80.630426 178.089155 
L 82.434286 177.768581 
L 84.238147 179.157883 
L 86.042008 170.838146 
L 87.845869 177.611089 
L 89.649729 180.126128 
L 91.45359 173.974197 
L 93.257451 175.600852 
L 95.061312 168.953196 
L 98.669033 180.069875 
L 100.472894 178.343303 
L 102.276755 172.817256 
L 104.080615 177.664598 
L 105.884476 176.44388 
L 107.688337 175.494487 
L 109.492198 176.533166 
L 111.296058 172.434955 
L 113.099919 171.190914 
L 114.90378 170.799872 
L 116.707641 169.300697 
L 118.511501 175.704659 
L 120.315362 167.128951 
L 122.119223 175.575878 
L 123.923084 160.904001 
L 125.726945 166.267358 
L 127.530805 157.369602 
L 129.334666 174.093352 
L 131.138527 166.577115 
L 132.942388 157.318859 
L 134.746248 156.487937 
L 136.550109 165.530688 
L 138.35397 151.436386 
L 140.157831 164.637514 
L 141.961691 168.816203 
L 143.765552 156.472698 
L 145.569413 165.321888 
L 147.373274 155.995359 
L 149.177134 148.143544 
L 150.980995 161.945956 
L 152.784856 154.311628 
L 154.588717 157.982297 
L 156.392577 141.209413 
L 158.196438 157.251774 
L 160.000299 163.068526 
L 161.80416 150.97357 
L 163.60802 154.250688 
L 165.411881 155.479265 
L 167.215742 158.760663 
L 169.019603 146.764681 
L 172.627324 148.076607 
L 174.431185 145.563536 
L 176.235046 145.159275 
L 178.038906 145.212146 
L 179.842767 144.756156 
L 181.646628 144.8379 
L 183.450489 144.502848 
L 194.273653 144.054761 
L 196.077514 142.633976 
L 197.881375 143.559934 
L 199.685235 143.172137 
L 203.292957 142.041171 
L 205.096818 141.292339 
L 208.704539 139.298758 
L 210.5084 138.259735 
L 212.312261 136.832424 
L 214.116121 135.715894 
L 215.919982 133.857546 
L 217.723843 132.439767 
L 219.527704 130.420744 
L 221.331564 128.157457 
L 223.135425 126.582487 
L 224.939286 124.073824 
L 226.743147 120.652167 
L 228.547007 118.361912 
L 232.154729 115.10595 
L 233.95859 111.232496 
L 235.76245 110.365727 
L 237.566311 106.35219 
L 239.370172 105.543562 
L 241.174033 99.351039 
L 244.781754 94.431533 
L 246.585615 93.12676 
L 248.389476 89.610087 
L 250.193337 87.2471 
L 251.997197 87.054205 
L 253.801058 82.636069 
L 255.604919 80.393408 
L 257.40878 79.281753 
L 259.21264 74.888377 
L 262.820362 68.293888 
L 264.624223 69.897324 
L 266.428083 68.955549 
L 268.231944 62.675973 
L 270.035805 64.218505 
L 271.839666 59.207987 
L 273.643526 58.665532 
L 275.447387 54.819456 
L 277.251248 54.412539 
L 279.055109 51.847864 
L 280.858969 50.439433 
L 282.66283 50.088986 
L 284.466691 45.689427 
L 286.270552 42.332467 
L 288.074412 41.26283 
L 289.878273 41.257927 
L 291.682134 39.247978 
L 295.289855 37.39196 
L 297.093716 39.08111 
L 298.897577 35.68444 
L 300.701438 34.048143 
L 302.505298 33.312553 
L 306.11302 33.394446 
L 307.916881 30.560626 
L 309.720741 30.665934 
L 313.328463 28.215479 
L 315.132324 27.095277 
L 316.936184 26.652576 
L 318.740045 25.062207 
L 320.543906 25.82515 
L 322.347767 24.369134 
L 324.151627 24.044877 
L 325.955488 24.226723 
L 327.759349 23.909713 
L 329.56321 22.709044 
L 331.36707 22.45967 
L 333.170931 21.812834 
L 334.974792 22.385567 
L 336.778653 21.77498 
L 338.582513 21.567982 
L 340.386374 20.690913 
L 342.190235 20.531026 
L 345.797956 19.659805 
L 347.601817 19.818159 
L 349.405678 20.231013 
L 351.209539 18.862745 
L 353.013399 18.367832 
L 354.81726 18.128528 
L 356.621121 18.085878 
L 358.424982 17.887542 
L 360.228842 18.003329 
L 362.032703 17.82291 
L 363.836564 17.928943 
L 367.444286 17.623714 
L 369.248146 17.711722 
L 374.659729 17.744192 
L 376.463589 17.447022 
L 378.26745 17.434251 
L 380.071311 17.298385 
L 398.109918 17.173797 
L 398.109918 17.173797 
" clip-path="url(#pdd20bdec5f)" style="fill: none; stroke-dasharray: 9.6,2.4,1.5,2.4; stroke-dashoffset: 0; stroke: #2ca02c; stroke-width: 1.5"/>
   </g>
   <g id="line2d_29">
    <path d="M -1 183.518597 
L 11.528683 182.251845 
L 25.335156 184.453751 
L 39.141628 182.044641 
L 52.948101 182.877082 
L 66.754574 183.502691 
L 80.561046 183.355879 
L 94.367519 183.22964 
L 108.173992 182.620946 
L 121.980464 181.892647 
L 135.786937 168.524378 
L 149.59341 166.813127 
L 163.399883 167.129432 
L 177.206355 161.136654 
L 191.012828 160.469728 
L 204.819301 157.680572 
L 218.625773 149.705469 
L 232.432246 144.696481 
L 246.238719 143.866413 
L 260.045191 139.78666 
L 273.851664 126.807967 
L 287.658137 107.777029 
L 301.464609 91.380667 
L 315.271082 66.525773 
L 329.077555 53.185309 
L 342.884028 39.427713 
L 356.6905 31.53687 
L 370.496973 26.199565 
L 384.303446 24.199125 
L 398.109918 20.922616 
" clip-path="url(#pdd20bdec5f)" style="fill: none; stroke: #d62728; stroke-width: 1.5; stroke-linecap: square"/>
   </g>
   <g id="patch_3">
    <path d="M 39.141628 206.03532 
L 39.141628 0 
" style="fill: none; stroke: #000000; stroke-width: 0.8; stroke-linejoin: miter; stroke-linecap: square"/>
   </g>
   <g id="patch_4">
    <path d="M 398.109918 206.03532 
L 398.109918 0 
" style="fill: none; stroke: #000000; stroke-width: 0.8; stroke-linejoin: miter; stroke-linecap: square"/>
   </g>
   <g id="patch_5">
    <path d="M 39.141628 206.03532 
L 398.109918 206.03532 
" style="fill: none; stroke: #000000; stroke-width: 0.8; stroke-linejoin: miter; stroke-linecap: square"/>
   </g>
   <g id="patch_6">
    <path d="M 39.141628 0 
L 398.109918 0 
" style="fill: none; stroke: #000000; stroke-width: 0.8; stroke-linejoin: miter; stroke-linecap: square"/>
   </g>
   <g id="legend_1">
    <g id="line2d_30">
     <path d="M 312.235313 132.912071 
L 325.235313 132.912071 
L 338.235313 132.912071 
" style="fill: none; stroke-dasharray: 1.5,2.475; stroke-dashoffset: 0; stroke: #1f77b4; stroke-width: 1.5"/>
    </g>
    <g id="text_12">
     <!-- N=10 -->
     <g transform="translate(348.635313 137.462071) scale(0.13 -0.13)">
      <defs>
       <path id="CMSS17-4e" d="M 1466 4179 
L 1350 4416 
L 563 4416 
L 563 0 
L 1062 0 
L 1062 3925 
L 1069 3931 
C 1114 3817 1139 3759 1402 3193 
L 2771 236 
L 2886 0 
L 3674 0 
L 3674 4416 
L 3174 4416 
L 3174 490 
L 3168 484 
C 3123 598 3098 655 2835 1222 
L 1466 4179 
z
" transform="scale(0.015625)"/>
       <path id="CMSS17-3d" d="M 4147 2048 
C 4243 2048 4339 2048 4339 2156 
C 4339 2272 4230 2272 4122 2272 
L 550 2272 
C 442 2272 333 2272 333 2156 
C 333 2048 429 2048 525 2048 
L 4147 2048 
z
M 4122 927 
C 4230 927 4339 927 4339 1043 
C 4339 1152 4243 1152 4147 1152 
L 525 1152 
C 429 1152 333 1152 333 1043 
C 333 927 442 927 550 927 
L 4122 927 
z
" transform="scale(0.015625)"/>
       <path id="CMSS17-31" d="M 1818 4288 
L 1696 4288 
C 1350 3949 947 3902 538 3891 
L 538 3520 
C 723 3526 1024 3539 1325 3673 
L 1325 371 
L 570 371 
L 570 0 
L 2573 0 
L 2573 371 
L 1818 371 
L 1818 4288 
z
" transform="scale(0.015625)"/>
       <path id="CMSS17-30" d="M 2758 2073 
C 2758 2439 2752 3120 2490 3647 
C 2227 4153 1805 4288 1504 4288 
C 1069 4288 698 4031 506 3621 
C 301 3191 243 2748 243 2073 
C 243 1611 262 1046 493 551 
C 755 6 1197 -128 1498 -128 
C 1894 -128 2278 83 2496 525 
C 2720 988 2758 1495 2758 2073 
z
M 1498 262 
C 1011 262 864 821 819 1007 
C 742 1328 730 1636 730 2144 
C 730 2542 730 2992 851 3345 
C 998 3756 1254 3897 1498 3897 
C 1971 3897 2125 3422 2176 3255 
C 2272 2915 2272 2516 2272 2144 
C 2272 1546 2272 262 1498 262 
z
" transform="scale(0.015625)"/>
      </defs>
      <use xlink:href="#CMSS17-4e" transform="scale(0.996264)"/>
      <use xlink:href="#CMSS17-3d" transform="translate(66.061519 0) scale(0.996264)"/>
      <use xlink:href="#CMSS17-31" transform="translate(138.929454 0) scale(0.996264)"/>
      <use xlink:href="#CMSS17-30" transform="translate(185.773078 0) scale(0.996264)"/>
     </g>
    </g>
    <g id="line2d_31">
     <path d="M 312.235313 151.030383 
L 325.235313 151.030383 
L 338.235313 151.030383 
" style="fill: none; stroke-dasharray: 5.55,2.4; stroke-dashoffset: 0; stroke: #ff7f0e; stroke-width: 1.5"/>
    </g>
    <g id="text_13">
     <!-- N=30 -->
     <g transform="translate(348.635313 155.580383) scale(0.13 -0.13)">
      <defs>
       <path id="CMSS17-33" d="M 1005 2060 
L 1440 2060 
C 2042 2060 2214 1532 2214 1164 
C 2214 662 1933 268 1472 268 
C 1114 268 608 449 320 926 
C 275 700 275 687 250 533 
C 550 89 1037 -128 1485 -128 
C 2214 -128 2752 481 2752 1158 
C 2752 1667 2400 2092 1920 2252 
C 2304 2463 2586 2860 2586 3321 
C 2586 3859 2093 4288 1491 4288 
C 941 4288 512 3948 333 3583 
C 378 3519 493 3334 550 3238 
C 691 3615 1056 3897 1485 3897 
C 1843 3897 2080 3660 2080 3321 
C 2080 2969 1856 2585 1478 2496 
C 1453 2496 1056 2457 1005 2451 
L 1005 2060 
z
" transform="scale(0.015625)"/>
      </defs>
      <use xlink:href="#CMSS17-4e" transform="scale(0.996264)"/>
      <use xlink:href="#CMSS17-3d" transform="translate(66.061519 0) scale(0.996264)"/>
      <use xlink:href="#CMSS17-33" transform="translate(138.929454 0) scale(0.996264)"/>
      <use xlink:href="#CMSS17-30" transform="translate(185.773078 0) scale(0.996264)"/>
     </g>
    </g>
    <g id="line2d_32">
     <path d="M 312.235313 169.148695 
L 325.235313 169.148695 
L 338.235313 169.148695 
" style="fill: none; stroke-dasharray: 9.6,2.4,1.5,2.4; stroke-dashoffset: 0; stroke: #2ca02c; stroke-width: 1.5"/>
    </g>
    <g id="text_14">
     <!-- N=50 -->
     <g transform="translate(348.635313 173.698695) scale(0.13 -0.13)">
      <defs>
       <path id="CMSS17-35" d="M 934 3814 
L 2502 3814 
L 2502 4224 
L 467 4224 
L 467 1830 
L 896 1830 
C 1011 2103 1248 2304 1555 2304 
C 1843 2304 2163 2044 2163 1299 
C 2163 502 1709 268 1376 268 
C 966 268 589 521 422 871 
L 218 508 
C 512 51 992 -128 1376 -128 
C 2118 -128 2701 508 2701 1286 
C 2701 2083 2182 2694 1562 2694 
C 1338 2694 1120 2617 934 2464 
L 934 3814 
z
" transform="scale(0.015625)"/>
      </defs>
      <use xlink:href="#CMSS17-4e" transform="scale(0.996264)"/>
      <use xlink:href="#CMSS17-3d" transform="translate(66.061519 0) scale(0.996264)"/>
      <use xlink:href="#CMSS17-35" transform="translate(138.929454 0) scale(0.996264)"/>
      <use xlink:href="#CMSS17-30" transform="translate(185.773078 0) scale(0.996264)"/>
     </g>
    </g>
    <g id="line2d_33">
     <path d="M 312.235313 187.267008 
L 325.235313 187.267008 
L 338.235313 187.267008 
" style="fill: none; stroke: #d62728; stroke-width: 1.5; stroke-linecap: square"/>
    </g>
    <g id="text_15">
     <!-- N=100 -->
     <g transform="translate(348.635313 191.817008) scale(0.13 -0.13)">
      <use xlink:href="#CMSS17-4e" transform="scale(0.996264)"/>
      <use xlink:href="#CMSS17-3d" transform="translate(66.061519 0) scale(0.996264)"/>
      <use xlink:href="#CMSS17-31" transform="translate(138.929454 0) scale(0.996264)"/>
      <use xlink:href="#CMSS17-30" transform="translate(185.773078 0) scale(0.996264)"/>
      <use xlink:href="#CMSS17-30" transform="translate(232.616701 0) scale(0.996264)"/>
     </g>
    </g>
   </g>
  </g>
  <g id="axes_2">
   <g id="patch_7">
    <path d="M 39.141628 451.55532 
L 398.109918 451.55532 
L 398.109918 245.52 
L 39.141628 245.52 
z
" style="fill: #ffffff"/>
   </g>
   <g id="matplotlib.axis_3">
    <g id="xtick_20">
     <g id="line2d_34">
      <g>
       <use xlink:href="#m44e571cd95" x="55.458369" y="451.55532" style="stroke: #000000; stroke-width: 0.8"/>
      </g>
     </g>
     <g id="text_16">
      <!-- $\mathdefault{10^{1}}$ -->
      <g transform="translate(47.488287 463.357499) scale(0.12 -0.12)">
       <use xlink:href="#CMR17-31" transform="scale(0.996264)"/>
       <use xlink:href="#CMR17-30" transform="translate(45.690477 0) scale(0.996264)"/>
       <use xlink:href="#CMR17-31" transform="translate(91.380954 36.153639) scale(0.697382)"/>
      </g>
     </g>
    </g>
    <g id="xtick_21">
     <g id="line2d_35">
      <g>
       <use xlink:href="#m44e571cd95" x="381.793178" y="451.55532" style="stroke: #000000; stroke-width: 0.8"/>
      </g>
     </g>
     <g id="text_17">
      <!-- $\mathdefault{10^{2}}$ -->
      <g transform="translate(373.823096 463.357499) scale(0.12 -0.12)">
       <use xlink:href="#CMR17-31" transform="scale(0.996264)"/>
       <use xlink:href="#CMR17-30" transform="translate(45.690477 0) scale(0.996264)"/>
       <use xlink:href="#CMR17-32" transform="translate(91.380954 36.153639) scale(0.697382)"/>
      </g>
     </g>
    </g>
    <g id="xtick_22">
     <g id="line2d_36">
      <g>
       <use xlink:href="#md10cae3854" x="40.526107" y="451.55532" style="stroke: #000000; stroke-width: 0.6"/>
      </g>
     </g>
    </g>
    <g id="xtick_23">
     <g id="line2d_37">
      <g>
       <use xlink:href="#md10cae3854" x="153.694935" y="451.55532" style="stroke: #000000; stroke-width: 0.6"/>
      </g>
     </g>
    </g>
    <g id="xtick_24">
     <g id="line2d_38">
      <g>
       <use xlink:href="#md10cae3854" x="211.159642" y="451.55532" style="stroke: #000000; stroke-width: 0.6"/>
      </g>
     </g>
    </g>
    <g id="xtick_25">
     <g id="line2d_39">
      <g>
       <use xlink:href="#md10cae3854" x="251.931501" y="451.55532" style="stroke: #000000; stroke-width: 0.6"/>
      </g>
     </g>
    </g>
    <g id="xtick_26">
     <g id="line2d_40">
      <g>
       <use xlink:href="#md10cae3854" x="283.556612" y="451.55532" style="stroke: #000000; stroke-width: 0.6"/>
      </g>
     </g>
    </g>
    <g id="xtick_27">
     <g id="line2d_41">
      <g>
       <use xlink:href="#md10cae3854" x="309.396209" y="451.55532" style="stroke: #000000; stroke-width: 0.6"/>
      </g>
     </g>
    </g>
    <g id="xtick_28">
     <g id="line2d_42">
      <g>
       <use xlink:href="#md10cae3854" x="331.243276" y="451.55532" style="stroke: #000000; stroke-width: 0.6"/>
      </g>
     </g>
    </g>
    <g id="xtick_29">
     <g id="line2d_43">
      <g>
       <use xlink:href="#md10cae3854" x="350.168067" y="451.55532" style="stroke: #000000; stroke-width: 0.6"/>
      </g>
     </g>
    </g>
    <g id="xtick_30">
     <g id="line2d_44">
      <g>
       <use xlink:href="#md10cae3854" x="366.860916" y="451.55532" style="stroke: #000000; stroke-width: 0.6"/>
      </g>
     </g>
    </g>
    <g id="text_18">
     <!-- $N$ -->
     <g transform="translate(213.157715 475.367972) scale(0.14 -0.14)">
      <defs>
       <path id="CMMI12-4e" d="M 4736 3682 
C 4806 3956 4909 4147 5395 4166 
C 5414 4166 5491 4172 5491 4281 
C 5491 4352 5434 4352 5408 4352 
C 5280 4352 4954 4339 4826 4339 
L 4518 4339 
C 4429 4339 4314 4352 4224 4352 
C 4186 4352 4109 4352 4109 4230 
C 4109 4166 4160 4166 4205 4166 
C 4589 4153 4614 4007 4614 3892 
C 4614 3835 4608 3816 4589 3726 
L 3866 854 
L 2496 4243 
C 2451 4345 2445 4352 2304 4352 
L 1523 4352 
C 1395 4352 1338 4352 1338 4230 
C 1338 4166 1382 4166 1504 4166 
C 1536 4166 1914 4166 1914 4109 
C 1914 4096 1901 4045 1894 4026 
L 1043 650 
C 966 338 813 204 390 185 
C 358 185 294 179 294 64 
C 294 0 358 0 378 0 
C 506 0 832 12 960 12 
L 1267 12 
C 1357 12 1466 0 1555 0 
C 1600 0 1670 0 1670 121 
C 1670 179 1606 185 1581 185 
C 1370 191 1165 230 1165 459 
C 1165 510 1178 567 1190 618 
L 2054 4026 
C 2093 3962 2093 3949 2118 3892 
L 3642 115 
C 3674 38 3686 0 3744 0 
C 3808 0 3814 19 3840 128 
L 4736 3682 
z
" transform="scale(0.015625)"/>
      </defs>
      <use xlink:href="#CMMI12-4e" transform="scale(0.996264)"/>
     </g>
    </g>
   </g>
   <g id="matplotlib.axis_4">
    <g id="ytick_7">
     <g id="line2d_45">
      <g>
       <use xlink:href="#m9cb3e3b561" x="39.141628" y="444.082092" style="stroke: #000000; stroke-width: 0.8"/>
      </g>
     </g>
     <g id="text_19">
      <!-- $\mathdefault{0.0}$ -->
      <g transform="translate(20.683987 448.233182) scale(0.12 -0.12)">
       <use xlink:href="#CMR17-30" transform="scale(0.996264)"/>
       <use xlink:href="#CMMI12-3a" transform="translate(45.690477 0) scale(0.996264)"/>
       <use xlink:href="#CMR17-30" transform="translate(72.787654 0) scale(0.996264)"/>
      </g>
     </g>
    </g>
    <g id="ytick_8">
     <g id="line2d_46">
      <g>
       <use xlink:href="#m9cb3e3b561" x="39.141628" y="406.241799" style="stroke: #000000; stroke-width: 0.8"/>
      </g>
     </g>
     <g id="text_20">
      <!-- $\mathdefault{0.2}$ -->
      <g transform="translate(20.683987 410.392889) scale(0.12 -0.12)">
       <use xlink:href="#CMR17-30" transform="scale(0.996264)"/>
       <use xlink:href="#CMMI12-3a" transform="translate(45.690477 0) scale(0.996264)"/>
       <use xlink:href="#CMR17-32" transform="translate(72.787654 0) scale(0.996264)"/>
      </g>
     </g>
    </g>
    <g id="ytick_9">
     <g id="line2d_47">
      <g>
       <use xlink:href="#m9cb3e3b561" x="39.141628" y="368.401507" style="stroke: #000000; stroke-width: 0.8"/>
      </g>
     </g>
     <g id="text_21">
      <!-- $\mathdefault{0.4}$ -->
      <g transform="translate(20.683987 372.552596) scale(0.12 -0.12)">
       <use xlink:href="#CMR17-30" transform="scale(0.996264)"/>
       <use xlink:href="#CMMI12-3a" transform="translate(45.690477 0) scale(0.996264)"/>
       <use xlink:href="#CMR17-34" transform="translate(72.787654 0) scale(0.996264)"/>
      </g>
     </g>
    </g>
    <g id="ytick_10">
     <g id="line2d_48">
      <g>
       <use xlink:href="#m9cb3e3b561" x="39.141628" y="330.561214" style="stroke: #000000; stroke-width: 0.8"/>
      </g>
     </g>
     <g id="text_22">
      <!-- $\mathdefault{0.6}$ -->
      <g transform="translate(20.683987 334.712303) scale(0.12 -0.12)">
       <use xlink:href="#CMR17-30" transform="scale(0.996264)"/>
       <use xlink:href="#CMMI12-3a" transform="translate(45.690477 0) scale(0.996264)"/>
       <use xlink:href="#CMR17-36" transform="translate(72.787654 0) scale(0.996264)"/>
      </g>
     </g>
    </g>
    <g id="ytick_11">
     <g id="line2d_49">
      <g>
       <use xlink:href="#m9cb3e3b561" x="39.141628" y="292.720921" style="stroke: #000000; stroke-width: 0.8"/>
      </g>
     </g>
     <g id="text_23">
      <!-- $\mathdefault{0.8}$ -->
      <g transform="translate(20.683987 296.87201) scale(0.12 -0.12)">
       <use xlink:href="#CMR17-30" transform="scale(0.996264)"/>
       <use xlink:href="#CMMI12-3a" transform="translate(45.690477 0) scale(0.996264)"/>
       <use xlink:href="#CMR17-38" transform="translate(72.787654 0) scale(0.996264)"/>
      </g>
     </g>
    </g>
    <g id="ytick_12">
     <g id="line2d_50">
      <g>
       <use xlink:href="#m9cb3e3b561" x="39.141628" y="254.880628" style="stroke: #000000; stroke-width: 0.8"/>
      </g>
     </g>
     <g id="text_24">
      <!-- $\mathdefault{1.0}$ -->
      <g transform="translate(20.683987 259.031718) scale(0.12 -0.12)">
       <use xlink:href="#CMR17-31" transform="scale(0.996264)"/>
       <use xlink:href="#CMMI12-3a" transform="translate(45.690477 0) scale(0.996264)"/>
       <use xlink:href="#CMR17-30" transform="translate(72.787654 0) scale(0.996264)"/>
      </g>
     </g>
    </g>
    <g id="text_25">
     <!-- $\phi^{}_{{_{{ IPR}}}}$ -->
     <g transform="translate(11.069588 361.764662) rotate(-90) scale(0.16 -0.16)">
      <use xlink:href="#CMMI12-1e" transform="scale(0.996264)"/>
      <use xlink:href="#CMMI12-49" transform="translate(57.73418 -35.090046) scale(0.498132)"/>
      <use xlink:href="#CMMI12-50" transform="translate(83.16243 -35.090046) scale(0.498132)"/>
      <use xlink:href="#CMMI12-52" transform="translate(121.375333 -35.090046) scale(0.498132)"/>
     </g>
    </g>
   </g>
   <g id="line2d_51">
    <path d="M 55.458369 410.345507 
L 211.159642 426.042339 
L 283.556612 432.545251 
L 381.793178 438.172284 
" clip-path="url(#p7e360f351d)" style="fill: none; stroke: #1f77b4; stroke-width: 1.5; stroke-linecap: square"/>
   </g>
   <g id="line2d_52">
    <path d="M 55.458369 279.604956 
L 211.159642 355.216022 
L 283.556612 394.94995 
L 381.793178 412.790984 
" clip-path="url(#p7e360f351d)" style="fill: none; stroke: #ff7f0e; stroke-width: 1.5; stroke-linecap: square"/>
   </g>
   <g id="line2d_53">
    <path d="M 55.458369 255.740866 
L 211.159642 287.493525 
L 283.556612 338.582029 
L 381.793178 394.494869 
" clip-path="url(#p7e360f351d)" style="fill: none; stroke: #2ca02c; stroke-width: 1.5; stroke-linecap: square"/>
   </g>
   <g id="line2d_54">
    <path d="M 55.458369 254.901726 
L 211.159642 255.005462 
L 283.556612 258.082968 
L 381.793178 279.408067 
" clip-path="url(#p7e360f351d)" style="fill: none; stroke: #d62728; stroke-width: 1.5; stroke-linecap: square"/>
   </g>
   <g id="line2d_55">
    <path d="M 55.458369 254.885806 
L 211.159642 254.885327 
L 283.556612 254.885242 
L 381.793178 259.016273 
" clip-path="url(#p7e360f351d)" style="fill: none; stroke: #9467bd; stroke-width: 1.5; stroke-linecap: square"/>
   </g>
   <g id="line2d_56">
    <path d="M 55.458369 425.161946 
L 211.159642 437.775377 
L 283.556612 440.298063 
L 381.793178 442.190078 
" clip-path="url(#p7e360f351d)" style="fill: none; stroke-dasharray: 5.55,2.4; stroke-dashoffset: 0; stroke: #ff0000; stroke-width: 1.5"/>
   </g>
   <g id="patch_8">
    <path d="M 39.141628 451.55532 
L 39.141628 245.52 
" style="fill: none; stroke: #000000; stroke-width: 0.8; stroke-linejoin: miter; stroke-linecap: square"/>
   </g>
   <g id="patch_9">
    <path d="M 398.109918 451.55532 
L 398.109918 245.52 
" style="fill: none; stroke: #000000; stroke-width: 0.8; stroke-linejoin: miter; stroke-linecap: square"/>
   </g>
   <g id="patch_10">
    <path d="M 39.141628 451.55532 
L 398.109918 451.55532 
" style="fill: none; stroke: #000000; stroke-width: 0.8; stroke-linejoin: miter; stroke-linecap: square"/>
   </g>
   <g id="patch_11">
    <path d="M 39.141628 245.52 
L 398.109918 245.52 
" style="fill: none; stroke: #000000; stroke-width: 0.8; stroke-linejoin: miter; stroke-linecap: square"/>
   </g>
   <g id="legend_2">
    <g id="line2d_57">
     <path d="M 46.361754 316.307274 
L 55.361754 316.307274 
L 64.361754 316.307274 
" style="fill: none; stroke: #1f77b4; stroke-width: 1.5; stroke-linecap: square"/>
    </g>
    <g id="text_26">
     <!-- $\omega=1.4$ -->
     <g transform="translate(71.561754 319.457274) scale(0.09 -0.09)">
      <defs>
       <path id="CMR17-3d" d="M 4115 2048 
C 4211 2048 4307 2048 4307 2156 
C 4307 2272 4198 2272 4090 2272 
L 512 2272 
C 403 2272 294 2272 294 2156 
C 294 2048 390 2048 486 2048 
L 4115 2048 
z
M 4090 927 
C 4198 927 4307 927 4307 1043 
C 4307 1152 4211 1152 4115 1152 
L 486 1152 
C 390 1152 294 1152 294 1043 
C 294 927 403 927 512 927 
L 4090 927 
z
" transform="scale(0.015625)"/>
      </defs>
      <use xlink:href="#CMMI12-21" transform="scale(0.996264)"/>
      <use xlink:href="#CMR17-3d" transform="translate(91.992355 0) scale(0.996264)"/>
      <use xlink:href="#CMR17-31" transform="translate(191.381152 0) scale(0.996264)"/>
      <use xlink:href="#CMMI12-3a" transform="translate(237.071629 0) scale(0.996264)"/>
      <use xlink:href="#CMR17-34" transform="translate(264.168806 0) scale(0.996264)"/>
     </g>
    </g>
    <g id="line2d_58">
     <path d="M 46.361754 328.850736 
L 55.361754 328.850736 
L 64.361754 328.850736 
" style="fill: none; stroke: #ff7f0e; stroke-width: 1.5; stroke-linecap: square"/>
    </g>
    <g id="text_27">
     <!-- $\omega=7.0$ -->
     <g transform="translate(71.561754 332.000736) scale(0.09 -0.09)">
      <defs>
       <path id="CMR17-37" d="M 2886 3955 
L 2886 4096 
L 1382 4096 
C 634 4096 621 4166 595 4288 
L 480 4288 
L 294 3104 
L 410 3104 
C 429 3226 474 3552 550 3673 
C 589 3724 1062 3724 1171 3724 
L 2579 3724 
L 1869 2670 
C 1395 1961 1069 1003 1069 166 
C 1069 89 1069 -128 1299 -128 
C 1530 -128 1530 89 1530 172 
L 1530 466 
C 1530 1514 1709 2204 2003 2644 
L 2886 3955 
z
" transform="scale(0.015625)"/>
      </defs>
      <use xlink:href="#CMMI12-21" transform="scale(0.996264)"/>
      <use xlink:href="#CMR17-3d" transform="translate(91.992355 0) scale(0.996264)"/>
      <use xlink:href="#CMR17-37" transform="translate(191.381152 0) scale(0.996264)"/>
      <use xlink:href="#CMMI12-3a" transform="translate(237.071629 0) scale(0.996264)"/>
      <use xlink:href="#CMR17-30" transform="translate(264.168806 0) scale(0.996264)"/>
     </g>
    </g>
    <g id="line2d_59">
     <path d="M 46.361754 341.394198 
L 55.361754 341.394198 
L 64.361754 341.394198 
" style="fill: none; stroke: #2ca02c; stroke-width: 1.5; stroke-linecap: square"/>
    </g>
    <g id="text_28">
     <!-- $\omega=14.3$ -->
     <g transform="translate(71.561754 344.544198) scale(0.09 -0.09)">
      <defs>
       <path id="CMR17-33" d="M 1414 2176 
C 1984 2176 2234 1673 2234 1094 
C 2234 322 1824 25 1453 25 
C 1114 25 563 193 390 691 
C 422 678 454 678 486 678 
C 640 678 755 780 755 947 
C 755 1132 614 1216 486 1216 
C 378 1216 211 1164 211 927 
C 211 335 787 -128 1466 -128 
C 2176 -128 2720 432 2720 1087 
C 2720 1718 2208 2176 1600 2246 
C 2086 2347 2554 2776 2554 3353 
C 2554 3856 2048 4224 1472 4224 
C 890 4224 378 3862 378 3347 
C 378 3123 544 3084 627 3084 
C 762 3084 877 3167 877 3334 
C 877 3500 762 3584 627 3584 
C 602 3584 570 3584 544 3571 
C 730 3999 1235 4076 1459 4076 
C 1683 4076 2106 3966 2106 3347 
C 2106 3167 2080 2851 1862 2574 
C 1670 2329 1453 2316 1242 2297 
C 1210 2297 1062 2284 1037 2284 
C 992 2278 966 2272 966 2227 
C 966 2182 973 2176 1101 2176 
L 1414 2176 
z
" transform="scale(0.015625)"/>
      </defs>
      <use xlink:href="#CMMI12-21" transform="scale(0.996264)"/>
      <use xlink:href="#CMR17-3d" transform="translate(91.992355 0) scale(0.996264)"/>
      <use xlink:href="#CMR17-31" transform="translate(191.381152 0) scale(0.996264)"/>
      <use xlink:href="#CMR17-34" transform="translate(237.071629 0) scale(0.996264)"/>
      <use xlink:href="#CMMI12-3a" transform="translate(282.762106 0) scale(0.996264)"/>
      <use xlink:href="#CMR17-33" transform="translate(309.859283 0) scale(0.996264)"/>
     </g>
    </g>
    <g id="line2d_60">
     <path d="M 46.361754 353.93766 
L 55.361754 353.93766 
L 64.361754 353.93766 
" style="fill: none; stroke: #d62728; stroke-width: 1.5; stroke-linecap: square"/>
    </g>
    <g id="text_29">
     <!-- $\omega=49.2$ -->
     <g transform="translate(71.561754 357.08766) scale(0.09 -0.09)">
      <defs>
       <path id="CMR17-39" d="M 2253 1871 
C 2253 448 1670 25 1190 25 
C 1043 25 685 43 538 281 
C 704 256 826 345 826 505 
C 826 678 685 736 595 736 
C 538 736 365 710 365 492 
C 365 68 742 -128 1203 -128 
C 1939 -128 2688 665 2688 2090 
C 2688 3857 1971 4224 1485 4224 
C 851 4224 243 3664 243 2800 
C 243 2000 762 1408 1414 1408 
C 1952 1408 2189 1910 2253 2122 
L 2253 1871 
z
M 1427 1510 
C 1254 1510 1011 1542 813 1929 
C 678 2181 678 2477 678 2793 
C 678 3174 678 3438 858 3722 
C 947 3857 1114 4076 1485 4076 
C 2240 4076 2240 2909 2240 2651 
C 2240 2193 2035 1510 1427 1510 
z
" transform="scale(0.015625)"/>
      </defs>
      <use xlink:href="#CMMI12-21" transform="scale(0.996264)"/>
      <use xlink:href="#CMR17-3d" transform="translate(91.992355 0) scale(0.996264)"/>
      <use xlink:href="#CMR17-34" transform="translate(191.381152 0) scale(0.996264)"/>
      <use xlink:href="#CMR17-39" transform="translate(237.071629 0) scale(0.996264)"/>
      <use xlink:href="#CMMI12-3a" transform="translate(282.762106 0) scale(0.996264)"/>
      <use xlink:href="#CMR17-32" transform="translate(309.859283 0) scale(0.996264)"/>
     </g>
    </g>
    <g id="line2d_61">
     <path d="M 46.361754 366.481122 
L 55.361754 366.481122 
L 64.361754 366.481122 
" style="fill: none; stroke: #9467bd; stroke-width: 1.5; stroke-linecap: square"/>
    </g>
    <g id="text_30">
     <!-- $\omega=100.0$ -->
     <g transform="translate(71.561754 369.631122) scale(0.09 -0.09)">
      <use xlink:href="#CMMI12-21" transform="scale(0.996264)"/>
      <use xlink:href="#CMR17-3d" transform="translate(91.992355 0) scale(0.996264)"/>
      <use xlink:href="#CMR17-31" transform="translate(191.381152 0) scale(0.996264)"/>
      <use xlink:href="#CMR17-30" transform="translate(237.071629 0) scale(0.996264)"/>
      <use xlink:href="#CMR17-30" transform="translate(282.762106 0) scale(0.996264)"/>
      <use xlink:href="#CMMI12-3a" transform="translate(328.452583 0) scale(0.996264)"/>
      <use xlink:href="#CMR17-30" transform="translate(355.54976 0) scale(0.996264)"/>
     </g>
    </g>
    <g id="line2d_62">
     <path d="M 46.361754 379.024584 
L 55.361754 379.024584 
L 64.361754 379.024584 
" style="fill: none; stroke-dasharray: 5.55,2.4; stroke-dashoffset: 0; stroke: #ff0000; stroke-width: 1.5"/>
    </g>
    <g id="text_31">
     <!-- $N^{-1}$ -->
     <g transform="translate(71.561754 382.174584) scale(0.09 -0.09)">
      <defs>
       <path id="CMSY10-0" d="M 4218 1472 
C 4326 1472 4442 1472 4442 1600 
C 4442 1728 4326 1728 4218 1728 
L 755 1728 
C 646 1728 531 1728 531 1600 
C 531 1472 646 1472 755 1472 
L 4218 1472 
z
" transform="scale(0.015625)"/>
      </defs>
      <use xlink:href="#CMMI12-4e" transform="scale(0.996264)"/>
      <use xlink:href="#CMSY10-0" transform="translate(88.521773 36.153639) scale(0.697382)"/>
      <use xlink:href="#CMR17-31" transform="translate(142.762766 36.153639) scale(0.697382)"/>
     </g>
    </g>
   </g>
  </g>
 </g>
 <defs>
  <clipPath id="pdd20bdec5f">
   <rect x="39.141628" y="0" width="358.96829" height="206.03532"/>
  </clipPath>
  <clipPath id="p7e360f351d">
   <rect x="39.141628" y="245.52" width="358.96829" height="206.03532"/>
  </clipPath>
 </defs>
</svg>
