<?xml version="1.0" encoding="utf-8" standalone="no"?>
<!DOCTYPE svg PUBLIC "-//W3C//DTD SVG 1.1//EN"
  "http://www.w3.org/Graphics/SVG/1.1/DTD/svg11.dtd">
<svg xmlns:xlink="http://www.w3.org/1999/xlink" width="432pt" height="432pt" viewBox="0 0 432 432" xmlns="http://www.w3.org/2000/svg" version="1.1">
 <metadata>
  <rdf:RDF xmlns:dc="http://purl.org/dc/elements/1.1/" xmlns:cc="http://creativecommons.org/ns#" xmlns:rdf="http://www.w3.org/1999/02/22-rdf-syntax-ns#">
   <cc:Work>
    <dc:type rdf:resource="http://purl.org/dc/dcmitype/StillImage"/>
    <dc:date>2023-06-25T11:38:09.744380</dc:date>
    <dc:format>image/svg+xml</dc:format>
    <dc:creator>
     <cc:Agent>
      <dc:title>Matplotlib v3.7.1, https://matplotlib.org/</dc:title>
     </cc:Agent>
    </dc:creator>
   </cc:Work>
  </rdf:RDF>
 </metadata>
 <defs>
  <style type="text/css">*{stroke-linejoin: round; stroke-linecap: butt}</style>
 </defs>
 <g id="figure_1">
  <g id="patch_1">
   <path d="M 0 432 
L 432 432 
L 432 0 
L 0 0 
z
" style="fill: #ffffff"/>
  </g>
  <g id="axes_1">
   <g id="patch_2">
    <path d="M 69.583057 176.14419 
L 407.542898 176.14419 
L 407.542898 15.12 
L 69.583057 15.12 
z
" style="fill: #ffffff"/>
   </g>
   <g id="matplotlib.axis_1">
    <g id="xtick_1">
     <g id="line2d_1">
      <defs>
       <path id="m7f98fee2ca" d="M 0 0 
L 0 -3.5 
" style="stroke: #000000; stroke-width: 0.8"/>
      </defs>
      <g>
       <use xlink:href="#m7f98fee2ca" x="69.583057" y="176.14419" style="stroke: #000000; stroke-width: 0.8"/>
      </g>
     </g>
     <g id="text_1">
      <!-- $\mathdefault{10^{0}}$ -->
      <g transform="translate(60.245955 189.330067) scale(0.14 -0.14)">
       <defs>
        <path id="CMR17-31" d="M 1702 4083 
C 1702 4217 1696 4224 1606 4224 
C 1357 3927 979 3833 621 3820 
C 602 3820 570 3820 563 3808 
C 557 3795 557 3782 557 3648 
C 755 3648 1088 3686 1344 3839 
L 1344 467 
C 1344 243 1331 166 781 166 
L 589 166 
L 589 0 
C 896 6 1216 12 1523 12 
C 1830 12 2150 6 2458 0 
L 2458 166 
L 2266 166 
C 1715 166 1702 236 1702 467 
L 1702 4083 
z
" transform="scale(0.015625)"/>
        <path id="CMR17-30" d="M 2688 2038 
C 2688 2430 2682 3099 2413 3613 
C 2176 4063 1798 4224 1466 4224 
C 1158 4224 768 4082 525 3620 
C 269 3137 243 2539 243 2038 
C 243 1671 250 1112 448 623 
C 723 -39 1216 -128 1466 -128 
C 1760 -128 2208 -7 2470 604 
C 2662 1048 2688 1568 2688 2038 
z
M 1466 -26 
C 1056 -26 813 328 723 816 
C 653 1196 653 1749 653 2109 
C 653 2604 653 3015 736 3407 
C 858 3954 1216 4121 1466 4121 
C 1728 4121 2067 3947 2189 3420 
C 2272 3054 2278 2623 2278 2109 
C 2278 1691 2278 1176 2202 797 
C 2067 96 1690 -26 1466 -26 
z
" transform="scale(0.015625)"/>
       </defs>
       <use xlink:href="#CMR17-31" transform="scale(0.996264)"/>
       <use xlink:href="#CMR17-30" transform="translate(45.690477 0) scale(0.996264)"/>
       <use xlink:href="#CMR17-30" transform="translate(91.380954 36.153639) scale(0.697382)"/>
      </g>
     </g>
    </g>
    <g id="xtick_2">
     <g id="line2d_2">
      <g>
       <use xlink:href="#m7f98fee2ca" x="238.562978" y="176.14419" style="stroke: #000000; stroke-width: 0.8"/>
      </g>
     </g>
     <g id="text_2">
      <!-- $\mathdefault{10^{1}}$ -->
      <g transform="translate(229.225876 189.330067) scale(0.14 -0.14)">
       <use xlink:href="#CMR17-31" transform="scale(0.996264)"/>
       <use xlink:href="#CMR17-30" transform="translate(45.690477 0) scale(0.996264)"/>
       <use xlink:href="#CMR17-31" transform="translate(91.380954 36.153639) scale(0.697382)"/>
      </g>
     </g>
    </g>
    <g id="xtick_3">
     <g id="line2d_3">
      <g>
       <use xlink:href="#m7f98fee2ca" x="407.542898" y="176.14419" style="stroke: #000000; stroke-width: 0.8"/>
      </g>
     </g>
     <g id="text_3">
      <!-- $\mathdefault{10^{2}}$ -->
      <g transform="translate(398.205796 189.330067) scale(0.14 -0.14)">
       <defs>
        <path id="CMR17-32" d="M 2669 990 
L 2554 990 
C 2490 537 2438 460 2413 422 
C 2381 371 1920 371 1830 371 
L 602 371 
C 832 620 1280 1073 1824 1596 
C 2214 1966 2669 2400 2669 3033 
C 2669 3788 2067 4224 1395 4224 
C 691 4224 262 3603 262 3027 
C 262 2777 448 2745 525 2745 
C 589 2745 781 2783 781 3007 
C 781 3206 614 3264 525 3264 
C 486 3264 448 3257 422 3244 
C 544 3788 915 4057 1306 4057 
C 1862 4057 2227 3616 2227 3033 
C 2227 2477 1901 1998 1536 1583 
L 262 147 
L 262 0 
L 2515 0 
L 2669 990 
z
" transform="scale(0.015625)"/>
       </defs>
       <use xlink:href="#CMR17-31" transform="scale(0.996264)"/>
       <use xlink:href="#CMR17-30" transform="translate(45.690477 0) scale(0.996264)"/>
       <use xlink:href="#CMR17-32" transform="translate(91.380954 36.153639) scale(0.697382)"/>
      </g>
     </g>
    </g>
    <g id="xtick_4">
     <g id="line2d_4">
      <defs>
       <path id="mde7a392dee" d="M 0 0 
L 0 -2 
" style="stroke: #000000; stroke-width: 0.6"/>
      </defs>
      <g>
       <use xlink:href="#mde7a392dee" x="120.451082" y="176.14419" style="stroke: #000000; stroke-width: 0.6"/>
      </g>
     </g>
    </g>
    <g id="xtick_5">
     <g id="line2d_5">
      <g>
       <use xlink:href="#mde7a392dee" x="150.206969" y="176.14419" style="stroke: #000000; stroke-width: 0.6"/>
      </g>
     </g>
    </g>
    <g id="xtick_6">
     <g id="line2d_6">
      <g>
       <use xlink:href="#mde7a392dee" x="171.319107" y="176.14419" style="stroke: #000000; stroke-width: 0.6"/>
      </g>
     </g>
    </g>
    <g id="xtick_7">
     <g id="line2d_7">
      <g>
       <use xlink:href="#mde7a392dee" x="187.694953" y="176.14419" style="stroke: #000000; stroke-width: 0.6"/>
      </g>
     </g>
    </g>
    <g id="xtick_8">
     <g id="line2d_8">
      <g>
       <use xlink:href="#mde7a392dee" x="201.074994" y="176.14419" style="stroke: #000000; stroke-width: 0.6"/>
      </g>
     </g>
    </g>
    <g id="xtick_9">
     <g id="line2d_9">
      <g>
       <use xlink:href="#mde7a392dee" x="212.387657" y="176.14419" style="stroke: #000000; stroke-width: 0.6"/>
      </g>
     </g>
    </g>
    <g id="xtick_10">
     <g id="line2d_10">
      <g>
       <use xlink:href="#mde7a392dee" x="222.187131" y="176.14419" style="stroke: #000000; stroke-width: 0.6"/>
      </g>
     </g>
    </g>
    <g id="xtick_11">
     <g id="line2d_11">
      <g>
       <use xlink:href="#mde7a392dee" x="230.830881" y="176.14419" style="stroke: #000000; stroke-width: 0.6"/>
      </g>
     </g>
    </g>
    <g id="xtick_12">
     <g id="line2d_12">
      <g>
       <use xlink:href="#mde7a392dee" x="289.431002" y="176.14419" style="stroke: #000000; stroke-width: 0.6"/>
      </g>
     </g>
    </g>
    <g id="xtick_13">
     <g id="line2d_13">
      <g>
       <use xlink:href="#mde7a392dee" x="319.186889" y="176.14419" style="stroke: #000000; stroke-width: 0.6"/>
      </g>
     </g>
    </g>
    <g id="xtick_14">
     <g id="line2d_14">
      <g>
       <use xlink:href="#mde7a392dee" x="340.299027" y="176.14419" style="stroke: #000000; stroke-width: 0.6"/>
      </g>
     </g>
    </g>
    <g id="xtick_15">
     <g id="line2d_15">
      <g>
       <use xlink:href="#mde7a392dee" x="356.674873" y="176.14419" style="stroke: #000000; stroke-width: 0.6"/>
      </g>
     </g>
    </g>
    <g id="xtick_16">
     <g id="line2d_16">
      <g>
       <use xlink:href="#mde7a392dee" x="370.054914" y="176.14419" style="stroke: #000000; stroke-width: 0.6"/>
      </g>
     </g>
    </g>
    <g id="xtick_17">
     <g id="line2d_17">
      <g>
       <use xlink:href="#mde7a392dee" x="381.367577" y="176.14419" style="stroke: #000000; stroke-width: 0.6"/>
      </g>
     </g>
    </g>
    <g id="xtick_18">
     <g id="line2d_18">
      <g>
       <use xlink:href="#mde7a392dee" x="391.167052" y="176.14419" style="stroke: #000000; stroke-width: 0.6"/>
      </g>
     </g>
    </g>
    <g id="xtick_19">
     <g id="line2d_19">
      <g>
       <use xlink:href="#mde7a392dee" x="399.810801" y="176.14419" style="stroke: #000000; stroke-width: 0.6"/>
      </g>
     </g>
    </g>
    <g id="text_4">
     <!-- $\omega$ -->
     <g transform="translate(234.310917 205.727972) scale(0.14 -0.14)">
      <defs>
       <path id="CMMI12-21" d="M 3802 2406 
C 3802 2592 3750 2828 3526 2828 
C 3398 2828 3251 2668 3251 2540 
C 3251 2483 3277 2444 3328 2387 
C 3424 2278 3546 2105 3546 1804 
C 3546 1574 3405 1209 3302 1011 
C 3123 659 2829 358 2496 358 
C 2093 358 1939 614 1869 972 
C 1939 1139 2086 1555 2086 1721 
C 2086 1792 2061 1849 1978 1849 
C 1933 1849 1882 1824 1850 1772 
C 1760 1632 1677 1126 1683 992 
C 1562 755 1216 358 806 358 
C 378 358 262 736 262 1100 
C 262 1766 678 2348 794 2508 
C 858 2604 902 2668 902 2681 
C 902 2726 877 2796 819 2796 
C 717 2796 685 2713 634 2636 
C 307 2131 77 1420 77 806 
C 77 409 224 -64 704 -64 
C 1235 -64 1568 390 1702 633 
C 1754 275 1946 -64 2413 -64 
C 2899 -64 3206 364 3437 883 
C 3603 1254 3802 2054 3802 2406 
z
" transform="scale(0.015625)"/>
      </defs>
      <use xlink:href="#CMMI12-21" transform="scale(0.996264)"/>
     </g>
    </g>
   </g>
   <g id="matplotlib.axis_2">
    <g id="ytick_1">
     <g id="line2d_20">
      <defs>
       <path id="m7e9db21abd" d="M 0 0 
L 3.5 0 
" style="stroke: #000000; stroke-width: 0.8"/>
      </defs>
      <g>
       <use xlink:href="#m7e9db21abd" x="69.583057" y="162.725508" style="stroke: #000000; stroke-width: 0.8"/>
      </g>
     </g>
     <g id="text_5">
      <!-- $\mathdefault{0.00}$ -->
      <g transform="translate(41.803987 167.568446) scale(0.14 -0.14)">
       <defs>
        <path id="CMMI12-3a" d="M 1178 307 
C 1178 492 1024 620 870 620 
C 685 620 557 467 557 313 
C 557 128 710 0 864 0 
C 1050 0 1178 153 1178 307 
z
" transform="scale(0.015625)"/>
       </defs>
       <use xlink:href="#CMR17-30" transform="scale(0.996264)"/>
       <use xlink:href="#CMMI12-3a" transform="translate(45.690477 0) scale(0.996264)"/>
       <use xlink:href="#CMR17-30" transform="translate(72.787654 0) scale(0.996264)"/>
       <use xlink:href="#CMR17-30" transform="translate(118.478131 0) scale(0.996264)"/>
      </g>
     </g>
    </g>
    <g id="ytick_2">
     <g id="line2d_21">
      <g>
       <use xlink:href="#m7e9db21abd" x="69.583057" y="129.178801" style="stroke: #000000; stroke-width: 0.8"/>
      </g>
     </g>
     <g id="text_6">
      <!-- $\mathdefault{0.25}$ -->
      <g transform="translate(41.803987 134.02174) scale(0.14 -0.14)">
       <defs>
        <path id="CMR17-35" d="M 730 3750 
C 794 3724 1056 3641 1325 3641 
C 1920 3641 2246 3961 2432 4140 
C 2432 4191 2432 4224 2394 4224 
C 2387 4224 2374 4224 2323 4198 
C 2099 4102 1837 4032 1517 4032 
C 1325 4032 1037 4055 723 4191 
C 653 4224 640 4224 634 4224 
C 602 4224 595 4217 595 4090 
L 595 2231 
C 595 2113 595 2080 659 2080 
C 691 2080 704 2093 736 2139 
C 941 2435 1222 2560 1542 2560 
C 1766 2560 2246 2415 2246 1293 
C 2246 1087 2246 716 2054 422 
C 1894 159 1645 25 1370 25 
C 947 25 518 319 403 812 
C 429 806 480 793 506 793 
C 589 793 749 838 749 1036 
C 749 1209 627 1280 506 1280 
C 358 1280 262 1190 262 1011 
C 262 454 704 -128 1382 -128 
C 2042 -128 2669 441 2669 1267 
C 2669 2054 2170 2662 1549 2662 
C 1222 2662 947 2540 730 2304 
L 730 3750 
z
" transform="scale(0.015625)"/>
       </defs>
       <use xlink:href="#CMR17-30" transform="scale(0.996264)"/>
       <use xlink:href="#CMMI12-3a" transform="translate(45.690477 0) scale(0.996264)"/>
       <use xlink:href="#CMR17-32" transform="translate(72.787654 0) scale(0.996264)"/>
       <use xlink:href="#CMR17-35" transform="translate(118.478131 0) scale(0.996264)"/>
      </g>
     </g>
    </g>
    <g id="ytick_3">
     <g id="line2d_22">
      <g>
       <use xlink:href="#m7e9db21abd" x="69.583057" y="95.632095" style="stroke: #000000; stroke-width: 0.8"/>
      </g>
     </g>
     <g id="text_7">
      <!-- $\mathdefault{0.50}$ -->
      <g transform="translate(41.803987 100.475033) scale(0.14 -0.14)">
       <use xlink:href="#CMR17-30" transform="scale(0.996264)"/>
       <use xlink:href="#CMMI12-3a" transform="translate(45.690477 0) scale(0.996264)"/>
       <use xlink:href="#CMR17-35" transform="translate(72.787654 0) scale(0.996264)"/>
       <use xlink:href="#CMR17-30" transform="translate(118.478131 0) scale(0.996264)"/>
      </g>
     </g>
    </g>
    <g id="ytick_4">
     <g id="line2d_23">
      <g>
       <use xlink:href="#m7e9db21abd" x="69.583057" y="62.085389" style="stroke: #000000; stroke-width: 0.8"/>
      </g>
     </g>
     <g id="text_8">
      <!-- $\mathdefault{0.75}$ -->
      <g transform="translate(41.803987 66.928327) scale(0.14 -0.14)">
       <defs>
        <path id="CMR17-37" d="M 2886 3955 
L 2886 4096 
L 1382 4096 
C 634 4096 621 4166 595 4288 
L 480 4288 
L 294 3104 
L 410 3104 
C 429 3226 474 3552 550 3673 
C 589 3724 1062 3724 1171 3724 
L 2579 3724 
L 1869 2670 
C 1395 1961 1069 1003 1069 166 
C 1069 89 1069 -128 1299 -128 
C 1530 -128 1530 89 1530 172 
L 1530 466 
C 1530 1514 1709 2204 2003 2644 
L 2886 3955 
z
" transform="scale(0.015625)"/>
       </defs>
       <use xlink:href="#CMR17-30" transform="scale(0.996264)"/>
       <use xlink:href="#CMMI12-3a" transform="translate(45.690477 0) scale(0.996264)"/>
       <use xlink:href="#CMR17-37" transform="translate(72.787654 0) scale(0.996264)"/>
       <use xlink:href="#CMR17-35" transform="translate(118.478131 0) scale(0.996264)"/>
      </g>
     </g>
    </g>
    <g id="ytick_5">
     <g id="line2d_24">
      <g>
       <use xlink:href="#m7e9db21abd" x="69.583057" y="28.538683" style="stroke: #000000; stroke-width: 0.8"/>
      </g>
     </g>
     <g id="text_9">
      <!-- $\mathdefault{1.00}$ -->
      <g transform="translate(41.803987 33.381621) scale(0.14 -0.14)">
       <use xlink:href="#CMR17-31" transform="scale(0.996264)"/>
       <use xlink:href="#CMMI12-3a" transform="translate(45.690477 0) scale(0.996264)"/>
       <use xlink:href="#CMR17-30" transform="translate(72.787654 0) scale(0.996264)"/>
       <use xlink:href="#CMR17-30" transform="translate(118.478131 0) scale(0.996264)"/>
      </g>
     </g>
    </g>
    <g id="text_10">
     <!-- $\phi^{}_{{_{{IPR}}}}$ -->
     <g transform="translate(26.189588 108.859098) rotate(-90) scale(0.16 -0.16)">
      <defs>
       <path id="CMMI12-1e" d="M 2752 4358 
C 2752 4416 2707 4416 2688 4416 
C 2630 4416 2624 4403 2598 4294 
L 2253 2924 
C 2234 2841 2227 2835 2221 2828 
C 2214 2816 2170 2809 2157 2809 
C 1107 2720 301 1863 301 1071 
C 301 387 832 -32 1498 -71 
C 1446 -266 1402 -467 1350 -662 
C 1261 -995 1210 -1204 1210 -1229 
C 1210 -1242 1210 -1280 1274 -1280 
C 1293 -1280 1318 -1280 1331 -1255 
C 1344 -1242 1382 -1089 1408 -1008 
L 1645 -71 
C 2739 -13 3571 875 3571 1673 
C 3571 2313 3085 2771 2374 2816 
L 2752 4358 
z
M 2336 2688 
C 2758 2662 3181 2428 3181 1806 
C 3181 1090 2675 140 1677 64 
L 2336 2688 
z
M 1530 57 
C 1216 76 691 241 691 938 
C 691 1737 1274 2624 2195 2681 
L 1530 57 
z
" transform="scale(0.015625)"/>
       <path id="CMMI12-49" d="M 2355 3879 
C 2413 4102 2426 4166 2893 4166 
C 3034 4166 3085 4166 3085 4287 
C 3085 4352 3014 4352 2995 4352 
C 2880 4352 2739 4339 2624 4339 
L 1837 4339 
C 1709 4339 1562 4352 1434 4352 
C 1382 4352 1312 4352 1312 4230 
C 1312 4166 1363 4166 1491 4166 
C 1888 4166 1888 4115 1888 4045 
C 1888 4000 1875 3962 1862 3905 
L 998 472 
C 941 249 928 185 461 185 
C 320 185 262 185 262 64 
C 262 0 326 0 358 0 
C 474 0 614 12 730 12 
L 1517 12 
C 1645 12 1786 0 1914 0 
C 1965 0 2042 0 2042 115 
C 2042 185 2003 185 1862 185 
C 1466 185 1466 236 1466 312 
C 1466 325 1466 357 1491 459 
L 2355 3879 
z
" transform="scale(0.015625)"/>
       <path id="CMMI12-50" d="M 1894 2022 
L 2970 2022 
C 3853 2022 4736 2673 4736 3400 
C 4736 3898 4314 4352 3507 4352 
L 1530 4352 
C 1408 4352 1350 4352 1350 4230 
C 1350 4166 1408 4166 1504 4166 
C 1894 4166 1894 4115 1894 4045 
C 1894 4032 1894 3994 1869 3898 
L 1005 471 
C 947 249 934 185 486 185 
C 365 185 301 185 301 70 
C 301 0 358 0 397 0 
C 518 0 646 12 768 12 
L 1517 12 
C 1638 12 1773 0 1894 0 
C 1946 0 2016 0 2016 121 
C 2016 185 1958 185 1862 185 
C 1478 185 1472 230 1472 293 
C 1472 325 1478 369 1485 401 
L 1894 2022 
z
M 2355 3917 
C 2413 4153 2438 4166 2688 4166 
L 3322 4166 
C 3802 4166 4198 4013 4198 3534 
C 4198 3369 4115 2826 3821 2533 
C 3712 2418 3405 2176 2822 2176 
L 1920 2176 
L 2355 3917 
z
" transform="scale(0.015625)"/>
       <path id="CMMI12-52" d="M 2355 3917 
C 2413 4153 2438 4166 2688 4166 
L 3149 4166 
C 3699 4166 4109 4000 4109 3503 
C 4109 3177 3942 2240 2656 2240 
L 1933 2240 
L 2355 3917 
z
M 3245 2163 
C 4038 2335 4659 2846 4659 3394 
C 4659 3892 4154 4352 3264 4352 
L 1530 4352 
C 1402 4352 1344 4352 1344 4230 
C 1344 4166 1389 4166 1510 4166 
C 1894 4166 1894 4115 1894 4045 
C 1894 4032 1894 3994 1869 3898 
L 1005 475 
C 947 253 934 190 493 190 
C 346 190 301 190 301 69 
C 301 6 371 6 390 6 
C 506 6 640 19 762 19 
L 1517 19 
C 1632 19 1766 6 1882 6 
C 1933 6 2003 6 2003 126 
C 2003 190 1946 190 1850 190 
C 1459 190 1459 241 1459 304 
C 1459 310 1459 355 1472 405 
L 1901 2112 
L 2669 2112 
C 3277 2112 3392 1731 3392 1522 
C 3392 1426 3328 1179 3283 1014 
C 3213 723 3194 653 3194 532 
C 3194 82 3565 -128 3994 -128 
C 4512 -128 4736 501 4736 589 
C 4736 634 4704 653 4666 653 
C 4614 653 4602 615 4589 564 
C 4435 114 4173 0 4013 0 
C 3853 0 3750 69 3750 355 
C 3750 507 3827 1084 3834 1116 
C 3866 1350 3866 1376 3866 1426 
C 3866 1889 3488 2086 3245 2163 
z
" transform="scale(0.015625)"/>
      </defs>
      <use xlink:href="#CMMI12-1e" transform="scale(0.996264)"/>
      <use xlink:href="#CMMI12-49" transform="translate(57.73418 -35.090046) scale(0.498132)"/>
      <use xlink:href="#CMMI12-50" transform="translate(83.16243 -35.090046) scale(0.498132)"/>
      <use xlink:href="#CMMI12-52" transform="translate(121.375333 -35.090046) scale(0.498132)"/>
     </g>
    </g>
   </g>
   <g id="line2d_25">
    <path d="M 69.583057 142.178714 
L 71.281348 136.326138 
L 72.979639 138.17225 
L 74.677929 136.589837 
L 76.37622 72.070519 
L 78.074511 116.850412 
L 79.772801 113.316365 
L 81.471092 137.855424 
L 83.169382 139.756074 
L 84.867673 96.166264 
L 86.565964 143.004656 
L 88.264254 140.346037 
L 89.962545 139.710148 
L 91.660836 138.925406 
L 93.359126 137.800615 
L 95.057417 138.798603 
L 96.755708 138.669154 
L 98.453998 121.442248 
L 100.152289 127.256478 
L 101.85058 125.531742 
L 103.54887 127.197392 
L 105.247161 127.382107 
L 106.945452 132.288107 
L 108.643742 128.869983 
L 110.342033 139.591404 
L 113.738614 140.309252 
L 115.436905 133.718846 
L 117.135196 128.627871 
L 120.531777 129.999268 
L 122.230068 129.187557 
L 123.928358 139.849038 
L 125.626649 138.215621 
L 130.721521 131.834348 
L 132.419812 130.058646 
L 134.118102 128.740014 
L 135.816393 128.508479 
L 137.514684 136.490699 
L 139.212974 135.601074 
L 144.307846 133.899419 
L 146.006137 132.913886 
L 147.704427 106.695801 
L 149.402718 121.239071 
L 151.101009 132.662041 
L 152.799299 113.095531 
L 154.49759 109.251581 
L 156.195881 106.970373 
L 157.894171 106.712586 
L 159.592462 109.266097 
L 161.290753 106.098744 
L 162.989043 129.058497 
L 164.687334 67.268217 
L 166.385625 106.921547 
L 168.083915 106.846774 
L 169.782206 107.118564 
L 171.480497 107.558026 
L 173.178787 107.762855 
L 174.877078 107.189702 
L 176.575369 105.611025 
L 178.273659 90.785294 
L 181.670241 84.067412 
L 183.368531 80.939719 
L 185.066822 95.197137 
L 188.463403 72.006762 
L 190.161694 83.95721 
L 191.859985 75.797328 
L 193.558275 69.013814 
L 195.256566 65.101056 
L 198.653147 60.488088 
L 202.049729 56.52544 
L 203.748019 38.813345 
L 205.44631 37.687663 
L 207.1446 36.71855 
L 208.842891 35.885367 
L 210.541182 35.184347 
L 212.239472 46.073848 
L 213.937763 33.885394 
L 215.636054 45.535126 
L 217.334344 42.807412 
L 219.032635 41.885597 
L 220.730926 42.737139 
L 222.429216 41.932275 
L 224.127507 39.540346 
L 227.524088 38.23761 
L 230.92067 37.118345 
L 236.015542 35.713866 
L 237.713832 35.307098 
L 239.412123 33.372967 
L 244.506995 32.566699 
L 251.300158 31.725687 
L 252.998448 31.548661 
L 254.696739 30.327522 
L 256.39503 30.225061 
L 258.09332 29.310704 
L 273.377936 28.998933 
L 281.869389 28.889539 
L 283.56768 28.667008 
L 336.21469 28.565263 
L 407.542898 28.542355 
L 407.542898 28.542355 
" clip-path="url(#p3ef6bb589d)" style="fill: none; stroke-dasharray: 1.5,2.475; stroke-dashoffset: 0; stroke: #1f77b4; stroke-width: 1.5"/>
   </g>
   <g id="line2d_26">
    <path d="M 69.583057 145.454601 
L 71.281348 151.02089 
L 72.979639 153.340067 
L 74.677929 150.973282 
L 76.37622 150.257364 
L 78.074511 151.225007 
L 79.772801 153.151688 
L 83.169382 150.136145 
L 84.867673 148.584216 
L 86.565964 150.747471 
L 88.264254 149.726627 
L 89.962545 153.726552 
L 91.660836 149.394031 
L 93.359126 152.553903 
L 95.057417 149.931224 
L 96.755708 148.932109 
L 98.453998 139.871261 
L 100.152289 147.553807 
L 101.85058 149.632293 
L 103.54887 144.867102 
L 105.247161 146.859534 
L 106.945452 143.047549 
L 108.643742 148.582262 
L 110.342033 151.602864 
L 112.040324 148.110117 
L 113.738614 152.96465 
L 115.436905 149.416409 
L 117.135196 151.07609 
L 118.833486 148.608142 
L 120.531777 143.297702 
L 122.230068 127.743644 
L 123.928358 142.869918 
L 125.626649 151.762739 
L 127.32494 147.742499 
L 129.02323 146.201876 
L 130.721521 144.246321 
L 132.419812 144.314766 
L 134.118102 144.5931 
L 135.816393 143.988336 
L 137.514684 133.572895 
L 139.212974 146.803202 
L 140.911265 127.292411 
L 142.609556 122.678319 
L 144.307846 146.857088 
L 146.006137 142.22739 
L 147.704427 145.664681 
L 149.402718 116.202582 
L 151.101009 146.116828 
L 152.799299 122.370618 
L 154.49759 143.616243 
L 156.195881 141.095814 
L 157.894171 122.703846 
L 159.592462 123.076566 
L 161.290753 141.121907 
L 162.989043 139.691185 
L 164.687334 121.922864 
L 166.385625 141.193988 
L 168.083915 137.674259 
L 169.782206 119.29469 
L 171.480497 114.776624 
L 173.178787 125.509081 
L 174.877078 129.618331 
L 176.575369 125.821344 
L 178.273659 121.398806 
L 179.97195 126.510018 
L 181.670241 126.637207 
L 183.368531 125.410623 
L 185.066822 124.474736 
L 186.765113 126.848458 
L 188.463403 123.463353 
L 190.161694 125.53048 
L 191.859985 129.543791 
L 193.558275 125.258352 
L 195.256566 124.847441 
L 196.954857 120.078539 
L 198.653147 123.785736 
L 200.351438 121.933685 
L 202.049729 120.558973 
L 203.748019 118.819296 
L 205.44631 116.253116 
L 207.1446 116.057227 
L 208.842891 114.192021 
L 210.541182 112.666978 
L 212.239472 99.699274 
L 213.937763 108.635989 
L 215.636054 107.115605 
L 217.334344 104.565299 
L 219.032635 102.950574 
L 220.730926 100.919922 
L 222.429216 99.263049 
L 224.127507 96.209833 
L 225.825798 82.971013 
L 227.524088 92.052935 
L 229.222379 89.038865 
L 230.92067 87.974307 
L 234.317251 81.708188 
L 236.015542 64.605425 
L 237.713832 79.108529 
L 239.412123 78.345151 
L 241.110414 76.538686 
L 242.808704 73.669453 
L 244.506995 71.952326 
L 246.205286 69.008442 
L 247.903576 67.401472 
L 249.601867 64.435465 
L 251.300158 65.578226 
L 252.998448 60.017196 
L 254.696739 62.686417 
L 256.39503 61.312784 
L 258.09332 58.835933 
L 259.791611 54.956523 
L 261.489902 55.150813 
L 263.188192 52.719429 
L 264.886483 51.668637 
L 266.584773 49.342393 
L 269.981355 47.535498 
L 271.679645 47.883895 
L 275.076227 46.221293 
L 276.774517 44.368398 
L 278.472808 43.661191 
L 280.171099 41.932207 
L 281.869389 41.325713 
L 283.56768 39.73113 
L 285.265971 39.218314 
L 286.964261 40.565745 
L 290.360843 37.81708 
L 292.059133 37.392719 
L 293.757424 36.173058 
L 295.455715 35.820877 
L 297.154005 34.726644 
L 302.248877 33.90453 
L 303.947168 33.019267 
L 305.645459 33.419034 
L 307.343749 33.19354 
L 310.740331 31.717283 
L 315.835203 31.292941 
L 317.533493 30.73996 
L 319.231784 30.637344 
L 320.930075 30.168608 
L 324.326656 30.020219 
L 326.024946 29.648499 
L 327.723237 29.596635 
L 329.421528 29.294934 
L 337.912981 29.134176 
L 339.611272 28.938147 
L 351.499306 28.722207 
L 353.197597 28.635976 
L 354.895888 28.705662 
L 358.292469 28.623128 
L 407.542898 28.542015 
L 407.542898 28.542015 
" clip-path="url(#p3ef6bb589d)" style="fill: none; stroke-dasharray: 5.55,2.4; stroke-dashoffset: 0; stroke: #ff7f0e; stroke-width: 1.5"/>
   </g>
   <g id="line2d_27">
    <path d="M 69.583057 153.672621 
L 71.281348 154.931671 
L 72.979639 154.928622 
L 74.677929 155.181124 
L 76.37622 156.643209 
L 78.074511 153.934996 
L 79.772801 154.680477 
L 81.471092 154.578649 
L 83.169382 154.83962 
L 84.867673 154.134851 
L 86.565964 153.919877 
L 88.264254 153.955794 
L 89.962545 156.607474 
L 91.660836 153.25605 
L 93.359126 155.738144 
L 95.057417 154.543266 
L 96.755708 150.410977 
L 98.453998 152.668753 
L 100.152289 152.947449 
L 101.85058 155.463892 
L 103.54887 154.594419 
L 105.247161 151.368818 
L 106.945452 155.206053 
L 108.643742 154.303234 
L 110.342033 154.052693 
L 112.040324 155.138483 
L 113.738614 148.636303 
L 115.436905 153.929608 
L 117.135196 155.895203 
L 118.833486 151.087242 
L 120.531777 152.358533 
L 122.230068 147.163145 
L 125.626649 155.851239 
L 127.32494 154.50186 
L 129.02323 150.18305 
L 130.721521 153.971427 
L 132.419812 153.017391 
L 134.118102 152.275405 
L 135.816393 153.087171 
L 137.514684 149.884268 
L 139.212974 148.912004 
L 140.911265 148.60639 
L 142.609556 147.43473 
L 144.307846 152.439662 
L 146.006137 145.73743 
L 147.704427 152.339015 
L 149.402718 140.872403 
L 151.101009 145.064064 
L 152.799299 138.11014 
L 154.49759 151.180366 
L 156.195881 145.30615 
L 157.894171 138.070482 
L 159.592462 137.421086 
L 161.290753 144.488329 
L 162.989043 133.473113 
L 164.687334 143.790281 
L 166.385625 147.05608 
L 168.083915 137.409176 
L 169.782206 144.325144 
L 171.480497 137.036118 
L 173.178787 130.899636 
L 174.877078 141.686729 
L 176.575369 135.720221 
L 178.273659 138.588983 
L 179.97195 125.480357 
L 181.670241 138.018053 
L 183.368531 142.564058 
L 185.066822 133.111405 
L 186.765113 135.672594 
L 188.463403 136.632772 
L 190.161694 139.197305 
L 191.859985 129.822003 
L 195.256566 130.847322 
L 196.954857 128.883265 
L 198.653147 128.56732 
L 200.351438 128.60864 
L 202.049729 128.252267 
L 203.748019 128.316153 
L 205.44631 128.054298 
L 215.636054 127.704101 
L 217.334344 126.593705 
L 219.032635 127.317376 
L 220.730926 127.014298 
L 224.127507 126.130406 
L 225.825798 125.545167 
L 230.92067 123.175075 
L 232.61896 122.059579 
L 234.317251 121.18697 
L 236.015542 119.734602 
L 237.713832 118.626555 
L 239.412123 117.048615 
L 241.110414 115.279773 
L 242.808704 114.048876 
L 244.506995 112.088263 
L 246.205286 109.414112 
L 247.903576 107.624193 
L 251.300158 105.079539 
L 252.998448 102.052293 
L 254.696739 101.374881 
L 256.39503 98.238153 
L 258.09332 97.606181 
L 259.791611 92.766496 
L 263.188192 88.921721 
L 264.886483 87.901993 
L 266.584773 85.153583 
L 268.283064 83.306822 
L 269.981355 83.156067 
L 271.679645 79.703131 
L 273.377936 77.950409 
L 275.076227 77.08161 
L 276.774517 73.648025 
L 280.171099 68.494189 
L 281.869389 69.747333 
L 283.56768 69.011301 
L 285.265971 64.103581 
L 286.964261 65.309126 
L 288.662552 61.393222 
L 290.360843 60.969274 
L 292.059133 57.963424 
L 293.757424 57.645403 
L 295.455715 55.641015 
L 297.154005 54.540274 
L 298.852296 54.266387 
L 300.550587 50.82797 
L 302.248877 48.204382 
L 303.947168 47.368421 
L 305.645459 47.36459 
L 307.343749 45.79374 
L 310.740331 44.343194 
L 312.438621 45.663327 
L 314.136912 43.008704 
L 315.835203 41.729878 
L 317.533493 41.154987 
L 320.930075 41.21899 
L 322.628365 39.004255 
L 324.326656 39.086557 
L 327.723237 37.171436 
L 329.421528 36.295957 
L 331.119818 35.94997 
L 332.818109 34.707038 
L 334.5164 35.303306 
L 336.21469 34.165376 
L 337.912981 33.911957 
L 339.611272 34.054076 
L 341.309562 33.806321 
L 343.007853 32.867954 
L 344.706144 32.673059 
L 346.404434 32.167533 
L 348.102725 32.615145 
L 349.801016 32.137949 
L 351.499306 31.976173 
L 353.197597 31.29071 
L 354.895888 31.165753 
L 358.292469 30.484862 
L 359.99076 30.608621 
L 361.68905 30.931282 
L 363.387341 29.86193 
L 365.085632 29.475137 
L 366.783922 29.288112 
L 368.482213 29.25478 
L 370.180504 29.099773 
L 371.878794 29.190265 
L 373.577085 29.049261 
L 375.275376 29.132129 
L 378.671957 28.893581 
L 382.068538 28.943355 
L 385.465119 28.98774 
L 387.16341 28.75549 
L 392.258282 28.634629 
L 399.051445 28.566427 
L 407.542898 28.541955 
L 407.542898 28.541955 
" clip-path="url(#p3ef6bb589d)" style="fill: none; stroke-dasharray: 9.6,2.4,1.5,2.4; stroke-dashoffset: 0; stroke: #2ca02c; stroke-width: 1.5"/>
   </g>
   <g id="line2d_28">
    <path d="M -1 157.86286 
L 4.59078 158.256278 
L 17.589236 158.939624 
L 30.587691 158.647513 
L 43.586146 157.556529 
L 56.584602 159.277399 
L 69.583057 157.394591 
L 82.581513 158.045175 
L 95.579968 158.534111 
L 108.578423 158.419372 
L 121.576879 158.320712 
L 134.575334 157.844995 
L 147.57379 157.275803 
L 160.572245 146.828008 
L 173.570701 145.490602 
L 186.569156 145.737807 
L 199.567611 141.054229 
L 212.566067 140.533002 
L 225.564522 138.353175 
L 238.562978 132.120338 
L 251.561433 128.205629 
L 264.559888 127.5569 
L 277.558344 124.368423 
L 290.556799 114.225097 
L 303.555255 99.351717 
L 316.55371 86.537357 
L 329.552166 67.112342 
L 342.550621 56.686278 
L 355.549076 45.93421 
L 368.547532 39.767225 
L 381.545987 35.595925 
L 394.544443 34.032508 
L 407.542898 31.471795 
" clip-path="url(#p3ef6bb589d)" style="fill: none; stroke: #d62728; stroke-width: 1.5; stroke-linecap: square"/>
   </g>
   <g id="patch_3">
    <path d="M 69.583057 176.14419 
L 69.583057 15.12 
" style="fill: none; stroke: #000000; stroke-width: 0.8; stroke-linejoin: miter; stroke-linecap: square"/>
   </g>
   <g id="patch_4">
    <path d="M 407.542898 176.14419 
L 407.542898 15.12 
" style="fill: none; stroke: #000000; stroke-width: 0.8; stroke-linejoin: miter; stroke-linecap: square"/>
   </g>
   <g id="patch_5">
    <path d="M 69.583057 176.14419 
L 407.542898 176.14419 
" style="fill: none; stroke: #000000; stroke-width: 0.8; stroke-linejoin: miter; stroke-linecap: square"/>
   </g>
   <g id="patch_6">
    <path d="M 69.583057 15.12 
L 407.542898 15.12 
" style="fill: none; stroke: #000000; stroke-width: 0.8; stroke-linejoin: miter; stroke-linecap: square"/>
   </g>
   <g id="legend_1">
    <g id="line2d_29">
     <path d="M 321.668293 103.020942 
L 334.668293 103.020942 
L 347.668293 103.020942 
" style="fill: none; stroke-dasharray: 1.5,2.475; stroke-dashoffset: 0; stroke: #1f77b4; stroke-width: 1.5"/>
    </g>
    <g id="text_11">
     <!-- N=10 -->
     <g transform="translate(358.068293 107.570942) scale(0.13 -0.13)">
      <defs>
       <path id="CMSS17-4e" d="M 1466 4179 
L 1350 4416 
L 563 4416 
L 563 0 
L 1062 0 
L 1062 3925 
L 1069 3931 
C 1114 3817 1139 3759 1402 3193 
L 2771 236 
L 2886 0 
L 3674 0 
L 3674 4416 
L 3174 4416 
L 3174 490 
L 3168 484 
C 3123 598 3098 655 2835 1222 
L 1466 4179 
z
" transform="scale(0.015625)"/>
       <path id="CMSS17-3d" d="M 4147 2048 
C 4243 2048 4339 2048 4339 2156 
C 4339 2272 4230 2272 4122 2272 
L 550 2272 
C 442 2272 333 2272 333 2156 
C 333 2048 429 2048 525 2048 
L 4147 2048 
z
M 4122 927 
C 4230 927 4339 927 4339 1043 
C 4339 1152 4243 1152 4147 1152 
L 525 1152 
C 429 1152 333 1152 333 1043 
C 333 927 442 927 550 927 
L 4122 927 
z
" transform="scale(0.015625)"/>
       <path id="CMSS17-31" d="M 1818 4288 
L 1696 4288 
C 1350 3949 947 3902 538 3891 
L 538 3520 
C 723 3526 1024 3539 1325 3673 
L 1325 371 
L 570 371 
L 570 0 
L 2573 0 
L 2573 371 
L 1818 371 
L 1818 4288 
z
" transform="scale(0.015625)"/>
       <path id="CMSS17-30" d="M 2758 2073 
C 2758 2439 2752 3120 2490 3647 
C 2227 4153 1805 4288 1504 4288 
C 1069 4288 698 4031 506 3621 
C 301 3191 243 2748 243 2073 
C 243 1611 262 1046 493 551 
C 755 6 1197 -128 1498 -128 
C 1894 -128 2278 83 2496 525 
C 2720 988 2758 1495 2758 2073 
z
M 1498 262 
C 1011 262 864 821 819 1007 
C 742 1328 730 1636 730 2144 
C 730 2542 730 2992 851 3345 
C 998 3756 1254 3897 1498 3897 
C 1971 3897 2125 3422 2176 3255 
C 2272 2915 2272 2516 2272 2144 
C 2272 1546 2272 262 1498 262 
z
" transform="scale(0.015625)"/>
      </defs>
      <use xlink:href="#CMSS17-4e" transform="scale(0.996264)"/>
      <use xlink:href="#CMSS17-3d" transform="translate(66.061519 0) scale(0.996264)"/>
      <use xlink:href="#CMSS17-31" transform="translate(138.929454 0) scale(0.996264)"/>
      <use xlink:href="#CMSS17-30" transform="translate(185.773078 0) scale(0.996264)"/>
     </g>
    </g>
    <g id="line2d_30">
     <path d="M 321.668293 121.139254 
L 334.668293 121.139254 
L 347.668293 121.139254 
" style="fill: none; stroke-dasharray: 5.55,2.4; stroke-dashoffset: 0; stroke: #ff7f0e; stroke-width: 1.5"/>
    </g>
    <g id="text_12">
     <!-- N=30 -->
     <g transform="translate(358.068293 125.689254) scale(0.13 -0.13)">
      <defs>
       <path id="CMSS17-33" d="M 1005 2060 
L 1440 2060 
C 2042 2060 2214 1532 2214 1164 
C 2214 662 1933 268 1472 268 
C 1114 268 608 449 320 926 
C 275 700 275 687 250 533 
C 550 89 1037 -128 1485 -128 
C 2214 -128 2752 481 2752 1158 
C 2752 1667 2400 2092 1920 2252 
C 2304 2463 2586 2860 2586 3321 
C 2586 3859 2093 4288 1491 4288 
C 941 4288 512 3948 333 3583 
C 378 3519 493 3334 550 3238 
C 691 3615 1056 3897 1485 3897 
C 1843 3897 2080 3660 2080 3321 
C 2080 2969 1856 2585 1478 2496 
C 1453 2496 1056 2457 1005 2451 
L 1005 2060 
z
" transform="scale(0.015625)"/>
      </defs>
      <use xlink:href="#CMSS17-4e" transform="scale(0.996264)"/>
      <use xlink:href="#CMSS17-3d" transform="translate(66.061519 0) scale(0.996264)"/>
      <use xlink:href="#CMSS17-33" transform="translate(138.929454 0) scale(0.996264)"/>
      <use xlink:href="#CMSS17-30" transform="translate(185.773078 0) scale(0.996264)"/>
     </g>
    </g>
    <g id="line2d_31">
     <path d="M 321.668293 139.257566 
L 334.668293 139.257566 
L 347.668293 139.257566 
" style="fill: none; stroke-dasharray: 9.6,2.4,1.5,2.4; stroke-dashoffset: 0; stroke: #2ca02c; stroke-width: 1.5"/>
    </g>
    <g id="text_13">
     <!-- N=50 -->
     <g transform="translate(358.068293 143.807566) scale(0.13 -0.13)">
      <defs>
       <path id="CMSS17-35" d="M 934 3814 
L 2502 3814 
L 2502 4224 
L 467 4224 
L 467 1830 
L 896 1830 
C 1011 2103 1248 2304 1555 2304 
C 1843 2304 2163 2044 2163 1299 
C 2163 502 1709 268 1376 268 
C 966 268 589 521 422 871 
L 218 508 
C 512 51 992 -128 1376 -128 
C 2118 -128 2701 508 2701 1286 
C 2701 2083 2182 2694 1562 2694 
C 1338 2694 1120 2617 934 2464 
L 934 3814 
z
" transform="scale(0.015625)"/>
      </defs>
      <use xlink:href="#CMSS17-4e" transform="scale(0.996264)"/>
      <use xlink:href="#CMSS17-3d" transform="translate(66.061519 0) scale(0.996264)"/>
      <use xlink:href="#CMSS17-35" transform="translate(138.929454 0) scale(0.996264)"/>
      <use xlink:href="#CMSS17-30" transform="translate(185.773078 0) scale(0.996264)"/>
     </g>
    </g>
    <g id="line2d_32">
     <path d="M 321.668293 157.375878 
L 334.668293 157.375878 
L 347.668293 157.375878 
" style="fill: none; stroke: #d62728; stroke-width: 1.5; stroke-linecap: square"/>
    </g>
    <g id="text_14">
     <!-- N=100 -->
     <g transform="translate(358.068293 161.925878) scale(0.13 -0.13)">
      <use xlink:href="#CMSS17-4e" transform="scale(0.996264)"/>
      <use xlink:href="#CMSS17-3d" transform="translate(66.061519 0) scale(0.996264)"/>
      <use xlink:href="#CMSS17-31" transform="translate(138.929454 0) scale(0.996264)"/>
      <use xlink:href="#CMSS17-30" transform="translate(185.773078 0) scale(0.996264)"/>
      <use xlink:href="#CMSS17-30" transform="translate(232.616701 0) scale(0.996264)"/>
     </g>
    </g>
   </g>
  </g>
  <g id="axes_2">
   <g id="patch_7">
    <path d="M 69.583057 384.58419 
L 407.542898 384.58419 
L 407.542898 223.56 
L 69.583057 223.56 
z
" style="fill: #ffffff"/>
   </g>
   <g id="PathCollection_1">
    <defs>
     <path id="m424c91fdcb" d="M 0 3 
C 0.795609 3 1.55874 2.683901 2.12132 2.12132 
C 2.683901 1.55874 3 0.795609 3 0 
C 3 -0.795609 2.683901 -1.55874 2.12132 -2.12132 
C 1.55874 -2.683901 0.795609 -3 0 -3 
C -0.795609 -3 -1.55874 -2.683901 -2.12132 -2.12132 
C -2.683901 -1.55874 -3 -0.795609 -3 0 
C -3 0.795609 -2.683901 1.55874 -2.12132 2.12132 
C -1.55874 2.683901 -0.795609 3 0 3 
z
" style="stroke: #1f77b4"/>
    </defs>
    <g clip-path="url(#pd5099b9ad5)">
     <use xlink:href="#m424c91fdcb" x="84.944868" y="230.879281" style="fill: #1f77b4; stroke: #1f77b4"/>
     <use xlink:href="#m424c91fdcb" x="231.533798" y="313.454086" style="fill: #1f77b4; stroke: #1f77b4"/>
     <use xlink:href="#m424c91fdcb" x="299.693769" y="347.663323" style="fill: #1f77b4; stroke: #1f77b4"/>
     <use xlink:href="#m424c91fdcb" x="392.181087" y="377.264909" style="fill: #1f77b4; stroke: #1f77b4"/>
    </g>
   </g>
   <g id="matplotlib.axis_3">
    <g id="xtick_20">
     <g id="line2d_33">
      <g>
       <use xlink:href="#m7f98fee2ca" x="84.944868" y="384.58419" style="stroke: #000000; stroke-width: 0.8"/>
      </g>
     </g>
     <g id="text_15">
      <!-- $\mathdefault{10^{1}}$ -->
      <g transform="translate(75.607766 397.770067) scale(0.14 -0.14)">
       <use xlink:href="#CMR17-31" transform="scale(0.996264)"/>
       <use xlink:href="#CMR17-30" transform="translate(45.690477 0) scale(0.996264)"/>
       <use xlink:href="#CMR17-31" transform="translate(91.380954 36.153639) scale(0.697382)"/>
      </g>
     </g>
    </g>
    <g id="xtick_21">
     <g id="line2d_34">
      <g>
       <use xlink:href="#m7f98fee2ca" x="392.181087" y="384.58419" style="stroke: #000000; stroke-width: 0.8"/>
      </g>
     </g>
     <g id="text_16">
      <!-- $\mathdefault{10^{2}}$ -->
      <g transform="translate(382.843985 397.770067) scale(0.14 -0.14)">
       <use xlink:href="#CMR17-31" transform="scale(0.996264)"/>
       <use xlink:href="#CMR17-30" transform="translate(45.690477 0) scale(0.996264)"/>
       <use xlink:href="#CMR17-32" transform="translate(91.380954 36.153639) scale(0.697382)"/>
      </g>
     </g>
    </g>
    <g id="xtick_22">
     <g id="line2d_35">
      <g>
       <use xlink:href="#mde7a392dee" x="70.88651" y="384.58419" style="stroke: #000000; stroke-width: 0.6"/>
      </g>
     </g>
    </g>
    <g id="xtick_23">
     <g id="line2d_36">
      <g>
       <use xlink:href="#mde7a392dee" x="177.432186" y="384.58419" style="stroke: #000000; stroke-width: 0.6"/>
      </g>
     </g>
    </g>
    <g id="xtick_24">
     <g id="line2d_37">
      <g>
       <use xlink:href="#mde7a392dee" x="231.533798" y="384.58419" style="stroke: #000000; stroke-width: 0.6"/>
      </g>
     </g>
    </g>
    <g id="xtick_25">
     <g id="line2d_38">
      <g>
       <use xlink:href="#mde7a392dee" x="269.919503" y="384.58419" style="stroke: #000000; stroke-width: 0.6"/>
      </g>
     </g>
    </g>
    <g id="xtick_26">
     <g id="line2d_39">
      <g>
       <use xlink:href="#mde7a392dee" x="299.693769" y="384.58419" style="stroke: #000000; stroke-width: 0.6"/>
      </g>
     </g>
    </g>
    <g id="xtick_27">
     <g id="line2d_40">
      <g>
       <use xlink:href="#mde7a392dee" x="324.021116" y="384.58419" style="stroke: #000000; stroke-width: 0.6"/>
      </g>
     </g>
    </g>
    <g id="xtick_28">
     <g id="line2d_41">
      <g>
       <use xlink:href="#mde7a392dee" x="344.589595" y="384.58419" style="stroke: #000000; stroke-width: 0.6"/>
      </g>
     </g>
    </g>
    <g id="xtick_29">
     <g id="line2d_42">
      <g>
       <use xlink:href="#mde7a392dee" x="362.406821" y="384.58419" style="stroke: #000000; stroke-width: 0.6"/>
      </g>
     </g>
    </g>
    <g id="xtick_30">
     <g id="line2d_43">
      <g>
       <use xlink:href="#mde7a392dee" x="378.122729" y="384.58419" style="stroke: #000000; stroke-width: 0.6"/>
      </g>
     </g>
    </g>
    <g id="text_17">
     <!-- N -->
     <g transform="translate(233.776582 414.167972) scale(0.14 -0.14)">
      <use xlink:href="#CMSS17-4e" transform="scale(0.996264)"/>
     </g>
    </g>
   </g>
   <g id="matplotlib.axis_4">
    <g id="ytick_6">
     <g id="line2d_44">
      <g>
       <use xlink:href="#m7e9db21abd" x="69.583057" y="358.588374" style="stroke: #000000; stroke-width: 0.8"/>
      </g>
     </g>
     <g id="text_18">
      <!-- $\mathdefault{0.05}$ -->
      <g transform="translate(41.803987 363.431312) scale(0.14 -0.14)">
       <use xlink:href="#CMR17-30" transform="scale(0.996264)"/>
       <use xlink:href="#CMMI12-3a" transform="translate(45.690477 0) scale(0.996264)"/>
       <use xlink:href="#CMR17-30" transform="translate(72.787654 0) scale(0.996264)"/>
       <use xlink:href="#CMR17-35" transform="translate(118.478131 0) scale(0.996264)"/>
      </g>
     </g>
    </g>
    <g id="ytick_7">
     <g id="line2d_45">
      <g>
       <use xlink:href="#m7e9db21abd" x="69.583057" y="308.822685" style="stroke: #000000; stroke-width: 0.8"/>
      </g>
     </g>
     <g id="text_19">
      <!-- $\mathdefault{0.10}$ -->
      <g transform="translate(41.803987 313.665624) scale(0.14 -0.14)">
       <use xlink:href="#CMR17-30" transform="scale(0.996264)"/>
       <use xlink:href="#CMMI12-3a" transform="translate(45.690477 0) scale(0.996264)"/>
       <use xlink:href="#CMR17-31" transform="translate(72.787654 0) scale(0.996264)"/>
       <use xlink:href="#CMR17-30" transform="translate(118.478131 0) scale(0.996264)"/>
      </g>
     </g>
    </g>
    <g id="ytick_8">
     <g id="line2d_46">
      <g>
       <use xlink:href="#m7e9db21abd" x="69.583057" y="259.056997" style="stroke: #000000; stroke-width: 0.8"/>
      </g>
     </g>
     <g id="text_20">
      <!-- $\mathdefault{0.15}$ -->
      <g transform="translate(41.803987 263.899935) scale(0.14 -0.14)">
       <use xlink:href="#CMR17-30" transform="scale(0.996264)"/>
       <use xlink:href="#CMMI12-3a" transform="translate(45.690477 0) scale(0.996264)"/>
       <use xlink:href="#CMR17-31" transform="translate(72.787654 0) scale(0.996264)"/>
       <use xlink:href="#CMR17-35" transform="translate(118.478131 0) scale(0.996264)"/>
      </g>
     </g>
    </g>
    <g id="text_21">
     <!-- $\phi^{}_{{_{{ IPR}}}}$ -->
     <g transform="translate(26.189588 317.299098) rotate(-90) scale(0.16 -0.16)">
      <use xlink:href="#CMMI12-1e" transform="scale(0.996264)"/>
      <use xlink:href="#CMMI12-49" transform="translate(57.73418 -35.090046) scale(0.498132)"/>
      <use xlink:href="#CMMI12-50" transform="translate(83.16243 -35.090046) scale(0.498132)"/>
      <use xlink:href="#CMMI12-52" transform="translate(121.375333 -35.090046) scale(0.498132)"/>
     </g>
    </g>
   </g>
   <g id="line2d_47">
    <path d="M 84.944868 230.879281 
L 231.533798 313.454086 
L 299.693769 347.663323 
L 392.181087 377.264909 
" clip-path="url(#pd5099b9ad5)" style="fill: none; stroke: #1f77b4; stroke-width: 1.5; stroke-linecap: square"/>
   </g>
   <g id="patch_8">
    <path d="M 69.583057 384.58419 
L 69.583057 223.56 
" style="fill: none; stroke: #000000; stroke-width: 0.8; stroke-linejoin: miter; stroke-linecap: square"/>
   </g>
   <g id="patch_9">
    <path d="M 407.542898 384.58419 
L 407.542898 223.56 
" style="fill: none; stroke: #000000; stroke-width: 0.8; stroke-linejoin: miter; stroke-linecap: square"/>
   </g>
   <g id="patch_10">
    <path d="M 69.583057 384.58419 
L 407.542898 384.58419 
" style="fill: none; stroke: #000000; stroke-width: 0.8; stroke-linejoin: miter; stroke-linecap: square"/>
   </g>
   <g id="patch_11">
    <path d="M 69.583057 223.56 
L 407.542898 223.56 
" style="fill: none; stroke: #000000; stroke-width: 0.8; stroke-linejoin: miter; stroke-linecap: square"/>
   </g>
   <g id="legend_2">
    <g id="line2d_48">
     <path d="M 318.867768 238.56 
L 330.867768 238.56 
L 342.867768 238.56 
" style="fill: none; stroke: #1f77b4; stroke-width: 1.5; stroke-linecap: square"/>
    </g>
    <g id="text_22">
     <!-- $\omega =1.41$ -->
     <g transform="translate(352.467768 242.76) scale(0.12 -0.12)">
      <defs>
       <path id="CMR17-3d" d="M 4115 2048 
C 4211 2048 4307 2048 4307 2156 
C 4307 2272 4198 2272 4090 2272 
L 512 2272 
C 403 2272 294 2272 294 2156 
C 294 2048 390 2048 486 2048 
L 4115 2048 
z
M 4090 927 
C 4198 927 4307 927 4307 1043 
C 4307 1152 4211 1152 4115 1152 
L 486 1152 
C 390 1152 294 1152 294 1043 
C 294 927 403 927 512 927 
L 4090 927 
z
" transform="scale(0.015625)"/>
       <path id="CMR17-34" d="M 2150 4147 
C 2150 4281 2144 4288 2029 4288 
L 128 1254 
L 128 1088 
L 1779 1088 
L 1779 460 
C 1779 230 1766 166 1318 166 
L 1197 166 
L 1197 0 
C 1402 12 1747 12 1965 12 
C 2182 12 2528 12 2733 0 
L 2733 166 
L 2611 166 
C 2163 166 2150 230 2150 460 
L 2150 1088 
L 2803 1088 
L 2803 1254 
L 2150 1254 
L 2150 4147 
z
M 1798 3723 
L 1798 1254 
L 256 1254 
L 1798 3723 
z
" transform="scale(0.015625)"/>
      </defs>
      <use xlink:href="#CMMI12-21" transform="scale(0.996264)"/>
      <use xlink:href="#CMR17-3d" transform="translate(91.992355 0) scale(0.996264)"/>
      <use xlink:href="#CMR17-31" transform="translate(191.381152 0) scale(0.996264)"/>
      <use xlink:href="#CMMI12-3a" transform="translate(237.071629 0) scale(0.996264)"/>
      <use xlink:href="#CMR17-34" transform="translate(264.168806 0) scale(0.996264)"/>
      <use xlink:href="#CMR17-31" transform="translate(309.859283 0) scale(0.996264)"/>
     </g>
    </g>
   </g>
  </g>
 </g>
 <defs>
  <clipPath id="p3ef6bb589d">
   <rect x="69.583057" y="15.12" width="337.959841" height="161.02419"/>
  </clipPath>
  <clipPath id="pd5099b9ad5">
   <rect x="69.583057" y="223.56" width="337.959841" height="161.02419"/>
  </clipPath>
 </defs>
</svg>
