<?xml version="1.0" encoding="utf-8" standalone="no"?>
<!DOCTYPE svg PUBLIC "-//W3C//DTD SVG 1.1//EN"
  "http://www.w3.org/Graphics/SVG/1.1/DTD/svg11.dtd">
<svg xmlns:xlink="http://www.w3.org/1999/xlink" width="432pt" height="302.4pt" viewBox="0 0 432 302.4" xmlns="http://www.w3.org/2000/svg" version="1.1">
 <metadata>
  <rdf:RDF xmlns:dc="http://purl.org/dc/elements/1.1/" xmlns:cc="http://creativecommons.org/ns#" xmlns:rdf="http://www.w3.org/1999/02/22-rdf-syntax-ns#">
   <cc:Work>
    <dc:type rdf:resource="http://purl.org/dc/dcmitype/StillImage"/>
    <dc:date>2023-06-26T16:43:30.552156</dc:date>
    <dc:format>image/svg+xml</dc:format>
    <dc:creator>
     <cc:Agent>
      <dc:title>Matplotlib v3.7.1, https://matplotlib.org/</dc:title>
     </cc:Agent>
    </dc:creator>
   </cc:Work>
  </rdf:RDF>
 </metadata>
 <defs>
  <style type="text/css">*{stroke-linejoin: round; stroke-linecap: butt}</style>
 </defs>
 <g id="figure_1">
  <g id="patch_1">
   <path d="M 0 302.4 
L 432 302.4 
L 432 0 
L 0 0 
z
" style="fill: #ffffff"/>
  </g>
  <g id="axes_1">
   <g id="patch_2">
    <path d="M 54 269.136 
L 388.8 269.136 
L 388.8 36.288 
L 54 36.288 
z
" style="fill: #ffffff"/>
   </g>
   <g id="matplotlib.axis_1">
    <g id="xtick_1">
     <g id="line2d_1">
      <defs>
       <path id="mf03a99c73f" d="M 0 0 
L 0 -3.5 
" style="stroke: #000000; stroke-width: 0.8"/>
      </defs>
      <g>
       <use xlink:href="#mf03a99c73f" x="69.218182" y="269.136" style="stroke: #000000; stroke-width: 0.8"/>
      </g>
     </g>
     <g id="text_1">
      <!-- $\mathdefault{0}$ -->
      <g transform="translate(65.803938 282.573648) scale(0.14 -0.14)">
       <defs>
        <path id="CMR17-30" d="M 2688 2038 
C 2688 2430 2682 3099 2413 3613 
C 2176 4063 1798 4224 1466 4224 
C 1158 4224 768 4082 525 3620 
C 269 3137 243 2539 243 2038 
C 243 1671 250 1112 448 623 
C 723 -39 1216 -128 1466 -128 
C 1760 -128 2208 -7 2470 604 
C 2662 1048 2688 1568 2688 2038 
z
M 1466 -26 
C 1056 -26 813 328 723 816 
C 653 1196 653 1749 653 2109 
C 653 2604 653 3015 736 3407 
C 858 3954 1216 4121 1466 4121 
C 1728 4121 2067 3947 2189 3420 
C 2272 3054 2278 2623 2278 2109 
C 2278 1691 2278 1176 2202 797 
C 2067 96 1690 -26 1466 -26 
z
" transform="scale(0.015625)"/>
       </defs>
       <use xlink:href="#CMR17-30" transform="scale(0.996264)"/>
      </g>
     </g>
    </g>
    <g id="xtick_2">
     <g id="line2d_2">
      <g>
       <use xlink:href="#mf03a99c73f" x="164.331818" y="269.136" style="stroke: #000000; stroke-width: 0.8"/>
      </g>
     </g>
     <g id="text_2">
      <!-- $\mathdefault{5}$ -->
      <g transform="translate(160.917574 282.573648) scale(0.14 -0.14)">
       <defs>
        <path id="CMR17-35" d="M 730 3750 
C 794 3724 1056 3641 1325 3641 
C 1920 3641 2246 3961 2432 4140 
C 2432 4191 2432 4224 2394 4224 
C 2387 4224 2374 4224 2323 4198 
C 2099 4102 1837 4032 1517 4032 
C 1325 4032 1037 4055 723 4191 
C 653 4224 640 4224 634 4224 
C 602 4224 595 4217 595 4090 
L 595 2231 
C 595 2113 595 2080 659 2080 
C 691 2080 704 2093 736 2139 
C 941 2435 1222 2560 1542 2560 
C 1766 2560 2246 2415 2246 1293 
C 2246 1087 2246 716 2054 422 
C 1894 159 1645 25 1370 25 
C 947 25 518 319 403 812 
C 429 806 480 793 506 793 
C 589 793 749 838 749 1036 
C 749 1209 627 1280 506 1280 
C 358 1280 262 1190 262 1011 
C 262 454 704 -128 1382 -128 
C 2042 -128 2669 441 2669 1267 
C 2669 2054 2170 2662 1549 2662 
C 1222 2662 947 2540 730 2304 
L 730 3750 
z
" transform="scale(0.015625)"/>
       </defs>
       <use xlink:href="#CMR17-35" transform="scale(0.996264)"/>
      </g>
     </g>
    </g>
    <g id="xtick_3">
     <g id="line2d_3">
      <g>
       <use xlink:href="#mf03a99c73f" x="259.445455" y="269.136" style="stroke: #000000; stroke-width: 0.8"/>
      </g>
     </g>
     <g id="text_3">
      <!-- $\mathdefault{10}$ -->
      <g transform="translate(252.616966 282.573648) scale(0.14 -0.14)">
       <defs>
        <path id="CMR17-31" d="M 1702 4083 
C 1702 4217 1696 4224 1606 4224 
C 1357 3927 979 3833 621 3820 
C 602 3820 570 3820 563 3808 
C 557 3795 557 3782 557 3648 
C 755 3648 1088 3686 1344 3839 
L 1344 467 
C 1344 243 1331 166 781 166 
L 589 166 
L 589 0 
C 896 6 1216 12 1523 12 
C 1830 12 2150 6 2458 0 
L 2458 166 
L 2266 166 
C 1715 166 1702 236 1702 467 
L 1702 4083 
z
" transform="scale(0.015625)"/>
       </defs>
       <use xlink:href="#CMR17-31" transform="scale(0.996264)"/>
       <use xlink:href="#CMR17-30" transform="translate(45.690477 0) scale(0.996264)"/>
      </g>
     </g>
    </g>
    <g id="xtick_4">
     <g id="line2d_4">
      <g>
       <use xlink:href="#mf03a99c73f" x="354.559091" y="269.136" style="stroke: #000000; stroke-width: 0.8"/>
      </g>
     </g>
     <g id="text_4">
      <!-- $\mathdefault{15}$ -->
      <g transform="translate(347.730602 282.573648) scale(0.14 -0.14)">
       <use xlink:href="#CMR17-31" transform="scale(0.996264)"/>
       <use xlink:href="#CMR17-35" transform="translate(45.690477 0) scale(0.996264)"/>
      </g>
     </g>
    </g>
    <g id="text_5">
     <!-- $\eta(4h/\omega)$ -->
     <g transform="translate(197.208096 300.005198) scale(0.14 -0.14)">
      <defs>
       <path id="CMMI12-11" d="M 3040 1768 
C 3072 1896 3091 1973 3091 2145 
C 3091 2528 2867 2816 2381 2816 
C 1811 2816 1510 2413 1395 2253 
C 1376 2617 1114 2816 832 2816 
C 646 2816 499 2726 378 2483 
C 262 2253 173 1864 173 1838 
C 173 1813 198 1781 243 1781 
C 294 1781 301 1787 339 1934 
C 435 2311 557 2687 813 2687 
C 960 2687 1011 2586 1011 2394 
C 1011 2253 947 2004 902 1807 
L 723 1117 
C 698 996 627 708 595 593 
C 550 427 480 127 480 95 
C 480 6 550 -64 646 -64 
C 723 -64 813 -26 864 70 
C 877 102 934 325 966 453 
L 1107 1028 
L 1318 1870 
C 1331 1909 1491 2228 1728 2432 
C 1894 2586 2112 2687 2362 2687 
C 2618 2687 2707 2496 2707 2241 
C 2707 2056 2682 1953 2650 1832 
L 1907 -1085 
C 1901 -1116 1888 -1154 1888 -1191 
C 1888 -1287 1965 -1351 2061 -1351 
C 2118 -1351 2253 -1325 2304 -1135 
L 3040 1768 
z
" transform="scale(0.015625)"/>
       <path id="CMR17-28" d="M 1958 -1562 
C 1958 -1556 1958 -1543 1939 -1524 
C 1645 -1223 858 -403 858 1596 
C 858 3595 1632 4408 1946 4729 
C 1946 4735 1958 4748 1958 4767 
C 1958 4787 1939 4800 1914 4800 
C 1843 4800 1299 4325 986 3620 
C 666 2909 576 2218 576 1603 
C 576 1141 621 360 1005 -467 
C 1312 -1133 1837 -1600 1914 -1600 
C 1946 -1600 1958 -1588 1958 -1562 
z
" transform="scale(0.015625)"/>
       <path id="CMR17-34" d="M 2150 4147 
C 2150 4281 2144 4288 2029 4288 
L 128 1254 
L 128 1088 
L 1779 1088 
L 1779 460 
C 1779 230 1766 166 1318 166 
L 1197 166 
L 1197 0 
C 1402 12 1747 12 1965 12 
C 2182 12 2528 12 2733 0 
L 2733 166 
L 2611 166 
C 2163 166 2150 230 2150 460 
L 2150 1088 
L 2803 1088 
L 2803 1254 
L 2150 1254 
L 2150 4147 
z
M 1798 3723 
L 1798 1254 
L 256 1254 
L 1798 3723 
z
" transform="scale(0.015625)"/>
       <path id="CMMI12-68" d="M 1798 4255 
C 1805 4281 1818 4319 1818 4351 
C 1818 4416 1754 4416 1741 4416 
C 1734 4416 1421 4390 1389 4383 
C 1280 4377 1184 4364 1069 4358 
C 909 4345 864 4339 864 4223 
C 864 4159 915 4159 1005 4159 
C 1318 4159 1325 4103 1325 4040 
C 1325 4002 1312 3951 1306 3932 
L 378 249 
C 352 153 352 140 352 102 
C 352 -39 461 -64 525 -64 
C 634 -64 717 19 749 89 
L 1037 1245 
C 1069 1385 1107 1519 1139 1660 
C 1210 1928 1210 1934 1331 2119 
C 1453 2305 1741 2687 2234 2687 
C 2490 2687 2579 2496 2579 2241 
C 2579 1883 2330 1187 2189 804 
C 2131 651 2099 568 2099 453 
C 2099 166 2298 -64 2605 -64 
C 3200 -64 3424 874 3424 913 
C 3424 945 3398 970 3360 970 
C 3302 970 3296 951 3264 842 
C 3117 332 2880 64 2624 64 
C 2560 64 2458 70 2458 274 
C 2458 440 2534 645 2560 715 
C 2675 1021 2963 1775 2963 2145 
C 2963 2528 2739 2816 2253 2816 
C 1888 2816 1568 2643 1306 2311 
L 1798 4255 
z
" transform="scale(0.015625)"/>
       <path id="CMMI12-3d" d="M 2746 4563 
C 2746 4569 2784 4665 2784 4678 
C 2784 4755 2720 4800 2669 4800 
C 2637 4800 2579 4800 2528 4659 
L 384 -1364 
C 384 -1370 346 -1466 346 -1479 
C 346 -1556 410 -1600 461 -1600 
C 499 -1600 557 -1594 602 -1460 
L 2746 4563 
z
" transform="scale(0.015625)"/>
       <path id="CMMI12-21" d="M 3802 2406 
C 3802 2592 3750 2828 3526 2828 
C 3398 2828 3251 2668 3251 2540 
C 3251 2483 3277 2444 3328 2387 
C 3424 2278 3546 2105 3546 1804 
C 3546 1574 3405 1209 3302 1011 
C 3123 659 2829 358 2496 358 
C 2093 358 1939 614 1869 972 
C 1939 1139 2086 1555 2086 1721 
C 2086 1792 2061 1849 1978 1849 
C 1933 1849 1882 1824 1850 1772 
C 1760 1632 1677 1126 1683 992 
C 1562 755 1216 358 806 358 
C 378 358 262 736 262 1100 
C 262 1766 678 2348 794 2508 
C 858 2604 902 2668 902 2681 
C 902 2726 877 2796 819 2796 
C 717 2796 685 2713 634 2636 
C 307 2131 77 1420 77 806 
C 77 409 224 -64 704 -64 
C 1235 -64 1568 390 1702 633 
C 1754 275 1946 -64 2413 -64 
C 2899 -64 3206 364 3437 883 
C 3603 1254 3802 2054 3802 2406 
z
" transform="scale(0.015625)"/>
       <path id="CMR17-29" d="M 1683 1596 
C 1683 2057 1638 2839 1254 3665 
C 947 4332 422 4800 346 4800 
C 326 4800 301 4793 301 4761 
C 301 4748 307 4742 314 4729 
C 621 4408 1402 3595 1402 1603 
C 1402 -396 627 -1210 314 -1530 
C 307 -1543 301 -1549 301 -1562 
C 301 -1594 326 -1600 346 -1600 
C 416 -1600 960 -1127 1274 -422 
C 1594 289 1683 981 1683 1596 
z
" transform="scale(0.015625)"/>
      </defs>
      <use xlink:href="#CMMI12-11" transform="scale(0.996264)"/>
      <use xlink:href="#CMR17-28" transform="translate(51.703816 0) scale(0.996264)"/>
      <use xlink:href="#CMR17-34" transform="translate(86.984584 0) scale(0.996264)"/>
      <use xlink:href="#CMMI12-68" transform="translate(132.675061 0) scale(0.996264)"/>
      <use xlink:href="#CMMI12-3d" transform="translate(188.829685 0) scale(0.996264)"/>
      <use xlink:href="#CMMI12-21" transform="translate(237.604603 0) scale(0.996264)"/>
      <use xlink:href="#CMR17-29" transform="translate(301.922949 0) scale(0.996264)"/>
     </g>
    </g>
   </g>
   <g id="matplotlib.axis_2">
    <g id="ytick_1">
     <g id="line2d_5">
      <defs>
       <path id="m640ae469aa" d="M 0 0 
L 3.5 0 
" style="stroke: #000000; stroke-width: 0.8"/>
      </defs>
      <g>
       <use xlink:href="#m640ae469aa" x="54" y="265.187009" style="stroke: #000000; stroke-width: 0.8"/>
      </g>
     </g>
     <g id="text_6">
      <!-- $\mathdefault{0.3}$ -->
      <g transform="translate(33.049418 270.155833) scale(0.14 -0.14)">
       <defs>
        <path id="CMMI12-3a" d="M 1178 307 
C 1178 492 1024 620 870 620 
C 685 620 557 467 557 313 
C 557 128 710 0 864 0 
C 1050 0 1178 153 1178 307 
z
" transform="scale(0.015625)"/>
        <path id="CMR17-33" d="M 1414 2176 
C 1984 2176 2234 1673 2234 1094 
C 2234 322 1824 25 1453 25 
C 1114 25 563 193 390 691 
C 422 678 454 678 486 678 
C 640 678 755 780 755 947 
C 755 1132 614 1216 486 1216 
C 378 1216 211 1164 211 927 
C 211 335 787 -128 1466 -128 
C 2176 -128 2720 432 2720 1087 
C 2720 1718 2208 2176 1600 2246 
C 2086 2347 2554 2776 2554 3353 
C 2554 3856 2048 4224 1472 4224 
C 890 4224 378 3862 378 3347 
C 378 3123 544 3084 627 3084 
C 762 3084 877 3167 877 3334 
C 877 3500 762 3584 627 3584 
C 602 3584 570 3584 544 3571 
C 730 3999 1235 4076 1459 4076 
C 1683 4076 2106 3966 2106 3347 
C 2106 3167 2080 2851 1862 2574 
C 1670 2329 1453 2316 1242 2297 
C 1210 2297 1062 2284 1037 2284 
C 992 2278 966 2272 966 2227 
C 966 2182 973 2176 1101 2176 
L 1414 2176 
z
" transform="scale(0.015625)"/>
       </defs>
       <use xlink:href="#CMR17-30" transform="scale(0.996264)"/>
       <use xlink:href="#CMMI12-3a" transform="translate(45.690477 0) scale(0.996264)"/>
       <use xlink:href="#CMR17-33" transform="translate(72.787654 0) scale(0.996264)"/>
      </g>
     </g>
    </g>
    <g id="ytick_2">
     <g id="line2d_6">
      <g>
       <use xlink:href="#m640ae469aa" x="54" y="233.999056" style="stroke: #000000; stroke-width: 0.8"/>
      </g>
     </g>
     <g id="text_7">
      <!-- $\mathdefault{0.4}$ -->
      <g transform="translate(33.049418 238.96788) scale(0.14 -0.14)">
       <use xlink:href="#CMR17-30" transform="scale(0.996264)"/>
       <use xlink:href="#CMMI12-3a" transform="translate(45.690477 0) scale(0.996264)"/>
       <use xlink:href="#CMR17-34" transform="translate(72.787654 0) scale(0.996264)"/>
      </g>
     </g>
    </g>
    <g id="ytick_3">
     <g id="line2d_7">
      <g>
       <use xlink:href="#m640ae469aa" x="54" y="202.811102" style="stroke: #000000; stroke-width: 0.8"/>
      </g>
     </g>
     <g id="text_8">
      <!-- $\mathdefault{0.5}$ -->
      <g transform="translate(33.049418 207.779926) scale(0.14 -0.14)">
       <use xlink:href="#CMR17-30" transform="scale(0.996264)"/>
       <use xlink:href="#CMMI12-3a" transform="translate(45.690477 0) scale(0.996264)"/>
       <use xlink:href="#CMR17-35" transform="translate(72.787654 0) scale(0.996264)"/>
      </g>
     </g>
    </g>
    <g id="ytick_4">
     <g id="line2d_8">
      <g>
       <use xlink:href="#m640ae469aa" x="54" y="171.623149" style="stroke: #000000; stroke-width: 0.8"/>
      </g>
     </g>
     <g id="text_9">
      <!-- $\mathdefault{0.6}$ -->
      <g transform="translate(33.049418 176.591973) scale(0.14 -0.14)">
       <defs>
        <path id="CMR17-36" d="M 678 2198 
C 678 3712 1395 4076 1811 4076 
C 1946 4076 2272 4049 2400 3782 
C 2298 3782 2106 3782 2106 3558 
C 2106 3385 2246 3328 2336 3328 
C 2394 3328 2566 3353 2566 3571 
C 2566 3987 2246 4224 1805 4224 
C 1043 4224 243 3411 243 2011 
C 243 257 966 -128 1478 -128 
C 2099 -128 2688 431 2688 1295 
C 2688 2101 2170 2688 1517 2688 
C 1126 2688 838 2430 678 1979 
L 678 2198 
z
M 1478 25 
C 691 25 691 1212 691 1450 
C 691 1914 909 2585 1504 2585 
C 1613 2585 1926 2585 2138 2140 
C 2253 1889 2253 1624 2253 1302 
C 2253 954 2253 696 2118 438 
C 1978 173 1773 25 1478 25 
z
" transform="scale(0.015625)"/>
       </defs>
       <use xlink:href="#CMR17-30" transform="scale(0.996264)"/>
       <use xlink:href="#CMMI12-3a" transform="translate(45.690477 0) scale(0.996264)"/>
       <use xlink:href="#CMR17-36" transform="translate(72.787654 0) scale(0.996264)"/>
      </g>
     </g>
    </g>
    <g id="ytick_5">
     <g id="line2d_9">
      <g>
       <use xlink:href="#m640ae469aa" x="54" y="140.435195" style="stroke: #000000; stroke-width: 0.8"/>
      </g>
     </g>
     <g id="text_10">
      <!-- $\mathdefault{0.7}$ -->
      <g transform="translate(33.049418 145.404019) scale(0.14 -0.14)">
       <defs>
        <path id="CMR17-37" d="M 2886 3955 
L 2886 4096 
L 1382 4096 
C 634 4096 621 4166 595 4288 
L 480 4288 
L 294 3104 
L 410 3104 
C 429 3226 474 3552 550 3673 
C 589 3724 1062 3724 1171 3724 
L 2579 3724 
L 1869 2670 
C 1395 1961 1069 1003 1069 166 
C 1069 89 1069 -128 1299 -128 
C 1530 -128 1530 89 1530 172 
L 1530 466 
C 1530 1514 1709 2204 2003 2644 
L 2886 3955 
z
" transform="scale(0.015625)"/>
       </defs>
       <use xlink:href="#CMR17-30" transform="scale(0.996264)"/>
       <use xlink:href="#CMMI12-3a" transform="translate(45.690477 0) scale(0.996264)"/>
       <use xlink:href="#CMR17-37" transform="translate(72.787654 0) scale(0.996264)"/>
      </g>
     </g>
    </g>
    <g id="ytick_6">
     <g id="line2d_10">
      <g>
       <use xlink:href="#m640ae469aa" x="54" y="109.247242" style="stroke: #000000; stroke-width: 0.8"/>
      </g>
     </g>
     <g id="text_11">
      <!-- $\mathdefault{0.8}$ -->
      <g transform="translate(33.049418 114.216066) scale(0.14 -0.14)">
       <defs>
        <path id="CMR17-38" d="M 1741 2289 
C 2144 2494 2554 2803 2554 3298 
C 2554 3884 1990 4224 1472 4224 
C 890 4224 378 3800 378 3215 
C 378 3054 416 2777 666 2533 
C 730 2469 998 2276 1171 2154 
C 883 2006 211 1652 211 945 
C 211 282 838 -128 1459 -128 
C 2144 -128 2720 366 2720 1022 
C 2720 1607 2330 1877 2074 2051 
L 1741 2289 
z
M 902 2855 
C 851 2887 595 3086 595 3388 
C 595 3781 998 4076 1459 4076 
C 1965 4076 2336 3716 2336 3298 
C 2336 2700 1670 2359 1638 2359 
C 1632 2359 1626 2359 1574 2398 
L 902 2855 
z
M 2080 1536 
C 2176 1466 2483 1253 2483 861 
C 2483 385 2010 25 1472 25 
C 890 25 448 443 448 951 
C 448 1459 838 1884 1280 2083 
L 2080 1536 
z
" transform="scale(0.015625)"/>
       </defs>
       <use xlink:href="#CMR17-30" transform="scale(0.996264)"/>
       <use xlink:href="#CMMI12-3a" transform="translate(45.690477 0) scale(0.996264)"/>
       <use xlink:href="#CMR17-38" transform="translate(72.787654 0) scale(0.996264)"/>
      </g>
     </g>
    </g>
    <g id="ytick_7">
     <g id="line2d_11">
      <g>
       <use xlink:href="#m640ae469aa" x="54" y="78.059288" style="stroke: #000000; stroke-width: 0.8"/>
      </g>
     </g>
     <g id="text_12">
      <!-- $\mathdefault{0.9}$ -->
      <g transform="translate(33.049418 83.028113) scale(0.14 -0.14)">
       <defs>
        <path id="CMR17-39" d="M 2253 1871 
C 2253 448 1670 25 1190 25 
C 1043 25 685 43 538 281 
C 704 256 826 345 826 505 
C 826 678 685 736 595 736 
C 538 736 365 710 365 492 
C 365 68 742 -128 1203 -128 
C 1939 -128 2688 665 2688 2090 
C 2688 3857 1971 4224 1485 4224 
C 851 4224 243 3664 243 2800 
C 243 2000 762 1408 1414 1408 
C 1952 1408 2189 1910 2253 2122 
L 2253 1871 
z
M 1427 1510 
C 1254 1510 1011 1542 813 1929 
C 678 2181 678 2477 678 2793 
C 678 3174 678 3438 858 3722 
C 947 3857 1114 4076 1485 4076 
C 2240 4076 2240 2909 2240 2651 
C 2240 2193 2035 1510 1427 1510 
z
" transform="scale(0.015625)"/>
       </defs>
       <use xlink:href="#CMR17-30" transform="scale(0.996264)"/>
       <use xlink:href="#CMMI12-3a" transform="translate(45.690477 0) scale(0.996264)"/>
       <use xlink:href="#CMR17-39" transform="translate(72.787654 0) scale(0.996264)"/>
      </g>
     </g>
    </g>
    <g id="ytick_8">
     <g id="line2d_12">
      <g>
       <use xlink:href="#m640ae469aa" x="54" y="46.871335" style="stroke: #000000; stroke-width: 0.8"/>
      </g>
     </g>
     <g id="text_13">
      <!-- $\mathdefault{1.0}$ -->
      <g transform="translate(33.049418 51.840159) scale(0.14 -0.14)">
       <use xlink:href="#CMR17-31" transform="scale(0.996264)"/>
       <use xlink:href="#CMMI12-3a" transform="translate(45.690477 0) scale(0.996264)"/>
       <use xlink:href="#CMR17-30" transform="translate(72.787654 0) scale(0.996264)"/>
      </g>
     </g>
    </g>
    <g id="text_14">
     <!-- $\overline{\langle S^x \rangle}$ -->
     <g transform="translate(25.562494 165.834657) rotate(-90) scale(0.14 -0.14)">
      <defs>
       <path id="CMSY10-68" d="M 2099 4557 
C 2131 4627 2131 4640 2131 4672 
C 2131 4742 2074 4800 2003 4800 
C 1946 4800 1901 4768 1856 4653 
L 736 1715 
C 723 1677 704 1638 704 1600 
C 704 1580 704 1568 736 1491 
L 1856 -1447 
C 1882 -1517 1914 -1600 2003 -1600 
C 2074 -1600 2131 -1543 2131 -1472 
C 2131 -1453 2131 -1440 2099 -1370 
L 966 1600 
L 2099 4557 
z
" transform="scale(0.015625)"/>
       <path id="CMMI12-53" d="M 4064 4422 
C 4064 4480 4019 4480 4006 4480 
C 3981 4480 3974 4473 3898 4377 
C 3859 4332 3597 4002 3590 3996 
C 3379 4409 2957 4480 2688 4480 
C 1875 4480 1139 3742 1139 3024 
C 1139 2547 1427 2268 1741 2160 
C 1811 2134 2189 2033 2381 1988 
C 2707 1899 2790 1874 2925 1734 
C 2950 1702 3078 1556 3078 1258 
C 3078 667 2528 57 1888 57 
C 1363 57 781 279 781 991 
C 781 1112 806 1264 826 1328 
C 826 1347 832 1378 832 1391 
C 832 1417 819 1448 768 1448 
C 710 1448 704 1436 678 1328 
L 352 25 
C 352 19 326 -64 326 -71 
C 326 -128 378 -128 390 -128 
C 416 -128 422 -122 499 -26 
L 794 356 
C 947 127 1280 -128 1875 -128 
C 2701 -128 3456 667 3456 1461 
C 3456 1728 3392 1963 3149 2198 
C 3014 2331 2899 2363 2310 2516 
C 1882 2630 1824 2649 1709 2751 
C 1600 2859 1517 3011 1517 3227 
C 1517 3761 2061 4307 2669 4307 
C 3296 4307 3590 3926 3590 3322 
C 3590 3157 3558 2986 3558 2960 
C 3558 2903 3610 2903 3629 2903 
C 3686 2903 3693 2922 3718 3024 
L 4064 4422 
z
" transform="scale(0.015625)"/>
       <path id="CMMI12-78" d="M 3034 2624 
C 2829 2585 2752 2431 2752 2310 
C 2752 2156 2874 2105 2963 2105 
C 3155 2105 3290 2271 3290 2444 
C 3290 2694 2982 2816 2714 2816 
C 2323 2816 2106 2451 2048 2329 
C 1901 2790 1504 2816 1389 2816 
C 736 2816 390 1993 390 1849 
C 390 1823 416 1790 461 1790 
C 512 1790 525 1829 538 1855 
C 755 2572 1184 2687 1370 2687 
C 1658 2687 1715 2438 1715 2284 
C 1715 2143 1677 1993 1600 1678 
L 1382 778 
C 1286 390 1101 64 762 64 
C 730 64 570 64 435 126 
C 666 166 717 358 717 435 
C 717 563 621 640 499 640 
C 346 640 179 505 179 300 
C 179 57 480 -64 755 -64 
C 1062 -64 1280 153 1414 415 
C 1517 64 1837 -64 2074 -64 
C 2726 -64 3072 751 3072 896 
C 3072 929 3046 955 3008 955 
C 2950 955 2944 922 2925 870 
C 2752 300 2381 64 2093 64 
C 1869 64 1747 204 1747 467 
C 1747 607 1773 712 1875 1146 
L 2099 2039 
C 2195 2425 2413 2687 2707 2687 
C 2720 2687 2899 2687 3034 2624 
z
" transform="scale(0.015625)"/>
       <path id="CMSY10-69" d="M 1747 1491 
C 1779 1568 1779 1580 1779 1600 
C 1779 1619 1779 1632 1747 1709 
L 627 4653 
C 589 4761 550 4800 480 4800 
C 410 4800 352 4742 352 4672 
C 352 4653 352 4640 384 4569 
L 1517 1600 
L 384 -1357 
C 352 -1428 352 -1440 352 -1472 
C 352 -1543 410 -1600 480 -1600 
C 563 -1600 589 -1536 614 -1472 
L 1747 1491 
z
" transform="scale(0.015625)"/>
      </defs>
      <use xlink:href="#CMSY10-68" transform="scale(0.996264)"/>
      <use xlink:href="#CMMI12-53" transform="translate(38.743734 0) scale(0.996264)"/>
      <use xlink:href="#CMMI12-78" transform="translate(104.538173 28.780957) scale(0.697382)"/>
      <use xlink:href="#CMSY10-69" transform="translate(143.839964 0) scale(0.996264)"/>
      <path d="M 0 86.67465 
L 182.583698 86.67465 
L 182.583698 90.659599 
L 0 90.659599 
L 0 86.67465 
z
"/>
     </g>
    </g>
   </g>
   <g id="line2d_13">
    <path d="M 69.218182 256.583797 
L 71.251353 257.037677 
L 72.292562 257.603088 
L 73.885157 258.523586 
L 75.366942 258.552 
L 76.534515 257.114683 
L 78.441322 251.148664 
L 79.187388 248.342706 
L 81.515702 246.068223 
L 81.841594 246.484235 
L 84.590083 219.980027 
L 87.664463 145.16831 
L 90.738843 101.621853 
L 93.813223 77.820914 
L 96.887603 64.499273 
L 99.961983 55.036232 
L 103.036364 50.292989 
L 106.110744 48.427923 
L 109.185124 47.397537 
L 112.259504 46.960162 
L 115.333884 46.912674 
L 118.408264 47.169294 
L 121.482645 47.693227 
L 124.557025 48.489763 
L 127.631405 49.497311 
L 130.705785 50.494421 
L 133.780165 51.520106 
L 136.854545 52.484974 
L 139.928926 53.095901 
L 143.003306 53.143144 
L 146.077686 52.621507 
L 149.152066 51.7222 
L 152.226446 50.720236 
L 155.300826 49.7999 
L 158.375207 48.941726 
L 161.449587 48.167035 
L 164.523967 47.579246 
L 167.598347 47.18272 
L 170.672727 46.953806 
L 173.747107 46.876586 
L 176.821488 46.937696 
L 179.895868 47.123122 
L 182.970248 47.417033 
L 186.044628 47.800803 
L 189.119008 48.248969 
L 192.193388 48.708753 
L 195.267769 49.104022 
L 198.342149 49.376091 
L 201.416529 49.496524 
L 204.490909 49.45634 
L 207.565289 49.264494 
L 210.639669 48.945866 
L 213.71405 48.541359 
L 216.78843 48.10896 
L 219.86281 47.707835 
L 222.93719 47.373216 
L 226.01157 47.11983 
L 229.08595 46.954919 
L 232.160331 46.880893 
L 235.234711 46.895992 
L 238.309091 46.994408 
L 241.383471 47.166408 
L 244.457851 47.398097 
L 247.532231 47.671103 
L 250.606612 47.961858 
L 253.680992 48.238534 
L 256.755372 48.46229 
L 259.829752 48.599838 
L 262.904132 48.631767 
L 265.978512 48.554908 
L 269.052893 48.382522 
L 272.127273 48.140735 
L 275.201653 47.864934 
L 278.276033 47.589015 
L 281.350413 47.338942 
L 284.424793 47.133037 
L 287.499174 46.983204 
L 290.573554 46.896263 
L 293.647934 46.874878 
L 296.722314 46.917726 
L 299.796694 47.01892 
L 302.871074 47.169116 
L 305.945455 47.355007 
L 309.019835 47.559479 
L 312.094215 47.761608 
L 315.168595 47.938165 
L 318.242975 48.064711 
L 321.317355 48.124306 
L 324.391736 48.108175 
L 327.466116 48.019599 
L 330.540496 47.872255 
L 333.614876 47.687383 
L 336.689256 47.488374 
L 339.763636 47.295698 
L 342.838017 47.126713 
L 345.912397 46.995274 
L 348.986777 46.909748 
L 352.061157 46.874815 
L 355.135537 46.891583 
L 358.209917 46.957121 
L 361.284298 47.065202 
L 364.358678 47.205756 
L 367.433058 47.365883 
L 370.507438 47.529752 
L 373.581818 47.679919 
" clip-path="url(#pfd26a88e0f)" style="fill: none; stroke-dasharray: 1.5,2.475; stroke-dashoffset: 0; stroke: #1f77b4; stroke-width: 1.5"/>
   </g>
   <g id="line2d_14">
    <path d="M 69.218182 235.323681 
L 71.251353 234.770577 
L 72.292562 234.073533 
L 73.885157 232.525984 
L 75.366942 230.856047 
L 76.534515 229.43342 
L 78.441322 224.0719 
L 79.187388 219.623588 
L 81.515702 228.72504 
L 81.841594 237.723475 
L 84.590083 170.551757 
L 87.664463 101.866419 
L 90.738843 73.994776 
L 93.813223 57.35666 
L 96.887603 52.055945 
L 99.961983 49.526346 
L 103.036364 48.289592 
L 106.110744 47.511283 
L 109.185124 47.102701 
L 112.259504 46.911899 
L 115.333884 46.892279 
L 118.408264 47.01223 
L 121.482645 47.24108 
L 124.557025 47.550156 
L 127.631405 47.923771 
L 130.705785 48.343797 
L 133.780165 48.747952 
L 136.854545 49.05543 
L 139.928926 49.218739 
L 143.003306 49.22493 
L 146.077686 49.081143 
L 149.152066 48.810327 
L 152.226446 48.452209 
L 155.300826 48.066803 
L 158.375207 47.713357 
L 161.449587 47.418664 
L 164.523967 47.184809 
L 167.598347 47.013704 
L 170.672727 46.909618 
L 173.747107 46.873998 
L 176.821488 46.903222 
L 179.895868 46.989259 
L 182.970248 47.119971 
L 186.044628 47.28036 
L 189.119008 47.454504 
L 192.193388 47.626288 
L 195.267769 47.777431 
L 198.342149 47.886872 
L 201.416529 47.937799 
L 204.490909 47.921982 
L 207.565289 47.843351 
L 210.639669 47.716011 
L 213.71405 47.560411 
L 216.78843 47.395867 
L 219.86281 47.237332 
L 222.93719 47.097201 
L 226.01157 46.985418 
L 229.08595 46.909994 
L 232.160331 46.875817 
L 235.234711 46.883707 
L 238.309091 46.930816 
L 241.383471 47.010544 
L 244.457851 47.113937 
L 247.532231 47.230266 
L 250.606612 47.347493 
L 253.680992 47.453722 
L 256.755372 47.536704 
L 259.829752 47.587185 
L 262.904132 47.598367 
L 265.978512 47.569226 
L 269.052893 47.503979 
L 272.127273 47.411998 
L 275.201653 47.304191 
L 278.276033 47.191523 
L 281.350413 47.084421 
L 284.424793 46.992719 
L 287.499174 46.923855 
L 290.573554 46.883018 
L 293.647934 46.873179 
L 296.722314 46.893918 
L 299.796694 46.942168 
L 302.871074 47.012261 
L 305.945455 47.09562 
L 309.019835 47.18342 
L 312.094215 47.266924 
L 315.168595 47.336629 
L 318.242975 47.38595 
L 321.317355 47.408389 
L 324.391736 47.401961 
L 327.466116 47.367306 
L 330.540496 47.308915 
L 333.614876 47.234378 
L 336.689256 47.150966 
L 339.763636 47.067301 
L 342.838017 46.990937 
L 345.912397 46.929699 
L 348.986777 46.889302 
L 352.061157 46.873019 
L 355.135537 46.881578 
L 358.209917 46.913233 
L 361.284298 46.964128 
L 364.358678 47.029218 
L 367.433058 47.100871 
L 370.507438 47.171315 
L 373.581818 47.233929 
" clip-path="url(#pfd26a88e0f)" style="fill: none; stroke-dasharray: 5.55,2.4; stroke-dashoffset: 0; stroke: #ff7f0e; stroke-width: 1.5"/>
   </g>
   <g id="line2d_15">
    <path d="M 69.218182 218.550643 
L 71.251353 217.866639 
L 72.292562 217.01651 
L 73.885157 215.348488 
L 75.366942 212.678348 
L 76.534515 206.179047 
L 78.441322 204.936611 
L 79.187388 213.851618 
L 81.515702 211.062158 
L 81.841594 202.768373 
L 84.590083 113.95138 
L 87.664463 65.861704 
L 90.738843 52.898719 
L 93.813223 49.854449 
L 96.887603 48.533287 
L 99.961983 47.853787 
L 103.036364 47.380091 
L 106.110744 47.116129 
L 109.185124 46.960728 
L 112.259504 46.886796 
L 115.333884 46.879869 
L 118.408264 46.926897 
L 121.482645 47.016993 
L 124.557025 47.136932 
L 127.631405 47.271641 
L 130.705785 47.410735 
L 133.780165 47.544862 
L 136.854545 47.654164 
L 139.928926 47.716418 
L 143.003306 47.719884 
L 146.077686 47.665686 
L 149.152066 47.566338 
L 152.226446 47.442352 
L 155.300826 47.314484 
L 158.375207 47.194326 
L 161.449587 47.08624 
L 164.523967 46.995015 
L 167.598347 46.927118 
L 170.672727 46.886208 
L 173.747107 46.872414 
L 176.821488 46.883971 
L 179.895868 46.917727 
L 182.970248 46.969099 
L 186.044628 47.032037 
L 189.119008 47.099204 
L 192.193388 47.162919 
L 195.267769 47.216271 
L 198.342149 47.253582 
L 201.416529 47.270523 
L 204.490909 47.264806 
L 207.565289 47.237858 
L 210.639669 47.193662 
L 213.71405 47.137689 
L 216.78843 47.076072 
L 219.86281 47.014863 
L 222.93719 46.959686 
L 226.01157 46.915686 
L 229.08595 46.886279 
L 232.160331 46.873065 
L 235.234711 46.876458 
L 238.309091 46.895455 
L 241.383471 46.927159 
L 244.457851 46.968202 
L 247.532231 47.014282 
L 250.606612 47.060169 
L 253.680992 47.100982 
L 256.755372 47.132341 
L 259.829752 47.150927 
L 262.904132 47.154775 
L 265.978512 47.1438 
L 269.052893 47.119292 
L 272.127273 47.084083 
L 275.201653 47.042208 
L 278.276033 46.99788 
L 281.350413 46.955748 
L 284.424793 46.919455 
L 287.499174 46.892187 
L 290.573554 46.875945 
L 293.647934 46.872117 
L 296.722314 46.880503 
L 299.796694 46.899681 
L 302.871074 46.92741 
L 305.945455 46.960289 
L 309.019835 46.995143 
L 312.094215 47.027925 
L 315.168595 47.055121 
L 318.242975 47.073691 
L 321.317355 47.08199 
L 324.391736 47.079512 
L 327.466116 47.065978 
L 330.540496 47.043346 
L 333.614876 47.01407 
L 336.689256 46.981099 
L 339.763636 46.948123 
L 342.838017 46.918264 
L 345.912397 46.894345 
L 348.986777 46.878383 
L 352.061157 46.872 
L 355.135537 46.875692 
L 358.209917 46.888742 
L 361.284298 46.90929 
L 364.358678 46.935164 
L 367.433058 46.963515 
L 370.507438 46.991713 
L 373.581818 47.016287 
" clip-path="url(#pfd26a88e0f)" style="fill: none; stroke-dasharray: 9.6,2.4,1.5,2.4; stroke-dashoffset: 0; stroke: #2ca02c; stroke-width: 1.5"/>
   </g>
   <g id="patch_3">
    <path d="M 54 269.136 
L 54 36.288 
" style="fill: none; stroke: #000000; stroke-linejoin: miter; stroke-linecap: square"/>
   </g>
   <g id="patch_4">
    <path d="M 388.8 269.136 
L 388.8 36.288 
" style="fill: none; stroke: #000000; stroke-linejoin: miter; stroke-linecap: square"/>
   </g>
   <g id="patch_5">
    <path d="M 54 269.136 
L 388.8 269.136 
" style="fill: none; stroke: #000000; stroke-linejoin: miter; stroke-linecap: square"/>
   </g>
   <g id="patch_6">
    <path d="M 54 36.288 
L 388.8 36.288 
" style="fill: none; stroke: #000000; stroke-linejoin: miter; stroke-linecap: square"/>
   </g>
   <g id="legend_1">
    <g id="line2d_16">
     <path d="M 114.975297 251.589625 
L 126.975297 251.589625 
L 138.975297 251.589625 
" style="fill: none; stroke-dasharray: 1.5,2.475; stroke-dashoffset: 0; stroke: #1f77b4; stroke-width: 1.5"/>
    </g>
    <g id="text_15">
     <!-- $N=10$ -->
     <g transform="translate(148.575297 255.789625) scale(0.12 -0.12)">
      <defs>
       <path id="CMMI12-4e" d="M 4736 3682 
C 4806 3956 4909 4147 5395 4166 
C 5414 4166 5491 4172 5491 4281 
C 5491 4352 5434 4352 5408 4352 
C 5280 4352 4954 4339 4826 4339 
L 4518 4339 
C 4429 4339 4314 4352 4224 4352 
C 4186 4352 4109 4352 4109 4230 
C 4109 4166 4160 4166 4205 4166 
C 4589 4153 4614 4007 4614 3892 
C 4614 3835 4608 3816 4589 3726 
L 3866 854 
L 2496 4243 
C 2451 4345 2445 4352 2304 4352 
L 1523 4352 
C 1395 4352 1338 4352 1338 4230 
C 1338 4166 1382 4166 1504 4166 
C 1536 4166 1914 4166 1914 4109 
C 1914 4096 1901 4045 1894 4026 
L 1043 650 
C 966 338 813 204 390 185 
C 358 185 294 179 294 64 
C 294 0 358 0 378 0 
C 506 0 832 12 960 12 
L 1267 12 
C 1357 12 1466 0 1555 0 
C 1600 0 1670 0 1670 121 
C 1670 179 1606 185 1581 185 
C 1370 191 1165 230 1165 459 
C 1165 510 1178 567 1190 618 
L 2054 4026 
C 2093 3962 2093 3949 2118 3892 
L 3642 115 
C 3674 38 3686 0 3744 0 
C 3808 0 3814 19 3840 128 
L 4736 3682 
z
" transform="scale(0.015625)"/>
       <path id="CMR17-3d" d="M 4115 2048 
C 4211 2048 4307 2048 4307 2156 
C 4307 2272 4198 2272 4090 2272 
L 512 2272 
C 403 2272 294 2272 294 2156 
C 294 2048 390 2048 486 2048 
L 4115 2048 
z
M 4090 927 
C 4198 927 4307 927 4307 1043 
C 4307 1152 4211 1152 4115 1152 
L 486 1152 
C 390 1152 294 1152 294 1043 
C 294 927 403 927 512 927 
L 4090 927 
z
" transform="scale(0.015625)"/>
      </defs>
      <use xlink:href="#CMMI12-4e" transform="scale(0.996264)"/>
      <use xlink:href="#CMR17-3d" transform="translate(116.195781 0) scale(0.996264)"/>
      <use xlink:href="#CMR17-31" transform="translate(215.584578 0) scale(0.996264)"/>
      <use xlink:href="#CMR17-30" transform="translate(261.275056 0) scale(0.996264)"/>
     </g>
    </g>
    <g id="line2d_17">
     <path d="M 210.650198 251.589625 
L 222.650198 251.589625 
L 234.650198 251.589625 
" style="fill: none; stroke-dasharray: 5.55,2.4; stroke-dashoffset: 0; stroke: #ff7f0e; stroke-width: 1.5"/>
    </g>
    <g id="text_16">
     <!-- $N=20$ -->
     <g transform="translate(244.250198 255.789625) scale(0.12 -0.12)">
      <defs>
       <path id="CMR17-32" d="M 2669 990 
L 2554 990 
C 2490 537 2438 460 2413 422 
C 2381 371 1920 371 1830 371 
L 602 371 
C 832 620 1280 1073 1824 1596 
C 2214 1966 2669 2400 2669 3033 
C 2669 3788 2067 4224 1395 4224 
C 691 4224 262 3603 262 3027 
C 262 2777 448 2745 525 2745 
C 589 2745 781 2783 781 3007 
C 781 3206 614 3264 525 3264 
C 486 3264 448 3257 422 3244 
C 544 3788 915 4057 1306 4057 
C 1862 4057 2227 3616 2227 3033 
C 2227 2477 1901 1998 1536 1583 
L 262 147 
L 262 0 
L 2515 0 
L 2669 990 
z
" transform="scale(0.015625)"/>
      </defs>
      <use xlink:href="#CMMI12-4e" transform="scale(0.996264)"/>
      <use xlink:href="#CMR17-3d" transform="translate(116.195781 0) scale(0.996264)"/>
      <use xlink:href="#CMR17-32" transform="translate(215.584578 0) scale(0.996264)"/>
      <use xlink:href="#CMR17-30" transform="translate(261.275056 0) scale(0.996264)"/>
     </g>
    </g>
    <g id="line2d_18">
     <path d="M 306.325099 251.589625 
L 318.325099 251.589625 
L 330.325099 251.589625 
" style="fill: none; stroke-dasharray: 9.6,2.4,1.5,2.4; stroke-dashoffset: 0; stroke: #2ca02c; stroke-width: 1.5"/>
    </g>
    <g id="text_17">
     <!-- $N=50$ -->
     <g transform="translate(339.925099 255.789625) scale(0.12 -0.12)">
      <use xlink:href="#CMMI12-4e" transform="scale(0.996264)"/>
      <use xlink:href="#CMR17-3d" transform="translate(116.195781 0) scale(0.996264)"/>
      <use xlink:href="#CMR17-35" transform="translate(215.584578 0) scale(0.996264)"/>
      <use xlink:href="#CMR17-30" transform="translate(261.275056 0) scale(0.996264)"/>
     </g>
    </g>
   </g>
  </g>
  <g id="axes_2">
   <g id="patch_7">
    <path d="M 172.8 181.44 
L 345.6 181.44 
L 345.6 60.48 
L 172.8 60.48 
z
" style="fill: #ffffff"/>
   </g>
   <g id="matplotlib.axis_3">
    <g id="xtick_5">
     <g id="line2d_19">
      <g>
       <use xlink:href="#mf03a99c73f" x="174.510891" y="181.44" style="stroke: #000000; stroke-width: 0.8"/>
      </g>
     </g>
     <g id="text_18">
      <!-- $\mathdefault{0}$ -->
      <g transform="translate(171.096647 194.877648) scale(0.14 -0.14)">
       <use xlink:href="#CMR17-30" transform="scale(0.996264)"/>
      </g>
     </g>
    </g>
    <g id="xtick_6">
     <g id="line2d_20">
      <g>
       <use xlink:href="#mf03a99c73f" x="260.055446" y="181.44" style="stroke: #000000; stroke-width: 0.8"/>
      </g>
     </g>
     <g id="text_19">
      <!-- $\mathdefault{5}$ -->
      <g transform="translate(256.641201 194.877648) scale(0.14 -0.14)">
       <use xlink:href="#CMR17-35" transform="scale(0.996264)"/>
      </g>
     </g>
    </g>
    <g id="xtick_7">
     <g id="line2d_21">
      <g>
       <use xlink:href="#mf03a99c73f" x="345.6" y="181.44" style="stroke: #000000; stroke-width: 0.8"/>
      </g>
     </g>
     <g id="text_20">
      <!-- $\mathdefault{10}$ -->
      <g transform="translate(338.771511 194.877648) scale(0.14 -0.14)">
       <use xlink:href="#CMR17-31" transform="scale(0.996264)"/>
       <use xlink:href="#CMR17-30" transform="translate(45.690477 0) scale(0.996264)"/>
      </g>
     </g>
    </g>
    <g id="text_21">
     <!-- $\eta(4h/\omega)$ -->
     <g transform="translate(235.008096 212.309198) scale(0.14 -0.14)">
      <use xlink:href="#CMMI12-11" transform="scale(0.996264)"/>
      <use xlink:href="#CMR17-28" transform="translate(51.703816 0) scale(0.996264)"/>
      <use xlink:href="#CMR17-34" transform="translate(86.984584 0) scale(0.996264)"/>
      <use xlink:href="#CMMI12-68" transform="translate(132.675061 0) scale(0.996264)"/>
      <use xlink:href="#CMMI12-3d" transform="translate(188.829685 0) scale(0.996264)"/>
      <use xlink:href="#CMMI12-21" transform="translate(237.604603 0) scale(0.996264)"/>
      <use xlink:href="#CMR17-29" transform="translate(301.922949 0) scale(0.996264)"/>
     </g>
    </g>
   </g>
   <g id="matplotlib.axis_4">
    <g id="ytick_9">
     <g id="line2d_22">
      <g>
       <use xlink:href="#m640ae469aa" x="172.8" y="181.44" style="stroke: #000000; stroke-width: 0.8"/>
      </g>
     </g>
     <g id="text_22">
      <!-- $\mathdefault{0.97}$ -->
      <g transform="translate(145.020929 186.408824) scale(0.14 -0.14)">
       <use xlink:href="#CMR17-30" transform="scale(0.996264)"/>
       <use xlink:href="#CMMI12-3a" transform="translate(45.690477 0) scale(0.996264)"/>
       <use xlink:href="#CMR17-39" transform="translate(72.787654 0) scale(0.996264)"/>
       <use xlink:href="#CMR17-37" transform="translate(118.478131 0) scale(0.996264)"/>
      </g>
     </g>
    </g>
    <g id="ytick_10">
     <g id="line2d_23">
      <g>
       <use xlink:href="#m640ae469aa" x="172.8" y="143.64" style="stroke: #000000; stroke-width: 0.8"/>
      </g>
     </g>
     <g id="text_23">
      <!-- $\mathdefault{0.98}$ -->
      <g transform="translate(145.020929 148.608824) scale(0.14 -0.14)">
       <use xlink:href="#CMR17-30" transform="scale(0.996264)"/>
       <use xlink:href="#CMMI12-3a" transform="translate(45.690477 0) scale(0.996264)"/>
       <use xlink:href="#CMR17-39" transform="translate(72.787654 0) scale(0.996264)"/>
       <use xlink:href="#CMR17-38" transform="translate(118.478131 0) scale(0.996264)"/>
      </g>
     </g>
    </g>
    <g id="ytick_11">
     <g id="line2d_24">
      <g>
       <use xlink:href="#m640ae469aa" x="172.8" y="105.84" style="stroke: #000000; stroke-width: 0.8"/>
      </g>
     </g>
     <g id="text_24">
      <!-- $\mathdefault{0.99}$ -->
      <g transform="translate(145.020929 110.808824) scale(0.14 -0.14)">
       <use xlink:href="#CMR17-30" transform="scale(0.996264)"/>
       <use xlink:href="#CMMI12-3a" transform="translate(45.690477 0) scale(0.996264)"/>
       <use xlink:href="#CMR17-39" transform="translate(72.787654 0) scale(0.996264)"/>
       <use xlink:href="#CMR17-39" transform="translate(118.478131 0) scale(0.996264)"/>
      </g>
     </g>
    </g>
    <g id="ytick_12">
     <g id="line2d_25">
      <g>
       <use xlink:href="#m640ae469aa" x="172.8" y="68.04" style="stroke: #000000; stroke-width: 0.8"/>
      </g>
     </g>
     <g id="text_25">
      <!-- $\mathdefault{1.00}$ -->
      <g transform="translate(145.020929 73.008824) scale(0.14 -0.14)">
       <use xlink:href="#CMR17-31" transform="scale(0.996264)"/>
       <use xlink:href="#CMMI12-3a" transform="translate(45.690477 0) scale(0.996264)"/>
       <use xlink:href="#CMR17-30" transform="translate(72.787654 0) scale(0.996264)"/>
       <use xlink:href="#CMR17-30" transform="translate(118.478131 0) scale(0.996264)"/>
      </g>
     </g>
    </g>
    <g id="text_26">
     <!-- $\overline{\langle S^x \rangle}$ -->
     <g transform="translate(137.534005 134.082657) rotate(-90) scale(0.14 -0.14)">
      <use xlink:href="#CMSY10-68" transform="scale(0.996264)"/>
      <use xlink:href="#CMMI12-53" transform="translate(38.743734 0) scale(0.996264)"/>
      <use xlink:href="#CMMI12-78" transform="translate(104.538173 28.780957) scale(0.697382)"/>
      <use xlink:href="#CMSY10-69" transform="translate(143.839964 0) scale(0.996264)"/>
      <path d="M 0 86.67465 
L 182.583698 86.67465 
L 182.583698 90.659599 
L 0 90.659599 
L 0 86.67465 
z
"/>
     </g>
    </g>
   </g>
   <g id="line2d_26">
    <path d="M 199.024814 303.4 
L 199.39658 281.691742 
L 202.161656 166.999078 
L 204.926733 109.510664 
L 207.691809 86.905943 
L 210.456886 74.417605 
L 213.221962 69.116593 
L 215.987039 68.541036 
L 218.752115 71.651288 
L 221.517192 78.001381 
L 224.282268 87.655453 
L 227.047345 99.866996 
L 229.812421 111.952038 
L 232.577498 124.383401 
L 235.342574 136.077665 
L 238.107651 143.482138 
L 240.872727 144.05473 
L 243.637804 137.732456 
L 246.40288 126.832792 
L 249.167957 114.688929 
L 251.933033 103.53439 
L 254.69811 93.133268 
L 257.463186 83.74397 
L 260.228263 76.619926 
L 262.993339 71.814002 
L 265.758416 69.039557 
L 268.523492 68.103637 
L 271.288569 68.844301 
L 274.053645 71.091679 
L 276.818722 74.653896 
L 279.583798 79.305217 
L 282.348875 84.737007 
L 285.113951 90.309623 
L 287.879028 95.100304 
L 290.644104 98.397808 
L 293.409181 99.857453 
L 296.174257 99.370424 
L 298.939334 97.045241 
L 301.70441 93.183451 
L 304.469487 88.280801 
L 307.234563 83.040093 
L 309.99964 78.178435 
L 312.764716 74.122824 
L 315.529793 71.051769 
L 318.294869 69.053045 
L 321.059946 68.155847 
L 323.825023 68.338847 
L 326.590099 69.531649 
L 329.355176 71.616307 
L 332.120252 74.424385 
L 334.885329 77.733242 
L 337.650405 81.257207 
L 340.415482 84.610541 
L 343.180558 87.322472 
L 345.945635 88.989568 
L 348.710711 89.376544 
L 351.475788 88.445017 
L 354.240864 86.355681 
L 357.005941 83.425205 
L 359.771017 80.082488 
L 362.536094 76.738324 
L 365.30117 73.707427 
L 368.066247 71.21185 
L 370.831323 69.395858 
L 373.5964 68.342125 
L 376.361476 68.082942 
L 379.126553 68.602258 
L 381.891629 69.828742 
L 384.656706 71.649124 
L 387.421782 73.902139 
L 390.186859 76.380353 
L 392.951935 78.83017 
L 395.717012 80.970053 
L 398.482088 82.503787 
L 401.247165 83.226087 
L 404.012241 83.03058 
L 406.777318 81.957036 
L 409.542394 80.171211 
L 412.307471 77.930559 
L 415.072547 75.518558 
L 417.837624 73.18331 
L 420.6027 71.135193 
L 423.367777 69.542148 
L 426.132853 68.505565 
L 428.89793 68.082175 
L 431.663006 68.285407 
L 433 68.669486 
" clip-path="url(#pf21a9e7c7a)" style="fill: none; stroke-dasharray: 1.5,2.475; stroke-dashoffset: 0; stroke: #1f77b4; stroke-width: 1.5"/>
   </g>
   <g id="line2d_27">
    <path d="M 195.146816 303.4 
L 196.631503 195.122809 
L 199.39658 130.877807 
L 202.161656 100.218898 
L 204.926733 85.229371 
L 207.691809 75.796207 
L 210.456886 70.844169 
L 213.221962 68.531636 
L 215.987039 68.293841 
L 218.752115 69.747654 
L 221.517192 72.521327 
L 224.282268 76.267349 
L 227.047345 80.795594 
L 229.812421 85.886334 
L 232.577498 90.784713 
L 235.342574 94.511372 
L 238.107651 96.490685 
L 240.872727 96.565717 
L 243.637804 94.82302 
L 246.40288 91.540709 
L 249.167957 87.200289 
L 251.933033 82.529154 
L 254.69811 78.245361 
L 257.463186 74.673664 
L 260.228263 71.839324 
L 262.993339 69.765516 
L 265.758416 68.503988 
L 268.523492 68.07228 
L 271.288569 68.426476 
L 274.053645 69.46925 
L 276.818722 71.053482 
L 279.583798 72.997412 
L 282.348875 75.108041 
L 285.113951 77.190079 
L 287.879028 79.021945 
L 290.644104 80.348378 
L 293.409181 80.965607 
L 296.174257 80.773905 
L 298.939334 79.820898 
L 301.70441 78.277522 
L 304.469487 76.391649 
L 307.234563 74.397358 
L 309.99964 72.475907 
L 312.764716 70.777512 
L 315.529793 69.42269 
L 318.294869 68.50855 
L 321.059946 68.094316 
L 323.825023 68.189945 
L 326.590099 68.760913 
L 329.355176 69.727221 
L 332.120252 70.980347 
L 334.885329 72.390269 
L 337.650405 73.811071 
L 340.415482 75.098569 
L 343.180558 76.104312 
L 345.945635 76.716144 
L 348.710711 76.851669 
L 351.475788 76.498486 
L 354.240864 75.707687 
L 357.005941 74.592864 
L 359.771017 73.286246 
L 362.536094 71.920699 
L 365.30117 70.62261 
L 368.066247 69.511182 
L 370.831323 68.67655 
L 373.5964 68.181597 
L 376.361476 68.062347 
L 379.126553 68.313706 
L 381.891629 68.898504 
L 384.656706 69.748037 
L 387.421782 70.758345 
L 390.186859 71.822489 
L 392.951935 72.834568 
L 395.717012 73.679388 
L 398.482088 74.277161 
L 401.247165 74.54913 
L 404.012241 74.471219 
L 406.777318 74.051202 
L 409.542394 73.3435 
L 412.307471 72.440103 
L 415.072547 71.429141 
L 417.837624 70.415123 
L 420.6027 69.489578 
L 423.367777 68.747379 
L 426.132853 68.257756 
L 428.89793 68.060409 
L 431.663006 68.164149 
L 433 68.34966 
" clip-path="url(#pf21a9e7c7a)" style="fill: none; stroke-dasharray: 5.55,2.4; stroke-dashoffset: 0; stroke: #ff7f0e; stroke-width: 1.5"/>
   </g>
   <g id="line2d_28">
    <path d="M 191.076702 303.4 
L 191.10135 298.20449 
L 193.866427 141.092279 
L 196.631503 104.195534 
L 199.39658 88.182963 
L 202.161656 79.947375 
L 204.926733 74.206155 
L 207.691809 71.006914 
L 210.456886 69.123449 
L 213.221962 68.227384 
L 215.987039 68.143428 
L 218.752115 68.713416 
L 221.517192 69.805388 
L 224.282268 71.259051 
L 227.047345 72.89173 
L 229.812421 74.577561 
L 232.577498 76.203194 
L 235.342574 77.527935 
L 238.107651 78.28246 
L 240.872727 78.324468 
L 243.637804 77.667589 
L 246.40288 76.463475 
L 249.167957 74.960757 
L 251.933033 73.410993 
L 254.69811 71.95467 
L 257.463186 70.644657 
L 260.228263 69.539006 
L 262.993339 68.716098 
L 265.758416 68.220258 
L 268.523492 68.053076 
L 271.288569 68.19315 
L 274.053645 68.602279 
L 276.818722 69.22491 
L 279.583798 69.987716 
L 282.348875 70.80179 
L 285.113951 71.574011 
L 287.879028 72.220651 
L 290.644104 72.672854 
L 293.409181 72.878178 
L 296.174257 72.808891 
L 298.939334 72.482286 
L 301.70441 71.94662 
L 304.469487 71.268231 
L 307.234563 70.521421 
L 309.99964 69.779567 
L 312.764716 69.110817 
L 315.529793 68.577534 
L 318.294869 68.221126 
L 321.059946 68.060965 
L 323.825023 68.102085 
L 326.590099 68.332341 
L 329.355176 68.716588 
L 332.120252 69.214039 
L 334.885329 69.772522 
L 337.650405 70.328684 
L 340.415482 70.823339 
L 343.180558 71.203405 
L 345.945635 71.428678 
L 348.710711 71.475305 
L 351.475788 71.342292 
L 354.240864 71.045249 
L 357.005941 70.618519 
L 359.771017 70.110992 
L 362.536094 69.573731 
L 365.30117 69.063086 
L 368.066247 68.623213 
L 370.831323 68.292721 
L 373.5964 68.095879 
L 376.361476 68.049482 
L 379.126553 68.151121 
L 381.891629 68.383552 
L 384.656706 68.719632 
L 387.421782 69.118125 
L 390.186859 69.540563 
L 392.951935 69.937886 
L 395.717012 70.267492 
L 398.482088 70.492566 
L 401.247165 70.593155 
L 404.012241 70.56312 
L 406.777318 70.39908 
L 409.542394 70.124783 
L 412.307471 69.769957 
L 415.072547 69.370348 
L 417.837624 68.97068 
L 420.6027 68.608788 
L 423.367777 68.318888 
L 426.132853 68.125418 
L 428.89793 68.048059 
L 431.663006 68.092803 
L 433 68.169283 
" clip-path="url(#pf21a9e7c7a)" style="fill: none; stroke-dasharray: 9.6,2.4,1.5,2.4; stroke-dashoffset: 0; stroke: #2ca02c; stroke-width: 1.5"/>
   </g>
   <g id="line2d_29">
    <path d="M 215.654837 181.44 
L 215.654837 60.48 
" clip-path="url(#pf21a9e7c7a)" style="fill: none; stroke: #ff0000; stroke-opacity: 0.9; stroke-width: 0.4; stroke-linecap: square"/>
   </g>
   <g id="line2d_30">
    <path d="M 268.953416 181.44 
L 268.953416 60.48 
" clip-path="url(#pf21a9e7c7a)" style="fill: none; stroke: #ff0000; stroke-opacity: 0.9; stroke-width: 0.4; stroke-linecap: square"/>
   </g>
   <g id="line2d_31">
    <path d="M 322.566751 181.44 
L 322.566751 60.48 
" clip-path="url(#pf21a9e7c7a)" style="fill: none; stroke: #ff0000; stroke-opacity: 0.9; stroke-width: 0.4; stroke-linecap: square"/>
   </g>
   <g id="line2d_32">
    <path d="M 376.251203 181.44 
L 376.251203 60.48 
" clip-path="url(#pf21a9e7c7a)" style="fill: none; stroke: #ff0000; stroke-opacity: 0.9; stroke-width: 0.4; stroke-linecap: square"/>
   </g>
   <g id="line2d_33">
    <path d="M 429.962632 181.44 
L 429.962632 60.48 
" clip-path="url(#pf21a9e7c7a)" style="fill: none; stroke: #ff0000; stroke-opacity: 0.9; stroke-width: 0.4; stroke-linecap: square"/>
   </g>
   <g id="patch_8">
    <path d="M 172.8 181.44 
L 172.8 60.48 
" style="fill: none; stroke: #000000; stroke-linejoin: miter; stroke-linecap: square"/>
   </g>
   <g id="patch_9">
    <path d="M 345.6 181.44 
L 345.6 60.48 
" style="fill: none; stroke: #000000; stroke-linejoin: miter; stroke-linecap: square"/>
   </g>
   <g id="patch_10">
    <path d="M 172.8 181.44 
L 345.6 181.44 
" style="fill: none; stroke: #000000; stroke-linejoin: miter; stroke-linecap: square"/>
   </g>
   <g id="patch_11">
    <path d="M 172.8 60.48 
L 345.6 60.48 
" style="fill: none; stroke: #000000; stroke-linejoin: miter; stroke-linecap: square"/>
   </g>
  </g>
 </g>
 <defs>
  <clipPath id="pfd26a88e0f">
   <rect x="54" y="36.288" width="334.8" height="232.848"/>
  </clipPath>
  <clipPath id="pf21a9e7c7a">
   <rect x="172.8" y="60.48" width="172.8" height="120.96"/>
  </clipPath>
 </defs>
</svg>
