<?xml version="1.0" encoding="utf-8" standalone="no"?>
<!DOCTYPE svg PUBLIC "-//W3C//DTD SVG 1.1//EN"
  "http://www.w3.org/Graphics/SVG/1.1/DTD/svg11.dtd">
<svg xmlns:xlink="http://www.w3.org/1999/xlink" width="720pt" height="720pt" viewBox="0 0 720 720" xmlns="http://www.w3.org/2000/svg" version="1.1">
 <metadata>
  <rdf:RDF xmlns:dc="http://purl.org/dc/elements/1.1/" xmlns:cc="http://creativecommons.org/ns#" xmlns:rdf="http://www.w3.org/1999/02/22-rdf-syntax-ns#">
   <cc:Work>
    <dc:type rdf:resource="http://purl.org/dc/dcmitype/StillImage"/>
    <dc:date>2023-01-12T08:37:52.887759</dc:date>
    <dc:format>image/svg+xml</dc:format>
    <dc:creator>
     <cc:Agent>
      <dc:title>Matplotlib v3.5.1, https://matplotlib.org/</dc:title>
     </cc:Agent>
    </dc:creator>
   </cc:Work>
  </rdf:RDF>
 </metadata>
 <defs>
  <style type="text/css">*{stroke-linejoin: round; stroke-linecap: butt}</style>
 </defs>
 <g id="figure_1">
  <g id="patch_1">
   <path d="M 0 720 
L 720 720 
L 720 0 
L 0 0 
z
" style="fill: #ffffff"/>
  </g>
  <g id="axes_1">
   <g id="patch_2">
    <path d="M 102.090068 305.802897 
L 698.4 305.802897 
L 698.4 21.6 
L 102.090068 21.6 
z
" style="fill: #ffffff"/>
   </g>
   <g id="matplotlib.axis_1">
    <g id="xtick_1">
     <g id="line2d_1">
      <defs>
       <path id="m369d36b0fc" d="M 0 0 
L 0 -3.5 
" style="stroke: #000000; stroke-width: 0.8"/>
      </defs>
      <g>
       <use xlink:href="#m369d36b0fc" x="129.195065" y="305.802897" style="stroke: #000000; stroke-width: 0.8"/>
      </g>
     </g>
     <g id="text_1">
      <!-- $\mathdefault{10^{0}}$ -->
      <g transform="translate(116.642741 323.139894)scale(0.2 -0.2)">
       <defs>
        <path id="CMR17-31" d="M 1702 4083 
C 1702 4217 1696 4224 1606 4224 
C 1357 3927 979 3833 621 3820 
C 602 3820 570 3820 563 3808 
C 557 3795 557 3782 557 3648 
C 755 3648 1088 3686 1344 3839 
L 1344 467 
C 1344 243 1331 166 781 166 
L 589 166 
L 589 0 
C 896 6 1216 12 1523 12 
C 1830 12 2150 6 2458 0 
L 2458 166 
L 2266 166 
C 1715 166 1702 236 1702 467 
L 1702 4083 
z
" transform="scale(0.015625)"/>
        <path id="CMR17-30" d="M 2688 2038 
C 2688 2430 2682 3099 2413 3613 
C 2176 4063 1798 4224 1466 4224 
C 1158 4224 768 4082 525 3620 
C 269 3137 243 2539 243 2038 
C 243 1671 250 1112 448 623 
C 723 -39 1216 -128 1466 -128 
C 1760 -128 2208 -7 2470 604 
C 2662 1048 2688 1568 2688 2038 
z
M 1466 -26 
C 1056 -26 813 328 723 816 
C 653 1196 653 1749 653 2109 
C 653 2604 653 3015 736 3407 
C 858 3954 1216 4121 1466 4121 
C 1728 4121 2067 3947 2189 3420 
C 2272 3054 2278 2623 2278 2109 
C 2278 1691 2278 1176 2202 797 
C 2067 96 1690 -26 1466 -26 
z
" transform="scale(0.015625)"/>
       </defs>
       <use xlink:href="#CMR17-31" transform="scale(0.996264)"/>
       <use xlink:href="#CMR17-30" transform="translate(45.690477 0)scale(0.996264)"/>
       <use xlink:href="#CMR17-30" transform="translate(91.380954 36.153639)scale(0.697382)"/>
      </g>
     </g>
    </g>
    <g id="xtick_2">
     <g id="line2d_2">
      <g>
       <use xlink:href="#m369d36b0fc" x="448.270703" y="305.802897" style="stroke: #000000; stroke-width: 0.8"/>
      </g>
     </g>
     <g id="text_2">
      <!-- $\mathdefault{10^{1}}$ -->
      <g transform="translate(435.718379 323.139894)scale(0.2 -0.2)">
       <use xlink:href="#CMR17-31" transform="scale(0.996264)"/>
       <use xlink:href="#CMR17-30" transform="translate(45.690477 0)scale(0.996264)"/>
       <use xlink:href="#CMR17-31" transform="translate(91.380954 36.153639)scale(0.697382)"/>
      </g>
     </g>
    </g>
    <g id="xtick_3">
     <g id="line2d_3">
      <defs>
       <path id="m7803d1e1bb" d="M 0 0 
L 0 -2 
" style="stroke: #000000; stroke-width: 0.6"/>
      </defs>
      <g>
       <use xlink:href="#m7803d1e1bb" x="114.594965" y="305.802897" style="stroke: #000000; stroke-width: 0.6"/>
      </g>
     </g>
    </g>
    <g id="xtick_4">
     <g id="line2d_4">
      <g>
       <use xlink:href="#m7803d1e1bb" x="225.246403" y="305.802897" style="stroke: #000000; stroke-width: 0.6"/>
      </g>
     </g>
    </g>
    <g id="xtick_5">
     <g id="line2d_5">
      <g>
       <use xlink:href="#m7803d1e1bb" x="281.432834" y="305.802897" style="stroke: #000000; stroke-width: 0.6"/>
      </g>
     </g>
    </g>
    <g id="xtick_6">
     <g id="line2d_6">
      <g>
       <use xlink:href="#m7803d1e1bb" x="321.297741" y="305.802897" style="stroke: #000000; stroke-width: 0.6"/>
      </g>
     </g>
    </g>
    <g id="xtick_7">
     <g id="line2d_7">
      <g>
       <use xlink:href="#m7803d1e1bb" x="352.219365" y="305.802897" style="stroke: #000000; stroke-width: 0.6"/>
      </g>
     </g>
    </g>
    <g id="xtick_8">
     <g id="line2d_8">
      <g>
       <use xlink:href="#m7803d1e1bb" x="377.484172" y="305.802897" style="stroke: #000000; stroke-width: 0.6"/>
      </g>
     </g>
    </g>
    <g id="xtick_9">
     <g id="line2d_9">
      <g>
       <use xlink:href="#m7803d1e1bb" x="398.845261" y="305.802897" style="stroke: #000000; stroke-width: 0.6"/>
      </g>
     </g>
    </g>
    <g id="xtick_10">
     <g id="line2d_10">
      <g>
       <use xlink:href="#m7803d1e1bb" x="417.349079" y="305.802897" style="stroke: #000000; stroke-width: 0.6"/>
      </g>
     </g>
    </g>
    <g id="xtick_11">
     <g id="line2d_11">
      <g>
       <use xlink:href="#m7803d1e1bb" x="433.670603" y="305.802897" style="stroke: #000000; stroke-width: 0.6"/>
      </g>
     </g>
    </g>
    <g id="xtick_12">
     <g id="line2d_12">
      <g>
       <use xlink:href="#m7803d1e1bb" x="544.322041" y="305.802897" style="stroke: #000000; stroke-width: 0.6"/>
      </g>
     </g>
    </g>
    <g id="xtick_13">
     <g id="line2d_13">
      <g>
       <use xlink:href="#m7803d1e1bb" x="600.508472" y="305.802897" style="stroke: #000000; stroke-width: 0.6"/>
      </g>
     </g>
    </g>
    <g id="xtick_14">
     <g id="line2d_14">
      <g>
       <use xlink:href="#m7803d1e1bb" x="640.373379" y="305.802897" style="stroke: #000000; stroke-width: 0.6"/>
      </g>
     </g>
    </g>
    <g id="xtick_15">
     <g id="line2d_15">
      <g>
       <use xlink:href="#m7803d1e1bb" x="671.295003" y="305.802897" style="stroke: #000000; stroke-width: 0.6"/>
      </g>
     </g>
    </g>
    <g id="xtick_16">
     <g id="line2d_16">
      <g>
       <use xlink:href="#m7803d1e1bb" x="696.55981" y="305.802897" style="stroke: #000000; stroke-width: 0.6"/>
      </g>
     </g>
    </g>
    <g id="text_3">
     <!-- $\omega$ -->
     <g transform="translate(391.133473 333.663464)scale(0.3 -0.3)">
      <defs>
       <path id="CMMI12-21" d="M 3802 2406 
C 3802 2592 3750 2828 3526 2828 
C 3398 2828 3251 2668 3251 2540 
C 3251 2483 3277 2444 3328 2387 
C 3424 2278 3546 2105 3546 1804 
C 3546 1574 3405 1209 3302 1011 
C 3123 659 2829 358 2496 358 
C 2093 358 1939 614 1869 972 
C 1939 1139 2086 1555 2086 1721 
C 2086 1792 2061 1849 1978 1849 
C 1933 1849 1882 1824 1850 1772 
C 1760 1632 1677 1126 1683 992 
C 1562 755 1216 358 806 358 
C 378 358 262 736 262 1100 
C 262 1766 678 2348 794 2508 
C 858 2604 902 2668 902 2681 
C 902 2726 877 2796 819 2796 
C 717 2796 685 2713 634 2636 
C 307 2131 77 1420 77 806 
C 77 409 224 -64 704 -64 
C 1235 -64 1568 390 1702 633 
C 1754 275 1946 -64 2413 -64 
C 2899 -64 3206 364 3437 883 
C 3603 1254 3802 2054 3802 2406 
z
" transform="scale(0.015625)"/>
      </defs>
      <use xlink:href="#CMMI12-21" transform="scale(0.996264)"/>
     </g>
    </g>
   </g>
   <g id="matplotlib.axis_2">
    <g id="ytick_1">
     <g id="line2d_17">
      <defs>
       <path id="mcef082b775" d="M 0 0 
L 3.5 0 
" style="stroke: #000000; stroke-width: 0.8"/>
      </defs>
      <g>
       <use xlink:href="#mcef082b775" x="102.090068" y="282.119322" style="stroke: #000000; stroke-width: 0.8"/>
      </g>
     </g>
     <g id="text_4">
      <!-- $\mathdefault{0.0}$ -->
      <g transform="translate(74.894442 289.03782)scale(0.2 -0.2)">
       <defs>
        <path id="CMMI12-3a" d="M 1178 307 
C 1178 492 1024 620 870 620 
C 685 620 557 467 557 313 
C 557 128 710 0 864 0 
C 1050 0 1178 153 1178 307 
z
" transform="scale(0.015625)"/>
       </defs>
       <use xlink:href="#CMR17-30" transform="scale(0.996264)"/>
       <use xlink:href="#CMMI12-3a" transform="translate(45.690477 0)scale(0.996264)"/>
       <use xlink:href="#CMR17-30" transform="translate(72.787654 0)scale(0.996264)"/>
      </g>
     </g>
    </g>
    <g id="ytick_2">
     <g id="line2d_18">
      <g>
       <use xlink:href="#mcef082b775" x="102.090068" y="234.752173" style="stroke: #000000; stroke-width: 0.8"/>
      </g>
     </g>
     <g id="text_5">
      <!-- $\mathdefault{0.2}$ -->
      <g transform="translate(74.894442 241.670671)scale(0.2 -0.2)">
       <defs>
        <path id="CMR17-32" d="M 2669 990 
L 2554 990 
C 2490 537 2438 460 2413 422 
C 2381 371 1920 371 1830 371 
L 602 371 
C 832 620 1280 1073 1824 1596 
C 2214 1966 2669 2400 2669 3033 
C 2669 3788 2067 4224 1395 4224 
C 691 4224 262 3603 262 3027 
C 262 2777 448 2745 525 2745 
C 589 2745 781 2783 781 3007 
C 781 3206 614 3264 525 3264 
C 486 3264 448 3257 422 3244 
C 544 3788 915 4057 1306 4057 
C 1862 4057 2227 3616 2227 3033 
C 2227 2477 1901 1998 1536 1583 
L 262 147 
L 262 0 
L 2515 0 
L 2669 990 
z
" transform="scale(0.015625)"/>
       </defs>
       <use xlink:href="#CMR17-30" transform="scale(0.996264)"/>
       <use xlink:href="#CMMI12-3a" transform="translate(45.690477 0)scale(0.996264)"/>
       <use xlink:href="#CMR17-32" transform="translate(72.787654 0)scale(0.996264)"/>
      </g>
     </g>
    </g>
    <g id="ytick_3">
     <g id="line2d_19">
      <g>
       <use xlink:href="#mcef082b775" x="102.090068" y="187.385023" style="stroke: #000000; stroke-width: 0.8"/>
      </g>
     </g>
     <g id="text_6">
      <!-- $\mathdefault{0.4}$ -->
      <g transform="translate(74.894442 194.303522)scale(0.2 -0.2)">
       <defs>
        <path id="CMR17-34" d="M 2150 4147 
C 2150 4281 2144 4288 2029 4288 
L 128 1254 
L 128 1088 
L 1779 1088 
L 1779 460 
C 1779 230 1766 166 1318 166 
L 1197 166 
L 1197 0 
C 1402 12 1747 12 1965 12 
C 2182 12 2528 12 2733 0 
L 2733 166 
L 2611 166 
C 2163 166 2150 230 2150 460 
L 2150 1088 
L 2803 1088 
L 2803 1254 
L 2150 1254 
L 2150 4147 
z
M 1798 3723 
L 1798 1254 
L 256 1254 
L 1798 3723 
z
" transform="scale(0.015625)"/>
       </defs>
       <use xlink:href="#CMR17-30" transform="scale(0.996264)"/>
       <use xlink:href="#CMMI12-3a" transform="translate(45.690477 0)scale(0.996264)"/>
       <use xlink:href="#CMR17-34" transform="translate(72.787654 0)scale(0.996264)"/>
      </g>
     </g>
    </g>
    <g id="ytick_4">
     <g id="line2d_20">
      <g>
       <use xlink:href="#mcef082b775" x="102.090068" y="140.017874" style="stroke: #000000; stroke-width: 0.8"/>
      </g>
     </g>
     <g id="text_7">
      <!-- $\mathdefault{0.6}$ -->
      <g transform="translate(74.894442 146.936372)scale(0.2 -0.2)">
       <defs>
        <path id="CMR17-36" d="M 678 2198 
C 678 3712 1395 4076 1811 4076 
C 1946 4076 2272 4049 2400 3782 
C 2298 3782 2106 3782 2106 3558 
C 2106 3385 2246 3328 2336 3328 
C 2394 3328 2566 3353 2566 3571 
C 2566 3987 2246 4224 1805 4224 
C 1043 4224 243 3411 243 2011 
C 243 257 966 -128 1478 -128 
C 2099 -128 2688 431 2688 1295 
C 2688 2101 2170 2688 1517 2688 
C 1126 2688 838 2430 678 1979 
L 678 2198 
z
M 1478 25 
C 691 25 691 1212 691 1450 
C 691 1914 909 2585 1504 2585 
C 1613 2585 1926 2585 2138 2140 
C 2253 1889 2253 1624 2253 1302 
C 2253 954 2253 696 2118 438 
C 1978 173 1773 25 1478 25 
z
" transform="scale(0.015625)"/>
       </defs>
       <use xlink:href="#CMR17-30" transform="scale(0.996264)"/>
       <use xlink:href="#CMMI12-3a" transform="translate(45.690477 0)scale(0.996264)"/>
       <use xlink:href="#CMR17-36" transform="translate(72.787654 0)scale(0.996264)"/>
      </g>
     </g>
    </g>
    <g id="ytick_5">
     <g id="line2d_21">
      <g>
       <use xlink:href="#mcef082b775" x="102.090068" y="92.650724" style="stroke: #000000; stroke-width: 0.8"/>
      </g>
     </g>
     <g id="text_8">
      <!-- $\mathdefault{0.8}$ -->
      <g transform="translate(74.894442 99.569223)scale(0.2 -0.2)">
       <defs>
        <path id="CMR17-38" d="M 1741 2289 
C 2144 2494 2554 2803 2554 3298 
C 2554 3884 1990 4224 1472 4224 
C 890 4224 378 3800 378 3215 
C 378 3054 416 2777 666 2533 
C 730 2469 998 2276 1171 2154 
C 883 2006 211 1652 211 945 
C 211 282 838 -128 1459 -128 
C 2144 -128 2720 366 2720 1022 
C 2720 1607 2330 1877 2074 2051 
L 1741 2289 
z
M 902 2855 
C 851 2887 595 3086 595 3388 
C 595 3781 998 4076 1459 4076 
C 1965 4076 2336 3716 2336 3298 
C 2336 2700 1670 2359 1638 2359 
C 1632 2359 1626 2359 1574 2398 
L 902 2855 
z
M 2080 1536 
C 2176 1466 2483 1253 2483 861 
C 2483 385 2010 25 1472 25 
C 890 25 448 443 448 951 
C 448 1459 838 1884 1280 2083 
L 2080 1536 
z
" transform="scale(0.015625)"/>
       </defs>
       <use xlink:href="#CMR17-30" transform="scale(0.996264)"/>
       <use xlink:href="#CMMI12-3a" transform="translate(45.690477 0)scale(0.996264)"/>
       <use xlink:href="#CMR17-38" transform="translate(72.787654 0)scale(0.996264)"/>
      </g>
     </g>
    </g>
    <g id="ytick_6">
     <g id="line2d_22">
      <g>
       <use xlink:href="#mcef082b775" x="102.090068" y="45.283575" style="stroke: #000000; stroke-width: 0.8"/>
      </g>
     </g>
     <g id="text_9">
      <!-- $\mathdefault{1.0}$ -->
      <g transform="translate(74.894442 52.202073)scale(0.2 -0.2)">
       <use xlink:href="#CMR17-31" transform="scale(0.996264)"/>
       <use xlink:href="#CMMI12-3a" transform="translate(45.690477 0)scale(0.996264)"/>
       <use xlink:href="#CMR17-30" transform="translate(72.787654 0)scale(0.996264)"/>
      </g>
     </g>
    </g>
    <g id="text_10">
     <!-- $\phi_{{\tiny IPR}}$ -->
     <g transform="translate(50.049908 188.552273)rotate(-90)scale(0.25 -0.25)">
      <defs>
       <path id="CMMI12-1e" d="M 2752 4358 
C 2752 4416 2707 4416 2688 4416 
C 2630 4416 2624 4403 2598 4294 
L 2253 2924 
C 2234 2841 2227 2835 2221 2828 
C 2214 2816 2170 2809 2157 2809 
C 1107 2720 301 1863 301 1071 
C 301 387 832 -32 1498 -71 
C 1446 -266 1402 -467 1350 -662 
C 1261 -995 1210 -1204 1210 -1229 
C 1210 -1242 1210 -1280 1274 -1280 
C 1293 -1280 1318 -1280 1331 -1255 
C 1344 -1242 1382 -1089 1408 -1008 
L 1645 -71 
C 2739 -13 3571 875 3571 1673 
C 3571 2313 3085 2771 2374 2816 
L 2752 4358 
z
M 2336 2688 
C 2758 2662 3181 2428 3181 1806 
C 3181 1090 2675 140 1677 64 
L 2336 2688 
z
M 1530 57 
C 1216 76 691 241 691 938 
C 691 1737 1274 2624 2195 2681 
L 1530 57 
z
" transform="scale(0.015625)"/>
       <path id="CMMI12-49" d="M 2355 3879 
C 2413 4102 2426 4166 2893 4166 
C 3034 4166 3085 4166 3085 4287 
C 3085 4352 3014 4352 2995 4352 
C 2880 4352 2739 4339 2624 4339 
L 1837 4339 
C 1709 4339 1562 4352 1434 4352 
C 1382 4352 1312 4352 1312 4230 
C 1312 4166 1363 4166 1491 4166 
C 1888 4166 1888 4115 1888 4045 
C 1888 4000 1875 3962 1862 3905 
L 998 472 
C 941 249 928 185 461 185 
C 320 185 262 185 262 64 
C 262 0 326 0 358 0 
C 474 0 614 12 730 12 
L 1517 12 
C 1645 12 1786 0 1914 0 
C 1965 0 2042 0 2042 115 
C 2042 185 2003 185 1862 185 
C 1466 185 1466 236 1466 312 
C 1466 325 1466 357 1491 459 
L 2355 3879 
z
" transform="scale(0.015625)"/>
       <path id="CMMI12-50" d="M 1894 2022 
L 2970 2022 
C 3853 2022 4736 2673 4736 3400 
C 4736 3898 4314 4352 3507 4352 
L 1530 4352 
C 1408 4352 1350 4352 1350 4230 
C 1350 4166 1408 4166 1504 4166 
C 1894 4166 1894 4115 1894 4045 
C 1894 4032 1894 3994 1869 3898 
L 1005 471 
C 947 249 934 185 486 185 
C 365 185 301 185 301 70 
C 301 0 358 0 397 0 
C 518 0 646 12 768 12 
L 1517 12 
C 1638 12 1773 0 1894 0 
C 1946 0 2016 0 2016 121 
C 2016 185 1958 185 1862 185 
C 1478 185 1472 230 1472 293 
C 1472 325 1478 369 1485 401 
L 1894 2022 
z
M 2355 3917 
C 2413 4153 2438 4166 2688 4166 
L 3322 4166 
C 3802 4166 4198 4013 4198 3534 
C 4198 3369 4115 2826 3821 2533 
C 3712 2418 3405 2176 2822 2176 
L 1920 2176 
L 2355 3917 
z
" transform="scale(0.015625)"/>
       <path id="CMMI12-52" d="M 2355 3917 
C 2413 4153 2438 4166 2688 4166 
L 3149 4166 
C 3699 4166 4109 4000 4109 3503 
C 4109 3177 3942 2240 2656 2240 
L 1933 2240 
L 2355 3917 
z
M 3245 2163 
C 4038 2335 4659 2846 4659 3394 
C 4659 3892 4154 4352 3264 4352 
L 1530 4352 
C 1402 4352 1344 4352 1344 4230 
C 1344 4166 1389 4166 1510 4166 
C 1894 4166 1894 4115 1894 4045 
C 1894 4032 1894 3994 1869 3898 
L 1005 475 
C 947 253 934 190 493 190 
C 346 190 301 190 301 69 
C 301 6 371 6 390 6 
C 506 6 640 19 762 19 
L 1517 19 
C 1632 19 1766 6 1882 6 
C 1933 6 2003 6 2003 126 
C 2003 190 1946 190 1850 190 
C 1459 190 1459 241 1459 304 
C 1459 310 1459 355 1472 405 
L 1901 2112 
L 2669 2112 
C 3277 2112 3392 1731 3392 1522 
C 3392 1426 3328 1179 3283 1014 
C 3213 723 3194 653 3194 532 
C 3194 82 3565 -128 3994 -128 
C 4512 -128 4736 501 4736 589 
C 4736 634 4704 653 4666 653 
C 4614 653 4602 615 4589 564 
C 4435 114 4173 0 4013 0 
C 3853 0 3750 69 3750 355 
C 3750 507 3827 1084 3834 1116 
C 3866 1350 3866 1376 3866 1426 
C 3866 1889 3488 2086 3245 2163 
z
" transform="scale(0.015625)"/>
      </defs>
      <use xlink:href="#CMMI12-1e" transform="scale(0.996264)"/>
      <use xlink:href="#CMMI12-49" transform="translate(57.73418 -14.943915)scale(0.697382)"/>
      <use xlink:href="#CMMI12-50" transform="translate(93.333562 -14.943915)scale(0.697382)"/>
      <use xlink:href="#CMMI12-52" transform="translate(146.831386 -14.943915)scale(0.697382)"/>
     </g>
    </g>
   </g>
   <g id="line2d_23">
    <path d="M 129.195065 214.808895 
L 134.670822 218.87396 
L 140.146579 211.858025 
L 145.622336 218.388142 
L 151.098093 212.331796 
L 156.57385 218.617745 
L 162.049607 214.411439 
L 167.525364 211.809364 
L 173.001121 201.433734 
L 178.476878 218.88228 
L 183.952635 218.501912 
L 189.428392 218.206816 
L 194.904149 215.470434 
L 200.379906 217.765211 
L 205.855663 217.594828 
L 211.331419 218.452085 
L 216.807176 218.430405 
L 222.282933 218.196888 
L 227.75869 218.214744 
L 233.234447 216.886151 
L 238.710204 217.754455 
L 244.185961 217.861225 
L 249.661718 217.708326 
L 255.137475 217.684938 
L 260.613232 217.657799 
L 266.088989 217.644824 
L 271.564746 217.608275 
L 277.040503 217.58694 
L 282.51626 217.567757 
L 287.992017 217.479961 
L 293.467774 217.535408 
L 298.943531 217.521668 
L 304.419288 217.793827 
L 309.895045 218.696478 
L 315.370801 218.689397 
L 320.846558 218.681677 
L 326.322315 218.673428 
L 331.798072 218.664745 
L 337.273829 218.655718 
L 342.749586 217.132709 
L 348.225343 218.636911 
L 353.7011 217.02953 
L 359.176857 216.980031 
L 364.652614 211.055569 
L 370.128371 210.95191 
L 375.604128 210.851958 
L 381.079885 210.755587 
L 386.555642 175.366436 
L 392.031399 197.40062 
L 397.507156 144.087939 
L 402.982913 143.921805 
L 408.45867 108.272699 
L 413.934427 75.973854 
L 419.410184 56.663243 
L 424.88594 56.638312 
L 430.361697 56.614441 
L 435.837454 56.591576 
L 441.313211 56.56967 
L 446.788968 56.548678 
L 452.264725 56.528561 
L 457.740482 56.509271 
L 463.216239 56.49078 
L 468.691996 56.473051 
L 474.167753 56.456038 
L 479.64351 56.439724 
L 485.119267 56.424068 
L 490.595024 56.409049 
L 496.070781 56.394637 
L 501.546538 56.380806 
L 507.022295 56.367519 
L 512.498052 56.354775 
L 517.973809 56.342532 
L 523.449566 56.3308 
L 528.925322 56.319515 
L 534.401079 56.308683 
L 539.876836 56.298282 
L 545.352593 56.288286 
L 550.82835 56.2787 
L 556.304107 56.269486 
L 561.779864 56.260636 
L 567.255621 56.252119 
L 572.731378 56.243944 
L 578.207135 56.236196 
L 583.682892 56.22865 
L 589.158649 56.221421 
L 594.634406 56.214465 
L 600.110163 56.207675 
L 605.58592 56.201237 
L 611.061677 56.195067 
L 616.537434 56.189164 
L 622.013191 56.183465 
L 627.488948 56.178059 
L 632.964704 56.172699 
L 638.440461 56.16763 
L 643.916218 56.162782 
L 649.391975 56.158116 
L 654.867732 56.153625 
L 660.343489 56.149319 
L 665.819246 56.145202 
L 671.295003 56.141224 
" clip-path="url(#p98ea034b0a)" style="fill: none; stroke: #1f77b4; stroke-width: 1.5; stroke-linecap: square"/>
   </g>
   <g id="line2d_24">
    <path d="M 129.195065 240.120516 
L 134.670822 241.03713 
L 140.146579 242.730335 
L 145.622336 242.333048 
L 151.098093 241.719026 
L 156.57385 240.93621 
L 162.049607 241.669002 
L 167.525364 242.194774 
L 173.001121 242.165983 
L 178.476878 242.139171 
L 183.952635 241.574847 
L 189.428392 242.431143 
L 194.904149 242.06841 
L 200.379906 242.04781 
L 205.855663 242.58318 
L 211.331419 242.566518 
L 216.807176 242.326738 
L 222.282933 242.536265 
L 227.75869 241.961097 
L 233.234447 242.450631 
L 238.710204 242.4975 
L 244.185961 242.512009 
L 249.661718 242.597972 
L 255.137475 242.504651 
L 260.613232 242.599097 
L 266.088989 242.498455 
L 271.564746 242.60053 
L 277.040503 243.10158 
L 282.51626 242.813611 
L 287.992017 243.38623 
L 293.467774 242.820093 
L 298.943531 243.451432 
L 304.419288 239.556165 
L 309.895045 241.77944 
L 315.370801 241.760075 
L 320.846558 242.98813 
L 326.322315 241.723385 
L 331.798072 239.417609 
L 337.273829 239.392966 
L 342.749586 236.01697 
L 348.225343 239.346449 
L 353.7011 231.847666 
L 359.176857 243.422261 
L 364.652614 227.56529 
L 370.128371 224.038634 
L 375.604128 221.945461 
L 381.079885 221.366738 
L 386.555642 221.29673 
L 392.031399 235.800965 
L 397.507156 239.176277 
L 402.982913 212.652988 
L 408.45867 140.887895 
L 413.934427 55.660779 
L 419.410184 55.654945 
L 424.88594 55.649338 
L 430.361697 55.643944 
L 435.837454 55.638772 
L 441.313211 55.633795 
L 446.788968 55.629022 
L 452.264725 55.624417 
L 457.740482 55.620013 
L 463.216239 55.615781 
L 468.691996 55.611715 
L 474.167753 55.607808 
L 479.64351 55.604056 
L 485.119267 55.600452 
L 490.595024 55.596989 
L 496.070781 55.593659 
L 501.546538 55.590458 
L 507.022295 55.587387 
L 512.498052 55.584437 
L 517.973809 55.581684 
L 523.449566 55.578874 
L 528.925322 55.576274 
L 534.401079 55.573739 
L 539.876836 55.571294 
L 545.352593 55.569016 
L 550.82835 55.566796 
L 556.304107 55.564648 
L 561.779864 55.5626 
L 567.255621 55.560641 
L 572.731378 55.558736 
L 578.207135 55.556903 
L 583.682892 55.555172 
L 589.158649 55.553483 
L 594.634406 55.551861 
L 600.110163 55.550223 
L 605.58592 55.548711 
L 611.061677 55.547288 
L 616.537434 55.546155 
L 622.013191 55.544828 
L 627.488948 55.543552 
L 632.964704 55.542326 
L 638.440461 55.541153 
L 643.916218 55.539584 
L 649.391975 55.538461 
L 654.867732 55.537394 
L 660.343489 55.536343 
L 665.819246 55.535358 
L 671.295003 55.534445 
" clip-path="url(#p98ea034b0a)" style="fill: none; stroke: #ff7f0e; stroke-width: 1.5; stroke-linecap: square"/>
   </g>
   <g id="line2d_25">
    <path d="M 129.195065 251.222486 
L 134.670822 253.156726 
L 140.146579 251.552859 
L 145.622336 252.337834 
L 151.098093 251.545458 
L 156.57385 252.658292 
L 162.049607 252.309227 
L 167.525364 252.300709 
L 173.001121 253.813342 
L 178.476878 252.617425 
L 183.952635 253.059839 
L 189.428392 252.862243 
L 194.904149 253.203791 
L 200.379906 253.030553 
L 205.855663 253.185996 
L 211.331419 253.177758 
L 216.807176 253.169921 
L 222.282933 252.813594 
L 227.75869 253.132698 
L 233.234447 253.152805 
L 238.710204 253.090653 
L 244.185961 253.1748 
L 249.661718 253.09589 
L 255.137475 253.08079 
L 260.613232 253.177943 
L 266.088989 253.095038 
L 271.564746 253.064177 
L 277.040503 253.509198 
L 282.51626 253.181848 
L 287.992017 253.087828 
L 293.467774 253.697635 
L 298.943531 253.698964 
L 304.419288 248.622414 
L 309.895045 248.61048 
L 315.370801 250.234841 
L 320.846558 250.224002 
L 326.322315 248.577473 
L 331.798072 246.943426 
L 337.273829 246.934986 
L 342.749586 245.582585 
L 348.225343 253.389932 
L 353.7011 245.571841 
L 359.176857 244.462912 
L 364.652614 244.619549 
L 370.128371 250.143615 
L 375.604128 244.788466 
L 381.079885 239.745298 
L 386.555642 245.544573 
L 392.031399 225.953494 
L 397.507156 223.088594 
L 402.982913 220.199203 
L 408.45867 173.217958 
L 413.934427 55.379959 
L 419.410184 55.377443 
L 424.88594 55.375021 
L 430.361697 55.372685 
L 435.837454 55.370426 
L 441.313211 55.368277 
L 446.788968 55.36621 
L 452.264725 55.364222 
L 457.740482 55.362314 
L 463.216239 55.360483 
L 468.691996 55.358719 
L 474.167753 55.357057 
L 479.64351 55.355428 
L 485.119267 55.353849 
L 490.595024 55.352357 
L 496.070781 55.350906 
L 501.546538 55.349531 
L 507.022295 55.348198 
L 512.498052 55.346916 
L 517.973809 55.345684 
L 523.449566 55.344515 
L 528.925322 55.34335 
L 534.401079 55.342281 
L 539.876836 55.341192 
L 545.352593 55.340206 
L 550.82835 55.339202 
L 556.304107 55.338265 
L 561.779864 55.337363 
L 567.255621 55.336489 
L 572.731378 55.335674 
L 578.207135 55.334886 
L 583.682892 55.334092 
L 589.158649 55.333345 
L 594.634406 55.332636 
L 600.110163 55.331954 
L 605.58592 55.331325 
L 611.061677 55.330693 
L 616.537434 55.330551 
L 622.013191 55.329991 
L 627.488948 55.329455 
L 632.964704 55.328941 
L 638.440461 55.328449 
L 643.916218 55.327977 
L 649.391975 55.327525 
L 654.867732 55.327097 
L 660.343489 55.326425 
L 665.819246 55.326001 
L 671.295003 55.32565 
" clip-path="url(#p98ea034b0a)" style="fill: none; stroke: #2ca02c; stroke-width: 1.5; stroke-linecap: square"/>
   </g>
   <g id="line2d_26">
    <path d="M 129.195065 262.957254 
L 134.670822 262.953053 
L 140.146579 262.949064 
L 145.622336 262.501768 
L 151.098093 262.116902 
L 156.57385 262.114695 
L 162.049607 261.805683 
L 167.525364 262.299468 
L 173.001121 262.937289 
L 178.476878 262.654367 
L 183.952635 262.291918 
L 189.428392 261.804832 
L 194.904149 262.472481 
L 200.379906 263.083178 
L 205.855663 263.143621 
L 211.331419 263.143921 
L 216.807176 263.140587 
L 222.282933 263.074221 
L 227.75869 263.134303 
L 233.234447 263.131369 
L 238.710204 263.062981 
L 244.185961 262.825604 
L 249.661718 262.824873 
L 255.137475 262.81846 
L 260.613232 262.949769 
L 266.088989 262.894308 
L 271.564746 263.000773 
L 277.040503 263.04798 
L 282.51626 262.848098 
L 287.992017 263.075797 
L 293.467774 262.841948 
L 298.943531 262.978352 
L 304.419288 259.833038 
L 309.895045 260.017262 
L 315.370801 259.93549 
L 320.846558 261.94567 
L 326.322315 262.431437 
L 331.798072 260.012556 
L 337.273829 261.390797 
L 342.749586 261.388533 
L 348.225343 260.838892 
L 353.7011 261.932053 
L 359.176857 259.939024 
L 364.652614 259.821858 
L 370.128371 260.088454 
L 375.604128 260.088714 
L 381.079885 260.088963 
L 386.555642 257.704403 
L 392.031399 257.702351 
L 397.507156 256.595461 
L 402.982913 256.593673 
L 408.45867 254.75921 
L 413.934427 254.759398 
L 419.410184 254.932225 
L 424.88594 253.14157 
L 430.361697 227.441263 
L 435.837454 213.889354 
L 441.313211 55.170445 
L 446.788968 55.169711 
L 452.264725 55.168996 
L 457.740482 55.168407 
L 463.216239 55.167756 
L 468.691996 55.167135 
L 474.167753 55.166536 
L 479.64351 55.165956 
L 485.119267 55.165397 
L 490.595024 55.164861 
L 496.070781 55.164348 
L 501.546538 55.163894 
L 507.022295 55.163418 
L 512.498052 55.162969 
L 517.973809 55.162548 
L 523.449566 55.162117 
L 528.925322 55.161668 
L 534.401079 55.16136 
L 539.876836 55.161012 
L 545.352593 55.160689 
L 550.82835 55.16034 
L 556.304107 55.160053 
L 561.779864 55.159735 
L 567.255621 55.159326 
L 572.731378 55.159039 
L 578.207135 55.158857 
L 583.682892 55.158589 
L 589.158649 55.158389 
L 594.634406 55.15814 
L 600.110163 55.157909 
L 605.58592 55.157541 
L 611.061677 55.157309 
L 616.537434 55.157097 
L 622.013191 55.156876 
L 627.488948 55.156721 
L 632.964704 55.156532 
L 638.440461 55.156356 
L 643.916218 55.156172 
L 649.391975 55.155979 
L 654.867732 55.155826 
L 660.343489 55.155597 
L 665.819246 55.155547 
L 671.295003 55.155233 
" clip-path="url(#p98ea034b0a)" style="fill: none; stroke: #d62728; stroke-width: 1.5; stroke-linecap: square"/>
   </g>
   <g id="line2d_27">
    <path d="M 129.195065 271.63459 
L 134.670822 271.288965 
L 140.146579 271.31529 
L 145.622336 271.430169 
L 151.098093 271.266623 
L 156.57385 271.497796 
L 162.049607 270.721877 
L 167.525364 271.657411 
L 173.001121 271.696226 
L 178.476878 271.424712 
L 183.952635 270.984087 
L 189.428392 271.823098 
L 194.904149 271.69348 
L 200.379906 271.733526 
L 205.855663 271.825337 
L 211.331419 271.760222 
L 216.807176 271.759568 
L 222.282933 271.828645 
L 227.75869 271.800033 
L 233.234447 271.571447 
L 238.710204 271.616131 
L 244.185961 271.267797 
L 249.661718 271.269062 
L 255.137475 271.415949 
L 260.613232 271.268879 
L 266.088989 271.305902 
L 271.564746 271.567656 
L 277.040503 271.454339 
L 282.51626 271.279352 
L 287.992017 271.337905 
L 293.467774 271.454701 
L 298.943531 271.024672 
L 304.419288 269.996124 
L 309.895045 270.561692 
L 315.370801 270.685393 
L 320.846558 269.670212 
L 326.322315 269.63415 
L 331.798072 270.640595 
L 337.273829 270.640699 
L 342.749586 269.633748 
L 348.225343 270.685726 
L 353.7011 270.529685 
L 359.176857 270.529757 
L 364.652614 270.500418 
L 370.128371 268.41577 
L 375.604128 270.50558 
L 381.079885 270.550112 
L 386.555642 268.414996 
L 392.031399 268.342511 
L 397.507156 266.512032 
L 402.982913 266.290939 
L 408.45867 266.290699 
L 413.934427 265.237185 
L 419.410184 264.231036 
L 424.88594 264.660387 
L 430.361697 264.031146 
L 435.837454 55.030362 
L 441.313211 55.030174 
L 446.788968 55.029994 
L 452.264725 55.02982 
L 457.740482 55.029652 
L 463.216239 55.029491 
L 468.691996 55.029335 
L 474.167753 55.029185 
L 479.64351 55.029044 
L 485.119267 55.028943 
L 490.595024 55.028859 
L 496.070781 55.02873 
L 501.546538 55.02865 
L 507.022295 55.028536 
L 512.498052 55.028468 
L 517.973809 55.028373 
L 523.449566 55.028315 
L 528.925322 55.028246 
L 534.401079 55.028199 
L 539.876836 55.028155 
L 545.352593 55.028077 
L 550.82835 55.028048 
L 556.304107 55.027944 
L 561.779864 55.027602 
L 567.255621 55.027624 
L 572.731378 55.027601 
L 578.207135 55.027335 
L 583.682892 55.027311 
L 589.158649 55.02723 
L 594.634406 55.027141 
L 600.110163 55.027182 
L 605.58592 55.02715 
L 611.061677 55.027103 
L 616.537434 55.02698 
L 622.013191 55.02696 
L 627.488948 55.026904 
L 632.964704 55.026644 
L 638.440461 55.026543 
L 643.916218 55.026493 
L 649.391975 55.026541 
L 654.867732 55.026417 
L 660.343489 55.026343 
L 665.819246 55.026371 
L 671.295003 55.026209 
" clip-path="url(#p98ea034b0a)" style="fill: none; stroke: #9467bd; stroke-width: 1.5; stroke-linecap: square"/>
   </g>
   <g id="patch_3">
    <path d="M 102.090068 305.802897 
L 102.090068 21.6 
" style="fill: none; stroke: #000000; stroke-width: 0.8; stroke-linejoin: miter; stroke-linecap: square"/>
   </g>
   <g id="patch_4">
    <path d="M 698.4 305.802897 
L 698.4 21.6 
" style="fill: none; stroke: #000000; stroke-width: 0.8; stroke-linejoin: miter; stroke-linecap: square"/>
   </g>
   <g id="patch_5">
    <path d="M 102.090068 305.802897 
L 698.4 305.802897 
" style="fill: none; stroke: #000000; stroke-width: 0.8; stroke-linejoin: miter; stroke-linecap: square"/>
   </g>
   <g id="patch_6">
    <path d="M 102.090068 21.6 
L 698.4 21.6 
" style="fill: none; stroke: #000000; stroke-width: 0.8; stroke-linejoin: miter; stroke-linecap: square"/>
   </g>
   <g id="legend_1">
    <g id="patch_7">
     <path d="M 596.313906 218.21581 
L 687.9 218.21581 
Q 690.9 218.21581 690.9 215.21581 
L 690.9 112.187087 
Q 690.9 109.187087 687.9 109.187087 
L 596.313906 109.187087 
Q 593.313906 109.187087 593.313906 112.187087 
L 593.313906 215.21581 
Q 593.313906 218.21581 596.313906 218.21581 
z
" style="fill: #ffffff; opacity: 0.8; stroke: #cccccc; stroke-linejoin: miter"/>
    </g>
    <g id="line2d_28">
     <path d="M 599.313906 120.437087 
L 614.313906 120.437087 
L 629.313906 120.437087 
" style="fill: none; stroke: #1f77b4; stroke-width: 1.5; stroke-linecap: square"/>
    </g>
    <g id="text_11">
     <!-- N=10 -->
     <g transform="translate(641.313906 125.687087)scale(0.15 -0.15)">
      <defs>
       <path id="CMSS17-4e" d="M 1466 4179 
L 1350 4416 
L 563 4416 
L 563 0 
L 1062 0 
L 1062 3925 
L 1069 3931 
C 1114 3817 1139 3759 1402 3193 
L 2771 236 
L 2886 0 
L 3674 0 
L 3674 4416 
L 3174 4416 
L 3174 490 
L 3168 484 
C 3123 598 3098 655 2835 1222 
L 1466 4179 
z
" transform="scale(0.015625)"/>
       <path id="CMSS17-3d" d="M 4147 2048 
C 4243 2048 4339 2048 4339 2156 
C 4339 2272 4230 2272 4122 2272 
L 550 2272 
C 442 2272 333 2272 333 2156 
C 333 2048 429 2048 525 2048 
L 4147 2048 
z
M 4122 927 
C 4230 927 4339 927 4339 1043 
C 4339 1152 4243 1152 4147 1152 
L 525 1152 
C 429 1152 333 1152 333 1043 
C 333 927 442 927 550 927 
L 4122 927 
z
" transform="scale(0.015625)"/>
       <path id="CMSS17-31" d="M 1818 4288 
L 1696 4288 
C 1350 3949 947 3902 538 3891 
L 538 3520 
C 723 3526 1024 3539 1325 3673 
L 1325 371 
L 570 371 
L 570 0 
L 2573 0 
L 2573 371 
L 1818 371 
L 1818 4288 
z
" transform="scale(0.015625)"/>
       <path id="CMSS17-30" d="M 2758 2073 
C 2758 2439 2752 3120 2490 3647 
C 2227 4153 1805 4288 1504 4288 
C 1069 4288 698 4031 506 3621 
C 301 3191 243 2748 243 2073 
C 243 1611 262 1046 493 551 
C 755 6 1197 -128 1498 -128 
C 1894 -128 2278 83 2496 525 
C 2720 988 2758 1495 2758 2073 
z
M 1498 262 
C 1011 262 864 821 819 1007 
C 742 1328 730 1636 730 2144 
C 730 2542 730 2992 851 3345 
C 998 3756 1254 3897 1498 3897 
C 1971 3897 2125 3422 2176 3255 
C 2272 2915 2272 2516 2272 2144 
C 2272 1546 2272 262 1498 262 
z
" transform="scale(0.015625)"/>
      </defs>
      <use xlink:href="#CMSS17-4e" transform="scale(0.996264)"/>
      <use xlink:href="#CMSS17-3d" transform="translate(66.061519 0)scale(0.996264)"/>
      <use xlink:href="#CMSS17-31" transform="translate(138.929454 0)scale(0.996264)"/>
      <use xlink:href="#CMSS17-30" transform="translate(185.773078 0)scale(0.996264)"/>
     </g>
    </g>
    <g id="line2d_29">
     <path d="M 599.313906 141.342831 
L 614.313906 141.342831 
L 629.313906 141.342831 
" style="fill: none; stroke: #ff7f0e; stroke-width: 1.5; stroke-linecap: square"/>
    </g>
    <g id="text_12">
     <!-- N=20 -->
     <g transform="translate(641.313906 146.592831)scale(0.15 -0.15)">
      <defs>
       <path id="CMSS17-32" d="M 1651 1353 
C 1830 1538 2099 1761 2285 1984 
C 2464 2201 2701 2507 2701 2953 
C 2701 3655 2227 4288 1421 4288 
C 787 4288 422 3891 250 3272 
L 499 2928 
C 640 3508 838 3878 1338 3878 
C 1888 3878 2195 3431 2195 2940 
C 2195 2354 1747 1901 1408 1563 
C 1030 1187 659 805 301 409 
L 301 0 
L 2701 0 
L 2701 435 
L 1613 435 
C 1536 435 1459 428 1382 428 
L 742 428 
L 742 435 
L 1651 1353 
z
" transform="scale(0.015625)"/>
      </defs>
      <use xlink:href="#CMSS17-4e" transform="scale(0.996264)"/>
      <use xlink:href="#CMSS17-3d" transform="translate(66.061519 0)scale(0.996264)"/>
      <use xlink:href="#CMSS17-32" transform="translate(138.929454 0)scale(0.996264)"/>
      <use xlink:href="#CMSS17-30" transform="translate(185.773078 0)scale(0.996264)"/>
     </g>
    </g>
    <g id="line2d_30">
     <path d="M 599.313906 162.248576 
L 614.313906 162.248576 
L 629.313906 162.248576 
" style="fill: none; stroke: #2ca02c; stroke-width: 1.5; stroke-linecap: square"/>
    </g>
    <g id="text_13">
     <!-- N=30 -->
     <g transform="translate(641.313906 167.498576)scale(0.15 -0.15)">
      <defs>
       <path id="CMSS17-33" d="M 1005 2060 
L 1440 2060 
C 2042 2060 2214 1532 2214 1164 
C 2214 662 1933 268 1472 268 
C 1114 268 608 449 320 926 
C 275 700 275 687 250 533 
C 550 89 1037 -128 1485 -128 
C 2214 -128 2752 481 2752 1158 
C 2752 1667 2400 2092 1920 2252 
C 2304 2463 2586 2860 2586 3321 
C 2586 3859 2093 4288 1491 4288 
C 941 4288 512 3948 333 3583 
C 378 3519 493 3334 550 3238 
C 691 3615 1056 3897 1485 3897 
C 1843 3897 2080 3660 2080 3321 
C 2080 2969 1856 2585 1478 2496 
C 1453 2496 1056 2457 1005 2451 
L 1005 2060 
z
" transform="scale(0.015625)"/>
      </defs>
      <use xlink:href="#CMSS17-4e" transform="scale(0.996264)"/>
      <use xlink:href="#CMSS17-3d" transform="translate(66.061519 0)scale(0.996264)"/>
      <use xlink:href="#CMSS17-33" transform="translate(138.929454 0)scale(0.996264)"/>
      <use xlink:href="#CMSS17-30" transform="translate(185.773078 0)scale(0.996264)"/>
     </g>
    </g>
    <g id="line2d_31">
     <path d="M 599.313906 183.154321 
L 614.313906 183.154321 
L 629.313906 183.154321 
" style="fill: none; stroke: #d62728; stroke-width: 1.5; stroke-linecap: square"/>
    </g>
    <g id="text_14">
     <!-- N=50 -->
     <g transform="translate(641.313906 188.404321)scale(0.15 -0.15)">
      <defs>
       <path id="CMSS17-35" d="M 934 3814 
L 2502 3814 
L 2502 4224 
L 467 4224 
L 467 1830 
L 896 1830 
C 1011 2103 1248 2304 1555 2304 
C 1843 2304 2163 2044 2163 1299 
C 2163 502 1709 268 1376 268 
C 966 268 589 521 422 871 
L 218 508 
C 512 51 992 -128 1376 -128 
C 2118 -128 2701 508 2701 1286 
C 2701 2083 2182 2694 1562 2694 
C 1338 2694 1120 2617 934 2464 
L 934 3814 
z
" transform="scale(0.015625)"/>
      </defs>
      <use xlink:href="#CMSS17-4e" transform="scale(0.996264)"/>
      <use xlink:href="#CMSS17-3d" transform="translate(66.061519 0)scale(0.996264)"/>
      <use xlink:href="#CMSS17-35" transform="translate(138.929454 0)scale(0.996264)"/>
      <use xlink:href="#CMSS17-30" transform="translate(185.773078 0)scale(0.996264)"/>
     </g>
    </g>
    <g id="line2d_32">
     <path d="M 599.313906 204.060065 
L 614.313906 204.060065 
L 629.313906 204.060065 
" style="fill: none; stroke: #9467bd; stroke-width: 1.5; stroke-linecap: square"/>
    </g>
    <g id="text_15">
     <!-- N=100 -->
     <g transform="translate(641.313906 209.310065)scale(0.15 -0.15)">
      <use xlink:href="#CMSS17-4e" transform="scale(0.996264)"/>
      <use xlink:href="#CMSS17-3d" transform="translate(66.061519 0)scale(0.996264)"/>
      <use xlink:href="#CMSS17-31" transform="translate(138.929454 0)scale(0.996264)"/>
      <use xlink:href="#CMSS17-30" transform="translate(185.773078 0)scale(0.996264)"/>
      <use xlink:href="#CMSS17-30" transform="translate(232.616701 0)scale(0.996264)"/>
     </g>
    </g>
   </g>
  </g>
  <g id="axes_2">
   <g id="patch_8">
    <path d="M 102.090068 644.474739 
L 698.4 644.474739 
L 698.4 360.271842 
L 102.090068 360.271842 
z
" style="fill: #ffffff"/>
   </g>
   <g id="PathCollection_1">
    <defs>
     <path id="m0ca567e7c1" d="M 0 3 
C 0.795609 3 1.55874 2.683901 2.12132 2.12132 
C 2.683901 1.55874 3 0.795609 3 0 
C 3 -0.795609 2.683901 -1.55874 2.12132 -2.12132 
C 1.55874 -2.683901 0.795609 -3 0 -3 
C -0.795609 -3 -1.55874 -2.683901 -2.12132 -2.12132 
C -2.683901 -1.55874 -3 -0.795609 -3 0 
C -3 0.795609 -2.683901 1.55874 -2.12132 2.12132 
C -1.55874 2.683901 -0.795609 3 0 3 
z
" style="stroke: #1f77b4"/>
    </defs>
    <g clip-path="url(#p785ae7c292)">
     <use xlink:href="#m0ca567e7c1" x="129.195065" y="373.190156" style="fill: #1f77b4; stroke: #1f77b4"/>
     <use xlink:href="#m0ca567e7c1" x="189.428392" y="492.854914" style="fill: #1f77b4; stroke: #1f77b4"/>
     <use xlink:href="#m0ca567e7c1" x="249.661718" y="543.875131" style="fill: #1f77b4; stroke: #1f77b4"/>
     <use xlink:href="#m0ca567e7c1" x="370.128371" y="591.056456" style="fill: #1f77b4; stroke: #1f77b4"/>
     <use xlink:href="#m0ca567e7c1" x="671.295003" y="631.556426" style="fill: #1f77b4; stroke: #1f77b4"/>
    </g>
   </g>
   <g id="matplotlib.axis_3">
    <g id="xtick_17">
     <g id="line2d_33">
      <g>
       <use xlink:href="#m369d36b0fc" x="189.428392" y="644.474739" style="stroke: #000000; stroke-width: 0.8"/>
      </g>
     </g>
     <g id="text_16">
      <!-- $\mathdefault{20}$ -->
      <g transform="translate(180.290296 661.811736)scale(0.2 -0.2)">
       <use xlink:href="#CMR17-32" transform="scale(0.996264)"/>
       <use xlink:href="#CMR17-30" transform="translate(45.690477 0)scale(0.996264)"/>
      </g>
     </g>
    </g>
    <g id="xtick_18">
     <g id="line2d_34">
      <g>
       <use xlink:href="#m369d36b0fc" x="309.895045" y="644.474739" style="stroke: #000000; stroke-width: 0.8"/>
      </g>
     </g>
     <g id="text_17">
      <!-- $\mathdefault{40}$ -->
      <g transform="translate(300.756949 661.811736)scale(0.2 -0.2)">
       <use xlink:href="#CMR17-34" transform="scale(0.996264)"/>
       <use xlink:href="#CMR17-30" transform="translate(45.690477 0)scale(0.996264)"/>
      </g>
     </g>
    </g>
    <g id="xtick_19">
     <g id="line2d_35">
      <g>
       <use xlink:href="#m369d36b0fc" x="430.361697" y="644.474739" style="stroke: #000000; stroke-width: 0.8"/>
      </g>
     </g>
     <g id="text_18">
      <!-- $\mathdefault{60}$ -->
      <g transform="translate(421.223602 661.811736)scale(0.2 -0.2)">
       <use xlink:href="#CMR17-36" transform="scale(0.996264)"/>
       <use xlink:href="#CMR17-30" transform="translate(45.690477 0)scale(0.996264)"/>
      </g>
     </g>
    </g>
    <g id="xtick_20">
     <g id="line2d_36">
      <g>
       <use xlink:href="#m369d36b0fc" x="550.82835" y="644.474739" style="stroke: #000000; stroke-width: 0.8"/>
      </g>
     </g>
     <g id="text_19">
      <!-- $\mathdefault{80}$ -->
      <g transform="translate(541.690255 661.811736)scale(0.2 -0.2)">
       <use xlink:href="#CMR17-38" transform="scale(0.996264)"/>
       <use xlink:href="#CMR17-30" transform="translate(45.690477 0)scale(0.996264)"/>
      </g>
     </g>
    </g>
    <g id="xtick_21">
     <g id="line2d_37">
      <g>
       <use xlink:href="#m369d36b0fc" x="671.295003" y="644.474739" style="stroke: #000000; stroke-width: 0.8"/>
      </g>
     </g>
     <g id="text_20">
      <!-- $\mathdefault{100}$ -->
      <g transform="translate(657.58786 661.811736)scale(0.2 -0.2)">
       <use xlink:href="#CMR17-31" transform="scale(0.996264)"/>
       <use xlink:href="#CMR17-30" transform="translate(45.690477 0)scale(0.996264)"/>
       <use xlink:href="#CMR17-30" transform="translate(91.380954 0)scale(0.996264)"/>
      </g>
     </g>
    </g>
    <g id="text_21">
     <!-- N -->
     <g transform="translate(393.638887 694.524366)scale(0.2 -0.2)">
      <use xlink:href="#CMSS17-4e" transform="scale(0.996264)"/>
     </g>
    </g>
   </g>
   <g id="matplotlib.axis_4">
    <g id="ytick_7">
     <g id="line2d_38">
      <g>
       <use xlink:href="#mcef082b775" x="102.090068" y="626.605066" style="stroke: #000000; stroke-width: 0.8"/>
      </g>
     </g>
     <g id="text_22">
      <!-- $\mathdefault{0.05}$ -->
      <g transform="translate(65.756347 633.523564)scale(0.2 -0.2)">
       <defs>
        <path id="CMR17-35" d="M 730 3750 
C 794 3724 1056 3641 1325 3641 
C 1920 3641 2246 3961 2432 4140 
C 2432 4191 2432 4224 2394 4224 
C 2387 4224 2374 4224 2323 4198 
C 2099 4102 1837 4032 1517 4032 
C 1325 4032 1037 4055 723 4191 
C 653 4224 640 4224 634 4224 
C 602 4224 595 4217 595 4090 
L 595 2231 
C 595 2113 595 2080 659 2080 
C 691 2080 704 2093 736 2139 
C 941 2435 1222 2560 1542 2560 
C 1766 2560 2246 2415 2246 1293 
C 2246 1087 2246 716 2054 422 
C 1894 159 1645 25 1370 25 
C 947 25 518 319 403 812 
C 429 806 480 793 506 793 
C 589 793 749 838 749 1036 
C 749 1209 627 1280 506 1280 
C 358 1280 262 1190 262 1011 
C 262 454 704 -128 1382 -128 
C 2042 -128 2669 441 2669 1267 
C 2669 2054 2170 2662 1549 2662 
C 1222 2662 947 2540 730 2304 
L 730 3750 
z
" transform="scale(0.015625)"/>
       </defs>
       <use xlink:href="#CMR17-30" transform="scale(0.996264)"/>
       <use xlink:href="#CMMI12-3a" transform="translate(45.690477 0)scale(0.996264)"/>
       <use xlink:href="#CMR17-30" transform="translate(72.787654 0)scale(0.996264)"/>
       <use xlink:href="#CMR17-35" transform="translate(118.478131 0)scale(0.996264)"/>
      </g>
     </g>
    </g>
    <g id="ytick_8">
     <g id="line2d_39">
      <g>
       <use xlink:href="#mcef082b775" x="102.090068" y="569.589468" style="stroke: #000000; stroke-width: 0.8"/>
      </g>
     </g>
     <g id="text_23">
      <!-- $\mathdefault{0.10}$ -->
      <g transform="translate(65.756347 576.507966)scale(0.2 -0.2)">
       <use xlink:href="#CMR17-30" transform="scale(0.996264)"/>
       <use xlink:href="#CMMI12-3a" transform="translate(45.690477 0)scale(0.996264)"/>
       <use xlink:href="#CMR17-31" transform="translate(72.787654 0)scale(0.996264)"/>
       <use xlink:href="#CMR17-30" transform="translate(118.478131 0)scale(0.996264)"/>
      </g>
     </g>
    </g>
    <g id="ytick_9">
     <g id="line2d_40">
      <g>
       <use xlink:href="#mcef082b775" x="102.090068" y="512.573869" style="stroke: #000000; stroke-width: 0.8"/>
      </g>
     </g>
     <g id="text_24">
      <!-- $\mathdefault{0.15}$ -->
      <g transform="translate(65.756347 519.492368)scale(0.2 -0.2)">
       <use xlink:href="#CMR17-30" transform="scale(0.996264)"/>
       <use xlink:href="#CMMI12-3a" transform="translate(45.690477 0)scale(0.996264)"/>
       <use xlink:href="#CMR17-31" transform="translate(72.787654 0)scale(0.996264)"/>
       <use xlink:href="#CMR17-35" transform="translate(118.478131 0)scale(0.996264)"/>
      </g>
     </g>
    </g>
    <g id="ytick_10">
     <g id="line2d_41">
      <g>
       <use xlink:href="#mcef082b775" x="102.090068" y="455.558271" style="stroke: #000000; stroke-width: 0.8"/>
      </g>
     </g>
     <g id="text_25">
      <!-- $\mathdefault{0.20}$ -->
      <g transform="translate(65.756347 462.47677)scale(0.2 -0.2)">
       <use xlink:href="#CMR17-30" transform="scale(0.996264)"/>
       <use xlink:href="#CMMI12-3a" transform="translate(45.690477 0)scale(0.996264)"/>
       <use xlink:href="#CMR17-32" transform="translate(72.787654 0)scale(0.996264)"/>
       <use xlink:href="#CMR17-30" transform="translate(118.478131 0)scale(0.996264)"/>
      </g>
     </g>
    </g>
    <g id="ytick_11">
     <g id="line2d_42">
      <g>
       <use xlink:href="#mcef082b775" x="102.090068" y="398.542673" style="stroke: #000000; stroke-width: 0.8"/>
      </g>
     </g>
     <g id="text_26">
      <!-- $\mathdefault{0.25}$ -->
      <g transform="translate(65.756347 405.461171)scale(0.2 -0.2)">
       <use xlink:href="#CMR17-30" transform="scale(0.996264)"/>
       <use xlink:href="#CMMI12-3a" transform="translate(45.690477 0)scale(0.996264)"/>
       <use xlink:href="#CMR17-32" transform="translate(72.787654 0)scale(0.996264)"/>
       <use xlink:href="#CMR17-35" transform="translate(118.478131 0)scale(0.996264)"/>
      </g>
     </g>
    </g>
    <g id="text_27">
     <!-- $\phi^{}_{{\tiny IPR}}$ -->
     <g transform="translate(38.896223 527.224116)rotate(-90)scale(0.25 -0.25)">
      <use xlink:href="#CMMI12-1e" transform="scale(0.996264)"/>
      <use xlink:href="#CMMI12-49" transform="translate(57.73418 -27.44057)scale(0.697382)"/>
      <use xlink:href="#CMMI12-50" transform="translate(93.333562 -27.44057)scale(0.697382)"/>
      <use xlink:href="#CMMI12-52" transform="translate(146.831386 -27.44057)scale(0.697382)"/>
     </g>
    </g>
   </g>
   <g id="line2d_43">
    <path d="M 129.195065 373.190156 
L 189.428392 492.854914 
L 249.661718 543.875131 
L 370.128371 591.056456 
L 671.295003 631.556426 
" clip-path="url(#p785ae7c292)" style="fill: none; stroke: #1f77b4; stroke-width: 1.5; stroke-linecap: square"/>
   </g>
   <g id="patch_9">
    <path d="M 102.090068 644.474739 
L 102.090068 360.271842 
" style="fill: none; stroke: #000000; stroke-width: 0.8; stroke-linejoin: miter; stroke-linecap: square"/>
   </g>
   <g id="patch_10">
    <path d="M 698.4 644.474739 
L 698.4 360.271842 
" style="fill: none; stroke: #000000; stroke-width: 0.8; stroke-linejoin: miter; stroke-linecap: square"/>
   </g>
   <g id="patch_11">
    <path d="M 102.090068 644.474739 
L 698.4 644.474739 
" style="fill: none; stroke: #000000; stroke-width: 0.8; stroke-linejoin: miter; stroke-linecap: square"/>
   </g>
   <g id="patch_12">
    <path d="M 102.090068 360.271842 
L 698.4 360.271842 
" style="fill: none; stroke: #000000; stroke-width: 0.8; stroke-linejoin: miter; stroke-linecap: square"/>
   </g>
   <g id="legend_2">
    <g id="patch_13">
     <path d="M 584.556011 515.076163 
L 687.9 515.076163 
Q 690.9 515.076163 690.9 512.076163 
L 690.9 492.670418 
Q 690.9 489.670418 687.9 489.670418 
L 584.556011 489.670418 
Q 581.556011 489.670418 581.556011 492.670418 
L 581.556011 512.076163 
Q 581.556011 515.076163 584.556011 515.076163 
z
" style="fill: #ffffff; opacity: 0.8; stroke: #cccccc; stroke-linejoin: miter"/>
    </g>
    <g id="line2d_44">
     <path d="M 587.556011 500.920418 
L 602.556011 500.920418 
L 617.556011 500.920418 
" style="fill: none; stroke: #1f77b4; stroke-width: 1.5; stroke-linecap: square"/>
    </g>
    <g id="text_28">
     <!-- $\omega = 2.69$ -->
     <g transform="translate(629.556011 506.170418)scale(0.15 -0.15)">
      <defs>
       <path id="CMR17-3d" d="M 4115 2048 
C 4211 2048 4307 2048 4307 2156 
C 4307 2272 4198 2272 4090 2272 
L 512 2272 
C 403 2272 294 2272 294 2156 
C 294 2048 390 2048 486 2048 
L 4115 2048 
z
M 4090 927 
C 4198 927 4307 927 4307 1043 
C 4307 1152 4211 1152 4115 1152 
L 486 1152 
C 390 1152 294 1152 294 1043 
C 294 927 403 927 512 927 
L 4090 927 
z
" transform="scale(0.015625)"/>
       <path id="CMR17-39" d="M 2253 1871 
C 2253 448 1670 25 1190 25 
C 1043 25 685 43 538 281 
C 704 256 826 345 826 505 
C 826 678 685 736 595 736 
C 538 736 365 710 365 492 
C 365 68 742 -128 1203 -128 
C 1939 -128 2688 665 2688 2090 
C 2688 3857 1971 4224 1485 4224 
C 851 4224 243 3664 243 2800 
C 243 2000 762 1408 1414 1408 
C 1952 1408 2189 1910 2253 2122 
L 2253 1871 
z
M 1427 1510 
C 1254 1510 1011 1542 813 1929 
C 678 2181 678 2477 678 2793 
C 678 3174 678 3438 858 3722 
C 947 3857 1114 4076 1485 4076 
C 2240 4076 2240 2909 2240 2651 
C 2240 2193 2035 1510 1427 1510 
z
" transform="scale(0.015625)"/>
      </defs>
      <use xlink:href="#CMMI12-21" transform="scale(0.996264)"/>
      <use xlink:href="#CMR17-3d" transform="translate(91.992355 0)scale(0.996264)"/>
      <use xlink:href="#CMR17-32" transform="translate(191.381152 0)scale(0.996264)"/>
      <use xlink:href="#CMMI12-3a" transform="translate(237.071629 0)scale(0.996264)"/>
      <use xlink:href="#CMR17-36" transform="translate(264.168806 0)scale(0.996264)"/>
      <use xlink:href="#CMR17-39" transform="translate(309.859283 0)scale(0.996264)"/>
     </g>
    </g>
   </g>
  </g>
 </g>
 <defs>
  <clipPath id="p98ea034b0a">
   <rect x="102.090068" y="21.6" width="596.309932" height="284.202897"/>
  </clipPath>
  <clipPath id="p785ae7c292">
   <rect x="102.090068" y="360.271842" width="596.309932" height="284.202897"/>
  </clipPath>
 </defs>
</svg>
